G04 #@! TF.GenerationSoftware,KiCad,Pcbnew,8.0.4*
G04 #@! TF.CreationDate,2024-09-09T22:35:46-05:00*
G04 #@! TF.ProjectId,TPM-IO-BOARD,54504d2d-494f-42d4-924f-4152442e6b69,rev?*
G04 #@! TF.SameCoordinates,Original*
G04 #@! TF.FileFunction,Copper,L3,Inr*
G04 #@! TF.FilePolarity,Positive*
%FSLAX46Y46*%
G04 Gerber Fmt 4.6, Leading zero omitted, Abs format (unit mm)*
G04 Created by KiCad (PCBNEW 8.0.4) date 2024-09-09 22:35:46*
%MOMM*%
%LPD*%
G01*
G04 APERTURE LIST*
G04 #@! TA.AperFunction,ComponentPad*
%ADD10C,1.524000*%
G04 #@! TD*
G04 #@! TA.AperFunction,ComponentPad*
%ADD11C,1.371600*%
G04 #@! TD*
G04 #@! TA.AperFunction,ComponentPad*
%ADD12C,2.100000*%
G04 #@! TD*
G04 #@! TA.AperFunction,ComponentPad*
%ADD13C,1.701800*%
G04 #@! TD*
G04 #@! TA.AperFunction,ComponentPad*
%ADD14R,1.700000X1.700000*%
G04 #@! TD*
G04 #@! TA.AperFunction,ComponentPad*
%ADD15O,1.700000X1.700000*%
G04 #@! TD*
G04 #@! TA.AperFunction,ViaPad*
%ADD16C,0.900000*%
G04 #@! TD*
G04 APERTURE END LIST*
D10*
X114540000Y-70000000D03*
X112000000Y-70000000D03*
D11*
X168166750Y-60000000D03*
X173166750Y-60000000D03*
D12*
X188250000Y-95600000D03*
X191750000Y-95600000D03*
X178750000Y-95600000D03*
X182250000Y-95600000D03*
X190100000Y-62250000D03*
X190100000Y-58750000D03*
D13*
X104823590Y-56567399D03*
X104823590Y-60067400D03*
X104823590Y-63567400D03*
D12*
X131250000Y-95600000D03*
X134750000Y-95600000D03*
X121750000Y-95600000D03*
X125250000Y-95600000D03*
D11*
X168166750Y-48500000D03*
X173166750Y-48500000D03*
D12*
X190100000Y-90750000D03*
X190100000Y-87250000D03*
D11*
X168166750Y-71750000D03*
X173166750Y-71750000D03*
D13*
X104823590Y-69567399D03*
X104823590Y-73067400D03*
X104823590Y-76567400D03*
D12*
X190100000Y-81250000D03*
X190100000Y-77750000D03*
X150250000Y-95600000D03*
X153750000Y-95600000D03*
X169250000Y-95600000D03*
X172750000Y-95600000D03*
X140750000Y-95600000D03*
X144250000Y-95600000D03*
X190100000Y-71750000D03*
X190100000Y-68250000D03*
D13*
X190176410Y-52932601D03*
X190176410Y-49432600D03*
X190176410Y-45932600D03*
D12*
X104900000Y-82750000D03*
X104900000Y-86250000D03*
X112250000Y-95600000D03*
X115750000Y-95600000D03*
D14*
X108370000Y-48770000D03*
D15*
X108370000Y-46230000D03*
X110910000Y-48770000D03*
X110910000Y-46230000D03*
X113450000Y-48770000D03*
X113450000Y-46230000D03*
X115990000Y-48770000D03*
X115990000Y-46230000D03*
X118530000Y-48770000D03*
X118530000Y-46230000D03*
X121070000Y-48770000D03*
X121070000Y-46230000D03*
X123610000Y-48770000D03*
X123610000Y-46230000D03*
X126150000Y-48770000D03*
X126150000Y-46230000D03*
X128690000Y-48770000D03*
X128690000Y-46230000D03*
X131230000Y-48770000D03*
X131230000Y-46230000D03*
X133770000Y-48770000D03*
X133770000Y-46230000D03*
X136310000Y-48770000D03*
X136310000Y-46230000D03*
X138850000Y-48770000D03*
X138850000Y-46230000D03*
X141390000Y-48770000D03*
X141390000Y-46230000D03*
X143930000Y-48770000D03*
X143930000Y-46230000D03*
X146470000Y-48770000D03*
X146470000Y-46230000D03*
X149010000Y-48770000D03*
X149010000Y-46230000D03*
X151550000Y-48770000D03*
X151550000Y-46230000D03*
X154090000Y-48770000D03*
X154090000Y-46230000D03*
X156630000Y-48770000D03*
X156630000Y-46230000D03*
D16*
X111500000Y-85500000D03*
X179927967Y-81971511D03*
X166528489Y-85500000D03*
X111000000Y-77000000D03*
X140028489Y-85427967D03*
X179927967Y-62971511D03*
X135250000Y-59750000D03*
X179927967Y-72471511D03*
X121028489Y-85427967D03*
X128500000Y-55000000D03*
X110500000Y-84500000D03*
X174028489Y-85340179D03*
X184000000Y-50175000D03*
X181527436Y-85340179D03*
X159000000Y-85500000D03*
X149528489Y-85427967D03*
X126500000Y-61000000D03*
X130528489Y-85427967D03*
X135250000Y-62250000D03*
X126500000Y-62000000D03*
X122035146Y-84984518D03*
X119000000Y-85500000D03*
X131535146Y-84984518D03*
X141035146Y-84984518D03*
X142000000Y-83500000D03*
X160000000Y-85000000D03*
X167000000Y-84500000D03*
X172000000Y-84000000D03*
X177500000Y-84500000D03*
X179500000Y-80500000D03*
X172000000Y-78250000D03*
X178500000Y-62000000D03*
X185750000Y-53750000D03*
X140750000Y-59750000D03*
X126500000Y-64500000D03*
X179000000Y-56500000D03*
X113000000Y-79500000D03*
X126500000Y-67500000D03*
X158500000Y-95000000D03*
X146000000Y-94000000D03*
X142597157Y-89179577D03*
X169097157Y-89251610D03*
X114068668Y-89251610D03*
X184096104Y-89091789D03*
X176597157Y-89091789D03*
X183679577Y-69902843D03*
X123597157Y-89179577D03*
X174251915Y-90174577D03*
X152097157Y-89179577D03*
X183679577Y-79402843D03*
X182000000Y-90000000D03*
X133097157Y-89179577D03*
X161568668Y-89251610D03*
X167000000Y-90500000D03*
X183679577Y-60402843D03*
X141250000Y-64500000D03*
X117580222Y-65436627D03*
X114500000Y-94000000D03*
X145000000Y-93500000D03*
X171500000Y-94000000D03*
X184527436Y-93840179D03*
X188427967Y-69471511D03*
X124028489Y-93927967D03*
X135500000Y-65250000D03*
X188427967Y-59971511D03*
X152528489Y-93927967D03*
X188427967Y-78971511D03*
X177028489Y-93840179D03*
X133528489Y-93927967D03*
X143028489Y-93927967D03*
X162000000Y-94000000D03*
X183500000Y-45500000D03*
G04 #@! TA.AperFunction,Conductor*
G36*
X191966305Y-42066033D02*
G01*
X191966916Y-42066130D01*
X191985969Y-42066081D01*
X191985971Y-42066082D01*
X191998921Y-42066048D01*
X192005831Y-42066224D01*
X192324868Y-42083311D01*
X192338656Y-42084830D01*
X192650305Y-42136951D01*
X192663858Y-42140007D01*
X192823975Y-42185687D01*
X192967697Y-42226689D01*
X192980834Y-42231247D01*
X193273064Y-42351405D01*
X193285608Y-42357406D01*
X193562538Y-42509523D01*
X193574331Y-42516890D01*
X193832497Y-42699062D01*
X193843382Y-42707696D01*
X194079535Y-42917635D01*
X194089381Y-42927430D01*
X194300538Y-43162482D01*
X194309236Y-43173331D01*
X194492748Y-43430547D01*
X194500176Y-43442302D01*
X194653727Y-43718433D01*
X194659793Y-43730945D01*
X194781466Y-44022541D01*
X194786093Y-44035654D01*
X194874355Y-44339045D01*
X194877484Y-44352594D01*
X194931220Y-44663948D01*
X194932813Y-44677762D01*
X194949286Y-44958037D01*
X194949500Y-44965312D01*
X194949500Y-96996519D01*
X194949305Y-97003472D01*
X194931344Y-97323287D01*
X194929787Y-97337105D01*
X194876716Y-97649457D01*
X194873622Y-97663014D01*
X194785910Y-97967469D01*
X194781317Y-97980593D01*
X194660073Y-98273304D01*
X194654040Y-98285833D01*
X194500778Y-98563139D01*
X194493380Y-98574913D01*
X194310043Y-98833302D01*
X194301372Y-98844174D01*
X194090250Y-99080418D01*
X194080418Y-99090250D01*
X193844174Y-99301372D01*
X193833302Y-99310043D01*
X193574913Y-99493380D01*
X193563139Y-99500778D01*
X193285833Y-99654040D01*
X193273304Y-99660073D01*
X192980593Y-99781317D01*
X192967469Y-99785910D01*
X192663014Y-99873622D01*
X192649457Y-99876716D01*
X192337105Y-99929787D01*
X192323287Y-99931344D01*
X192003472Y-99949305D01*
X191996519Y-99949500D01*
X103003481Y-99949500D01*
X102996528Y-99949305D01*
X102676712Y-99931344D01*
X102662894Y-99929787D01*
X102350542Y-99876716D01*
X102336985Y-99873622D01*
X102032530Y-99785910D01*
X102019406Y-99781317D01*
X101726695Y-99660073D01*
X101714166Y-99654040D01*
X101436860Y-99500778D01*
X101425094Y-99493385D01*
X101166687Y-99310035D01*
X101155825Y-99301372D01*
X100919581Y-99090250D01*
X100909749Y-99080418D01*
X100698627Y-98844174D01*
X100689966Y-98833314D01*
X100506611Y-98574900D01*
X100499221Y-98563139D01*
X100345959Y-98285833D01*
X100339926Y-98273304D01*
X100218682Y-97980593D01*
X100214089Y-97967469D01*
X100126377Y-97663014D01*
X100123283Y-97649457D01*
X100094127Y-97477858D01*
X100070210Y-97337094D01*
X100068656Y-97323297D01*
X100050695Y-97003472D01*
X100050500Y-96996519D01*
X100050500Y-95600000D01*
X110695207Y-95600000D01*
X110714348Y-95843219D01*
X110771303Y-96080457D01*
X110864668Y-96305861D01*
X110988504Y-96507941D01*
X111610689Y-95885755D01*
X111629668Y-95931574D01*
X111706274Y-96046224D01*
X111803776Y-96143726D01*
X111918426Y-96220332D01*
X111964242Y-96239309D01*
X111342057Y-96861494D01*
X111544138Y-96985331D01*
X111769542Y-97078696D01*
X112006780Y-97135651D01*
X112006779Y-97135651D01*
X112250000Y-97154792D01*
X112493219Y-97135651D01*
X112730457Y-97078696D01*
X112955861Y-96985331D01*
X113157941Y-96861495D01*
X113157941Y-96861494D01*
X112535757Y-96239309D01*
X112581574Y-96220332D01*
X112696224Y-96143726D01*
X112793726Y-96046224D01*
X112870332Y-95931574D01*
X112889309Y-95885756D01*
X113511494Y-96507941D01*
X113511495Y-96507941D01*
X113635331Y-96305861D01*
X113728696Y-96080457D01*
X113785651Y-95843219D01*
X113804792Y-95600000D01*
X113785651Y-95356780D01*
X113728696Y-95119542D01*
X113635331Y-94894138D01*
X113511494Y-94692057D01*
X112889309Y-95314242D01*
X112870332Y-95268426D01*
X112793726Y-95153776D01*
X112696224Y-95056274D01*
X112581574Y-94979668D01*
X112535756Y-94960689D01*
X113157941Y-94338504D01*
X112955861Y-94214668D01*
X112730457Y-94121303D01*
X112493219Y-94064348D01*
X112493220Y-94064348D01*
X112250000Y-94045207D01*
X112006780Y-94064348D01*
X111769542Y-94121303D01*
X111544138Y-94214668D01*
X111342057Y-94338504D01*
X111964243Y-94960689D01*
X111918426Y-94979668D01*
X111803776Y-95056274D01*
X111706274Y-95153776D01*
X111629668Y-95268426D01*
X111610690Y-95314243D01*
X110988504Y-94692057D01*
X110864668Y-94894138D01*
X110771303Y-95119542D01*
X110714348Y-95356780D01*
X110695207Y-95600000D01*
X100050500Y-95600000D01*
X100050500Y-93999999D01*
X113844722Y-93999999D01*
X113844722Y-94000000D01*
X113863762Y-94156818D01*
X113892462Y-94232492D01*
X113919780Y-94304523D01*
X114009517Y-94434530D01*
X114127760Y-94539283D01*
X114127762Y-94539284D01*
X114267634Y-94612696D01*
X114421014Y-94650500D01*
X114421015Y-94650500D01*
X114578985Y-94650500D01*
X114632077Y-94637414D01*
X114701878Y-94640483D01*
X114758940Y-94680803D01*
X114785146Y-94745572D01*
X114772174Y-94814227D01*
X114763326Y-94828934D01*
X114662900Y-94972357D01*
X114662898Y-94972361D01*
X114570426Y-95170668D01*
X114570422Y-95170677D01*
X114513793Y-95382020D01*
X114513793Y-95382024D01*
X114494723Y-95599997D01*
X114494723Y-95600002D01*
X114513793Y-95817975D01*
X114513793Y-95817979D01*
X114570422Y-96029322D01*
X114570424Y-96029326D01*
X114570425Y-96029330D01*
X114578303Y-96046224D01*
X114662897Y-96227638D01*
X114662898Y-96227639D01*
X114788402Y-96406877D01*
X114943123Y-96561598D01*
X115122361Y-96687102D01*
X115320670Y-96779575D01*
X115532023Y-96836207D01*
X115714926Y-96852208D01*
X115749998Y-96855277D01*
X115750000Y-96855277D01*
X115750002Y-96855277D01*
X115778254Y-96852805D01*
X115967977Y-96836207D01*
X116179330Y-96779575D01*
X116377639Y-96687102D01*
X116556877Y-96561598D01*
X116711598Y-96406877D01*
X116837102Y-96227639D01*
X116929575Y-96029330D01*
X116986207Y-95817977D01*
X117005277Y-95600000D01*
X120195207Y-95600000D01*
X120214348Y-95843219D01*
X120271303Y-96080457D01*
X120364668Y-96305861D01*
X120488504Y-96507941D01*
X121110689Y-95885755D01*
X121129668Y-95931574D01*
X121206274Y-96046224D01*
X121303776Y-96143726D01*
X121418426Y-96220332D01*
X121464242Y-96239309D01*
X120842057Y-96861494D01*
X121044138Y-96985331D01*
X121269542Y-97078696D01*
X121506780Y-97135651D01*
X121506779Y-97135651D01*
X121750000Y-97154792D01*
X121993219Y-97135651D01*
X122230457Y-97078696D01*
X122455861Y-96985331D01*
X122657941Y-96861495D01*
X122657941Y-96861494D01*
X122035757Y-96239309D01*
X122081574Y-96220332D01*
X122196224Y-96143726D01*
X122293726Y-96046224D01*
X122370332Y-95931574D01*
X122389309Y-95885756D01*
X123011494Y-96507941D01*
X123011495Y-96507941D01*
X123135331Y-96305861D01*
X123228696Y-96080457D01*
X123285651Y-95843219D01*
X123304792Y-95600000D01*
X123285651Y-95356780D01*
X123228696Y-95119542D01*
X123135331Y-94894138D01*
X123011494Y-94692057D01*
X122389309Y-95314242D01*
X122370332Y-95268426D01*
X122293726Y-95153776D01*
X122196224Y-95056274D01*
X122081574Y-94979668D01*
X122035756Y-94960689D01*
X122657941Y-94338504D01*
X122455861Y-94214668D01*
X122230457Y-94121303D01*
X121993219Y-94064348D01*
X121993220Y-94064348D01*
X121750000Y-94045207D01*
X121506780Y-94064348D01*
X121269542Y-94121303D01*
X121044138Y-94214668D01*
X120842057Y-94338504D01*
X121464243Y-94960689D01*
X121418426Y-94979668D01*
X121303776Y-95056274D01*
X121206274Y-95153776D01*
X121129668Y-95268426D01*
X121110690Y-95314243D01*
X120488504Y-94692057D01*
X120364668Y-94894138D01*
X120271303Y-95119542D01*
X120214348Y-95356780D01*
X120195207Y-95600000D01*
X117005277Y-95600000D01*
X116986207Y-95382023D01*
X116929575Y-95170670D01*
X116837102Y-94972362D01*
X116837100Y-94972359D01*
X116837099Y-94972357D01*
X116711599Y-94793124D01*
X116650809Y-94732334D01*
X116556877Y-94638402D01*
X116377639Y-94512898D01*
X116377640Y-94512898D01*
X116377638Y-94512897D01*
X116248919Y-94452875D01*
X116179330Y-94420425D01*
X116179326Y-94420424D01*
X116179322Y-94420422D01*
X115967977Y-94363793D01*
X115750002Y-94344723D01*
X115749998Y-94344723D01*
X115604682Y-94357436D01*
X115532023Y-94363793D01*
X115532020Y-94363793D01*
X115320677Y-94420422D01*
X115320672Y-94420424D01*
X115251711Y-94452581D01*
X115182633Y-94463072D01*
X115118849Y-94434551D01*
X115080610Y-94376075D01*
X115080057Y-94306207D01*
X115083353Y-94296260D01*
X115136237Y-94156818D01*
X115155278Y-94000000D01*
X115146532Y-93927966D01*
X123373211Y-93927966D01*
X123373211Y-93927967D01*
X123392251Y-94084785D01*
X123417174Y-94150500D01*
X123448269Y-94232490D01*
X123538006Y-94362497D01*
X123656249Y-94467250D01*
X123656251Y-94467251D01*
X123796123Y-94540663D01*
X123949503Y-94578467D01*
X123949504Y-94578467D01*
X124107474Y-94578467D01*
X124200570Y-94555521D01*
X124270370Y-94558590D01*
X124327432Y-94598910D01*
X124353637Y-94663679D01*
X124340666Y-94732334D01*
X124317926Y-94763598D01*
X124288400Y-94793123D01*
X124162900Y-94972357D01*
X124162898Y-94972361D01*
X124070426Y-95170668D01*
X124070422Y-95170677D01*
X124013793Y-95382020D01*
X124013793Y-95382024D01*
X123994723Y-95599997D01*
X123994723Y-95600002D01*
X124013793Y-95817975D01*
X124013793Y-95817979D01*
X124070422Y-96029322D01*
X124070424Y-96029326D01*
X124070425Y-96029330D01*
X124078303Y-96046224D01*
X124162897Y-96227638D01*
X124162898Y-96227639D01*
X124288402Y-96406877D01*
X124443123Y-96561598D01*
X124622361Y-96687102D01*
X124820670Y-96779575D01*
X125032023Y-96836207D01*
X125214926Y-96852208D01*
X125249998Y-96855277D01*
X125250000Y-96855277D01*
X125250002Y-96855277D01*
X125278254Y-96852805D01*
X125467977Y-96836207D01*
X125679330Y-96779575D01*
X125877639Y-96687102D01*
X126056877Y-96561598D01*
X126211598Y-96406877D01*
X126337102Y-96227639D01*
X126429575Y-96029330D01*
X126486207Y-95817977D01*
X126505277Y-95600000D01*
X129695207Y-95600000D01*
X129714348Y-95843219D01*
X129771303Y-96080457D01*
X129864668Y-96305861D01*
X129988504Y-96507941D01*
X130610689Y-95885755D01*
X130629668Y-95931574D01*
X130706274Y-96046224D01*
X130803776Y-96143726D01*
X130918426Y-96220332D01*
X130964242Y-96239309D01*
X130342057Y-96861494D01*
X130544138Y-96985331D01*
X130769542Y-97078696D01*
X131006780Y-97135651D01*
X131006779Y-97135651D01*
X131250000Y-97154792D01*
X131493219Y-97135651D01*
X131730457Y-97078696D01*
X131955861Y-96985331D01*
X132157941Y-96861495D01*
X132157941Y-96861494D01*
X131535757Y-96239309D01*
X131581574Y-96220332D01*
X131696224Y-96143726D01*
X131793726Y-96046224D01*
X131870332Y-95931574D01*
X131889309Y-95885756D01*
X132511494Y-96507941D01*
X132511495Y-96507941D01*
X132635331Y-96305861D01*
X132728696Y-96080457D01*
X132785651Y-95843219D01*
X132804792Y-95600000D01*
X132785651Y-95356780D01*
X132728696Y-95119542D01*
X132635331Y-94894138D01*
X132511494Y-94692057D01*
X131889309Y-95314242D01*
X131870332Y-95268426D01*
X131793726Y-95153776D01*
X131696224Y-95056274D01*
X131581574Y-94979668D01*
X131535756Y-94960689D01*
X132157941Y-94338504D01*
X131955861Y-94214668D01*
X131730457Y-94121303D01*
X131493219Y-94064348D01*
X131493220Y-94064348D01*
X131250000Y-94045207D01*
X131006780Y-94064348D01*
X130769542Y-94121303D01*
X130544138Y-94214668D01*
X130342057Y-94338504D01*
X130964243Y-94960689D01*
X130918426Y-94979668D01*
X130803776Y-95056274D01*
X130706274Y-95153776D01*
X130629668Y-95268426D01*
X130610690Y-95314243D01*
X129988504Y-94692057D01*
X129864668Y-94894138D01*
X129771303Y-95119542D01*
X129714348Y-95356780D01*
X129695207Y-95600000D01*
X126505277Y-95600000D01*
X126486207Y-95382023D01*
X126429575Y-95170670D01*
X126337102Y-94972362D01*
X126337100Y-94972359D01*
X126337099Y-94972357D01*
X126211599Y-94793124D01*
X126150809Y-94732334D01*
X126056877Y-94638402D01*
X125877639Y-94512898D01*
X125877640Y-94512898D01*
X125877638Y-94512897D01*
X125748919Y-94452875D01*
X125679330Y-94420425D01*
X125679326Y-94420424D01*
X125679322Y-94420422D01*
X125467977Y-94363793D01*
X125250002Y-94344723D01*
X125249998Y-94344723D01*
X125104682Y-94357436D01*
X125032023Y-94363793D01*
X125032020Y-94363793D01*
X124820677Y-94420422D01*
X124820663Y-94420427D01*
X124730663Y-94462395D01*
X124661586Y-94472887D01*
X124597802Y-94444367D01*
X124559563Y-94385890D01*
X124559009Y-94316022D01*
X124576208Y-94279575D01*
X124608709Y-94232490D01*
X124664726Y-94084785D01*
X124683767Y-93927967D01*
X124683767Y-93927966D01*
X132873211Y-93927966D01*
X132873211Y-93927967D01*
X132892251Y-94084785D01*
X132917174Y-94150500D01*
X132948269Y-94232490D01*
X133038006Y-94362497D01*
X133156249Y-94467250D01*
X133156251Y-94467251D01*
X133296123Y-94540663D01*
X133449503Y-94578467D01*
X133449504Y-94578467D01*
X133607474Y-94578467D01*
X133700570Y-94555521D01*
X133770370Y-94558590D01*
X133827432Y-94598910D01*
X133853637Y-94663679D01*
X133840666Y-94732334D01*
X133817926Y-94763598D01*
X133788400Y-94793123D01*
X133662900Y-94972357D01*
X133662898Y-94972361D01*
X133570426Y-95170668D01*
X133570422Y-95170677D01*
X133513793Y-95382020D01*
X133513793Y-95382024D01*
X133494723Y-95599997D01*
X133494723Y-95600002D01*
X133513793Y-95817975D01*
X133513793Y-95817979D01*
X133570422Y-96029322D01*
X133570424Y-96029326D01*
X133570425Y-96029330D01*
X133578303Y-96046224D01*
X133662897Y-96227638D01*
X133662898Y-96227639D01*
X133788402Y-96406877D01*
X133943123Y-96561598D01*
X134122361Y-96687102D01*
X134320670Y-96779575D01*
X134532023Y-96836207D01*
X134714926Y-96852208D01*
X134749998Y-96855277D01*
X134750000Y-96855277D01*
X134750002Y-96855277D01*
X134778254Y-96852805D01*
X134967977Y-96836207D01*
X135179330Y-96779575D01*
X135377639Y-96687102D01*
X135556877Y-96561598D01*
X135711598Y-96406877D01*
X135837102Y-96227639D01*
X135929575Y-96029330D01*
X135986207Y-95817977D01*
X136005277Y-95600000D01*
X139195207Y-95600000D01*
X139214348Y-95843219D01*
X139271303Y-96080457D01*
X139364668Y-96305861D01*
X139488504Y-96507941D01*
X140110689Y-95885755D01*
X140129668Y-95931574D01*
X140206274Y-96046224D01*
X140303776Y-96143726D01*
X140418426Y-96220332D01*
X140464242Y-96239309D01*
X139842057Y-96861494D01*
X140044138Y-96985331D01*
X140269542Y-97078696D01*
X140506780Y-97135651D01*
X140506779Y-97135651D01*
X140750000Y-97154792D01*
X140993219Y-97135651D01*
X141230457Y-97078696D01*
X141455861Y-96985331D01*
X141657941Y-96861495D01*
X141657941Y-96861494D01*
X141035757Y-96239309D01*
X141081574Y-96220332D01*
X141196224Y-96143726D01*
X141293726Y-96046224D01*
X141370332Y-95931574D01*
X141389309Y-95885756D01*
X142011494Y-96507941D01*
X142011495Y-96507941D01*
X142135331Y-96305861D01*
X142228696Y-96080457D01*
X142285651Y-95843219D01*
X142304792Y-95600000D01*
X142285651Y-95356780D01*
X142228696Y-95119542D01*
X142135331Y-94894138D01*
X142011494Y-94692057D01*
X141389309Y-95314242D01*
X141370332Y-95268426D01*
X141293726Y-95153776D01*
X141196224Y-95056274D01*
X141081574Y-94979668D01*
X141035756Y-94960689D01*
X141657941Y-94338504D01*
X141455861Y-94214668D01*
X141230457Y-94121303D01*
X140993219Y-94064348D01*
X140993220Y-94064348D01*
X140750000Y-94045207D01*
X140506780Y-94064348D01*
X140269542Y-94121303D01*
X140044138Y-94214668D01*
X139842057Y-94338504D01*
X140464243Y-94960689D01*
X140418426Y-94979668D01*
X140303776Y-95056274D01*
X140206274Y-95153776D01*
X140129668Y-95268426D01*
X140110690Y-95314243D01*
X139488504Y-94692057D01*
X139364668Y-94894138D01*
X139271303Y-95119542D01*
X139214348Y-95356780D01*
X139195207Y-95600000D01*
X136005277Y-95600000D01*
X135986207Y-95382023D01*
X135929575Y-95170670D01*
X135837102Y-94972362D01*
X135837100Y-94972359D01*
X135837099Y-94972357D01*
X135711599Y-94793124D01*
X135650809Y-94732334D01*
X135556877Y-94638402D01*
X135377639Y-94512898D01*
X135377640Y-94512898D01*
X135377638Y-94512897D01*
X135248919Y-94452875D01*
X135179330Y-94420425D01*
X135179326Y-94420424D01*
X135179322Y-94420422D01*
X134967977Y-94363793D01*
X134750002Y-94344723D01*
X134749998Y-94344723D01*
X134604682Y-94357436D01*
X134532023Y-94363793D01*
X134532020Y-94363793D01*
X134320677Y-94420422D01*
X134320663Y-94420427D01*
X134230663Y-94462395D01*
X134161586Y-94472887D01*
X134097802Y-94444367D01*
X134059563Y-94385890D01*
X134059009Y-94316022D01*
X134076208Y-94279575D01*
X134108709Y-94232490D01*
X134164726Y-94084785D01*
X134183767Y-93927967D01*
X134183767Y-93927966D01*
X142373211Y-93927966D01*
X142373211Y-93927967D01*
X142392251Y-94084785D01*
X142417174Y-94150500D01*
X142448269Y-94232490D01*
X142538006Y-94362497D01*
X142656249Y-94467250D01*
X142656251Y-94467251D01*
X142796123Y-94540663D01*
X142949503Y-94578467D01*
X142949504Y-94578467D01*
X143107474Y-94578467D01*
X143200570Y-94555521D01*
X143270370Y-94558590D01*
X143327432Y-94598910D01*
X143353637Y-94663679D01*
X143340666Y-94732334D01*
X143317926Y-94763598D01*
X143288400Y-94793123D01*
X143162900Y-94972357D01*
X143162898Y-94972361D01*
X143070426Y-95170668D01*
X143070422Y-95170677D01*
X143013793Y-95382020D01*
X143013793Y-95382024D01*
X142994723Y-95599997D01*
X142994723Y-95600002D01*
X143013793Y-95817975D01*
X143013793Y-95817979D01*
X143070422Y-96029322D01*
X143070424Y-96029326D01*
X143070425Y-96029330D01*
X143078303Y-96046224D01*
X143162897Y-96227638D01*
X143162898Y-96227639D01*
X143288402Y-96406877D01*
X143443123Y-96561598D01*
X143622361Y-96687102D01*
X143820670Y-96779575D01*
X144032023Y-96836207D01*
X144214926Y-96852208D01*
X144249998Y-96855277D01*
X144250000Y-96855277D01*
X144250002Y-96855277D01*
X144278254Y-96852805D01*
X144467977Y-96836207D01*
X144679330Y-96779575D01*
X144877639Y-96687102D01*
X145056877Y-96561598D01*
X145211598Y-96406877D01*
X145337102Y-96227639D01*
X145429575Y-96029330D01*
X145486207Y-95817977D01*
X145505277Y-95600000D01*
X148695207Y-95600000D01*
X148714348Y-95843219D01*
X148771303Y-96080457D01*
X148864668Y-96305861D01*
X148988504Y-96507941D01*
X149610689Y-95885755D01*
X149629668Y-95931574D01*
X149706274Y-96046224D01*
X149803776Y-96143726D01*
X149918426Y-96220332D01*
X149964242Y-96239309D01*
X149342057Y-96861494D01*
X149544138Y-96985331D01*
X149769542Y-97078696D01*
X150006780Y-97135651D01*
X150006779Y-97135651D01*
X150250000Y-97154792D01*
X150493219Y-97135651D01*
X150730457Y-97078696D01*
X150955861Y-96985331D01*
X151157941Y-96861495D01*
X151157941Y-96861494D01*
X150535757Y-96239309D01*
X150581574Y-96220332D01*
X150696224Y-96143726D01*
X150793726Y-96046224D01*
X150870332Y-95931574D01*
X150889309Y-95885756D01*
X151511494Y-96507941D01*
X151511495Y-96507941D01*
X151635331Y-96305861D01*
X151728696Y-96080457D01*
X151785651Y-95843219D01*
X151804792Y-95600000D01*
X151785651Y-95356780D01*
X151728696Y-95119542D01*
X151635331Y-94894138D01*
X151511494Y-94692057D01*
X150889309Y-95314242D01*
X150870332Y-95268426D01*
X150793726Y-95153776D01*
X150696224Y-95056274D01*
X150581574Y-94979668D01*
X150535756Y-94960689D01*
X151157941Y-94338504D01*
X150955861Y-94214668D01*
X150730457Y-94121303D01*
X150493219Y-94064348D01*
X150493220Y-94064348D01*
X150250000Y-94045207D01*
X150006780Y-94064348D01*
X149769542Y-94121303D01*
X149544138Y-94214668D01*
X149342057Y-94338504D01*
X149964243Y-94960689D01*
X149918426Y-94979668D01*
X149803776Y-95056274D01*
X149706274Y-95153776D01*
X149629668Y-95268426D01*
X149610690Y-95314243D01*
X148988504Y-94692057D01*
X148864668Y-94894138D01*
X148771303Y-95119542D01*
X148714348Y-95356780D01*
X148695207Y-95600000D01*
X145505277Y-95600000D01*
X145486207Y-95382023D01*
X145429575Y-95170670D01*
X145337102Y-94972362D01*
X145337100Y-94972359D01*
X145337099Y-94972357D01*
X145211599Y-94793124D01*
X145150809Y-94732334D01*
X145056877Y-94638402D01*
X144877639Y-94512898D01*
X144877640Y-94512898D01*
X144877638Y-94512897D01*
X144748919Y-94452875D01*
X144679330Y-94420425D01*
X144679326Y-94420424D01*
X144679322Y-94420422D01*
X144467977Y-94363793D01*
X144250002Y-94344723D01*
X144249998Y-94344723D01*
X144104682Y-94357436D01*
X144032023Y-94363793D01*
X144032020Y-94363793D01*
X143820677Y-94420422D01*
X143820663Y-94420427D01*
X143730663Y-94462395D01*
X143661586Y-94472887D01*
X143597802Y-94444367D01*
X143559563Y-94385890D01*
X143559009Y-94316022D01*
X143576208Y-94279575D01*
X143608709Y-94232490D01*
X143664726Y-94084785D01*
X143683767Y-93927967D01*
X143668779Y-93804524D01*
X143664726Y-93771148D01*
X143621366Y-93656818D01*
X143608709Y-93623444D01*
X143523501Y-93499999D01*
X144344722Y-93499999D01*
X144344722Y-93500000D01*
X144363762Y-93656818D01*
X144407123Y-93771149D01*
X144419780Y-93804523D01*
X144509517Y-93934530D01*
X144627760Y-94039283D01*
X144627762Y-94039284D01*
X144767634Y-94112696D01*
X144921014Y-94150500D01*
X144921015Y-94150500D01*
X145078985Y-94150500D01*
X145232365Y-94112696D01*
X145324483Y-94064348D01*
X145372240Y-94039283D01*
X145490483Y-93934530D01*
X145495014Y-93927966D01*
X151873211Y-93927966D01*
X151873211Y-93927967D01*
X151892251Y-94084785D01*
X151917174Y-94150500D01*
X151948269Y-94232490D01*
X152038006Y-94362497D01*
X152156249Y-94467250D01*
X152156251Y-94467251D01*
X152296123Y-94540663D01*
X152449503Y-94578467D01*
X152449504Y-94578467D01*
X152607474Y-94578467D01*
X152700570Y-94555521D01*
X152770370Y-94558590D01*
X152827432Y-94598910D01*
X152853637Y-94663679D01*
X152840666Y-94732334D01*
X152817926Y-94763598D01*
X152788400Y-94793123D01*
X152662900Y-94972357D01*
X152662898Y-94972361D01*
X152570426Y-95170668D01*
X152570422Y-95170677D01*
X152513793Y-95382020D01*
X152513793Y-95382024D01*
X152494723Y-95599997D01*
X152494723Y-95600002D01*
X152513793Y-95817975D01*
X152513793Y-95817979D01*
X152570422Y-96029322D01*
X152570424Y-96029326D01*
X152570425Y-96029330D01*
X152578303Y-96046224D01*
X152662897Y-96227638D01*
X152662898Y-96227639D01*
X152788402Y-96406877D01*
X152943123Y-96561598D01*
X153122361Y-96687102D01*
X153320670Y-96779575D01*
X153532023Y-96836207D01*
X153714926Y-96852208D01*
X153749998Y-96855277D01*
X153750000Y-96855277D01*
X153750002Y-96855277D01*
X153778254Y-96852805D01*
X153967977Y-96836207D01*
X154179330Y-96779575D01*
X154377639Y-96687102D01*
X154556877Y-96561598D01*
X154711598Y-96406877D01*
X154837102Y-96227639D01*
X154929575Y-96029330D01*
X154986207Y-95817977D01*
X155005277Y-95600000D01*
X167695207Y-95600000D01*
X167714348Y-95843219D01*
X167771303Y-96080457D01*
X167864668Y-96305861D01*
X167988504Y-96507941D01*
X168610689Y-95885755D01*
X168629668Y-95931574D01*
X168706274Y-96046224D01*
X168803776Y-96143726D01*
X168918426Y-96220332D01*
X168964242Y-96239309D01*
X168342057Y-96861494D01*
X168544138Y-96985331D01*
X168769542Y-97078696D01*
X169006780Y-97135651D01*
X169006779Y-97135651D01*
X169250000Y-97154792D01*
X169493219Y-97135651D01*
X169730457Y-97078696D01*
X169955861Y-96985331D01*
X170157941Y-96861495D01*
X170157941Y-96861494D01*
X169535757Y-96239309D01*
X169581574Y-96220332D01*
X169696224Y-96143726D01*
X169793726Y-96046224D01*
X169870332Y-95931574D01*
X169889309Y-95885756D01*
X170511494Y-96507941D01*
X170511495Y-96507941D01*
X170635331Y-96305861D01*
X170728696Y-96080457D01*
X170785651Y-95843219D01*
X170804792Y-95600000D01*
X170785651Y-95356780D01*
X170728696Y-95119542D01*
X170635331Y-94894138D01*
X170511494Y-94692057D01*
X169889309Y-95314242D01*
X169870332Y-95268426D01*
X169793726Y-95153776D01*
X169696224Y-95056274D01*
X169581574Y-94979668D01*
X169535756Y-94960689D01*
X170157941Y-94338504D01*
X169955861Y-94214668D01*
X169730457Y-94121303D01*
X169493219Y-94064348D01*
X169493220Y-94064348D01*
X169250000Y-94045207D01*
X169006780Y-94064348D01*
X168769542Y-94121303D01*
X168544138Y-94214668D01*
X168342057Y-94338504D01*
X168964243Y-94960689D01*
X168918426Y-94979668D01*
X168803776Y-95056274D01*
X168706274Y-95153776D01*
X168629668Y-95268426D01*
X168610690Y-95314243D01*
X167988504Y-94692057D01*
X167864668Y-94894138D01*
X167771303Y-95119542D01*
X167714348Y-95356780D01*
X167695207Y-95600000D01*
X155005277Y-95600000D01*
X154986207Y-95382023D01*
X154929575Y-95170670D01*
X154837102Y-94972362D01*
X154837100Y-94972359D01*
X154837099Y-94972357D01*
X154711599Y-94793124D01*
X154650809Y-94732334D01*
X154556877Y-94638402D01*
X154377639Y-94512898D01*
X154377640Y-94512898D01*
X154377638Y-94512897D01*
X154248919Y-94452875D01*
X154179330Y-94420425D01*
X154179326Y-94420424D01*
X154179322Y-94420422D01*
X153967977Y-94363793D01*
X153750002Y-94344723D01*
X153749998Y-94344723D01*
X153604682Y-94357436D01*
X153532023Y-94363793D01*
X153532020Y-94363793D01*
X153320677Y-94420422D01*
X153320663Y-94420427D01*
X153230663Y-94462395D01*
X153161586Y-94472887D01*
X153097802Y-94444367D01*
X153059563Y-94385890D01*
X153059009Y-94316022D01*
X153076208Y-94279575D01*
X153108709Y-94232490D01*
X153164726Y-94084785D01*
X153175021Y-93999999D01*
X161344722Y-93999999D01*
X161344722Y-94000000D01*
X161363762Y-94156818D01*
X161392462Y-94232492D01*
X161419780Y-94304523D01*
X161509517Y-94434530D01*
X161627760Y-94539283D01*
X161627762Y-94539284D01*
X161767634Y-94612696D01*
X161921014Y-94650500D01*
X161921015Y-94650500D01*
X162078985Y-94650500D01*
X162232365Y-94612696D01*
X162372240Y-94539283D01*
X162490483Y-94434530D01*
X162580220Y-94304523D01*
X162636237Y-94156818D01*
X162655278Y-94000000D01*
X162655278Y-93999999D01*
X170844722Y-93999999D01*
X170844722Y-94000000D01*
X170863762Y-94156818D01*
X170892462Y-94232492D01*
X170919780Y-94304523D01*
X171009517Y-94434530D01*
X171127760Y-94539283D01*
X171127762Y-94539284D01*
X171267634Y-94612696D01*
X171421014Y-94650500D01*
X171421015Y-94650500D01*
X171578985Y-94650500D01*
X171632077Y-94637414D01*
X171701878Y-94640483D01*
X171758940Y-94680803D01*
X171785146Y-94745572D01*
X171772174Y-94814227D01*
X171763326Y-94828934D01*
X171662900Y-94972357D01*
X171662898Y-94972361D01*
X171570426Y-95170668D01*
X171570422Y-95170677D01*
X171513793Y-95382020D01*
X171513793Y-95382024D01*
X171494723Y-95599997D01*
X171494723Y-95600002D01*
X171513793Y-95817975D01*
X171513793Y-95817979D01*
X171570422Y-96029322D01*
X171570424Y-96029326D01*
X171570425Y-96029330D01*
X171578303Y-96046224D01*
X171662897Y-96227638D01*
X171662898Y-96227639D01*
X171788402Y-96406877D01*
X171943123Y-96561598D01*
X172122361Y-96687102D01*
X172320670Y-96779575D01*
X172532023Y-96836207D01*
X172714926Y-96852208D01*
X172749998Y-96855277D01*
X172750000Y-96855277D01*
X172750002Y-96855277D01*
X172778254Y-96852805D01*
X172967977Y-96836207D01*
X173179330Y-96779575D01*
X173377639Y-96687102D01*
X173556877Y-96561598D01*
X173711598Y-96406877D01*
X173837102Y-96227639D01*
X173929575Y-96029330D01*
X173986207Y-95817977D01*
X174005277Y-95600000D01*
X177195207Y-95600000D01*
X177214348Y-95843219D01*
X177271303Y-96080457D01*
X177364668Y-96305861D01*
X177488504Y-96507941D01*
X178110689Y-95885755D01*
X178129668Y-95931574D01*
X178206274Y-96046224D01*
X178303776Y-96143726D01*
X178418426Y-96220332D01*
X178464242Y-96239309D01*
X177842057Y-96861494D01*
X178044138Y-96985331D01*
X178269542Y-97078696D01*
X178506780Y-97135651D01*
X178506779Y-97135651D01*
X178750000Y-97154792D01*
X178993219Y-97135651D01*
X179230457Y-97078696D01*
X179455861Y-96985331D01*
X179657941Y-96861495D01*
X179657941Y-96861494D01*
X179035757Y-96239309D01*
X179081574Y-96220332D01*
X179196224Y-96143726D01*
X179293726Y-96046224D01*
X179370332Y-95931574D01*
X179389309Y-95885756D01*
X180011494Y-96507941D01*
X180011495Y-96507941D01*
X180135331Y-96305861D01*
X180228696Y-96080457D01*
X180285651Y-95843219D01*
X180304792Y-95600000D01*
X180304792Y-95599997D01*
X180994723Y-95599997D01*
X180994723Y-95600002D01*
X181013793Y-95817975D01*
X181013793Y-95817979D01*
X181070422Y-96029322D01*
X181070424Y-96029326D01*
X181070425Y-96029330D01*
X181078303Y-96046224D01*
X181162897Y-96227638D01*
X181162898Y-96227639D01*
X181288402Y-96406877D01*
X181443123Y-96561598D01*
X181622361Y-96687102D01*
X181820670Y-96779575D01*
X182032023Y-96836207D01*
X182214926Y-96852208D01*
X182249998Y-96855277D01*
X182250000Y-96855277D01*
X182250002Y-96855277D01*
X182278254Y-96852805D01*
X182467977Y-96836207D01*
X182679330Y-96779575D01*
X182877639Y-96687102D01*
X183056877Y-96561598D01*
X183211598Y-96406877D01*
X183337102Y-96227639D01*
X183429575Y-96029330D01*
X183486207Y-95817977D01*
X183505277Y-95600000D01*
X186695207Y-95600000D01*
X186714348Y-95843219D01*
X186771303Y-96080457D01*
X186864668Y-96305861D01*
X186988504Y-96507941D01*
X187610689Y-95885755D01*
X187629668Y-95931574D01*
X187706274Y-96046224D01*
X187803776Y-96143726D01*
X187918426Y-96220332D01*
X187964242Y-96239309D01*
X187342057Y-96861494D01*
X187544138Y-96985331D01*
X187769542Y-97078696D01*
X188006780Y-97135651D01*
X188006779Y-97135651D01*
X188250000Y-97154792D01*
X188493219Y-97135651D01*
X188730457Y-97078696D01*
X188955861Y-96985331D01*
X189157941Y-96861495D01*
X189157941Y-96861494D01*
X188535757Y-96239309D01*
X188581574Y-96220332D01*
X188696224Y-96143726D01*
X188793726Y-96046224D01*
X188870332Y-95931574D01*
X188889309Y-95885756D01*
X189511494Y-96507941D01*
X189511495Y-96507941D01*
X189635331Y-96305861D01*
X189728696Y-96080457D01*
X189785651Y-95843219D01*
X189804792Y-95600000D01*
X189804792Y-95599997D01*
X190494723Y-95599997D01*
X190494723Y-95600002D01*
X190513793Y-95817975D01*
X190513793Y-95817979D01*
X190570422Y-96029322D01*
X190570424Y-96029326D01*
X190570425Y-96029330D01*
X190578303Y-96046224D01*
X190662897Y-96227638D01*
X190662898Y-96227639D01*
X190788402Y-96406877D01*
X190943123Y-96561598D01*
X191122361Y-96687102D01*
X191320670Y-96779575D01*
X191532023Y-96836207D01*
X191714926Y-96852208D01*
X191749998Y-96855277D01*
X191750000Y-96855277D01*
X191750002Y-96855277D01*
X191778254Y-96852805D01*
X191967977Y-96836207D01*
X192179330Y-96779575D01*
X192377639Y-96687102D01*
X192556877Y-96561598D01*
X192711598Y-96406877D01*
X192837102Y-96227639D01*
X192929575Y-96029330D01*
X192986207Y-95817977D01*
X193005277Y-95600000D01*
X192986207Y-95382023D01*
X192929575Y-95170670D01*
X192837102Y-94972362D01*
X192837100Y-94972359D01*
X192837099Y-94972357D01*
X192711599Y-94793124D01*
X192650809Y-94732334D01*
X192556877Y-94638402D01*
X192377639Y-94512898D01*
X192377640Y-94512898D01*
X192377638Y-94512897D01*
X192248919Y-94452875D01*
X192179330Y-94420425D01*
X192179326Y-94420424D01*
X192179322Y-94420422D01*
X191967977Y-94363793D01*
X191750002Y-94344723D01*
X191749998Y-94344723D01*
X191604682Y-94357436D01*
X191532023Y-94363793D01*
X191532020Y-94363793D01*
X191320677Y-94420422D01*
X191320668Y-94420426D01*
X191122361Y-94512898D01*
X191122357Y-94512900D01*
X190943121Y-94638402D01*
X190788402Y-94793121D01*
X190662900Y-94972357D01*
X190662898Y-94972361D01*
X190570426Y-95170668D01*
X190570422Y-95170677D01*
X190513793Y-95382020D01*
X190513793Y-95382024D01*
X190494723Y-95599997D01*
X189804792Y-95599997D01*
X189785651Y-95356780D01*
X189728696Y-95119542D01*
X189635331Y-94894138D01*
X189511494Y-94692057D01*
X188889309Y-95314242D01*
X188870332Y-95268426D01*
X188793726Y-95153776D01*
X188696224Y-95056274D01*
X188581574Y-94979668D01*
X188535756Y-94960689D01*
X189157941Y-94338504D01*
X188955861Y-94214668D01*
X188730457Y-94121303D01*
X188493219Y-94064348D01*
X188493220Y-94064348D01*
X188250000Y-94045207D01*
X188006780Y-94064348D01*
X187769542Y-94121303D01*
X187544138Y-94214668D01*
X187342057Y-94338504D01*
X187964243Y-94960689D01*
X187918426Y-94979668D01*
X187803776Y-95056274D01*
X187706274Y-95153776D01*
X187629668Y-95268426D01*
X187610690Y-95314243D01*
X186988504Y-94692057D01*
X186864668Y-94894138D01*
X186771303Y-95119542D01*
X186714348Y-95356780D01*
X186695207Y-95600000D01*
X183505277Y-95600000D01*
X183486207Y-95382023D01*
X183429575Y-95170670D01*
X183337102Y-94972362D01*
X183337100Y-94972359D01*
X183337099Y-94972357D01*
X183211599Y-94793124D01*
X183150809Y-94732334D01*
X183056877Y-94638402D01*
X182877639Y-94512898D01*
X182877640Y-94512898D01*
X182877638Y-94512897D01*
X182748919Y-94452875D01*
X182679330Y-94420425D01*
X182679326Y-94420424D01*
X182679322Y-94420422D01*
X182467977Y-94363793D01*
X182250002Y-94344723D01*
X182249998Y-94344723D01*
X182104682Y-94357436D01*
X182032023Y-94363793D01*
X182032020Y-94363793D01*
X181820677Y-94420422D01*
X181820668Y-94420426D01*
X181622361Y-94512898D01*
X181622357Y-94512900D01*
X181443121Y-94638402D01*
X181288402Y-94793121D01*
X181162900Y-94972357D01*
X181162898Y-94972361D01*
X181070426Y-95170668D01*
X181070422Y-95170677D01*
X181013793Y-95382020D01*
X181013793Y-95382024D01*
X180994723Y-95599997D01*
X180304792Y-95599997D01*
X180285651Y-95356780D01*
X180228696Y-95119542D01*
X180135331Y-94894138D01*
X180011494Y-94692057D01*
X179389309Y-95314242D01*
X179370332Y-95268426D01*
X179293726Y-95153776D01*
X179196224Y-95056274D01*
X179081574Y-94979668D01*
X179035756Y-94960689D01*
X179657941Y-94338504D01*
X179455861Y-94214668D01*
X179230457Y-94121303D01*
X178993219Y-94064348D01*
X178993220Y-94064348D01*
X178750000Y-94045207D01*
X178506780Y-94064348D01*
X178269542Y-94121303D01*
X178044138Y-94214668D01*
X177842057Y-94338504D01*
X178464243Y-94960689D01*
X178418426Y-94979668D01*
X178303776Y-95056274D01*
X178206274Y-95153776D01*
X178129668Y-95268426D01*
X178110690Y-95314243D01*
X177488504Y-94692057D01*
X177364668Y-94894138D01*
X177271303Y-95119542D01*
X177214348Y-95356780D01*
X177195207Y-95600000D01*
X174005277Y-95600000D01*
X173986207Y-95382023D01*
X173929575Y-95170670D01*
X173837102Y-94972362D01*
X173837100Y-94972359D01*
X173837099Y-94972357D01*
X173711599Y-94793124D01*
X173650809Y-94732334D01*
X173556877Y-94638402D01*
X173377639Y-94512898D01*
X173377640Y-94512898D01*
X173377638Y-94512897D01*
X173248919Y-94452875D01*
X173179330Y-94420425D01*
X173179326Y-94420424D01*
X173179322Y-94420422D01*
X172967977Y-94363793D01*
X172750002Y-94344723D01*
X172749998Y-94344723D01*
X172604682Y-94357436D01*
X172532023Y-94363793D01*
X172532020Y-94363793D01*
X172320677Y-94420422D01*
X172320672Y-94420424D01*
X172251711Y-94452581D01*
X172182633Y-94463072D01*
X172118849Y-94434551D01*
X172080610Y-94376075D01*
X172080057Y-94306207D01*
X172083353Y-94296260D01*
X172136237Y-94156818D01*
X172155278Y-94000000D01*
X172136237Y-93843182D01*
X172135098Y-93840178D01*
X176373211Y-93840178D01*
X176373211Y-93840179D01*
X176392251Y-93996997D01*
X176436131Y-94112696D01*
X176448269Y-94144702D01*
X176538006Y-94274709D01*
X176656249Y-94379462D01*
X176656251Y-94379463D01*
X176796123Y-94452875D01*
X176949503Y-94490679D01*
X176949504Y-94490679D01*
X177107474Y-94490679D01*
X177260854Y-94452875D01*
X177295811Y-94434528D01*
X177400729Y-94379462D01*
X177518972Y-94274709D01*
X177608709Y-94144702D01*
X177664726Y-93996997D01*
X177683767Y-93840179D01*
X177683767Y-93840178D01*
X183872158Y-93840178D01*
X183872158Y-93840179D01*
X183891198Y-93996997D01*
X183935078Y-94112696D01*
X183947216Y-94144702D01*
X184036953Y-94274709D01*
X184155196Y-94379462D01*
X184155198Y-94379463D01*
X184295070Y-94452875D01*
X184448450Y-94490679D01*
X184448451Y-94490679D01*
X184606421Y-94490679D01*
X184759801Y-94452875D01*
X184794758Y-94434528D01*
X184899676Y-94379462D01*
X185017919Y-94274709D01*
X185107656Y-94144702D01*
X185163673Y-93996997D01*
X185182714Y-93840179D01*
X185163673Y-93683361D01*
X185107656Y-93535656D01*
X185017919Y-93405649D01*
X184899676Y-93300896D01*
X184899674Y-93300895D01*
X184899673Y-93300894D01*
X184759801Y-93227482D01*
X184606422Y-93189679D01*
X184606421Y-93189679D01*
X184448451Y-93189679D01*
X184448450Y-93189679D01*
X184295070Y-93227482D01*
X184155198Y-93300894D01*
X184107464Y-93343182D01*
X184057661Y-93387304D01*
X184036952Y-93405650D01*
X183947217Y-93535654D01*
X183947216Y-93535655D01*
X183891198Y-93683360D01*
X183872158Y-93840178D01*
X177683767Y-93840178D01*
X177664726Y-93683361D01*
X177608709Y-93535656D01*
X177518972Y-93405649D01*
X177400729Y-93300896D01*
X177400727Y-93300895D01*
X177400726Y-93300894D01*
X177260854Y-93227482D01*
X177107475Y-93189679D01*
X177107474Y-93189679D01*
X176949504Y-93189679D01*
X176949503Y-93189679D01*
X176796123Y-93227482D01*
X176656251Y-93300894D01*
X176608517Y-93343182D01*
X176558714Y-93387304D01*
X176538005Y-93405650D01*
X176448270Y-93535654D01*
X176448269Y-93535655D01*
X176392251Y-93683360D01*
X176373211Y-93840178D01*
X172135098Y-93840178D01*
X172080220Y-93695477D01*
X171990483Y-93565470D01*
X171872240Y-93460717D01*
X171872238Y-93460716D01*
X171872237Y-93460715D01*
X171732365Y-93387303D01*
X171578986Y-93349500D01*
X171578985Y-93349500D01*
X171421015Y-93349500D01*
X171421014Y-93349500D01*
X171267634Y-93387303D01*
X171127762Y-93460715D01*
X171009516Y-93565471D01*
X170919781Y-93695475D01*
X170919780Y-93695476D01*
X170863762Y-93843181D01*
X170844722Y-93999999D01*
X162655278Y-93999999D01*
X162636237Y-93843182D01*
X162580220Y-93695477D01*
X162490483Y-93565470D01*
X162372240Y-93460717D01*
X162372238Y-93460716D01*
X162372237Y-93460715D01*
X162232365Y-93387303D01*
X162078986Y-93349500D01*
X162078985Y-93349500D01*
X161921015Y-93349500D01*
X161921014Y-93349500D01*
X161767634Y-93387303D01*
X161627762Y-93460715D01*
X161509516Y-93565471D01*
X161419781Y-93695475D01*
X161419780Y-93695476D01*
X161363762Y-93843181D01*
X161344722Y-93999999D01*
X153175021Y-93999999D01*
X153183767Y-93927967D01*
X153168779Y-93804524D01*
X153164726Y-93771148D01*
X153121366Y-93656818D01*
X153108709Y-93623444D01*
X153018972Y-93493437D01*
X152900729Y-93388684D01*
X152900727Y-93388683D01*
X152900726Y-93388682D01*
X152760854Y-93315270D01*
X152607475Y-93277467D01*
X152607474Y-93277467D01*
X152449504Y-93277467D01*
X152449503Y-93277467D01*
X152296123Y-93315270D01*
X152156251Y-93388682D01*
X152038005Y-93493438D01*
X151948270Y-93623442D01*
X151948269Y-93623443D01*
X151892251Y-93771148D01*
X151873211Y-93927966D01*
X145495014Y-93927966D01*
X145580220Y-93804523D01*
X145636237Y-93656818D01*
X145655278Y-93500000D01*
X145636237Y-93343182D01*
X145625651Y-93315270D01*
X145592358Y-93227483D01*
X145580220Y-93195477D01*
X145490483Y-93065470D01*
X145372240Y-92960717D01*
X145372238Y-92960716D01*
X145372237Y-92960715D01*
X145232365Y-92887303D01*
X145078986Y-92849500D01*
X145078985Y-92849500D01*
X144921015Y-92849500D01*
X144921014Y-92849500D01*
X144767634Y-92887303D01*
X144627762Y-92960715D01*
X144509516Y-93065471D01*
X144419781Y-93195475D01*
X144419780Y-93195476D01*
X144363762Y-93343181D01*
X144344722Y-93499999D01*
X143523501Y-93499999D01*
X143518972Y-93493437D01*
X143400729Y-93388684D01*
X143400727Y-93388683D01*
X143400726Y-93388682D01*
X143260854Y-93315270D01*
X143107475Y-93277467D01*
X143107474Y-93277467D01*
X142949504Y-93277467D01*
X142949503Y-93277467D01*
X142796123Y-93315270D01*
X142656251Y-93388682D01*
X142538005Y-93493438D01*
X142448270Y-93623442D01*
X142448269Y-93623443D01*
X142392251Y-93771148D01*
X142373211Y-93927966D01*
X134183767Y-93927966D01*
X134168779Y-93804524D01*
X134164726Y-93771148D01*
X134121366Y-93656818D01*
X134108709Y-93623444D01*
X134018972Y-93493437D01*
X133900729Y-93388684D01*
X133900727Y-93388683D01*
X133900726Y-93388682D01*
X133760854Y-93315270D01*
X133607475Y-93277467D01*
X133607474Y-93277467D01*
X133449504Y-93277467D01*
X133449503Y-93277467D01*
X133296123Y-93315270D01*
X133156251Y-93388682D01*
X133038005Y-93493438D01*
X132948270Y-93623442D01*
X132948269Y-93623443D01*
X132892251Y-93771148D01*
X132873211Y-93927966D01*
X124683767Y-93927966D01*
X124668779Y-93804524D01*
X124664726Y-93771148D01*
X124621366Y-93656818D01*
X124608709Y-93623444D01*
X124518972Y-93493437D01*
X124400729Y-93388684D01*
X124400727Y-93388683D01*
X124400726Y-93388682D01*
X124260854Y-93315270D01*
X124107475Y-93277467D01*
X124107474Y-93277467D01*
X123949504Y-93277467D01*
X123949503Y-93277467D01*
X123796123Y-93315270D01*
X123656251Y-93388682D01*
X123538005Y-93493438D01*
X123448270Y-93623442D01*
X123448269Y-93623443D01*
X123392251Y-93771148D01*
X123373211Y-93927966D01*
X115146532Y-93927966D01*
X115136237Y-93843182D01*
X115080220Y-93695477D01*
X114990483Y-93565470D01*
X114872240Y-93460717D01*
X114872238Y-93460716D01*
X114872237Y-93460715D01*
X114732365Y-93387303D01*
X114578986Y-93349500D01*
X114578985Y-93349500D01*
X114421015Y-93349500D01*
X114421014Y-93349500D01*
X114267634Y-93387303D01*
X114127762Y-93460715D01*
X114009516Y-93565471D01*
X113919781Y-93695475D01*
X113919780Y-93695476D01*
X113863762Y-93843181D01*
X113844722Y-93999999D01*
X100050500Y-93999999D01*
X100050500Y-90750000D01*
X188545207Y-90750000D01*
X188564348Y-90993219D01*
X188621303Y-91230457D01*
X188714668Y-91455861D01*
X188838504Y-91657941D01*
X189460689Y-91035755D01*
X189479668Y-91081574D01*
X189556274Y-91196224D01*
X189653776Y-91293726D01*
X189768426Y-91370332D01*
X189814242Y-91389309D01*
X189192057Y-92011494D01*
X189394138Y-92135331D01*
X189619542Y-92228696D01*
X189856780Y-92285651D01*
X189856779Y-92285651D01*
X190100000Y-92304792D01*
X190343219Y-92285651D01*
X190580457Y-92228696D01*
X190805861Y-92135331D01*
X191007941Y-92011495D01*
X191007941Y-92011494D01*
X190385757Y-91389309D01*
X190431574Y-91370332D01*
X190546224Y-91293726D01*
X190643726Y-91196224D01*
X190720332Y-91081574D01*
X190739309Y-91035756D01*
X191361494Y-91657941D01*
X191361495Y-91657941D01*
X191485331Y-91455861D01*
X191578696Y-91230457D01*
X191635651Y-90993219D01*
X191654792Y-90750000D01*
X191635651Y-90506780D01*
X191578696Y-90269542D01*
X191485331Y-90044138D01*
X191361494Y-89842057D01*
X190739309Y-90464242D01*
X190720332Y-90418426D01*
X190643726Y-90303776D01*
X190546224Y-90206274D01*
X190431574Y-90129668D01*
X190385756Y-90110689D01*
X191007941Y-89488504D01*
X190805861Y-89364668D01*
X190580457Y-89271303D01*
X190343219Y-89214348D01*
X190343220Y-89214348D01*
X190100000Y-89195207D01*
X189856780Y-89214348D01*
X189619542Y-89271303D01*
X189394138Y-89364668D01*
X189192057Y-89488504D01*
X189814243Y-90110689D01*
X189768426Y-90129668D01*
X189653776Y-90206274D01*
X189556274Y-90303776D01*
X189479668Y-90418426D01*
X189460690Y-90464243D01*
X188838504Y-89842057D01*
X188714668Y-90044138D01*
X188621303Y-90269542D01*
X188564348Y-90506780D01*
X188545207Y-90750000D01*
X100050500Y-90750000D01*
X100050500Y-86250000D01*
X103644723Y-86250000D01*
X103661618Y-86443121D01*
X103663793Y-86467975D01*
X103663793Y-86467979D01*
X103720422Y-86679322D01*
X103720424Y-86679326D01*
X103720425Y-86679330D01*
X103766661Y-86778484D01*
X103812897Y-86877638D01*
X103812898Y-86877639D01*
X103938402Y-87056877D01*
X104093123Y-87211598D01*
X104272361Y-87337102D01*
X104470670Y-87429575D01*
X104682023Y-87486207D01*
X104864926Y-87502208D01*
X104899998Y-87505277D01*
X104900000Y-87505277D01*
X104900002Y-87505277D01*
X104928254Y-87502805D01*
X105117977Y-87486207D01*
X105329330Y-87429575D01*
X105527639Y-87337102D01*
X105652038Y-87249997D01*
X188844723Y-87249997D01*
X188844723Y-87250002D01*
X188863793Y-87467975D01*
X188863793Y-87467979D01*
X188920422Y-87679322D01*
X188920424Y-87679326D01*
X188920425Y-87679330D01*
X188966661Y-87778484D01*
X189012897Y-87877638D01*
X189012898Y-87877639D01*
X189138402Y-88056877D01*
X189293123Y-88211598D01*
X189472361Y-88337102D01*
X189670670Y-88429575D01*
X189882023Y-88486207D01*
X190064926Y-88502208D01*
X190099998Y-88505277D01*
X190100000Y-88505277D01*
X190100002Y-88505277D01*
X190128254Y-88502805D01*
X190317977Y-88486207D01*
X190529330Y-88429575D01*
X190727639Y-88337102D01*
X190906877Y-88211598D01*
X191061598Y-88056877D01*
X191187102Y-87877639D01*
X191279575Y-87679330D01*
X191336207Y-87467977D01*
X191355277Y-87250000D01*
X191336207Y-87032023D01*
X191279575Y-86820670D01*
X191187102Y-86622362D01*
X191187100Y-86622359D01*
X191187099Y-86622357D01*
X191061599Y-86443124D01*
X190994471Y-86375996D01*
X190906877Y-86288402D01*
X190727639Y-86162898D01*
X190727640Y-86162898D01*
X190727638Y-86162897D01*
X190628484Y-86116661D01*
X190529330Y-86070425D01*
X190529326Y-86070424D01*
X190529322Y-86070422D01*
X190317977Y-86013793D01*
X190100002Y-85994723D01*
X190099998Y-85994723D01*
X189954682Y-86007436D01*
X189882023Y-86013793D01*
X189882020Y-86013793D01*
X189670677Y-86070422D01*
X189670668Y-86070426D01*
X189472361Y-86162898D01*
X189472357Y-86162900D01*
X189293121Y-86288402D01*
X189138402Y-86443121D01*
X189012900Y-86622357D01*
X189012898Y-86622361D01*
X188920426Y-86820668D01*
X188920422Y-86820677D01*
X188863793Y-87032020D01*
X188863793Y-87032024D01*
X188844723Y-87249997D01*
X105652038Y-87249997D01*
X105706877Y-87211598D01*
X105861598Y-87056877D01*
X105987102Y-86877639D01*
X106079575Y-86679330D01*
X106136207Y-86467977D01*
X106155277Y-86250000D01*
X106136207Y-86032023D01*
X106079575Y-85820670D01*
X105987102Y-85622362D01*
X105987100Y-85622359D01*
X105987099Y-85622357D01*
X105861599Y-85443124D01*
X105861596Y-85443121D01*
X105706877Y-85288402D01*
X105527639Y-85162898D01*
X105527640Y-85162898D01*
X105527638Y-85162897D01*
X105428484Y-85116661D01*
X105329330Y-85070425D01*
X105329326Y-85070424D01*
X105329322Y-85070422D01*
X105117977Y-85013793D01*
X104900002Y-84994723D01*
X104899998Y-84994723D01*
X104754682Y-85007436D01*
X104682023Y-85013793D01*
X104682020Y-85013793D01*
X104470677Y-85070422D01*
X104470668Y-85070426D01*
X104272361Y-85162898D01*
X104272357Y-85162900D01*
X104093121Y-85288402D01*
X103938402Y-85443121D01*
X103812900Y-85622357D01*
X103812898Y-85622361D01*
X103720426Y-85820668D01*
X103720422Y-85820677D01*
X103663793Y-86032020D01*
X103663793Y-86032023D01*
X103644723Y-86250000D01*
X100050500Y-86250000D01*
X100050500Y-82750000D01*
X103345207Y-82750000D01*
X103364348Y-82993219D01*
X103421303Y-83230457D01*
X103514668Y-83455861D01*
X103638504Y-83657941D01*
X104260689Y-83035755D01*
X104279668Y-83081574D01*
X104356274Y-83196224D01*
X104453776Y-83293726D01*
X104568426Y-83370332D01*
X104614242Y-83389309D01*
X103992057Y-84011494D01*
X104194138Y-84135331D01*
X104419542Y-84228696D01*
X104656780Y-84285651D01*
X104656779Y-84285651D01*
X104900000Y-84304792D01*
X105143219Y-84285651D01*
X105380457Y-84228696D01*
X105605861Y-84135331D01*
X105807941Y-84011495D01*
X105807941Y-84011494D01*
X105185757Y-83389309D01*
X105231574Y-83370332D01*
X105346224Y-83293726D01*
X105443726Y-83196224D01*
X105520332Y-83081574D01*
X105539309Y-83035756D01*
X106161494Y-83657941D01*
X106161495Y-83657941D01*
X106285331Y-83455861D01*
X106378696Y-83230457D01*
X106435651Y-82993219D01*
X106454792Y-82750000D01*
X106435651Y-82506780D01*
X106378696Y-82269542D01*
X106285331Y-82044138D01*
X106161494Y-81842057D01*
X105539309Y-82464242D01*
X105520332Y-82418426D01*
X105443726Y-82303776D01*
X105346224Y-82206274D01*
X105231574Y-82129668D01*
X105185756Y-82110689D01*
X105807941Y-81488504D01*
X105605861Y-81364668D01*
X105380457Y-81271303D01*
X105143219Y-81214348D01*
X105143220Y-81214348D01*
X104900000Y-81195207D01*
X104656780Y-81214348D01*
X104419542Y-81271303D01*
X104194138Y-81364668D01*
X103992057Y-81488504D01*
X104614243Y-82110689D01*
X104568426Y-82129668D01*
X104453776Y-82206274D01*
X104356274Y-82303776D01*
X104279668Y-82418426D01*
X104260690Y-82464243D01*
X103638504Y-81842057D01*
X103514668Y-82044138D01*
X103421303Y-82269542D01*
X103364348Y-82506780D01*
X103345207Y-82750000D01*
X100050500Y-82750000D01*
X100050500Y-76567400D01*
X103767103Y-76567400D01*
X103787402Y-76773508D01*
X103847524Y-76971704D01*
X103945149Y-77154347D01*
X103945153Y-77154354D01*
X104076540Y-77314449D01*
X104236635Y-77445836D01*
X104236642Y-77445840D01*
X104419285Y-77543465D01*
X104419287Y-77543465D01*
X104419290Y-77543467D01*
X104617480Y-77603587D01*
X104823590Y-77623887D01*
X105029700Y-77603587D01*
X105227890Y-77543467D01*
X105249299Y-77532024D01*
X105410537Y-77445840D01*
X105410543Y-77445837D01*
X105570639Y-77314449D01*
X105702027Y-77154353D01*
X105799657Y-76971700D01*
X105859777Y-76773510D01*
X105880077Y-76567400D01*
X105859777Y-76361290D01*
X105799657Y-76163100D01*
X105799655Y-76163097D01*
X105799655Y-76163095D01*
X105702030Y-75980452D01*
X105702026Y-75980445D01*
X105570639Y-75820350D01*
X105410544Y-75688963D01*
X105410537Y-75688959D01*
X105227894Y-75591334D01*
X105029698Y-75531212D01*
X104823590Y-75510913D01*
X104617481Y-75531212D01*
X104419285Y-75591334D01*
X104236642Y-75688959D01*
X104236635Y-75688963D01*
X104076540Y-75820350D01*
X103945153Y-75980445D01*
X103945149Y-75980452D01*
X103847524Y-76163095D01*
X103787402Y-76361291D01*
X103767103Y-76567400D01*
X100050500Y-76567400D01*
X100050500Y-73067400D01*
X103767103Y-73067400D01*
X103787402Y-73273508D01*
X103847524Y-73471704D01*
X103945149Y-73654347D01*
X103945153Y-73654354D01*
X104076540Y-73814449D01*
X104236635Y-73945836D01*
X104236642Y-73945840D01*
X104419285Y-74043465D01*
X104419287Y-74043465D01*
X104419290Y-74043467D01*
X104617480Y-74103587D01*
X104823590Y-74123887D01*
X105029700Y-74103587D01*
X105227890Y-74043467D01*
X105410543Y-73945837D01*
X105570639Y-73814449D01*
X105702027Y-73654353D01*
X105799657Y-73471700D01*
X105859777Y-73273510D01*
X105880077Y-73067400D01*
X105859777Y-72861290D01*
X105799657Y-72663100D01*
X105799655Y-72663097D01*
X105799655Y-72663095D01*
X105702030Y-72480452D01*
X105702026Y-72480445D01*
X105570639Y-72320350D01*
X105410544Y-72188963D01*
X105410537Y-72188959D01*
X105227894Y-72091334D01*
X105029698Y-72031212D01*
X104823590Y-72010913D01*
X104617481Y-72031212D01*
X104419285Y-72091334D01*
X104236642Y-72188959D01*
X104236635Y-72188963D01*
X104076540Y-72320350D01*
X103945153Y-72480445D01*
X103945149Y-72480452D01*
X103847524Y-72663095D01*
X103787402Y-72861291D01*
X103767103Y-73067400D01*
X100050500Y-73067400D01*
X100050500Y-69567393D01*
X103468060Y-69567393D01*
X103468060Y-69567404D01*
X103486547Y-69790508D01*
X103541506Y-70007539D01*
X103631434Y-70212554D01*
X103631436Y-70212558D01*
X103707875Y-70329558D01*
X104261507Y-69775926D01*
X104267367Y-69797794D01*
X104345951Y-69933904D01*
X104457085Y-70045038D01*
X104593195Y-70123622D01*
X104615060Y-70129480D01*
X104059778Y-70684762D01*
X104059779Y-70684763D01*
X104082182Y-70702201D01*
X104082189Y-70702205D01*
X104279073Y-70808753D01*
X104279087Y-70808759D01*
X104490823Y-70881449D01*
X104711652Y-70918299D01*
X104935528Y-70918299D01*
X105156356Y-70881449D01*
X105368092Y-70808759D01*
X105368101Y-70808756D01*
X105564996Y-70702201D01*
X105564999Y-70702199D01*
X105587400Y-70684763D01*
X105587400Y-70684762D01*
X105032119Y-70129480D01*
X105053985Y-70123622D01*
X105190095Y-70045038D01*
X105301229Y-69933904D01*
X105379813Y-69797794D01*
X105385671Y-69775927D01*
X105939304Y-70329559D01*
X106015743Y-70212559D01*
X106105673Y-70007539D01*
X106160632Y-69790508D01*
X106179120Y-69567404D01*
X106179120Y-69567393D01*
X106160632Y-69344289D01*
X106105673Y-69127258D01*
X106015743Y-68922238D01*
X105939303Y-68805238D01*
X105385671Y-69358869D01*
X105379813Y-69337004D01*
X105301229Y-69200894D01*
X105190095Y-69089760D01*
X105053985Y-69011176D01*
X105032118Y-69005317D01*
X105587400Y-68450035D01*
X105587399Y-68450033D01*
X105564997Y-68432597D01*
X105564991Y-68432592D01*
X105368106Y-68326044D01*
X105368092Y-68326038D01*
X105156356Y-68253348D01*
X104935528Y-68216499D01*
X104711652Y-68216499D01*
X104490823Y-68253348D01*
X104279087Y-68326038D01*
X104279073Y-68326044D01*
X104082189Y-68432592D01*
X104082187Y-68432593D01*
X104059779Y-68450034D01*
X104615061Y-69005316D01*
X104593195Y-69011176D01*
X104457085Y-69089760D01*
X104345951Y-69200894D01*
X104267367Y-69337004D01*
X104261507Y-69358870D01*
X103707875Y-68805238D01*
X103631435Y-68922241D01*
X103631434Y-68922243D01*
X103541506Y-69127258D01*
X103486547Y-69344289D01*
X103468060Y-69567393D01*
X100050500Y-69567393D01*
X100050500Y-66829500D01*
X100070185Y-66762461D01*
X100122989Y-66716706D01*
X100174500Y-66705500D01*
X108170500Y-66705500D01*
X108237539Y-66725185D01*
X108283294Y-66777989D01*
X108294500Y-66829500D01*
X108294500Y-86376007D01*
X108299197Y-86419686D01*
X108310397Y-86471174D01*
X108312890Y-86481372D01*
X108312891Y-86481375D01*
X108355899Y-86562083D01*
X108355901Y-86562086D01*
X108401660Y-86614895D01*
X108419242Y-86632839D01*
X108419246Y-86632843D01*
X108419247Y-86632844D01*
X108419249Y-86632845D01*
X108499059Y-86677488D01*
X108499063Y-86677490D01*
X108566102Y-86697175D01*
X108624000Y-86705500D01*
X108624004Y-86705500D01*
X182375991Y-86705500D01*
X182376000Y-86705500D01*
X182419684Y-86700803D01*
X182448875Y-86694452D01*
X182471174Y-86689602D01*
X182471190Y-86689598D01*
X182471195Y-86689597D01*
X182481373Y-86687110D01*
X182562085Y-86644100D01*
X182614889Y-86598345D01*
X182632843Y-86580754D01*
X182677490Y-86500937D01*
X182697175Y-86433898D01*
X182705500Y-86376000D01*
X182705500Y-81250000D01*
X188545207Y-81250000D01*
X188564348Y-81493219D01*
X188621303Y-81730457D01*
X188714668Y-81955861D01*
X188838504Y-82157941D01*
X189460689Y-81535755D01*
X189479668Y-81581574D01*
X189556274Y-81696224D01*
X189653776Y-81793726D01*
X189768426Y-81870332D01*
X189814242Y-81889309D01*
X189192057Y-82511494D01*
X189394138Y-82635331D01*
X189619542Y-82728696D01*
X189856780Y-82785651D01*
X189856779Y-82785651D01*
X190100000Y-82804792D01*
X190343219Y-82785651D01*
X190580457Y-82728696D01*
X190805861Y-82635331D01*
X191007941Y-82511495D01*
X191007941Y-82511494D01*
X190385757Y-81889309D01*
X190431574Y-81870332D01*
X190546224Y-81793726D01*
X190643726Y-81696224D01*
X190720332Y-81581574D01*
X190739309Y-81535756D01*
X191361494Y-82157941D01*
X191361495Y-82157941D01*
X191485331Y-81955861D01*
X191578696Y-81730457D01*
X191635651Y-81493219D01*
X191654792Y-81250000D01*
X191635651Y-81006780D01*
X191578696Y-80769542D01*
X191485331Y-80544138D01*
X191361494Y-80342057D01*
X190739309Y-80964242D01*
X190720332Y-80918426D01*
X190643726Y-80803776D01*
X190546224Y-80706274D01*
X190431574Y-80629668D01*
X190385756Y-80610689D01*
X191007941Y-79988504D01*
X190805861Y-79864668D01*
X190580457Y-79771303D01*
X190343219Y-79714348D01*
X190343220Y-79714348D01*
X190100000Y-79695207D01*
X189856780Y-79714348D01*
X189619542Y-79771303D01*
X189394138Y-79864668D01*
X189192057Y-79988504D01*
X189814243Y-80610689D01*
X189768426Y-80629668D01*
X189653776Y-80706274D01*
X189556274Y-80803776D01*
X189479668Y-80918426D01*
X189460690Y-80964243D01*
X188838504Y-80342057D01*
X188714668Y-80544138D01*
X188621303Y-80769542D01*
X188564348Y-81006780D01*
X188545207Y-81250000D01*
X182705500Y-81250000D01*
X182705500Y-78971510D01*
X187772689Y-78971510D01*
X187772689Y-78971511D01*
X187791729Y-79128329D01*
X187847747Y-79276034D01*
X187937484Y-79406041D01*
X188055727Y-79510794D01*
X188055729Y-79510795D01*
X188195601Y-79584207D01*
X188348981Y-79622011D01*
X188348982Y-79622011D01*
X188506952Y-79622011D01*
X188660332Y-79584207D01*
X188800207Y-79510794D01*
X188918450Y-79406041D01*
X189008187Y-79276034D01*
X189064204Y-79128329D01*
X189083245Y-78971511D01*
X189064204Y-78814693D01*
X189064202Y-78814689D01*
X189062409Y-78807409D01*
X189065182Y-78806725D01*
X189060822Y-78750314D01*
X189093954Y-78688799D01*
X189155084Y-78654962D01*
X189224803Y-78659546D01*
X189269819Y-78688294D01*
X189293123Y-78711598D01*
X189472361Y-78837102D01*
X189670670Y-78929575D01*
X189882023Y-78986207D01*
X190064926Y-79002208D01*
X190099998Y-79005277D01*
X190100000Y-79005277D01*
X190100002Y-79005277D01*
X190128254Y-79002805D01*
X190317977Y-78986207D01*
X190529330Y-78929575D01*
X190727639Y-78837102D01*
X190906877Y-78711598D01*
X191061598Y-78556877D01*
X191187102Y-78377639D01*
X191279575Y-78179330D01*
X191336207Y-77967977D01*
X191355277Y-77750000D01*
X191336207Y-77532023D01*
X191279575Y-77320670D01*
X191187102Y-77122362D01*
X191187100Y-77122359D01*
X191187099Y-77122357D01*
X191061599Y-76943124D01*
X191061596Y-76943121D01*
X190906877Y-76788402D01*
X190727639Y-76662898D01*
X190727640Y-76662898D01*
X190727638Y-76662897D01*
X190628484Y-76616661D01*
X190529330Y-76570425D01*
X190529326Y-76570424D01*
X190529322Y-76570422D01*
X190317977Y-76513793D01*
X190100002Y-76494723D01*
X190099998Y-76494723D01*
X189954682Y-76507436D01*
X189882023Y-76513793D01*
X189882020Y-76513793D01*
X189670677Y-76570422D01*
X189670668Y-76570426D01*
X189472361Y-76662898D01*
X189472357Y-76662900D01*
X189293121Y-76788402D01*
X189138402Y-76943121D01*
X189012900Y-77122357D01*
X189012898Y-77122361D01*
X188920426Y-77320668D01*
X188920422Y-77320677D01*
X188863793Y-77532020D01*
X188863793Y-77532024D01*
X188844723Y-77749997D01*
X188844723Y-77750002D01*
X188863793Y-77967975D01*
X188863793Y-77967979D01*
X188920422Y-78179322D01*
X188920424Y-78179326D01*
X188920425Y-78179330D01*
X188960288Y-78264816D01*
X188970780Y-78333894D01*
X188942260Y-78397678D01*
X188883784Y-78435917D01*
X188813916Y-78436472D01*
X188790280Y-78427017D01*
X188660332Y-78358814D01*
X188506953Y-78321011D01*
X188506952Y-78321011D01*
X188348982Y-78321011D01*
X188348981Y-78321011D01*
X188195601Y-78358814D01*
X188055729Y-78432226D01*
X187937483Y-78536982D01*
X187847748Y-78666986D01*
X187847747Y-78666987D01*
X187791729Y-78814692D01*
X187772689Y-78971510D01*
X182705500Y-78971510D01*
X182705500Y-71750000D01*
X188545207Y-71750000D01*
X188564348Y-71993219D01*
X188621303Y-72230457D01*
X188714668Y-72455861D01*
X188838504Y-72657941D01*
X189460689Y-72035755D01*
X189479668Y-72081574D01*
X189556274Y-72196224D01*
X189653776Y-72293726D01*
X189768426Y-72370332D01*
X189814242Y-72389309D01*
X189192057Y-73011494D01*
X189394138Y-73135331D01*
X189619542Y-73228696D01*
X189856780Y-73285651D01*
X189856779Y-73285651D01*
X190100000Y-73304792D01*
X190343219Y-73285651D01*
X190580457Y-73228696D01*
X190805861Y-73135331D01*
X191007941Y-73011495D01*
X191007941Y-73011494D01*
X190385757Y-72389309D01*
X190431574Y-72370332D01*
X190546224Y-72293726D01*
X190643726Y-72196224D01*
X190720332Y-72081574D01*
X190739309Y-72035756D01*
X191361494Y-72657941D01*
X191361495Y-72657941D01*
X191485331Y-72455861D01*
X191578696Y-72230457D01*
X191635651Y-71993219D01*
X191654792Y-71750000D01*
X191635651Y-71506780D01*
X191578696Y-71269542D01*
X191485331Y-71044138D01*
X191361494Y-70842057D01*
X190739309Y-71464242D01*
X190720332Y-71418426D01*
X190643726Y-71303776D01*
X190546224Y-71206274D01*
X190431574Y-71129668D01*
X190385756Y-71110689D01*
X191007941Y-70488504D01*
X190805861Y-70364668D01*
X190580457Y-70271303D01*
X190343219Y-70214348D01*
X190343220Y-70214348D01*
X190100000Y-70195207D01*
X189856780Y-70214348D01*
X189619542Y-70271303D01*
X189394138Y-70364668D01*
X189192057Y-70488504D01*
X189814243Y-71110689D01*
X189768426Y-71129668D01*
X189653776Y-71206274D01*
X189556274Y-71303776D01*
X189479668Y-71418426D01*
X189460690Y-71464243D01*
X188838504Y-70842057D01*
X188714668Y-71044138D01*
X188621303Y-71269542D01*
X188564348Y-71506780D01*
X188545207Y-71750000D01*
X182705500Y-71750000D01*
X182705500Y-69471510D01*
X187772689Y-69471510D01*
X187772689Y-69471511D01*
X187791729Y-69628329D01*
X187847747Y-69776034D01*
X187937484Y-69906041D01*
X188055727Y-70010794D01*
X188055729Y-70010795D01*
X188195601Y-70084207D01*
X188348981Y-70122011D01*
X188348982Y-70122011D01*
X188506952Y-70122011D01*
X188660332Y-70084207D01*
X188734961Y-70045038D01*
X188800207Y-70010794D01*
X188918450Y-69906041D01*
X189008187Y-69776034D01*
X189064204Y-69628329D01*
X189083245Y-69471511D01*
X189064204Y-69314693D01*
X189064202Y-69314689D01*
X189062409Y-69307409D01*
X189065182Y-69306725D01*
X189060822Y-69250314D01*
X189093954Y-69188799D01*
X189155084Y-69154962D01*
X189224803Y-69159546D01*
X189269819Y-69188294D01*
X189293123Y-69211598D01*
X189472361Y-69337102D01*
X189670670Y-69429575D01*
X189882023Y-69486207D01*
X190064926Y-69502208D01*
X190099998Y-69505277D01*
X190100000Y-69505277D01*
X190100002Y-69505277D01*
X190128254Y-69502805D01*
X190317977Y-69486207D01*
X190529330Y-69429575D01*
X190727639Y-69337102D01*
X190906877Y-69211598D01*
X191061598Y-69056877D01*
X191187102Y-68877639D01*
X191279575Y-68679330D01*
X191336207Y-68467977D01*
X191355277Y-68250000D01*
X191336207Y-68032023D01*
X191279575Y-67820670D01*
X191187102Y-67622362D01*
X191187100Y-67622359D01*
X191187099Y-67622357D01*
X191061599Y-67443124D01*
X191061596Y-67443121D01*
X190906877Y-67288402D01*
X190727639Y-67162898D01*
X190727640Y-67162898D01*
X190727638Y-67162897D01*
X190628484Y-67116661D01*
X190529330Y-67070425D01*
X190529326Y-67070424D01*
X190529322Y-67070422D01*
X190317977Y-67013793D01*
X190100002Y-66994723D01*
X190099998Y-66994723D01*
X189954682Y-67007436D01*
X189882023Y-67013793D01*
X189882020Y-67013793D01*
X189670677Y-67070422D01*
X189670668Y-67070426D01*
X189472361Y-67162898D01*
X189472357Y-67162900D01*
X189293121Y-67288402D01*
X189138402Y-67443121D01*
X189012900Y-67622357D01*
X189012898Y-67622361D01*
X188920426Y-67820668D01*
X188920422Y-67820677D01*
X188863793Y-68032020D01*
X188863793Y-68032023D01*
X188844723Y-68250000D01*
X188860697Y-68432593D01*
X188863793Y-68467975D01*
X188863793Y-68467979D01*
X188920422Y-68679322D01*
X188920424Y-68679326D01*
X188920425Y-68679330D01*
X188960288Y-68764816D01*
X188970780Y-68833894D01*
X188942260Y-68897678D01*
X188883784Y-68935917D01*
X188813916Y-68936472D01*
X188790280Y-68927017D01*
X188660332Y-68858814D01*
X188506953Y-68821011D01*
X188506952Y-68821011D01*
X188348982Y-68821011D01*
X188348981Y-68821011D01*
X188195601Y-68858814D01*
X188055729Y-68932226D01*
X187937483Y-69036982D01*
X187847748Y-69166986D01*
X187847747Y-69166987D01*
X187791729Y-69314692D01*
X187772689Y-69471510D01*
X182705500Y-69471510D01*
X182705500Y-62250000D01*
X188545207Y-62250000D01*
X188564348Y-62493219D01*
X188621303Y-62730457D01*
X188714668Y-62955861D01*
X188838504Y-63157941D01*
X189460689Y-62535755D01*
X189479668Y-62581574D01*
X189556274Y-62696224D01*
X189653776Y-62793726D01*
X189768426Y-62870332D01*
X189814242Y-62889309D01*
X189192057Y-63511494D01*
X189394138Y-63635331D01*
X189619542Y-63728696D01*
X189856780Y-63785651D01*
X189856779Y-63785651D01*
X190100000Y-63804792D01*
X190343219Y-63785651D01*
X190580457Y-63728696D01*
X190805861Y-63635331D01*
X191007941Y-63511495D01*
X191007941Y-63511494D01*
X190385757Y-62889309D01*
X190431574Y-62870332D01*
X190546224Y-62793726D01*
X190643726Y-62696224D01*
X190720332Y-62581574D01*
X190739309Y-62535756D01*
X191361494Y-63157941D01*
X191361495Y-63157941D01*
X191485331Y-62955861D01*
X191578696Y-62730457D01*
X191635651Y-62493219D01*
X191654792Y-62250000D01*
X191635651Y-62006780D01*
X191578696Y-61769542D01*
X191485331Y-61544138D01*
X191361494Y-61342057D01*
X190739309Y-61964242D01*
X190720332Y-61918426D01*
X190643726Y-61803776D01*
X190546224Y-61706274D01*
X190431574Y-61629668D01*
X190385756Y-61610689D01*
X191007941Y-60988504D01*
X190805861Y-60864668D01*
X190580457Y-60771303D01*
X190343219Y-60714348D01*
X190343220Y-60714348D01*
X190100000Y-60695207D01*
X189856780Y-60714348D01*
X189619542Y-60771303D01*
X189394138Y-60864668D01*
X189192057Y-60988504D01*
X189814243Y-61610689D01*
X189768426Y-61629668D01*
X189653776Y-61706274D01*
X189556274Y-61803776D01*
X189479668Y-61918426D01*
X189460690Y-61964243D01*
X188838504Y-61342057D01*
X188714668Y-61544138D01*
X188621303Y-61769542D01*
X188564348Y-62006780D01*
X188545207Y-62250000D01*
X182705500Y-62250000D01*
X182705500Y-59971510D01*
X187772689Y-59971510D01*
X187772689Y-59971511D01*
X187791729Y-60128329D01*
X187806270Y-60166669D01*
X187847747Y-60276034D01*
X187937484Y-60406041D01*
X188055727Y-60510794D01*
X188055729Y-60510795D01*
X188195601Y-60584207D01*
X188348981Y-60622011D01*
X188348982Y-60622011D01*
X188506952Y-60622011D01*
X188660332Y-60584207D01*
X188800207Y-60510794D01*
X188918450Y-60406041D01*
X189008187Y-60276034D01*
X189064204Y-60128329D01*
X189083245Y-59971511D01*
X189064204Y-59814693D01*
X189064202Y-59814689D01*
X189062409Y-59807409D01*
X189065182Y-59806725D01*
X189060822Y-59750314D01*
X189093954Y-59688799D01*
X189155084Y-59654962D01*
X189224803Y-59659546D01*
X189269819Y-59688294D01*
X189293123Y-59711598D01*
X189472361Y-59837102D01*
X189670670Y-59929575D01*
X189882023Y-59986207D01*
X190064926Y-60002208D01*
X190099998Y-60005277D01*
X190100000Y-60005277D01*
X190100002Y-60005277D01*
X190128254Y-60002805D01*
X190317977Y-59986207D01*
X190529330Y-59929575D01*
X190727639Y-59837102D01*
X190906877Y-59711598D01*
X191061598Y-59556877D01*
X191187102Y-59377639D01*
X191279575Y-59179330D01*
X191336207Y-58967977D01*
X191355277Y-58750000D01*
X191336207Y-58532023D01*
X191279575Y-58320670D01*
X191187102Y-58122362D01*
X191187100Y-58122359D01*
X191187099Y-58122357D01*
X191061599Y-57943124D01*
X191061596Y-57943121D01*
X190906877Y-57788402D01*
X190727639Y-57662898D01*
X190727640Y-57662898D01*
X190727638Y-57662897D01*
X190628484Y-57616661D01*
X190529330Y-57570425D01*
X190529326Y-57570424D01*
X190529322Y-57570422D01*
X190317977Y-57513793D01*
X190100002Y-57494723D01*
X190099998Y-57494723D01*
X189954682Y-57507436D01*
X189882023Y-57513793D01*
X189882020Y-57513793D01*
X189670677Y-57570422D01*
X189670668Y-57570426D01*
X189472361Y-57662898D01*
X189472357Y-57662900D01*
X189293121Y-57788402D01*
X189138402Y-57943121D01*
X189012900Y-58122357D01*
X189012898Y-58122361D01*
X188920426Y-58320668D01*
X188920422Y-58320677D01*
X188863793Y-58532020D01*
X188863793Y-58532024D01*
X188844723Y-58749997D01*
X188844723Y-58750002D01*
X188863793Y-58967975D01*
X188863793Y-58967979D01*
X188920422Y-59179322D01*
X188920424Y-59179326D01*
X188920425Y-59179330D01*
X188943219Y-59228212D01*
X188960288Y-59264816D01*
X188970780Y-59333894D01*
X188942260Y-59397678D01*
X188883784Y-59435917D01*
X188813916Y-59436472D01*
X188790280Y-59427017D01*
X188660332Y-59358814D01*
X188506953Y-59321011D01*
X188506952Y-59321011D01*
X188348982Y-59321011D01*
X188348981Y-59321011D01*
X188195601Y-59358814D01*
X188055729Y-59432226D01*
X187937483Y-59536982D01*
X187847748Y-59666986D01*
X187847747Y-59666987D01*
X187791729Y-59814692D01*
X187772689Y-59971510D01*
X182705500Y-59971510D01*
X182705500Y-54624000D01*
X182700803Y-54580316D01*
X182696897Y-54562364D01*
X182689602Y-54528825D01*
X182689348Y-54527789D01*
X182687110Y-54518627D01*
X182644100Y-54437915D01*
X182598345Y-54385111D01*
X182598339Y-54385104D01*
X182580757Y-54367160D01*
X182580756Y-54367159D01*
X182580754Y-54367157D01*
X182580752Y-54367156D01*
X182580750Y-54367154D01*
X182500940Y-54322511D01*
X182500935Y-54322509D01*
X182433903Y-54302826D01*
X182433899Y-54302825D01*
X182433898Y-54302825D01*
X182376000Y-54294500D01*
X174748187Y-54294500D01*
X174741515Y-54295206D01*
X174705170Y-54299053D01*
X174705157Y-54299055D01*
X174654421Y-54309917D01*
X174644862Y-54312203D01*
X174644857Y-54312205D01*
X174563869Y-54354680D01*
X174563867Y-54354682D01*
X174510775Y-54400078D01*
X174510770Y-54400083D01*
X174492695Y-54417561D01*
X174492691Y-54417566D01*
X174447524Y-54497083D01*
X174427398Y-54563994D01*
X174427398Y-54563996D01*
X174418693Y-54621832D01*
X174418693Y-54621833D01*
X174371669Y-61769542D01*
X174370162Y-61998647D01*
X174370153Y-61999999D01*
X174363771Y-62970158D01*
X174363762Y-62971510D01*
X174351279Y-64868918D01*
X174341034Y-66426159D01*
X174301270Y-72470149D01*
X174301270Y-72470156D01*
X174301261Y-72471512D01*
X174296657Y-73171316D01*
X174276532Y-73238224D01*
X174223428Y-73283631D01*
X174172660Y-73294500D01*
X167079500Y-73294500D01*
X167012461Y-73274815D01*
X166966706Y-73222011D01*
X166955500Y-73170500D01*
X166955500Y-72483704D01*
X166975185Y-72416665D01*
X167027989Y-72370910D01*
X167097147Y-72360966D01*
X167160703Y-72389991D01*
X167165372Y-72394985D01*
X167168025Y-72395169D01*
X167739471Y-71823723D01*
X167764376Y-71916669D01*
X167821224Y-72015131D01*
X167901619Y-72095526D01*
X168000081Y-72152374D01*
X168093024Y-72177277D01*
X167523736Y-72746565D01*
X167523737Y-72746566D01*
X167635925Y-72816030D01*
X167635931Y-72816032D01*
X167840851Y-72895418D01*
X168056871Y-72935800D01*
X168276629Y-72935800D01*
X168492647Y-72895418D01*
X168492648Y-72895418D01*
X168697570Y-72816032D01*
X168697571Y-72816031D01*
X168809762Y-72746565D01*
X168240475Y-72177277D01*
X168333419Y-72152374D01*
X168431881Y-72095526D01*
X168512276Y-72015131D01*
X168569124Y-71916669D01*
X168594027Y-71823724D01*
X169165472Y-72395168D01*
X169165473Y-72395168D01*
X169179255Y-72376920D01*
X169179257Y-72376915D01*
X169277211Y-72180198D01*
X169337353Y-71968819D01*
X169357630Y-71750000D01*
X172275568Y-71750000D01*
X172295042Y-71935287D01*
X172295043Y-71935290D01*
X172352612Y-72112469D01*
X172352615Y-72112476D01*
X172445769Y-72273824D01*
X172533186Y-72370910D01*
X172550366Y-72389991D01*
X172570433Y-72412277D01*
X172650099Y-72470158D01*
X172721160Y-72521787D01*
X172891360Y-72597564D01*
X173073596Y-72636300D01*
X173259904Y-72636300D01*
X173442140Y-72597564D01*
X173612341Y-72521786D01*
X173763067Y-72412277D01*
X173887731Y-72273824D01*
X173980885Y-72112476D01*
X174038458Y-71935287D01*
X174057932Y-71750000D01*
X174038458Y-71564713D01*
X173980885Y-71387524D01*
X173887731Y-71226176D01*
X173763067Y-71087723D01*
X173711146Y-71050000D01*
X173612339Y-70978212D01*
X173442139Y-70902435D01*
X173259904Y-70863700D01*
X173073596Y-70863700D01*
X172891360Y-70902435D01*
X172891359Y-70902435D01*
X172721160Y-70978212D01*
X172570431Y-71087724D01*
X172445768Y-71226177D01*
X172352615Y-71387523D01*
X172352612Y-71387530D01*
X172301181Y-71545818D01*
X172295042Y-71564713D01*
X172275568Y-71750000D01*
X169357630Y-71750000D01*
X169357630Y-71749999D01*
X169337353Y-71531180D01*
X169277211Y-71319799D01*
X169277210Y-71319798D01*
X169179261Y-71123088D01*
X169179256Y-71123081D01*
X169165472Y-71104829D01*
X168594027Y-71676274D01*
X168569124Y-71583331D01*
X168512276Y-71484869D01*
X168431881Y-71404474D01*
X168333419Y-71347626D01*
X168240474Y-71322722D01*
X168809762Y-70753433D01*
X168809761Y-70753432D01*
X168697574Y-70683970D01*
X168697568Y-70683967D01*
X168492648Y-70604581D01*
X168276629Y-70564200D01*
X168056871Y-70564200D01*
X167840852Y-70604581D01*
X167840851Y-70604581D01*
X167635932Y-70683966D01*
X167523736Y-70753433D01*
X168093025Y-71322721D01*
X168000081Y-71347626D01*
X167901619Y-71404474D01*
X167821224Y-71484869D01*
X167764376Y-71583331D01*
X167739472Y-71676275D01*
X167168026Y-71104829D01*
X167159000Y-71105455D01*
X167122346Y-71132656D01*
X167052634Y-71137349D01*
X166991452Y-71103607D01*
X166958224Y-71042144D01*
X166955500Y-71016294D01*
X166955500Y-60733704D01*
X166975185Y-60666665D01*
X167027989Y-60620910D01*
X167097147Y-60610966D01*
X167160703Y-60639991D01*
X167165372Y-60644985D01*
X167168025Y-60645169D01*
X167739471Y-60073723D01*
X167764376Y-60166669D01*
X167821224Y-60265131D01*
X167901619Y-60345526D01*
X168000081Y-60402374D01*
X168093024Y-60427277D01*
X167523736Y-60996565D01*
X167523737Y-60996566D01*
X167635925Y-61066030D01*
X167635931Y-61066032D01*
X167840851Y-61145418D01*
X168056871Y-61185800D01*
X168276629Y-61185800D01*
X168492647Y-61145418D01*
X168492648Y-61145418D01*
X168697570Y-61066032D01*
X168697571Y-61066031D01*
X168809762Y-60996565D01*
X168240475Y-60427277D01*
X168333419Y-60402374D01*
X168431881Y-60345526D01*
X168512276Y-60265131D01*
X168569124Y-60166669D01*
X168594027Y-60073724D01*
X169165472Y-60645168D01*
X169165473Y-60645168D01*
X169179255Y-60626920D01*
X169179257Y-60626915D01*
X169277211Y-60430198D01*
X169337353Y-60218819D01*
X169357630Y-60000000D01*
X172275568Y-60000000D01*
X172295042Y-60185287D01*
X172295043Y-60185290D01*
X172352612Y-60362469D01*
X172352615Y-60362476D01*
X172445769Y-60523824D01*
X172524232Y-60610966D01*
X172550366Y-60639991D01*
X172570433Y-60662277D01*
X172668744Y-60733704D01*
X172721160Y-60771787D01*
X172891360Y-60847564D01*
X173073596Y-60886300D01*
X173259904Y-60886300D01*
X173442140Y-60847564D01*
X173612341Y-60771786D01*
X173763067Y-60662277D01*
X173887731Y-60523824D01*
X173980885Y-60362476D01*
X174038458Y-60185287D01*
X174057932Y-60000000D01*
X174038458Y-59814713D01*
X173980885Y-59637524D01*
X173887731Y-59476176D01*
X173763067Y-59337723D01*
X173664754Y-59266294D01*
X173612339Y-59228212D01*
X173442139Y-59152435D01*
X173259904Y-59113700D01*
X173073596Y-59113700D01*
X172891360Y-59152435D01*
X172891359Y-59152435D01*
X172721160Y-59228212D01*
X172570431Y-59337724D01*
X172445768Y-59476177D01*
X172352615Y-59637523D01*
X172352612Y-59637530D01*
X172297637Y-59806725D01*
X172295042Y-59814713D01*
X172275568Y-60000000D01*
X169357630Y-60000000D01*
X169357630Y-59999999D01*
X169337353Y-59781180D01*
X169277211Y-59569799D01*
X169277210Y-59569798D01*
X169179261Y-59373088D01*
X169179256Y-59373081D01*
X169165472Y-59354829D01*
X168594027Y-59926274D01*
X168569124Y-59833331D01*
X168512276Y-59734869D01*
X168431881Y-59654474D01*
X168333419Y-59597626D01*
X168240474Y-59572722D01*
X168809762Y-59003433D01*
X168809761Y-59003432D01*
X168697574Y-58933970D01*
X168697568Y-58933967D01*
X168492648Y-58854581D01*
X168276629Y-58814200D01*
X168056871Y-58814200D01*
X167840852Y-58854581D01*
X167840851Y-58854581D01*
X167635932Y-58933966D01*
X167523736Y-59003433D01*
X168093025Y-59572721D01*
X168000081Y-59597626D01*
X167901619Y-59654474D01*
X167821224Y-59734869D01*
X167764376Y-59833331D01*
X167739472Y-59926275D01*
X167168026Y-59354829D01*
X167159000Y-59355455D01*
X167122346Y-59382656D01*
X167052634Y-59387349D01*
X166991452Y-59353607D01*
X166958224Y-59292144D01*
X166955500Y-59266294D01*
X166955500Y-53749999D01*
X185094722Y-53749999D01*
X185094722Y-53750000D01*
X185113762Y-53906818D01*
X185168051Y-54049964D01*
X185169780Y-54054523D01*
X185259517Y-54184530D01*
X185377760Y-54289283D01*
X185377762Y-54289284D01*
X185517634Y-54362696D01*
X185671014Y-54400500D01*
X185671015Y-54400500D01*
X185828985Y-54400500D01*
X185982365Y-54362696D01*
X186058930Y-54322511D01*
X186122240Y-54289283D01*
X186240483Y-54184530D01*
X186330220Y-54054523D01*
X186386237Y-53906818D01*
X186405278Y-53750000D01*
X186386237Y-53593182D01*
X186330220Y-53445477D01*
X186240483Y-53315470D01*
X186122240Y-53210717D01*
X186122238Y-53210716D01*
X186122237Y-53210715D01*
X185982365Y-53137303D01*
X185828986Y-53099500D01*
X185828985Y-53099500D01*
X185671015Y-53099500D01*
X185671014Y-53099500D01*
X185517634Y-53137303D01*
X185377762Y-53210715D01*
X185259516Y-53315471D01*
X185169781Y-53445475D01*
X185169780Y-53445476D01*
X185113762Y-53593181D01*
X185094722Y-53749999D01*
X166955500Y-53749999D01*
X166955500Y-52932595D01*
X188820880Y-52932595D01*
X188820880Y-52932606D01*
X188839367Y-53155710D01*
X188894326Y-53372741D01*
X188984254Y-53577756D01*
X188984256Y-53577760D01*
X189060695Y-53694760D01*
X189614327Y-53141128D01*
X189620187Y-53162996D01*
X189698771Y-53299106D01*
X189809905Y-53410240D01*
X189946015Y-53488824D01*
X189967880Y-53494682D01*
X189412598Y-54049964D01*
X189412599Y-54049965D01*
X189435002Y-54067403D01*
X189435009Y-54067407D01*
X189631893Y-54173955D01*
X189631907Y-54173961D01*
X189843643Y-54246651D01*
X190064472Y-54283501D01*
X190288348Y-54283501D01*
X190509176Y-54246651D01*
X190720912Y-54173961D01*
X190720921Y-54173958D01*
X190917816Y-54067403D01*
X190917819Y-54067401D01*
X190940220Y-54049965D01*
X190940220Y-54049964D01*
X190384939Y-53494682D01*
X190406805Y-53488824D01*
X190542915Y-53410240D01*
X190654049Y-53299106D01*
X190732633Y-53162996D01*
X190738491Y-53141129D01*
X191292124Y-53694761D01*
X191368563Y-53577761D01*
X191458493Y-53372741D01*
X191513452Y-53155710D01*
X191531940Y-52932606D01*
X191531940Y-52932595D01*
X191513452Y-52709491D01*
X191458493Y-52492460D01*
X191368563Y-52287440D01*
X191292123Y-52170440D01*
X190738491Y-52724071D01*
X190732633Y-52702206D01*
X190654049Y-52566096D01*
X190542915Y-52454962D01*
X190406805Y-52376378D01*
X190384938Y-52370519D01*
X190940220Y-51815237D01*
X190940219Y-51815235D01*
X190917817Y-51797799D01*
X190917811Y-51797794D01*
X190720926Y-51691246D01*
X190720912Y-51691240D01*
X190509176Y-51618550D01*
X190288348Y-51581701D01*
X190064472Y-51581701D01*
X189843643Y-51618550D01*
X189631907Y-51691240D01*
X189631893Y-51691246D01*
X189435009Y-51797794D01*
X189435007Y-51797795D01*
X189412599Y-51815236D01*
X189967881Y-52370518D01*
X189946015Y-52376378D01*
X189809905Y-52454962D01*
X189698771Y-52566096D01*
X189620187Y-52702206D01*
X189614327Y-52724072D01*
X189060695Y-52170440D01*
X188984255Y-52287443D01*
X188984254Y-52287445D01*
X188894326Y-52492460D01*
X188839367Y-52709491D01*
X188820880Y-52932595D01*
X166955500Y-52932595D01*
X166955500Y-50174999D01*
X183344722Y-50174999D01*
X183344722Y-50175000D01*
X183363762Y-50331818D01*
X183415708Y-50468787D01*
X183419780Y-50479523D01*
X183509517Y-50609530D01*
X183627760Y-50714283D01*
X183627762Y-50714284D01*
X183767634Y-50787696D01*
X183921014Y-50825500D01*
X183921015Y-50825500D01*
X184078985Y-50825500D01*
X184232365Y-50787696D01*
X184372240Y-50714283D01*
X184490483Y-50609530D01*
X184580220Y-50479523D01*
X184636237Y-50331818D01*
X184655278Y-50175000D01*
X184636404Y-50019553D01*
X184636237Y-50018181D01*
X184614992Y-49962164D01*
X184580220Y-49870477D01*
X184490483Y-49740470D01*
X184372240Y-49635717D01*
X184372238Y-49635716D01*
X184372237Y-49635715D01*
X184232365Y-49562303D01*
X184078986Y-49524500D01*
X184078985Y-49524500D01*
X183921015Y-49524500D01*
X183921014Y-49524500D01*
X183767634Y-49562303D01*
X183627762Y-49635715D01*
X183509516Y-49740471D01*
X183419781Y-49870475D01*
X183419780Y-49870476D01*
X183363762Y-50018181D01*
X183344722Y-50174999D01*
X166955500Y-50174999D01*
X166955500Y-49233704D01*
X166975185Y-49166665D01*
X167027989Y-49120910D01*
X167097147Y-49110966D01*
X167160703Y-49139991D01*
X167165372Y-49144985D01*
X167168025Y-49145169D01*
X167739471Y-48573723D01*
X167764376Y-48666669D01*
X167821224Y-48765131D01*
X167901619Y-48845526D01*
X168000081Y-48902374D01*
X168093024Y-48927277D01*
X167523736Y-49496565D01*
X167523737Y-49496566D01*
X167635925Y-49566030D01*
X167635931Y-49566032D01*
X167840851Y-49645418D01*
X168056871Y-49685800D01*
X168276629Y-49685800D01*
X168492647Y-49645418D01*
X168492648Y-49645418D01*
X168697570Y-49566032D01*
X168697571Y-49566031D01*
X168809762Y-49496565D01*
X168745797Y-49432600D01*
X189119923Y-49432600D01*
X189140222Y-49638708D01*
X189200344Y-49836904D01*
X189297969Y-50019547D01*
X189297973Y-50019554D01*
X189429360Y-50179649D01*
X189589455Y-50311036D01*
X189589462Y-50311040D01*
X189772105Y-50408665D01*
X189772107Y-50408665D01*
X189772110Y-50408667D01*
X189970300Y-50468787D01*
X190176410Y-50489087D01*
X190382520Y-50468787D01*
X190580710Y-50408667D01*
X190763363Y-50311037D01*
X190923459Y-50179649D01*
X191054847Y-50019553D01*
X191152477Y-49836900D01*
X191212597Y-49638710D01*
X191232897Y-49432600D01*
X191212597Y-49226490D01*
X191152477Y-49028300D01*
X191152475Y-49028297D01*
X191152475Y-49028295D01*
X191054850Y-48845652D01*
X191054846Y-48845645D01*
X190923459Y-48685550D01*
X190763364Y-48554163D01*
X190763357Y-48554159D01*
X190580714Y-48456534D01*
X190382518Y-48396412D01*
X190176410Y-48376113D01*
X189970301Y-48396412D01*
X189772105Y-48456534D01*
X189589462Y-48554159D01*
X189589455Y-48554163D01*
X189429360Y-48685550D01*
X189297973Y-48845645D01*
X189297969Y-48845652D01*
X189200344Y-49028295D01*
X189140222Y-49226491D01*
X189119923Y-49432600D01*
X168745797Y-49432600D01*
X168240475Y-48927277D01*
X168333419Y-48902374D01*
X168431881Y-48845526D01*
X168512276Y-48765131D01*
X168569124Y-48666669D01*
X168594027Y-48573724D01*
X169165472Y-49145168D01*
X169165473Y-49145168D01*
X169179255Y-49126920D01*
X169179257Y-49126915D01*
X169277211Y-48930198D01*
X169337353Y-48718819D01*
X169357630Y-48500000D01*
X172275568Y-48500000D01*
X172295042Y-48685287D01*
X172295043Y-48685290D01*
X172352612Y-48862469D01*
X172352615Y-48862476D01*
X172445769Y-49023824D01*
X172524232Y-49110966D01*
X172550366Y-49139991D01*
X172570433Y-49162277D01*
X172658816Y-49226491D01*
X172721160Y-49271787D01*
X172891360Y-49347564D01*
X173073596Y-49386300D01*
X173259904Y-49386300D01*
X173442140Y-49347564D01*
X173612341Y-49271786D01*
X173763067Y-49162277D01*
X173887731Y-49023824D01*
X173980885Y-48862476D01*
X174038458Y-48685287D01*
X174057932Y-48500000D01*
X174038458Y-48314713D01*
X173980885Y-48137524D01*
X173887731Y-47976176D01*
X173763067Y-47837723D01*
X173664754Y-47766294D01*
X173612339Y-47728212D01*
X173442139Y-47652435D01*
X173259904Y-47613700D01*
X173073596Y-47613700D01*
X172891360Y-47652435D01*
X172891359Y-47652435D01*
X172721160Y-47728212D01*
X172570431Y-47837724D01*
X172445768Y-47976177D01*
X172352615Y-48137523D01*
X172352612Y-48137530D01*
X172295043Y-48314709D01*
X172295042Y-48314713D01*
X172275568Y-48500000D01*
X169357630Y-48500000D01*
X169357630Y-48499999D01*
X169337353Y-48281180D01*
X169277211Y-48069799D01*
X169277210Y-48069798D01*
X169179261Y-47873088D01*
X169179256Y-47873081D01*
X169165472Y-47854829D01*
X168594027Y-48426274D01*
X168569124Y-48333331D01*
X168512276Y-48234869D01*
X168431881Y-48154474D01*
X168333419Y-48097626D01*
X168240474Y-48072722D01*
X168809762Y-47503433D01*
X168809761Y-47503432D01*
X168697574Y-47433970D01*
X168697568Y-47433967D01*
X168492648Y-47354581D01*
X168276629Y-47314200D01*
X168056871Y-47314200D01*
X167840852Y-47354581D01*
X167840851Y-47354581D01*
X167635932Y-47433966D01*
X167523736Y-47503433D01*
X168093025Y-48072721D01*
X168000081Y-48097626D01*
X167901619Y-48154474D01*
X167821224Y-48234869D01*
X167764376Y-48333331D01*
X167739472Y-48426275D01*
X167168026Y-47854829D01*
X167159000Y-47855455D01*
X167122346Y-47882656D01*
X167052634Y-47887349D01*
X166991452Y-47853607D01*
X166958224Y-47792144D01*
X166955500Y-47766294D01*
X166955500Y-45499999D01*
X182844722Y-45499999D01*
X182844722Y-45500000D01*
X182863762Y-45656818D01*
X182890186Y-45726490D01*
X182919780Y-45804523D01*
X183009517Y-45934530D01*
X183127760Y-46039283D01*
X183127762Y-46039284D01*
X183267634Y-46112696D01*
X183421014Y-46150500D01*
X183421015Y-46150500D01*
X183578985Y-46150500D01*
X183732365Y-46112696D01*
X183872240Y-46039283D01*
X183990483Y-45934530D01*
X183991815Y-45932600D01*
X189119923Y-45932600D01*
X189140222Y-46138708D01*
X189200344Y-46336904D01*
X189297969Y-46519547D01*
X189297973Y-46519554D01*
X189429360Y-46679649D01*
X189589455Y-46811036D01*
X189589462Y-46811040D01*
X189772105Y-46908665D01*
X189772107Y-46908665D01*
X189772110Y-46908667D01*
X189970300Y-46968787D01*
X190176410Y-46989087D01*
X190382520Y-46968787D01*
X190580710Y-46908667D01*
X190763363Y-46811037D01*
X190923459Y-46679649D01*
X191054847Y-46519553D01*
X191152477Y-46336900D01*
X191212597Y-46138710D01*
X191232897Y-45932600D01*
X191212597Y-45726490D01*
X191152477Y-45528300D01*
X191152475Y-45528297D01*
X191152475Y-45528295D01*
X191054850Y-45345652D01*
X191054846Y-45345645D01*
X190923459Y-45185550D01*
X190763364Y-45054163D01*
X190763357Y-45054159D01*
X190580714Y-44956534D01*
X190382518Y-44896412D01*
X190176410Y-44876113D01*
X189970301Y-44896412D01*
X189772105Y-44956534D01*
X189589462Y-45054159D01*
X189589455Y-45054163D01*
X189429360Y-45185550D01*
X189297973Y-45345645D01*
X189297969Y-45345652D01*
X189200344Y-45528295D01*
X189140222Y-45726491D01*
X189119923Y-45932600D01*
X183991815Y-45932600D01*
X184080220Y-45804523D01*
X184136237Y-45656818D01*
X184155278Y-45500000D01*
X184136237Y-45343182D01*
X184080220Y-45195477D01*
X183990483Y-45065470D01*
X183872240Y-44960717D01*
X183872238Y-44960716D01*
X183872237Y-44960715D01*
X183732365Y-44887303D01*
X183578986Y-44849500D01*
X183578985Y-44849500D01*
X183421015Y-44849500D01*
X183421014Y-44849500D01*
X183267634Y-44887303D01*
X183127762Y-44960715D01*
X183009516Y-45065471D01*
X182919781Y-45195475D01*
X182919780Y-45195476D01*
X182863762Y-45343181D01*
X182844722Y-45499999D01*
X166955500Y-45499999D01*
X166955500Y-42185687D01*
X166975185Y-42118648D01*
X167027989Y-42072893D01*
X167079519Y-42061687D01*
X191966305Y-42066033D01*
G37*
G04 #@! TD.AperFunction*
G04 #@! TA.AperFunction,Conductor*
G36*
X166626023Y-42061609D02*
G01*
X166693058Y-42081305D01*
X166738803Y-42134117D01*
X166750000Y-42185609D01*
X166750000Y-54500000D01*
X166750000Y-73500000D01*
X174499999Y-73500000D01*
X174500000Y-73500000D01*
X174506766Y-72471510D01*
X179272689Y-72471510D01*
X179272689Y-72471511D01*
X179291729Y-72628329D01*
X179347747Y-72776034D01*
X179437484Y-72906041D01*
X179555727Y-73010794D01*
X179555729Y-73010795D01*
X179695601Y-73084207D01*
X179848981Y-73122011D01*
X179848982Y-73122011D01*
X180006952Y-73122011D01*
X180160332Y-73084207D01*
X180300207Y-73010794D01*
X180418450Y-72906041D01*
X180508187Y-72776034D01*
X180564204Y-72628329D01*
X180583245Y-72471511D01*
X180564204Y-72314693D01*
X180548704Y-72273824D01*
X180516521Y-72188963D01*
X180508187Y-72166988D01*
X180418450Y-72036981D01*
X180300207Y-71932228D01*
X180300205Y-71932227D01*
X180300204Y-71932226D01*
X180160332Y-71858814D01*
X180006953Y-71821011D01*
X180006952Y-71821011D01*
X179848982Y-71821011D01*
X179848981Y-71821011D01*
X179695601Y-71858814D01*
X179555729Y-71932226D01*
X179437483Y-72036982D01*
X179347748Y-72166986D01*
X179347747Y-72166987D01*
X179291729Y-72314692D01*
X179272689Y-72471510D01*
X174506766Y-72471510D01*
X174546530Y-66427511D01*
X174569267Y-62971510D01*
X179272689Y-62971510D01*
X179272689Y-62971511D01*
X179291729Y-63128329D01*
X179347747Y-63276034D01*
X179437484Y-63406041D01*
X179555727Y-63510794D01*
X179555729Y-63510795D01*
X179695601Y-63584207D01*
X179848981Y-63622011D01*
X179848982Y-63622011D01*
X180006952Y-63622011D01*
X180160332Y-63584207D01*
X180300207Y-63510794D01*
X180418450Y-63406041D01*
X180508187Y-63276034D01*
X180564204Y-63128329D01*
X180583245Y-62971511D01*
X180564204Y-62814693D01*
X180508187Y-62666988D01*
X180418450Y-62536981D01*
X180300207Y-62432228D01*
X180300205Y-62432227D01*
X180300204Y-62432226D01*
X180160332Y-62358814D01*
X180006953Y-62321011D01*
X180006952Y-62321011D01*
X179848982Y-62321011D01*
X179848981Y-62321011D01*
X179695601Y-62358814D01*
X179555729Y-62432226D01*
X179437483Y-62536982D01*
X179347748Y-62666986D01*
X179347747Y-62666987D01*
X179291729Y-62814692D01*
X179272689Y-62971510D01*
X174569267Y-62971510D01*
X174575658Y-61999999D01*
X177844722Y-61999999D01*
X177844722Y-62000000D01*
X177863762Y-62156818D01*
X177899102Y-62250000D01*
X177919780Y-62304523D01*
X178009517Y-62434530D01*
X178127760Y-62539283D01*
X178127762Y-62539284D01*
X178267634Y-62612696D01*
X178421014Y-62650500D01*
X178421015Y-62650500D01*
X178578985Y-62650500D01*
X178732365Y-62612696D01*
X178773068Y-62591333D01*
X178872240Y-62539283D01*
X178990483Y-62434530D01*
X179080220Y-62304523D01*
X179136237Y-62156818D01*
X179155278Y-62000000D01*
X179136237Y-61843182D01*
X179080220Y-61695477D01*
X178990483Y-61565470D01*
X178872240Y-61460717D01*
X178872238Y-61460716D01*
X178872237Y-61460715D01*
X178732365Y-61387303D01*
X178578986Y-61349500D01*
X178578985Y-61349500D01*
X178421015Y-61349500D01*
X178421014Y-61349500D01*
X178267634Y-61387303D01*
X178127762Y-61460715D01*
X178009516Y-61565471D01*
X177919781Y-61695475D01*
X177919780Y-61695476D01*
X177863762Y-61843181D01*
X177844722Y-61999999D01*
X174575658Y-61999999D01*
X174624190Y-54623184D01*
X174644315Y-54556276D01*
X174697419Y-54510869D01*
X174748187Y-54500000D01*
X182376000Y-54500000D01*
X182443039Y-54519685D01*
X182488794Y-54572489D01*
X182500000Y-54624000D01*
X182500000Y-86376000D01*
X182480315Y-86443039D01*
X182427511Y-86488794D01*
X182376000Y-86500000D01*
X108624000Y-86500000D01*
X108556961Y-86480315D01*
X108511206Y-86427511D01*
X108500000Y-86376000D01*
X108500000Y-84499999D01*
X109844722Y-84499999D01*
X109844722Y-84500000D01*
X109863762Y-84656818D01*
X109897923Y-84746892D01*
X109919780Y-84804523D01*
X110009517Y-84934530D01*
X110127760Y-85039283D01*
X110127762Y-85039284D01*
X110267634Y-85112696D01*
X110421014Y-85150500D01*
X110421015Y-85150500D01*
X110578985Y-85150500D01*
X110739649Y-85110901D01*
X110740097Y-85112721D01*
X110799964Y-85108100D01*
X110861476Y-85141238D01*
X110895306Y-85202371D01*
X110890716Y-85272090D01*
X110890233Y-85273383D01*
X110863763Y-85343178D01*
X110863763Y-85343180D01*
X110844722Y-85499999D01*
X110844722Y-85500000D01*
X110863762Y-85656818D01*
X110908472Y-85774707D01*
X110919780Y-85804523D01*
X111009517Y-85934530D01*
X111127760Y-86039283D01*
X111127762Y-86039284D01*
X111267634Y-86112696D01*
X111421014Y-86150500D01*
X111421015Y-86150500D01*
X111578985Y-86150500D01*
X111732365Y-86112696D01*
X111797582Y-86078467D01*
X111872240Y-86039283D01*
X111990483Y-85934530D01*
X112080220Y-85804523D01*
X112136237Y-85656818D01*
X112155278Y-85500000D01*
X112155278Y-85499999D01*
X118344722Y-85499999D01*
X118344722Y-85500000D01*
X118363762Y-85656818D01*
X118408472Y-85774707D01*
X118419780Y-85804523D01*
X118509517Y-85934530D01*
X118627760Y-86039283D01*
X118627762Y-86039284D01*
X118767634Y-86112696D01*
X118921014Y-86150500D01*
X118921015Y-86150500D01*
X119078985Y-86150500D01*
X119232365Y-86112696D01*
X119297582Y-86078467D01*
X119372240Y-86039283D01*
X119490483Y-85934530D01*
X119580220Y-85804523D01*
X119636237Y-85656818D01*
X119655278Y-85500000D01*
X119646532Y-85427966D01*
X120373211Y-85427966D01*
X120373211Y-85427967D01*
X120392251Y-85584785D01*
X120448269Y-85732490D01*
X120538006Y-85862497D01*
X120656249Y-85967250D01*
X120656251Y-85967251D01*
X120796123Y-86040663D01*
X120949503Y-86078467D01*
X120949504Y-86078467D01*
X121107474Y-86078467D01*
X121260854Y-86040663D01*
X121356089Y-85990679D01*
X121400729Y-85967250D01*
X121518972Y-85862497D01*
X121608709Y-85732490D01*
X121634080Y-85665591D01*
X121676256Y-85609891D01*
X121741854Y-85585833D01*
X121794820Y-85597056D01*
X121795769Y-85594555D01*
X121802780Y-85597214D01*
X121956160Y-85635018D01*
X121956161Y-85635018D01*
X122114131Y-85635018D01*
X122267511Y-85597214D01*
X122291192Y-85584785D01*
X122407386Y-85523801D01*
X122515563Y-85427966D01*
X129873211Y-85427966D01*
X129873211Y-85427967D01*
X129892251Y-85584785D01*
X129948269Y-85732490D01*
X130038006Y-85862497D01*
X130156249Y-85967250D01*
X130156251Y-85967251D01*
X130296123Y-86040663D01*
X130449503Y-86078467D01*
X130449504Y-86078467D01*
X130607474Y-86078467D01*
X130760854Y-86040663D01*
X130856089Y-85990679D01*
X130900729Y-85967250D01*
X131018972Y-85862497D01*
X131108709Y-85732490D01*
X131134080Y-85665591D01*
X131176256Y-85609891D01*
X131241854Y-85585833D01*
X131294820Y-85597056D01*
X131295769Y-85594555D01*
X131302780Y-85597214D01*
X131456160Y-85635018D01*
X131456161Y-85635018D01*
X131614131Y-85635018D01*
X131767511Y-85597214D01*
X131791192Y-85584785D01*
X131907386Y-85523801D01*
X132015563Y-85427966D01*
X139373211Y-85427966D01*
X139373211Y-85427967D01*
X139392251Y-85584785D01*
X139448269Y-85732490D01*
X139538006Y-85862497D01*
X139656249Y-85967250D01*
X139656251Y-85967251D01*
X139796123Y-86040663D01*
X139949503Y-86078467D01*
X139949504Y-86078467D01*
X140107474Y-86078467D01*
X140260854Y-86040663D01*
X140356089Y-85990679D01*
X140400729Y-85967250D01*
X140518972Y-85862497D01*
X140608709Y-85732490D01*
X140634080Y-85665591D01*
X140676256Y-85609891D01*
X140741854Y-85585833D01*
X140794820Y-85597056D01*
X140795769Y-85594555D01*
X140802780Y-85597214D01*
X140956160Y-85635018D01*
X140956161Y-85635018D01*
X141114131Y-85635018D01*
X141267511Y-85597214D01*
X141291192Y-85584785D01*
X141407386Y-85523801D01*
X141515563Y-85427966D01*
X148873211Y-85427966D01*
X148873211Y-85427967D01*
X148892251Y-85584785D01*
X148948269Y-85732490D01*
X149038006Y-85862497D01*
X149156249Y-85967250D01*
X149156251Y-85967251D01*
X149296123Y-86040663D01*
X149449503Y-86078467D01*
X149449504Y-86078467D01*
X149607474Y-86078467D01*
X149760854Y-86040663D01*
X149856089Y-85990679D01*
X149900729Y-85967250D01*
X150018972Y-85862497D01*
X150108709Y-85732490D01*
X150164726Y-85584785D01*
X150175021Y-85499999D01*
X158344722Y-85499999D01*
X158344722Y-85500000D01*
X158363762Y-85656818D01*
X158408472Y-85774707D01*
X158419780Y-85804523D01*
X158509517Y-85934530D01*
X158627760Y-86039283D01*
X158627762Y-86039284D01*
X158767634Y-86112696D01*
X158921014Y-86150500D01*
X158921015Y-86150500D01*
X159078985Y-86150500D01*
X159232365Y-86112696D01*
X159297582Y-86078467D01*
X159372240Y-86039283D01*
X159490483Y-85934530D01*
X159580220Y-85804523D01*
X159623818Y-85689563D01*
X159665995Y-85633863D01*
X159731592Y-85609805D01*
X159769431Y-85613138D01*
X159921015Y-85650500D01*
X160078985Y-85650500D01*
X160232365Y-85612696D01*
X160266929Y-85594555D01*
X160372240Y-85539283D01*
X160416583Y-85499999D01*
X165873211Y-85499999D01*
X165873211Y-85500000D01*
X165892251Y-85656818D01*
X165936961Y-85774707D01*
X165948269Y-85804523D01*
X166038006Y-85934530D01*
X166156249Y-86039283D01*
X166156251Y-86039284D01*
X166296123Y-86112696D01*
X166449503Y-86150500D01*
X166449504Y-86150500D01*
X166607474Y-86150500D01*
X166760854Y-86112696D01*
X166826071Y-86078467D01*
X166900729Y-86039283D01*
X167018972Y-85934530D01*
X167108709Y-85804523D01*
X167164726Y-85656818D01*
X167183767Y-85500000D01*
X167164726Y-85343182D01*
X167163587Y-85340178D01*
X173373211Y-85340178D01*
X173373211Y-85340179D01*
X173392251Y-85496997D01*
X173444158Y-85633863D01*
X173448269Y-85644702D01*
X173538006Y-85774709D01*
X173656249Y-85879462D01*
X173656251Y-85879463D01*
X173796123Y-85952875D01*
X173949503Y-85990679D01*
X173949504Y-85990679D01*
X174107474Y-85990679D01*
X174260854Y-85952875D01*
X174295811Y-85934528D01*
X174400729Y-85879462D01*
X174518972Y-85774709D01*
X174608709Y-85644702D01*
X174664726Y-85496997D01*
X174683767Y-85340179D01*
X174683767Y-85340178D01*
X180872158Y-85340178D01*
X180872158Y-85340179D01*
X180891198Y-85496997D01*
X180943105Y-85633863D01*
X180947216Y-85644702D01*
X181036953Y-85774709D01*
X181155196Y-85879462D01*
X181155198Y-85879463D01*
X181295070Y-85952875D01*
X181448450Y-85990679D01*
X181448451Y-85990679D01*
X181606421Y-85990679D01*
X181759801Y-85952875D01*
X181794758Y-85934528D01*
X181899676Y-85879462D01*
X182017919Y-85774709D01*
X182107656Y-85644702D01*
X182163673Y-85496997D01*
X182182714Y-85340179D01*
X182163673Y-85183361D01*
X182155912Y-85162898D01*
X182136873Y-85112695D01*
X182107656Y-85035656D01*
X182017919Y-84905649D01*
X181899676Y-84800896D01*
X181899674Y-84800895D01*
X181899673Y-84800894D01*
X181759801Y-84727482D01*
X181606422Y-84689679D01*
X181606421Y-84689679D01*
X181448451Y-84689679D01*
X181448450Y-84689679D01*
X181295070Y-84727482D01*
X181155198Y-84800894D01*
X181107464Y-84843182D01*
X181052481Y-84891893D01*
X181036952Y-84905650D01*
X180947217Y-85035654D01*
X180947216Y-85035655D01*
X180891198Y-85183360D01*
X180872158Y-85340178D01*
X174683767Y-85340178D01*
X174664726Y-85183361D01*
X174656965Y-85162898D01*
X174637926Y-85112695D01*
X174608709Y-85035656D01*
X174518972Y-84905649D01*
X174400729Y-84800896D01*
X174400727Y-84800895D01*
X174400726Y-84800894D01*
X174260854Y-84727482D01*
X174107475Y-84689679D01*
X174107474Y-84689679D01*
X173949504Y-84689679D01*
X173949503Y-84689679D01*
X173796123Y-84727482D01*
X173656251Y-84800894D01*
X173608517Y-84843182D01*
X173553534Y-84891893D01*
X173538005Y-84905650D01*
X173448270Y-85035654D01*
X173448269Y-85035655D01*
X173392251Y-85183360D01*
X173373211Y-85340178D01*
X167163587Y-85340178D01*
X167140201Y-85278516D01*
X167134833Y-85208855D01*
X167167980Y-85147349D01*
X167226472Y-85114148D01*
X167232365Y-85112696D01*
X167372240Y-85039283D01*
X167490483Y-84934530D01*
X167580220Y-84804523D01*
X167636237Y-84656818D01*
X167655278Y-84500000D01*
X167639715Y-84371822D01*
X167636237Y-84343181D01*
X167614992Y-84287164D01*
X167580220Y-84195477D01*
X167490483Y-84065470D01*
X167416581Y-83999999D01*
X171344722Y-83999999D01*
X171344722Y-84000000D01*
X171363762Y-84156818D01*
X171378424Y-84195477D01*
X171419780Y-84304523D01*
X171509517Y-84434530D01*
X171627760Y-84539283D01*
X171627762Y-84539284D01*
X171767634Y-84612696D01*
X171921014Y-84650500D01*
X171921015Y-84650500D01*
X172078985Y-84650500D01*
X172232365Y-84612696D01*
X172372240Y-84539283D01*
X172416583Y-84499999D01*
X176844722Y-84499999D01*
X176844722Y-84500000D01*
X176863762Y-84656818D01*
X176897923Y-84746892D01*
X176919780Y-84804523D01*
X177009517Y-84934530D01*
X177127760Y-85039283D01*
X177127762Y-85039284D01*
X177267634Y-85112696D01*
X177421014Y-85150500D01*
X177421015Y-85150500D01*
X177578985Y-85150500D01*
X177732365Y-85112696D01*
X177741122Y-85108100D01*
X177872240Y-85039283D01*
X177990483Y-84934530D01*
X178080220Y-84804523D01*
X178136237Y-84656818D01*
X178155278Y-84500000D01*
X178139715Y-84371822D01*
X178136237Y-84343181D01*
X178114992Y-84287164D01*
X178080220Y-84195477D01*
X177990483Y-84065470D01*
X177872240Y-83960717D01*
X177872238Y-83960716D01*
X177872237Y-83960715D01*
X177732365Y-83887303D01*
X177578986Y-83849500D01*
X177578985Y-83849500D01*
X177421015Y-83849500D01*
X177421014Y-83849500D01*
X177267634Y-83887303D01*
X177127762Y-83960715D01*
X177009516Y-84065471D01*
X176919781Y-84195475D01*
X176919780Y-84195476D01*
X176863762Y-84343181D01*
X176844722Y-84499999D01*
X172416583Y-84499999D01*
X172490483Y-84434530D01*
X172580220Y-84304523D01*
X172636237Y-84156818D01*
X172655278Y-84000000D01*
X172636237Y-83843182D01*
X172633931Y-83837102D01*
X172614992Y-83787164D01*
X172580220Y-83695477D01*
X172490483Y-83565470D01*
X172372240Y-83460717D01*
X172372238Y-83460716D01*
X172372237Y-83460715D01*
X172232365Y-83387303D01*
X172078986Y-83349500D01*
X172078985Y-83349500D01*
X171921015Y-83349500D01*
X171921014Y-83349500D01*
X171767634Y-83387303D01*
X171627762Y-83460715D01*
X171509516Y-83565471D01*
X171419781Y-83695475D01*
X171419780Y-83695476D01*
X171363762Y-83843181D01*
X171344722Y-83999999D01*
X167416581Y-83999999D01*
X167372240Y-83960717D01*
X167372238Y-83960716D01*
X167372237Y-83960715D01*
X167232365Y-83887303D01*
X167078986Y-83849500D01*
X167078985Y-83849500D01*
X166921015Y-83849500D01*
X166921014Y-83849500D01*
X166767634Y-83887303D01*
X166627762Y-83960715D01*
X166509516Y-84065471D01*
X166419781Y-84195475D01*
X166419780Y-84195476D01*
X166363762Y-84343181D01*
X166344722Y-84499999D01*
X166344722Y-84500000D01*
X166363762Y-84656817D01*
X166372552Y-84679993D01*
X166388287Y-84721483D01*
X166393654Y-84791144D01*
X166360507Y-84852651D01*
X166302026Y-84885848D01*
X166296128Y-84887301D01*
X166296123Y-84887303D01*
X166156251Y-84960715D01*
X166038005Y-85065471D01*
X165948270Y-85195475D01*
X165948269Y-85195476D01*
X165892251Y-85343181D01*
X165873211Y-85499999D01*
X160416583Y-85499999D01*
X160490483Y-85434530D01*
X160580220Y-85304523D01*
X160636237Y-85156818D01*
X160655278Y-85000000D01*
X160641541Y-84886860D01*
X160636237Y-84843181D01*
X160592358Y-84727483D01*
X160580220Y-84695477D01*
X160490483Y-84565470D01*
X160372240Y-84460717D01*
X160372238Y-84460716D01*
X160372237Y-84460715D01*
X160232365Y-84387303D01*
X160078986Y-84349500D01*
X160078985Y-84349500D01*
X159921015Y-84349500D01*
X159921014Y-84349500D01*
X159767634Y-84387303D01*
X159627762Y-84460715D01*
X159509516Y-84565471D01*
X159419781Y-84695474D01*
X159376182Y-84810435D01*
X159334003Y-84866137D01*
X159268406Y-84890194D01*
X159230566Y-84886860D01*
X159078986Y-84849500D01*
X159078985Y-84849500D01*
X158921015Y-84849500D01*
X158921014Y-84849500D01*
X158767634Y-84887303D01*
X158627762Y-84960715D01*
X158509516Y-85065471D01*
X158419781Y-85195475D01*
X158419780Y-85195476D01*
X158363762Y-85343181D01*
X158344722Y-85499999D01*
X150175021Y-85499999D01*
X150183767Y-85427967D01*
X150168779Y-85304524D01*
X150164726Y-85271148D01*
X150118970Y-85150500D01*
X150108709Y-85123444D01*
X150018972Y-84993437D01*
X149900729Y-84888684D01*
X149900727Y-84888683D01*
X149900726Y-84888682D01*
X149760854Y-84815270D01*
X149607475Y-84777467D01*
X149607474Y-84777467D01*
X149449504Y-84777467D01*
X149449503Y-84777467D01*
X149296123Y-84815270D01*
X149156251Y-84888682D01*
X149038005Y-84993438D01*
X148948270Y-85123442D01*
X148948269Y-85123443D01*
X148892251Y-85271148D01*
X148873211Y-85427966D01*
X141515563Y-85427966D01*
X141525629Y-85419048D01*
X141615366Y-85289041D01*
X141671383Y-85141336D01*
X141690424Y-84984518D01*
X141684355Y-84934530D01*
X141671383Y-84827699D01*
X141650138Y-84771682D01*
X141615366Y-84679995D01*
X141525629Y-84549988D01*
X141407386Y-84445235D01*
X141407384Y-84445234D01*
X141407383Y-84445233D01*
X141267511Y-84371821D01*
X141114132Y-84334018D01*
X141114131Y-84334018D01*
X140956161Y-84334018D01*
X140956160Y-84334018D01*
X140802780Y-84371821D01*
X140662908Y-84445233D01*
X140601088Y-84500000D01*
X140556746Y-84539284D01*
X140544662Y-84549989D01*
X140454927Y-84679993D01*
X140454924Y-84679999D01*
X140429554Y-84746892D01*
X140387376Y-84802595D01*
X140321778Y-84826651D01*
X140268812Y-84815433D01*
X140267866Y-84817930D01*
X140260854Y-84815270D01*
X140107475Y-84777467D01*
X140107474Y-84777467D01*
X139949504Y-84777467D01*
X139949503Y-84777467D01*
X139796123Y-84815270D01*
X139656251Y-84888682D01*
X139538005Y-84993438D01*
X139448270Y-85123442D01*
X139448269Y-85123443D01*
X139392251Y-85271148D01*
X139373211Y-85427966D01*
X132015563Y-85427966D01*
X132025629Y-85419048D01*
X132115366Y-85289041D01*
X132171383Y-85141336D01*
X132190424Y-84984518D01*
X132184355Y-84934530D01*
X132171383Y-84827699D01*
X132150138Y-84771682D01*
X132115366Y-84679995D01*
X132025629Y-84549988D01*
X131907386Y-84445235D01*
X131907384Y-84445234D01*
X131907383Y-84445233D01*
X131767511Y-84371821D01*
X131614132Y-84334018D01*
X131614131Y-84334018D01*
X131456161Y-84334018D01*
X131456160Y-84334018D01*
X131302780Y-84371821D01*
X131162908Y-84445233D01*
X131101088Y-84500000D01*
X131056746Y-84539284D01*
X131044662Y-84549989D01*
X130954927Y-84679993D01*
X130954924Y-84679999D01*
X130929554Y-84746892D01*
X130887376Y-84802595D01*
X130821778Y-84826651D01*
X130768812Y-84815433D01*
X130767866Y-84817930D01*
X130760854Y-84815270D01*
X130607475Y-84777467D01*
X130607474Y-84777467D01*
X130449504Y-84777467D01*
X130449503Y-84777467D01*
X130296123Y-84815270D01*
X130156251Y-84888682D01*
X130038005Y-84993438D01*
X129948270Y-85123442D01*
X129948269Y-85123443D01*
X129892251Y-85271148D01*
X129873211Y-85427966D01*
X122515563Y-85427966D01*
X122525629Y-85419048D01*
X122615366Y-85289041D01*
X122671383Y-85141336D01*
X122690424Y-84984518D01*
X122684355Y-84934530D01*
X122671383Y-84827699D01*
X122650138Y-84771682D01*
X122615366Y-84679995D01*
X122525629Y-84549988D01*
X122407386Y-84445235D01*
X122407384Y-84445234D01*
X122407383Y-84445233D01*
X122267511Y-84371821D01*
X122114132Y-84334018D01*
X122114131Y-84334018D01*
X121956161Y-84334018D01*
X121956160Y-84334018D01*
X121802780Y-84371821D01*
X121662908Y-84445233D01*
X121601088Y-84500000D01*
X121556746Y-84539284D01*
X121544662Y-84549989D01*
X121454927Y-84679993D01*
X121454924Y-84679999D01*
X121429554Y-84746892D01*
X121387376Y-84802595D01*
X121321778Y-84826651D01*
X121268812Y-84815433D01*
X121267866Y-84817930D01*
X121260854Y-84815270D01*
X121107475Y-84777467D01*
X121107474Y-84777467D01*
X120949504Y-84777467D01*
X120949503Y-84777467D01*
X120796123Y-84815270D01*
X120656251Y-84888682D01*
X120538005Y-84993438D01*
X120448270Y-85123442D01*
X120448269Y-85123443D01*
X120392251Y-85271148D01*
X120373211Y-85427966D01*
X119646532Y-85427966D01*
X119645449Y-85419046D01*
X119636237Y-85343181D01*
X119609275Y-85272090D01*
X119580220Y-85195477D01*
X119490483Y-85065470D01*
X119372240Y-84960717D01*
X119372238Y-84960716D01*
X119372237Y-84960715D01*
X119232365Y-84887303D01*
X119078986Y-84849500D01*
X119078985Y-84849500D01*
X118921015Y-84849500D01*
X118921014Y-84849500D01*
X118767634Y-84887303D01*
X118627762Y-84960715D01*
X118509516Y-85065471D01*
X118419781Y-85195475D01*
X118419780Y-85195476D01*
X118363762Y-85343181D01*
X118344722Y-85499999D01*
X112155278Y-85499999D01*
X112145449Y-85419046D01*
X112136237Y-85343181D01*
X112109275Y-85272090D01*
X112080220Y-85195477D01*
X111990483Y-85065470D01*
X111872240Y-84960717D01*
X111872238Y-84960716D01*
X111872237Y-84960715D01*
X111732365Y-84887303D01*
X111578986Y-84849500D01*
X111578985Y-84849500D01*
X111421015Y-84849500D01*
X111421014Y-84849500D01*
X111260351Y-84889099D01*
X111259903Y-84887283D01*
X111200005Y-84891893D01*
X111138502Y-84858740D01*
X111104686Y-84797599D01*
X111109294Y-84727881D01*
X111109714Y-84726751D01*
X111136237Y-84656818D01*
X111155278Y-84500000D01*
X111139715Y-84371822D01*
X111136237Y-84343181D01*
X111114992Y-84287164D01*
X111080220Y-84195477D01*
X110990483Y-84065470D01*
X110872240Y-83960717D01*
X110872238Y-83960716D01*
X110872237Y-83960715D01*
X110732365Y-83887303D01*
X110578986Y-83849500D01*
X110578985Y-83849500D01*
X110421015Y-83849500D01*
X110421014Y-83849500D01*
X110267634Y-83887303D01*
X110127762Y-83960715D01*
X110009516Y-84065471D01*
X109919781Y-84195475D01*
X109919780Y-84195476D01*
X109863762Y-84343181D01*
X109844722Y-84499999D01*
X108500000Y-84499999D01*
X108500000Y-83499999D01*
X141344722Y-83499999D01*
X141344722Y-83500000D01*
X141363762Y-83656818D01*
X141378424Y-83695477D01*
X141419780Y-83804523D01*
X141509517Y-83934530D01*
X141627760Y-84039283D01*
X141627762Y-84039284D01*
X141767634Y-84112696D01*
X141921014Y-84150500D01*
X141921015Y-84150500D01*
X142078985Y-84150500D01*
X142232365Y-84112696D01*
X142372240Y-84039283D01*
X142490483Y-83934530D01*
X142580220Y-83804523D01*
X142636237Y-83656818D01*
X142655278Y-83500000D01*
X142636237Y-83343182D01*
X142580220Y-83195477D01*
X142490483Y-83065470D01*
X142372240Y-82960717D01*
X142372238Y-82960716D01*
X142372237Y-82960715D01*
X142232365Y-82887303D01*
X142078986Y-82849500D01*
X142078985Y-82849500D01*
X141921015Y-82849500D01*
X141921014Y-82849500D01*
X141767634Y-82887303D01*
X141627762Y-82960715D01*
X141509516Y-83065471D01*
X141419781Y-83195475D01*
X141419780Y-83195476D01*
X141363762Y-83343181D01*
X141344722Y-83499999D01*
X108500000Y-83499999D01*
X108500000Y-80499999D01*
X178844722Y-80499999D01*
X178844722Y-80500000D01*
X178863762Y-80656818D01*
X178919780Y-80804523D01*
X179009517Y-80934530D01*
X179127760Y-81039283D01*
X179127762Y-81039284D01*
X179267634Y-81112696D01*
X179421014Y-81150500D01*
X179586485Y-81150500D01*
X179586485Y-81152791D01*
X179644271Y-81162392D01*
X179696064Y-81209288D01*
X179714280Y-81276741D01*
X179693138Y-81343335D01*
X179647937Y-81383831D01*
X179555728Y-81432227D01*
X179437483Y-81536982D01*
X179347748Y-81666986D01*
X179347747Y-81666987D01*
X179291729Y-81814692D01*
X179272689Y-81971510D01*
X179272689Y-81971511D01*
X179291729Y-82128329D01*
X179347747Y-82276034D01*
X179437484Y-82406041D01*
X179555727Y-82510794D01*
X179555729Y-82510795D01*
X179695601Y-82584207D01*
X179848981Y-82622011D01*
X179848982Y-82622011D01*
X180006952Y-82622011D01*
X180160332Y-82584207D01*
X180300207Y-82510794D01*
X180418450Y-82406041D01*
X180508187Y-82276034D01*
X180564204Y-82128329D01*
X180583245Y-81971511D01*
X180564204Y-81814693D01*
X180508187Y-81666988D01*
X180418450Y-81536981D01*
X180300207Y-81432228D01*
X180300205Y-81432227D01*
X180300204Y-81432226D01*
X180160332Y-81358814D01*
X180006953Y-81321011D01*
X180006952Y-81321011D01*
X179848982Y-81321011D01*
X179841482Y-81321011D01*
X179841482Y-81318725D01*
X179783663Y-81309103D01*
X179731884Y-81262191D01*
X179713686Y-81194733D01*
X179734848Y-81128145D01*
X179780026Y-81087680D01*
X179872240Y-81039283D01*
X179990483Y-80934530D01*
X180080220Y-80804523D01*
X180136237Y-80656818D01*
X180155278Y-80500000D01*
X180136237Y-80343182D01*
X180080220Y-80195477D01*
X179990483Y-80065470D01*
X179872240Y-79960717D01*
X179872238Y-79960716D01*
X179872237Y-79960715D01*
X179732365Y-79887303D01*
X179578986Y-79849500D01*
X179578985Y-79849500D01*
X179421015Y-79849500D01*
X179421014Y-79849500D01*
X179267634Y-79887303D01*
X179127762Y-79960715D01*
X179009516Y-80065471D01*
X178919781Y-80195475D01*
X178919780Y-80195476D01*
X178863762Y-80343181D01*
X178844722Y-80499999D01*
X108500000Y-80499999D01*
X108500000Y-78249999D01*
X171344722Y-78249999D01*
X171344722Y-78250000D01*
X171363762Y-78406818D01*
X171419780Y-78554523D01*
X171509517Y-78684530D01*
X171627760Y-78789283D01*
X171627762Y-78789284D01*
X171767634Y-78862696D01*
X171921014Y-78900500D01*
X171921015Y-78900500D01*
X172078985Y-78900500D01*
X172232365Y-78862696D01*
X172372240Y-78789283D01*
X172490483Y-78684530D01*
X172580220Y-78554523D01*
X172636237Y-78406818D01*
X172655278Y-78250000D01*
X172636237Y-78093182D01*
X172580220Y-77945477D01*
X172490483Y-77815470D01*
X172372240Y-77710717D01*
X172372238Y-77710716D01*
X172372237Y-77710715D01*
X172232365Y-77637303D01*
X172078986Y-77599500D01*
X172078985Y-77599500D01*
X171921015Y-77599500D01*
X171921014Y-77599500D01*
X171767634Y-77637303D01*
X171627762Y-77710715D01*
X171509516Y-77815471D01*
X171419781Y-77945475D01*
X171419780Y-77945476D01*
X171363762Y-78093181D01*
X171344722Y-78249999D01*
X108500000Y-78249999D01*
X108500000Y-76999999D01*
X110344722Y-76999999D01*
X110344722Y-77000000D01*
X110363762Y-77156818D01*
X110419780Y-77304523D01*
X110509517Y-77434530D01*
X110627760Y-77539283D01*
X110627762Y-77539284D01*
X110767634Y-77612696D01*
X110921014Y-77650500D01*
X110921015Y-77650500D01*
X111078985Y-77650500D01*
X111232365Y-77612696D01*
X111372240Y-77539283D01*
X111490483Y-77434530D01*
X111580220Y-77304523D01*
X111636237Y-77156818D01*
X111655278Y-77000000D01*
X111636237Y-76843182D01*
X111580220Y-76695477D01*
X111490483Y-76565470D01*
X111372240Y-76460717D01*
X111372238Y-76460716D01*
X111372237Y-76460715D01*
X111232365Y-76387303D01*
X111078986Y-76349500D01*
X111078985Y-76349500D01*
X110921015Y-76349500D01*
X110921014Y-76349500D01*
X110767634Y-76387303D01*
X110627762Y-76460715D01*
X110509516Y-76565471D01*
X110419781Y-76695475D01*
X110419780Y-76695476D01*
X110363762Y-76843181D01*
X110344722Y-76999999D01*
X108500000Y-76999999D01*
X108500000Y-70000000D01*
X111032843Y-70000000D01*
X111051426Y-70188681D01*
X111051427Y-70188683D01*
X111106463Y-70370115D01*
X111106464Y-70370118D01*
X111106465Y-70370119D01*
X111106466Y-70370122D01*
X111195834Y-70537318D01*
X111195838Y-70537325D01*
X111316116Y-70683883D01*
X111462674Y-70804161D01*
X111462681Y-70804165D01*
X111629877Y-70893533D01*
X111629878Y-70893533D01*
X111629885Y-70893537D01*
X111811317Y-70948573D01*
X111811316Y-70948573D01*
X111828233Y-70950239D01*
X112000000Y-70967157D01*
X112188683Y-70948573D01*
X112370115Y-70893537D01*
X112537324Y-70804162D01*
X112683883Y-70683883D01*
X112804162Y-70537324D01*
X112893537Y-70370115D01*
X112948573Y-70188683D01*
X112967157Y-70000000D01*
X113572843Y-70000000D01*
X113591426Y-70188681D01*
X113591427Y-70188683D01*
X113646463Y-70370115D01*
X113646464Y-70370118D01*
X113646465Y-70370119D01*
X113646466Y-70370122D01*
X113735834Y-70537318D01*
X113735838Y-70537325D01*
X113856116Y-70683883D01*
X114002674Y-70804161D01*
X114002681Y-70804165D01*
X114169877Y-70893533D01*
X114169878Y-70893533D01*
X114169885Y-70893537D01*
X114351317Y-70948573D01*
X114351316Y-70948573D01*
X114368233Y-70950239D01*
X114540000Y-70967157D01*
X114728683Y-70948573D01*
X114910115Y-70893537D01*
X115077324Y-70804162D01*
X115223883Y-70683883D01*
X115344162Y-70537324D01*
X115433537Y-70370115D01*
X115488573Y-70188683D01*
X115507157Y-70000000D01*
X115488573Y-69811317D01*
X115433537Y-69629885D01*
X115344162Y-69462676D01*
X115344161Y-69462674D01*
X115223883Y-69316116D01*
X115077325Y-69195838D01*
X115077318Y-69195834D01*
X114910122Y-69106466D01*
X114910119Y-69106465D01*
X114910118Y-69106464D01*
X114910115Y-69106463D01*
X114728683Y-69051427D01*
X114728681Y-69051426D01*
X114728683Y-69051426D01*
X114540000Y-69032843D01*
X114351318Y-69051426D01*
X114244194Y-69083921D01*
X114169885Y-69106463D01*
X114169882Y-69106464D01*
X114169880Y-69106465D01*
X114169877Y-69106466D01*
X114002681Y-69195834D01*
X114002674Y-69195838D01*
X113856116Y-69316116D01*
X113735838Y-69462674D01*
X113735834Y-69462681D01*
X113646466Y-69629877D01*
X113646465Y-69629880D01*
X113591426Y-69811318D01*
X113572843Y-70000000D01*
X112967157Y-70000000D01*
X112948573Y-69811317D01*
X112893537Y-69629885D01*
X112804162Y-69462676D01*
X112804161Y-69462674D01*
X112683883Y-69316116D01*
X112537325Y-69195838D01*
X112537318Y-69195834D01*
X112370122Y-69106466D01*
X112370119Y-69106465D01*
X112370118Y-69106464D01*
X112370115Y-69106463D01*
X112188683Y-69051427D01*
X112188681Y-69051426D01*
X112188683Y-69051426D01*
X112000000Y-69032843D01*
X111811318Y-69051426D01*
X111704194Y-69083921D01*
X111629885Y-69106463D01*
X111629882Y-69106464D01*
X111629880Y-69106465D01*
X111629877Y-69106466D01*
X111462681Y-69195834D01*
X111462674Y-69195838D01*
X111316116Y-69316116D01*
X111195838Y-69462674D01*
X111195834Y-69462681D01*
X111106466Y-69629877D01*
X111106465Y-69629880D01*
X111051426Y-69811318D01*
X111032843Y-70000000D01*
X108500000Y-70000000D01*
X108500000Y-66500000D01*
X100174500Y-66500000D01*
X100107461Y-66480315D01*
X100061706Y-66427511D01*
X100050500Y-66376000D01*
X100050500Y-65436626D01*
X116924944Y-65436626D01*
X116924944Y-65436627D01*
X116943984Y-65593445D01*
X116978528Y-65684528D01*
X117000002Y-65741150D01*
X117089739Y-65871157D01*
X117207982Y-65975910D01*
X117207984Y-65975911D01*
X117347856Y-66049323D01*
X117501236Y-66087127D01*
X117501237Y-66087127D01*
X117659207Y-66087127D01*
X117812587Y-66049323D01*
X117952462Y-65975910D01*
X118070705Y-65871157D01*
X118160442Y-65741150D01*
X118216459Y-65593445D01*
X118235500Y-65436627D01*
X118216459Y-65279809D01*
X118205154Y-65249999D01*
X134844722Y-65249999D01*
X134844722Y-65250000D01*
X134863762Y-65406818D01*
X134919780Y-65554523D01*
X135009517Y-65684530D01*
X135127760Y-65789283D01*
X135127762Y-65789284D01*
X135267634Y-65862696D01*
X135421014Y-65900500D01*
X135421015Y-65900500D01*
X135578985Y-65900500D01*
X135732365Y-65862696D01*
X135872240Y-65789283D01*
X135990483Y-65684530D01*
X136080220Y-65554523D01*
X136136237Y-65406818D01*
X136155278Y-65250000D01*
X136138607Y-65112696D01*
X136136237Y-65093181D01*
X136101693Y-65002097D01*
X136080220Y-64945477D01*
X135990483Y-64815470D01*
X135872240Y-64710717D01*
X135872238Y-64710716D01*
X135872237Y-64710715D01*
X135732365Y-64637303D01*
X135578986Y-64599500D01*
X135578985Y-64599500D01*
X135421015Y-64599500D01*
X135421014Y-64599500D01*
X135267634Y-64637303D01*
X135127762Y-64710715D01*
X135009516Y-64815471D01*
X134919781Y-64945475D01*
X134919780Y-64945476D01*
X134863762Y-65093181D01*
X134844722Y-65249999D01*
X118205154Y-65249999D01*
X118160442Y-65132104D01*
X118070705Y-65002097D01*
X117952462Y-64897344D01*
X117952460Y-64897343D01*
X117952459Y-64897342D01*
X117812587Y-64823930D01*
X117659208Y-64786127D01*
X117659207Y-64786127D01*
X117501237Y-64786127D01*
X117501236Y-64786127D01*
X117347856Y-64823930D01*
X117207984Y-64897342D01*
X117089738Y-65002098D01*
X117000003Y-65132102D01*
X117000002Y-65132103D01*
X116943984Y-65279808D01*
X116924944Y-65436626D01*
X100050500Y-65436626D01*
X100050500Y-63567400D01*
X103767103Y-63567400D01*
X103787402Y-63773508D01*
X103847524Y-63971704D01*
X103945149Y-64154347D01*
X103945153Y-64154354D01*
X104076540Y-64314449D01*
X104236635Y-64445836D01*
X104236642Y-64445840D01*
X104419285Y-64543465D01*
X104419287Y-64543465D01*
X104419290Y-64543467D01*
X104617480Y-64603587D01*
X104823590Y-64623887D01*
X105029700Y-64603587D01*
X105227890Y-64543467D01*
X105309213Y-64499999D01*
X140594722Y-64499999D01*
X140594722Y-64500000D01*
X140613762Y-64656818D01*
X140634203Y-64710715D01*
X140669780Y-64804523D01*
X140759517Y-64934530D01*
X140877760Y-65039283D01*
X140877762Y-65039284D01*
X141017634Y-65112696D01*
X141171014Y-65150500D01*
X141171015Y-65150500D01*
X141328985Y-65150500D01*
X141482365Y-65112696D01*
X141519547Y-65093181D01*
X141622240Y-65039283D01*
X141740483Y-64934530D01*
X141830220Y-64804523D01*
X141886237Y-64656818D01*
X141905278Y-64500000D01*
X141898702Y-64445837D01*
X141886237Y-64343181D01*
X141864992Y-64287164D01*
X141830220Y-64195477D01*
X141740483Y-64065470D01*
X141622240Y-63960717D01*
X141622238Y-63960716D01*
X141622237Y-63960715D01*
X141482365Y-63887303D01*
X141328986Y-63849500D01*
X141328985Y-63849500D01*
X141171015Y-63849500D01*
X141171014Y-63849500D01*
X141017634Y-63887303D01*
X140877762Y-63960715D01*
X140759516Y-64065471D01*
X140669781Y-64195475D01*
X140669780Y-64195476D01*
X140613762Y-64343181D01*
X140594722Y-64499999D01*
X105309213Y-64499999D01*
X105410543Y-64445837D01*
X105570639Y-64314449D01*
X105702027Y-64154353D01*
X105799657Y-63971700D01*
X105859777Y-63773510D01*
X105880077Y-63567400D01*
X105859777Y-63361290D01*
X105799657Y-63163100D01*
X105799655Y-63163097D01*
X105799655Y-63163095D01*
X105702030Y-62980452D01*
X105702026Y-62980445D01*
X105570639Y-62820350D01*
X105410544Y-62688963D01*
X105410537Y-62688959D01*
X105227894Y-62591334D01*
X105029698Y-62531212D01*
X104823590Y-62510913D01*
X104617481Y-62531212D01*
X104419285Y-62591334D01*
X104236642Y-62688959D01*
X104236635Y-62688963D01*
X104076540Y-62820350D01*
X103945153Y-62980445D01*
X103945149Y-62980452D01*
X103847524Y-63163095D01*
X103787402Y-63361291D01*
X103767103Y-63567400D01*
X100050500Y-63567400D01*
X100050500Y-60067400D01*
X103767103Y-60067400D01*
X103787402Y-60273508D01*
X103847524Y-60471704D01*
X103945149Y-60654347D01*
X103945153Y-60654354D01*
X104076540Y-60814449D01*
X104236635Y-60945836D01*
X104236642Y-60945840D01*
X104419285Y-61043465D01*
X104419287Y-61043465D01*
X104419290Y-61043467D01*
X104617480Y-61103587D01*
X104823590Y-61123887D01*
X105029700Y-61103587D01*
X105227890Y-61043467D01*
X105410543Y-60945837D01*
X105570639Y-60814449D01*
X105702027Y-60654353D01*
X105799657Y-60471700D01*
X105859777Y-60273510D01*
X105880077Y-60067400D01*
X105859777Y-59861290D01*
X105799657Y-59663100D01*
X105799655Y-59663097D01*
X105799655Y-59663095D01*
X105702030Y-59480452D01*
X105702026Y-59480445D01*
X105570639Y-59320350D01*
X105410544Y-59188963D01*
X105410537Y-59188959D01*
X105227894Y-59091334D01*
X105029698Y-59031212D01*
X104823590Y-59010913D01*
X104617481Y-59031212D01*
X104419285Y-59091334D01*
X104236642Y-59188959D01*
X104236635Y-59188963D01*
X104076540Y-59320350D01*
X103945153Y-59480445D01*
X103945149Y-59480452D01*
X103847524Y-59663095D01*
X103787402Y-59861291D01*
X103767103Y-60067400D01*
X100050500Y-60067400D01*
X100050500Y-56567399D01*
X103767103Y-56567399D01*
X103787402Y-56773507D01*
X103847524Y-56971703D01*
X103945149Y-57154346D01*
X103945153Y-57154353D01*
X104076540Y-57314448D01*
X104236635Y-57445835D01*
X104236642Y-57445839D01*
X104419285Y-57543464D01*
X104419287Y-57543464D01*
X104419290Y-57543466D01*
X104617480Y-57603586D01*
X104823590Y-57623886D01*
X105029700Y-57603586D01*
X105227890Y-57543466D01*
X105410543Y-57445836D01*
X105570639Y-57314448D01*
X105702027Y-57154352D01*
X105799657Y-56971699D01*
X105859777Y-56773509D01*
X105880077Y-56567399D01*
X105859777Y-56361289D01*
X105799657Y-56163099D01*
X105799655Y-56163096D01*
X105799655Y-56163094D01*
X105702030Y-55980451D01*
X105702026Y-55980444D01*
X105570639Y-55820349D01*
X105410544Y-55688962D01*
X105410537Y-55688958D01*
X105227894Y-55591333D01*
X105029698Y-55531211D01*
X104823590Y-55510912D01*
X104617481Y-55531211D01*
X104419285Y-55591333D01*
X104236642Y-55688958D01*
X104236635Y-55688962D01*
X104076540Y-55820349D01*
X103945153Y-55980444D01*
X103945149Y-55980451D01*
X103847524Y-56163094D01*
X103787402Y-56361290D01*
X103767103Y-56567399D01*
X100050500Y-56567399D01*
X100050500Y-54750000D01*
X107500000Y-54750000D01*
X110876000Y-54750000D01*
X110943039Y-54769685D01*
X110988794Y-54822489D01*
X111000000Y-54874000D01*
X111000000Y-56376000D01*
X110980315Y-56443039D01*
X110927511Y-56488794D01*
X110876000Y-56500000D01*
X107500000Y-56500000D01*
X107500000Y-59500000D01*
X110000000Y-62000000D01*
X119500000Y-62000000D01*
X119500000Y-60999999D01*
X125844722Y-60999999D01*
X125844722Y-61000000D01*
X125863762Y-61156818D01*
X125919780Y-61304523D01*
X125919781Y-61304524D01*
X126006086Y-61429560D01*
X126027969Y-61495915D01*
X126010503Y-61563566D01*
X126006086Y-61570440D01*
X125919781Y-61695475D01*
X125919780Y-61695476D01*
X125863762Y-61843181D01*
X125844722Y-61999999D01*
X125844722Y-62000000D01*
X125863762Y-62156818D01*
X125899102Y-62250000D01*
X125919780Y-62304523D01*
X126009517Y-62434530D01*
X126127760Y-62539283D01*
X126127762Y-62539284D01*
X126267634Y-62612696D01*
X126421014Y-62650500D01*
X126421015Y-62650500D01*
X126578985Y-62650500D01*
X126732365Y-62612696D01*
X126773068Y-62591333D01*
X126872240Y-62539283D01*
X126990483Y-62434530D01*
X127080220Y-62304523D01*
X127100898Y-62249999D01*
X134594722Y-62249999D01*
X134594722Y-62250000D01*
X134613762Y-62406818D01*
X134664000Y-62539283D01*
X134669780Y-62554523D01*
X134759517Y-62684530D01*
X134877760Y-62789283D01*
X134877762Y-62789284D01*
X135017634Y-62862696D01*
X135171014Y-62900500D01*
X135171015Y-62900500D01*
X135328985Y-62900500D01*
X135482365Y-62862696D01*
X135622240Y-62789283D01*
X135740483Y-62684530D01*
X135830220Y-62554523D01*
X135886237Y-62406818D01*
X135905278Y-62250000D01*
X135886237Y-62093182D01*
X135830220Y-61945477D01*
X135740483Y-61815470D01*
X135622240Y-61710717D01*
X135622238Y-61710716D01*
X135622237Y-61710715D01*
X135482365Y-61637303D01*
X135328986Y-61599500D01*
X135328985Y-61599500D01*
X135171015Y-61599500D01*
X135171014Y-61599500D01*
X135017634Y-61637303D01*
X134877762Y-61710715D01*
X134759516Y-61815471D01*
X134669781Y-61945475D01*
X134669780Y-61945476D01*
X134613762Y-62093181D01*
X134594722Y-62249999D01*
X127100898Y-62249999D01*
X127136237Y-62156818D01*
X127155278Y-62000000D01*
X127136237Y-61843182D01*
X127080220Y-61695477D01*
X126993912Y-61570438D01*
X126972030Y-61504086D01*
X126989495Y-61436434D01*
X126993905Y-61429571D01*
X127080220Y-61304523D01*
X127136237Y-61156818D01*
X127155278Y-61000000D01*
X127148702Y-60945837D01*
X127136237Y-60843181D01*
X127109160Y-60771786D01*
X127080220Y-60695477D01*
X126990483Y-60565470D01*
X126872240Y-60460717D01*
X126872238Y-60460716D01*
X126872237Y-60460715D01*
X126732365Y-60387303D01*
X126578986Y-60349500D01*
X126578985Y-60349500D01*
X126421015Y-60349500D01*
X126421014Y-60349500D01*
X126267634Y-60387303D01*
X126127762Y-60460715D01*
X126009516Y-60565471D01*
X125919781Y-60695475D01*
X125919780Y-60695476D01*
X125863762Y-60843181D01*
X125844722Y-60999999D01*
X119500000Y-60999999D01*
X119500000Y-59749999D01*
X134594722Y-59749999D01*
X134594722Y-59750000D01*
X134613762Y-59906818D01*
X134649102Y-60000000D01*
X134669780Y-60054523D01*
X134759517Y-60184530D01*
X134877760Y-60289283D01*
X134877762Y-60289284D01*
X135017634Y-60362696D01*
X135171014Y-60400500D01*
X135171015Y-60400500D01*
X135328985Y-60400500D01*
X135482365Y-60362696D01*
X135482784Y-60362476D01*
X135622240Y-60289283D01*
X135740483Y-60184530D01*
X135830220Y-60054523D01*
X135886237Y-59906818D01*
X135905278Y-59750000D01*
X135886237Y-59593182D01*
X135830220Y-59445477D01*
X135740483Y-59315470D01*
X135622240Y-59210717D01*
X135622238Y-59210716D01*
X135622237Y-59210715D01*
X135482365Y-59137303D01*
X135328986Y-59099500D01*
X135328985Y-59099500D01*
X135171015Y-59099500D01*
X135171014Y-59099500D01*
X135017634Y-59137303D01*
X134877762Y-59210715D01*
X134759516Y-59315471D01*
X134669781Y-59445475D01*
X134669780Y-59445476D01*
X134613762Y-59593181D01*
X134594722Y-59749999D01*
X119500000Y-59749999D01*
X119500000Y-54999999D01*
X127844722Y-54999999D01*
X127844722Y-55000000D01*
X127863762Y-55156818D01*
X127919780Y-55304523D01*
X128009517Y-55434530D01*
X128127760Y-55539283D01*
X128127762Y-55539284D01*
X128267634Y-55612696D01*
X128421014Y-55650500D01*
X128421015Y-55650500D01*
X128578985Y-55650500D01*
X128732365Y-55612696D01*
X128773070Y-55591332D01*
X128872240Y-55539283D01*
X128990483Y-55434530D01*
X129080220Y-55304523D01*
X129136237Y-55156818D01*
X129155278Y-55000000D01*
X129136237Y-54843182D01*
X129080220Y-54695477D01*
X128990483Y-54565470D01*
X128872240Y-54460717D01*
X128872238Y-54460716D01*
X128872237Y-54460715D01*
X128732365Y-54387303D01*
X128578986Y-54349500D01*
X128578985Y-54349500D01*
X128421015Y-54349500D01*
X128421014Y-54349500D01*
X128267634Y-54387303D01*
X128127762Y-54460715D01*
X128009516Y-54565471D01*
X127919781Y-54695475D01*
X127919780Y-54695476D01*
X127863762Y-54843181D01*
X127844722Y-54999999D01*
X119500000Y-54999999D01*
X119500000Y-53500000D01*
X117000000Y-51000000D01*
X107500000Y-51000000D01*
X107500000Y-54750000D01*
X100050500Y-54750000D01*
X100050500Y-47895371D01*
X107270000Y-47895371D01*
X107270000Y-48520000D01*
X107936988Y-48520000D01*
X107904075Y-48577007D01*
X107870000Y-48704174D01*
X107870000Y-48835826D01*
X107904075Y-48962993D01*
X107936988Y-49020000D01*
X107270000Y-49020000D01*
X107270000Y-49644628D01*
X107284503Y-49717540D01*
X107284505Y-49717544D01*
X107339760Y-49800239D01*
X107422455Y-49855494D01*
X107422459Y-49855496D01*
X107495371Y-49869999D01*
X107495374Y-49870000D01*
X108120000Y-49870000D01*
X108120000Y-49203012D01*
X108177007Y-49235925D01*
X108304174Y-49270000D01*
X108435826Y-49270000D01*
X108562993Y-49235925D01*
X108620000Y-49203012D01*
X108620000Y-49870000D01*
X109244626Y-49870000D01*
X109244628Y-49869999D01*
X109317540Y-49855496D01*
X109317544Y-49855494D01*
X109400239Y-49800239D01*
X109455494Y-49717544D01*
X109455496Y-49717540D01*
X109469999Y-49644628D01*
X109470000Y-49644626D01*
X109470000Y-49020000D01*
X108803012Y-49020000D01*
X108835925Y-48962993D01*
X108870000Y-48835826D01*
X108870000Y-48770000D01*
X109854417Y-48770000D01*
X109874699Y-48975932D01*
X109874700Y-48975934D01*
X109934768Y-49173954D01*
X110032315Y-49356450D01*
X110032317Y-49356452D01*
X110163589Y-49516410D01*
X110260209Y-49595702D01*
X110323550Y-49647685D01*
X110506046Y-49745232D01*
X110704066Y-49805300D01*
X110704065Y-49805300D01*
X110722529Y-49807118D01*
X110910000Y-49825583D01*
X111115934Y-49805300D01*
X111313954Y-49745232D01*
X111496450Y-49647685D01*
X111656410Y-49516410D01*
X111787685Y-49356450D01*
X111885232Y-49173954D01*
X111945300Y-48975934D01*
X111965583Y-48770000D01*
X112394417Y-48770000D01*
X112414699Y-48975932D01*
X112414700Y-48975934D01*
X112474768Y-49173954D01*
X112572315Y-49356450D01*
X112572317Y-49356452D01*
X112703589Y-49516410D01*
X112800209Y-49595702D01*
X112863550Y-49647685D01*
X113046046Y-49745232D01*
X113244066Y-49805300D01*
X113244065Y-49805300D01*
X113262529Y-49807118D01*
X113450000Y-49825583D01*
X113655934Y-49805300D01*
X113853954Y-49745232D01*
X114036450Y-49647685D01*
X114196410Y-49516410D01*
X114327685Y-49356450D01*
X114425232Y-49173954D01*
X114485300Y-48975934D01*
X114505583Y-48770000D01*
X114934417Y-48770000D01*
X114954699Y-48975932D01*
X114954700Y-48975934D01*
X115014768Y-49173954D01*
X115112315Y-49356450D01*
X115112317Y-49356452D01*
X115243589Y-49516410D01*
X115340209Y-49595702D01*
X115403550Y-49647685D01*
X115586046Y-49745232D01*
X115784066Y-49805300D01*
X115784065Y-49805300D01*
X115802529Y-49807118D01*
X115990000Y-49825583D01*
X116195934Y-49805300D01*
X116393954Y-49745232D01*
X116576450Y-49647685D01*
X116736410Y-49516410D01*
X116867685Y-49356450D01*
X116965232Y-49173954D01*
X117025300Y-48975934D01*
X117045583Y-48770000D01*
X117474417Y-48770000D01*
X117494699Y-48975932D01*
X117494700Y-48975934D01*
X117554768Y-49173954D01*
X117652315Y-49356450D01*
X117652317Y-49356452D01*
X117783589Y-49516410D01*
X117880209Y-49595702D01*
X117943550Y-49647685D01*
X118126046Y-49745232D01*
X118324066Y-49805300D01*
X118324065Y-49805300D01*
X118342529Y-49807118D01*
X118530000Y-49825583D01*
X118735934Y-49805300D01*
X118933954Y-49745232D01*
X119116450Y-49647685D01*
X119276410Y-49516410D01*
X119407685Y-49356450D01*
X119505232Y-49173954D01*
X119565300Y-48975934D01*
X119585583Y-48770000D01*
X120014417Y-48770000D01*
X120034699Y-48975932D01*
X120034700Y-48975934D01*
X120094768Y-49173954D01*
X120192315Y-49356450D01*
X120192317Y-49356452D01*
X120323589Y-49516410D01*
X120420209Y-49595702D01*
X120483550Y-49647685D01*
X120666046Y-49745232D01*
X120864066Y-49805300D01*
X120864065Y-49805300D01*
X120882529Y-49807118D01*
X121070000Y-49825583D01*
X121275934Y-49805300D01*
X121473954Y-49745232D01*
X121656450Y-49647685D01*
X121816410Y-49516410D01*
X121947685Y-49356450D01*
X122045232Y-49173954D01*
X122105300Y-48975934D01*
X122125583Y-48770000D01*
X122554417Y-48770000D01*
X122574699Y-48975932D01*
X122574700Y-48975934D01*
X122634768Y-49173954D01*
X122732315Y-49356450D01*
X122732317Y-49356452D01*
X122863589Y-49516410D01*
X122960209Y-49595702D01*
X123023550Y-49647685D01*
X123206046Y-49745232D01*
X123404066Y-49805300D01*
X123404065Y-49805300D01*
X123422529Y-49807118D01*
X123610000Y-49825583D01*
X123815934Y-49805300D01*
X124013954Y-49745232D01*
X124196450Y-49647685D01*
X124356410Y-49516410D01*
X124487685Y-49356450D01*
X124585232Y-49173954D01*
X124645300Y-48975934D01*
X124665583Y-48770000D01*
X125094417Y-48770000D01*
X125114699Y-48975932D01*
X125114700Y-48975934D01*
X125174768Y-49173954D01*
X125272315Y-49356450D01*
X125272317Y-49356452D01*
X125403589Y-49516410D01*
X125500209Y-49595702D01*
X125563550Y-49647685D01*
X125746046Y-49745232D01*
X125944066Y-49805300D01*
X125944065Y-49805300D01*
X125962529Y-49807118D01*
X126150000Y-49825583D01*
X126355934Y-49805300D01*
X126553954Y-49745232D01*
X126736450Y-49647685D01*
X126896410Y-49516410D01*
X127027685Y-49356450D01*
X127125232Y-49173954D01*
X127185300Y-48975934D01*
X127205583Y-48770000D01*
X127185300Y-48564066D01*
X127171933Y-48519999D01*
X127617471Y-48519999D01*
X127617472Y-48520000D01*
X128256988Y-48520000D01*
X128224075Y-48577007D01*
X128190000Y-48704174D01*
X128190000Y-48835826D01*
X128224075Y-48962993D01*
X128256988Y-49020000D01*
X127617472Y-49020000D01*
X127659885Y-49169065D01*
X127659890Y-49169078D01*
X127750754Y-49351556D01*
X127873608Y-49514242D01*
X128024260Y-49651578D01*
X128197584Y-49758897D01*
X128387678Y-49832539D01*
X128440000Y-49842320D01*
X128440000Y-49203012D01*
X128497007Y-49235925D01*
X128624174Y-49270000D01*
X128755826Y-49270000D01*
X128882993Y-49235925D01*
X128940000Y-49203012D01*
X128940000Y-49842320D01*
X128992321Y-49832539D01*
X129182415Y-49758897D01*
X129355739Y-49651578D01*
X129506391Y-49514242D01*
X129629245Y-49351556D01*
X129720109Y-49169078D01*
X129720114Y-49169065D01*
X129762528Y-49020000D01*
X129123012Y-49020000D01*
X129155925Y-48962993D01*
X129190000Y-48835826D01*
X129190000Y-48770000D01*
X130174417Y-48770000D01*
X130194699Y-48975932D01*
X130194700Y-48975934D01*
X130254768Y-49173954D01*
X130352315Y-49356450D01*
X130352317Y-49356452D01*
X130483589Y-49516410D01*
X130580209Y-49595702D01*
X130643550Y-49647685D01*
X130826046Y-49745232D01*
X131024066Y-49805300D01*
X131024065Y-49805300D01*
X131042529Y-49807118D01*
X131230000Y-49825583D01*
X131435934Y-49805300D01*
X131633954Y-49745232D01*
X131816450Y-49647685D01*
X131976410Y-49516410D01*
X132107685Y-49356450D01*
X132205232Y-49173954D01*
X132265300Y-48975934D01*
X132285583Y-48770000D01*
X132714417Y-48770000D01*
X132734699Y-48975932D01*
X132734700Y-48975934D01*
X132794768Y-49173954D01*
X132892315Y-49356450D01*
X132892317Y-49356452D01*
X133023589Y-49516410D01*
X133120209Y-49595702D01*
X133183550Y-49647685D01*
X133366046Y-49745232D01*
X133564066Y-49805300D01*
X133564065Y-49805300D01*
X133582529Y-49807118D01*
X133770000Y-49825583D01*
X133975934Y-49805300D01*
X134173954Y-49745232D01*
X134356450Y-49647685D01*
X134516410Y-49516410D01*
X134647685Y-49356450D01*
X134745232Y-49173954D01*
X134805300Y-48975934D01*
X134825583Y-48770000D01*
X135254417Y-48770000D01*
X135274699Y-48975932D01*
X135274700Y-48975934D01*
X135334768Y-49173954D01*
X135432315Y-49356450D01*
X135432317Y-49356452D01*
X135563589Y-49516410D01*
X135660209Y-49595702D01*
X135723550Y-49647685D01*
X135906046Y-49745232D01*
X136104066Y-49805300D01*
X136104065Y-49805300D01*
X136122529Y-49807118D01*
X136310000Y-49825583D01*
X136515934Y-49805300D01*
X136713954Y-49745232D01*
X136896450Y-49647685D01*
X137056410Y-49516410D01*
X137187685Y-49356450D01*
X137285232Y-49173954D01*
X137345300Y-48975934D01*
X137365583Y-48770000D01*
X137794417Y-48770000D01*
X137814699Y-48975932D01*
X137814700Y-48975934D01*
X137874768Y-49173954D01*
X137972315Y-49356450D01*
X137972317Y-49356452D01*
X138103589Y-49516410D01*
X138200209Y-49595702D01*
X138263550Y-49647685D01*
X138446046Y-49745232D01*
X138644066Y-49805300D01*
X138644065Y-49805300D01*
X138662529Y-49807118D01*
X138850000Y-49825583D01*
X139055934Y-49805300D01*
X139253954Y-49745232D01*
X139436450Y-49647685D01*
X139596410Y-49516410D01*
X139727685Y-49356450D01*
X139825232Y-49173954D01*
X139885300Y-48975934D01*
X139905583Y-48770000D01*
X140334417Y-48770000D01*
X140354699Y-48975932D01*
X140354700Y-48975934D01*
X140414768Y-49173954D01*
X140512315Y-49356450D01*
X140512317Y-49356452D01*
X140643589Y-49516410D01*
X140740209Y-49595702D01*
X140803550Y-49647685D01*
X140986046Y-49745232D01*
X141184066Y-49805300D01*
X141184065Y-49805300D01*
X141202529Y-49807118D01*
X141390000Y-49825583D01*
X141595934Y-49805300D01*
X141793954Y-49745232D01*
X141976450Y-49647685D01*
X142136410Y-49516410D01*
X142267685Y-49356450D01*
X142365232Y-49173954D01*
X142425300Y-48975934D01*
X142445583Y-48770000D01*
X142874417Y-48770000D01*
X142894699Y-48975932D01*
X142894700Y-48975934D01*
X142954768Y-49173954D01*
X143052315Y-49356450D01*
X143052317Y-49356452D01*
X143183589Y-49516410D01*
X143280209Y-49595702D01*
X143343550Y-49647685D01*
X143526046Y-49745232D01*
X143724066Y-49805300D01*
X143724065Y-49805300D01*
X143742529Y-49807118D01*
X143930000Y-49825583D01*
X144135934Y-49805300D01*
X144333954Y-49745232D01*
X144516450Y-49647685D01*
X144676410Y-49516410D01*
X144807685Y-49356450D01*
X144905232Y-49173954D01*
X144965300Y-48975934D01*
X144985583Y-48770000D01*
X145414417Y-48770000D01*
X145434699Y-48975932D01*
X145434700Y-48975934D01*
X145494768Y-49173954D01*
X145592315Y-49356450D01*
X145592317Y-49356452D01*
X145723589Y-49516410D01*
X145820209Y-49595702D01*
X145883550Y-49647685D01*
X146066046Y-49745232D01*
X146264066Y-49805300D01*
X146264065Y-49805300D01*
X146282529Y-49807118D01*
X146470000Y-49825583D01*
X146675934Y-49805300D01*
X146873954Y-49745232D01*
X147056450Y-49647685D01*
X147216410Y-49516410D01*
X147347685Y-49356450D01*
X147445232Y-49173954D01*
X147505300Y-48975934D01*
X147525583Y-48770000D01*
X147954417Y-48770000D01*
X147974699Y-48975932D01*
X147974700Y-48975934D01*
X148034768Y-49173954D01*
X148132315Y-49356450D01*
X148132317Y-49356452D01*
X148263589Y-49516410D01*
X148360209Y-49595702D01*
X148423550Y-49647685D01*
X148606046Y-49745232D01*
X148804066Y-49805300D01*
X148804065Y-49805300D01*
X148822529Y-49807118D01*
X149010000Y-49825583D01*
X149215934Y-49805300D01*
X149413954Y-49745232D01*
X149596450Y-49647685D01*
X149756410Y-49516410D01*
X149887685Y-49356450D01*
X149985232Y-49173954D01*
X150045300Y-48975934D01*
X150065583Y-48770000D01*
X150494417Y-48770000D01*
X150514699Y-48975932D01*
X150514700Y-48975934D01*
X150574768Y-49173954D01*
X150672315Y-49356450D01*
X150672317Y-49356452D01*
X150803589Y-49516410D01*
X150900209Y-49595702D01*
X150963550Y-49647685D01*
X151146046Y-49745232D01*
X151344066Y-49805300D01*
X151344065Y-49805300D01*
X151362529Y-49807118D01*
X151550000Y-49825583D01*
X151755934Y-49805300D01*
X151953954Y-49745232D01*
X152136450Y-49647685D01*
X152296410Y-49516410D01*
X152427685Y-49356450D01*
X152525232Y-49173954D01*
X152585300Y-48975934D01*
X152605583Y-48770000D01*
X153034417Y-48770000D01*
X153054699Y-48975932D01*
X153054700Y-48975934D01*
X153114768Y-49173954D01*
X153212315Y-49356450D01*
X153212317Y-49356452D01*
X153343589Y-49516410D01*
X153440209Y-49595702D01*
X153503550Y-49647685D01*
X153686046Y-49745232D01*
X153884066Y-49805300D01*
X153884065Y-49805300D01*
X153902529Y-49807118D01*
X154090000Y-49825583D01*
X154295934Y-49805300D01*
X154493954Y-49745232D01*
X154676450Y-49647685D01*
X154836410Y-49516410D01*
X154967685Y-49356450D01*
X155065232Y-49173954D01*
X155125300Y-48975934D01*
X155145583Y-48770000D01*
X155574417Y-48770000D01*
X155594699Y-48975932D01*
X155594700Y-48975934D01*
X155654768Y-49173954D01*
X155752315Y-49356450D01*
X155752317Y-49356452D01*
X155883589Y-49516410D01*
X155980209Y-49595702D01*
X156043550Y-49647685D01*
X156226046Y-49745232D01*
X156424066Y-49805300D01*
X156424065Y-49805300D01*
X156442529Y-49807118D01*
X156630000Y-49825583D01*
X156835934Y-49805300D01*
X157033954Y-49745232D01*
X157216450Y-49647685D01*
X157376410Y-49516410D01*
X157507685Y-49356450D01*
X157605232Y-49173954D01*
X157665300Y-48975934D01*
X157685583Y-48770000D01*
X157665300Y-48564066D01*
X157605232Y-48366046D01*
X157507685Y-48183550D01*
X157455702Y-48120209D01*
X157376410Y-48023589D01*
X157220176Y-47895373D01*
X157216450Y-47892315D01*
X157033954Y-47794768D01*
X156835934Y-47734700D01*
X156835932Y-47734699D01*
X156835934Y-47734699D01*
X156630000Y-47714417D01*
X156424067Y-47734699D01*
X156226043Y-47794769D01*
X156115898Y-47853643D01*
X156043550Y-47892315D01*
X156043548Y-47892316D01*
X156043547Y-47892317D01*
X155883589Y-48023589D01*
X155752317Y-48183547D01*
X155654769Y-48366043D01*
X155594699Y-48564067D01*
X155574417Y-48770000D01*
X155145583Y-48770000D01*
X155125300Y-48564066D01*
X155065232Y-48366046D01*
X154967685Y-48183550D01*
X154915702Y-48120209D01*
X154836410Y-48023589D01*
X154680176Y-47895373D01*
X154676450Y-47892315D01*
X154493954Y-47794768D01*
X154295934Y-47734700D01*
X154295932Y-47734699D01*
X154295934Y-47734699D01*
X154090000Y-47714417D01*
X153884067Y-47734699D01*
X153686043Y-47794769D01*
X153575898Y-47853643D01*
X153503550Y-47892315D01*
X153503548Y-47892316D01*
X153503547Y-47892317D01*
X153343589Y-48023589D01*
X153212317Y-48183547D01*
X153114769Y-48366043D01*
X153054699Y-48564067D01*
X153034417Y-48770000D01*
X152605583Y-48770000D01*
X152585300Y-48564066D01*
X152525232Y-48366046D01*
X152427685Y-48183550D01*
X152375702Y-48120209D01*
X152296410Y-48023589D01*
X152140176Y-47895373D01*
X152136450Y-47892315D01*
X151953954Y-47794768D01*
X151755934Y-47734700D01*
X151755932Y-47734699D01*
X151755934Y-47734699D01*
X151550000Y-47714417D01*
X151344067Y-47734699D01*
X151146043Y-47794769D01*
X151035898Y-47853643D01*
X150963550Y-47892315D01*
X150963548Y-47892316D01*
X150963547Y-47892317D01*
X150803589Y-48023589D01*
X150672317Y-48183547D01*
X150574769Y-48366043D01*
X150514699Y-48564067D01*
X150494417Y-48770000D01*
X150065583Y-48770000D01*
X150045300Y-48564066D01*
X149985232Y-48366046D01*
X149887685Y-48183550D01*
X149835702Y-48120209D01*
X149756410Y-48023589D01*
X149600176Y-47895373D01*
X149596450Y-47892315D01*
X149413954Y-47794768D01*
X149215934Y-47734700D01*
X149215932Y-47734699D01*
X149215934Y-47734699D01*
X149010000Y-47714417D01*
X148804067Y-47734699D01*
X148606043Y-47794769D01*
X148495898Y-47853643D01*
X148423550Y-47892315D01*
X148423548Y-47892316D01*
X148423547Y-47892317D01*
X148263589Y-48023589D01*
X148132317Y-48183547D01*
X148034769Y-48366043D01*
X147974699Y-48564067D01*
X147954417Y-48770000D01*
X147525583Y-48770000D01*
X147505300Y-48564066D01*
X147445232Y-48366046D01*
X147347685Y-48183550D01*
X147295702Y-48120209D01*
X147216410Y-48023589D01*
X147060176Y-47895373D01*
X147056450Y-47892315D01*
X146873954Y-47794768D01*
X146675934Y-47734700D01*
X146675932Y-47734699D01*
X146675934Y-47734699D01*
X146470000Y-47714417D01*
X146264067Y-47734699D01*
X146066043Y-47794769D01*
X145955898Y-47853643D01*
X145883550Y-47892315D01*
X145883548Y-47892316D01*
X145883547Y-47892317D01*
X145723589Y-48023589D01*
X145592317Y-48183547D01*
X145494769Y-48366043D01*
X145434699Y-48564067D01*
X145414417Y-48770000D01*
X144985583Y-48770000D01*
X144965300Y-48564066D01*
X144905232Y-48366046D01*
X144807685Y-48183550D01*
X144755702Y-48120209D01*
X144676410Y-48023589D01*
X144520176Y-47895373D01*
X144516450Y-47892315D01*
X144333954Y-47794768D01*
X144135934Y-47734700D01*
X144135932Y-47734699D01*
X144135934Y-47734699D01*
X143930000Y-47714417D01*
X143724067Y-47734699D01*
X143526043Y-47794769D01*
X143415898Y-47853643D01*
X143343550Y-47892315D01*
X143343548Y-47892316D01*
X143343547Y-47892317D01*
X143183589Y-48023589D01*
X143052317Y-48183547D01*
X142954769Y-48366043D01*
X142894699Y-48564067D01*
X142874417Y-48770000D01*
X142445583Y-48770000D01*
X142425300Y-48564066D01*
X142365232Y-48366046D01*
X142267685Y-48183550D01*
X142215702Y-48120209D01*
X142136410Y-48023589D01*
X141980176Y-47895373D01*
X141976450Y-47892315D01*
X141793954Y-47794768D01*
X141595934Y-47734700D01*
X141595932Y-47734699D01*
X141595934Y-47734699D01*
X141390000Y-47714417D01*
X141184067Y-47734699D01*
X140986043Y-47794769D01*
X140875898Y-47853643D01*
X140803550Y-47892315D01*
X140803548Y-47892316D01*
X140803547Y-47892317D01*
X140643589Y-48023589D01*
X140512317Y-48183547D01*
X140414769Y-48366043D01*
X140354699Y-48564067D01*
X140334417Y-48770000D01*
X139905583Y-48770000D01*
X139885300Y-48564066D01*
X139825232Y-48366046D01*
X139727685Y-48183550D01*
X139675702Y-48120209D01*
X139596410Y-48023589D01*
X139440176Y-47895373D01*
X139436450Y-47892315D01*
X139253954Y-47794768D01*
X139055934Y-47734700D01*
X139055932Y-47734699D01*
X139055934Y-47734699D01*
X138850000Y-47714417D01*
X138644067Y-47734699D01*
X138446043Y-47794769D01*
X138335898Y-47853643D01*
X138263550Y-47892315D01*
X138263548Y-47892316D01*
X138263547Y-47892317D01*
X138103589Y-48023589D01*
X137972317Y-48183547D01*
X137874769Y-48366043D01*
X137814699Y-48564067D01*
X137794417Y-48770000D01*
X137365583Y-48770000D01*
X137345300Y-48564066D01*
X137285232Y-48366046D01*
X137187685Y-48183550D01*
X137135702Y-48120209D01*
X137056410Y-48023589D01*
X136900176Y-47895373D01*
X136896450Y-47892315D01*
X136713954Y-47794768D01*
X136515934Y-47734700D01*
X136515932Y-47734699D01*
X136515934Y-47734699D01*
X136310000Y-47714417D01*
X136104067Y-47734699D01*
X135906043Y-47794769D01*
X135795898Y-47853643D01*
X135723550Y-47892315D01*
X135723548Y-47892316D01*
X135723547Y-47892317D01*
X135563589Y-48023589D01*
X135432317Y-48183547D01*
X135334769Y-48366043D01*
X135274699Y-48564067D01*
X135254417Y-48770000D01*
X134825583Y-48770000D01*
X134805300Y-48564066D01*
X134745232Y-48366046D01*
X134647685Y-48183550D01*
X134595702Y-48120209D01*
X134516410Y-48023589D01*
X134360176Y-47895373D01*
X134356450Y-47892315D01*
X134173954Y-47794768D01*
X133975934Y-47734700D01*
X133975932Y-47734699D01*
X133975934Y-47734699D01*
X133770000Y-47714417D01*
X133564067Y-47734699D01*
X133366043Y-47794769D01*
X133255898Y-47853643D01*
X133183550Y-47892315D01*
X133183548Y-47892316D01*
X133183547Y-47892317D01*
X133023589Y-48023589D01*
X132892317Y-48183547D01*
X132794769Y-48366043D01*
X132734699Y-48564067D01*
X132714417Y-48770000D01*
X132285583Y-48770000D01*
X132265300Y-48564066D01*
X132205232Y-48366046D01*
X132107685Y-48183550D01*
X132055702Y-48120209D01*
X131976410Y-48023589D01*
X131820176Y-47895373D01*
X131816450Y-47892315D01*
X131633954Y-47794768D01*
X131435934Y-47734700D01*
X131435932Y-47734699D01*
X131435934Y-47734699D01*
X131230000Y-47714417D01*
X131024067Y-47734699D01*
X130826043Y-47794769D01*
X130715898Y-47853643D01*
X130643550Y-47892315D01*
X130643548Y-47892316D01*
X130643547Y-47892317D01*
X130483589Y-48023589D01*
X130352317Y-48183547D01*
X130254769Y-48366043D01*
X130194699Y-48564067D01*
X130174417Y-48770000D01*
X129190000Y-48770000D01*
X129190000Y-48704174D01*
X129155925Y-48577007D01*
X129123012Y-48520000D01*
X129762528Y-48520000D01*
X129762528Y-48519999D01*
X129720114Y-48370934D01*
X129720109Y-48370921D01*
X129629245Y-48188443D01*
X129506391Y-48025757D01*
X129355739Y-47888421D01*
X129182413Y-47781101D01*
X128992315Y-47707458D01*
X128992309Y-47707456D01*
X128940001Y-47697677D01*
X128940000Y-47697679D01*
X128940000Y-48336988D01*
X128882993Y-48304075D01*
X128755826Y-48270000D01*
X128624174Y-48270000D01*
X128497007Y-48304075D01*
X128440000Y-48336988D01*
X128440000Y-47697679D01*
X128439998Y-47697677D01*
X128387690Y-47707456D01*
X128387684Y-47707458D01*
X128197586Y-47781101D01*
X128024260Y-47888421D01*
X127873608Y-48025757D01*
X127750754Y-48188443D01*
X127659890Y-48370921D01*
X127659885Y-48370934D01*
X127617471Y-48519999D01*
X127171933Y-48519999D01*
X127125232Y-48366046D01*
X127027685Y-48183550D01*
X126975702Y-48120209D01*
X126896410Y-48023589D01*
X126740176Y-47895373D01*
X126736450Y-47892315D01*
X126553954Y-47794768D01*
X126355934Y-47734700D01*
X126355932Y-47734699D01*
X126355934Y-47734699D01*
X126150000Y-47714417D01*
X125944067Y-47734699D01*
X125746043Y-47794769D01*
X125635898Y-47853643D01*
X125563550Y-47892315D01*
X125563548Y-47892316D01*
X125563547Y-47892317D01*
X125403589Y-48023589D01*
X125272317Y-48183547D01*
X125174769Y-48366043D01*
X125114699Y-48564067D01*
X125094417Y-48770000D01*
X124665583Y-48770000D01*
X124645300Y-48564066D01*
X124585232Y-48366046D01*
X124487685Y-48183550D01*
X124435702Y-48120209D01*
X124356410Y-48023589D01*
X124200176Y-47895373D01*
X124196450Y-47892315D01*
X124013954Y-47794768D01*
X123815934Y-47734700D01*
X123815932Y-47734699D01*
X123815934Y-47734699D01*
X123610000Y-47714417D01*
X123404067Y-47734699D01*
X123206043Y-47794769D01*
X123095898Y-47853643D01*
X123023550Y-47892315D01*
X123023548Y-47892316D01*
X123023547Y-47892317D01*
X122863589Y-48023589D01*
X122732317Y-48183547D01*
X122634769Y-48366043D01*
X122574699Y-48564067D01*
X122554417Y-48770000D01*
X122125583Y-48770000D01*
X122105300Y-48564066D01*
X122045232Y-48366046D01*
X121947685Y-48183550D01*
X121895702Y-48120209D01*
X121816410Y-48023589D01*
X121660176Y-47895373D01*
X121656450Y-47892315D01*
X121473954Y-47794768D01*
X121275934Y-47734700D01*
X121275932Y-47734699D01*
X121275934Y-47734699D01*
X121070000Y-47714417D01*
X120864067Y-47734699D01*
X120666043Y-47794769D01*
X120555898Y-47853643D01*
X120483550Y-47892315D01*
X120483548Y-47892316D01*
X120483547Y-47892317D01*
X120323589Y-48023589D01*
X120192317Y-48183547D01*
X120094769Y-48366043D01*
X120034699Y-48564067D01*
X120014417Y-48770000D01*
X119585583Y-48770000D01*
X119565300Y-48564066D01*
X119505232Y-48366046D01*
X119407685Y-48183550D01*
X119355702Y-48120209D01*
X119276410Y-48023589D01*
X119120176Y-47895373D01*
X119116450Y-47892315D01*
X118933954Y-47794768D01*
X118735934Y-47734700D01*
X118735932Y-47734699D01*
X118735934Y-47734699D01*
X118530000Y-47714417D01*
X118324067Y-47734699D01*
X118126043Y-47794769D01*
X118015898Y-47853643D01*
X117943550Y-47892315D01*
X117943548Y-47892316D01*
X117943547Y-47892317D01*
X117783589Y-48023589D01*
X117652317Y-48183547D01*
X117554769Y-48366043D01*
X117494699Y-48564067D01*
X117474417Y-48770000D01*
X117045583Y-48770000D01*
X117025300Y-48564066D01*
X116965232Y-48366046D01*
X116867685Y-48183550D01*
X116815702Y-48120209D01*
X116736410Y-48023589D01*
X116580176Y-47895373D01*
X116576450Y-47892315D01*
X116393954Y-47794768D01*
X116195934Y-47734700D01*
X116195932Y-47734699D01*
X116195934Y-47734699D01*
X115990000Y-47714417D01*
X115784067Y-47734699D01*
X115586043Y-47794769D01*
X115475898Y-47853643D01*
X115403550Y-47892315D01*
X115403548Y-47892316D01*
X115403547Y-47892317D01*
X115243589Y-48023589D01*
X115112317Y-48183547D01*
X115014769Y-48366043D01*
X114954699Y-48564067D01*
X114934417Y-48770000D01*
X114505583Y-48770000D01*
X114485300Y-48564066D01*
X114425232Y-48366046D01*
X114327685Y-48183550D01*
X114275702Y-48120209D01*
X114196410Y-48023589D01*
X114040176Y-47895373D01*
X114036450Y-47892315D01*
X113853954Y-47794768D01*
X113655934Y-47734700D01*
X113655932Y-47734699D01*
X113655934Y-47734699D01*
X113450000Y-47714417D01*
X113244067Y-47734699D01*
X113046043Y-47794769D01*
X112935898Y-47853643D01*
X112863550Y-47892315D01*
X112863548Y-47892316D01*
X112863547Y-47892317D01*
X112703589Y-48023589D01*
X112572317Y-48183547D01*
X112474769Y-48366043D01*
X112414699Y-48564067D01*
X112394417Y-48770000D01*
X111965583Y-48770000D01*
X111945300Y-48564066D01*
X111885232Y-48366046D01*
X111787685Y-48183550D01*
X111735702Y-48120209D01*
X111656410Y-48023589D01*
X111500176Y-47895373D01*
X111496450Y-47892315D01*
X111313954Y-47794768D01*
X111115934Y-47734700D01*
X111115932Y-47734699D01*
X111115934Y-47734699D01*
X110910000Y-47714417D01*
X110704067Y-47734699D01*
X110506043Y-47794769D01*
X110395898Y-47853643D01*
X110323550Y-47892315D01*
X110323548Y-47892316D01*
X110323547Y-47892317D01*
X110163589Y-48023589D01*
X110032317Y-48183547D01*
X109934769Y-48366043D01*
X109874699Y-48564067D01*
X109854417Y-48770000D01*
X108870000Y-48770000D01*
X108870000Y-48704174D01*
X108835925Y-48577007D01*
X108803012Y-48520000D01*
X109470000Y-48520000D01*
X109470000Y-47895373D01*
X109469999Y-47895371D01*
X109455496Y-47822459D01*
X109455494Y-47822455D01*
X109400239Y-47739760D01*
X109317544Y-47684505D01*
X109317540Y-47684503D01*
X109244627Y-47670000D01*
X108620000Y-47670000D01*
X108620000Y-48336988D01*
X108562993Y-48304075D01*
X108435826Y-48270000D01*
X108304174Y-48270000D01*
X108177007Y-48304075D01*
X108120000Y-48336988D01*
X108120000Y-47670000D01*
X107495373Y-47670000D01*
X107422459Y-47684503D01*
X107422455Y-47684505D01*
X107339760Y-47739760D01*
X107284505Y-47822455D01*
X107284503Y-47822459D01*
X107270000Y-47895371D01*
X100050500Y-47895371D01*
X100050500Y-46230000D01*
X107314417Y-46230000D01*
X107334699Y-46435932D01*
X107334700Y-46435934D01*
X107394768Y-46633954D01*
X107492315Y-46816450D01*
X107492317Y-46816452D01*
X107623589Y-46976410D01*
X107720209Y-47055702D01*
X107783550Y-47107685D01*
X107966046Y-47205232D01*
X108164066Y-47265300D01*
X108164065Y-47265300D01*
X108182529Y-47267118D01*
X108370000Y-47285583D01*
X108575934Y-47265300D01*
X108773954Y-47205232D01*
X108956450Y-47107685D01*
X109116410Y-46976410D01*
X109247685Y-46816450D01*
X109345232Y-46633954D01*
X109405300Y-46435934D01*
X109425583Y-46230000D01*
X109854417Y-46230000D01*
X109874699Y-46435932D01*
X109874700Y-46435934D01*
X109934768Y-46633954D01*
X110032315Y-46816450D01*
X110032317Y-46816452D01*
X110163589Y-46976410D01*
X110260209Y-47055702D01*
X110323550Y-47107685D01*
X110506046Y-47205232D01*
X110704066Y-47265300D01*
X110704065Y-47265300D01*
X110722529Y-47267118D01*
X110910000Y-47285583D01*
X111115934Y-47265300D01*
X111313954Y-47205232D01*
X111496450Y-47107685D01*
X111656410Y-46976410D01*
X111787685Y-46816450D01*
X111885232Y-46633954D01*
X111945300Y-46435934D01*
X111965583Y-46230000D01*
X112394417Y-46230000D01*
X112414699Y-46435932D01*
X112414700Y-46435934D01*
X112474768Y-46633954D01*
X112572315Y-46816450D01*
X112572317Y-46816452D01*
X112703589Y-46976410D01*
X112800209Y-47055702D01*
X112863550Y-47107685D01*
X113046046Y-47205232D01*
X113244066Y-47265300D01*
X113244065Y-47265300D01*
X113262529Y-47267118D01*
X113450000Y-47285583D01*
X113655934Y-47265300D01*
X113853954Y-47205232D01*
X114036450Y-47107685D01*
X114196410Y-46976410D01*
X114327685Y-46816450D01*
X114425232Y-46633954D01*
X114485300Y-46435934D01*
X114505583Y-46230000D01*
X114934417Y-46230000D01*
X114954699Y-46435932D01*
X114954700Y-46435934D01*
X115014768Y-46633954D01*
X115112315Y-46816450D01*
X115112317Y-46816452D01*
X115243589Y-46976410D01*
X115340209Y-47055702D01*
X115403550Y-47107685D01*
X115586046Y-47205232D01*
X115784066Y-47265300D01*
X115784065Y-47265300D01*
X115802529Y-47267118D01*
X115990000Y-47285583D01*
X116195934Y-47265300D01*
X116393954Y-47205232D01*
X116576450Y-47107685D01*
X116736410Y-46976410D01*
X116867685Y-46816450D01*
X116965232Y-46633954D01*
X117025300Y-46435934D01*
X117045583Y-46230000D01*
X117474417Y-46230000D01*
X117494699Y-46435932D01*
X117494700Y-46435934D01*
X117554768Y-46633954D01*
X117652315Y-46816450D01*
X117652317Y-46816452D01*
X117783589Y-46976410D01*
X117880209Y-47055702D01*
X117943550Y-47107685D01*
X118126046Y-47205232D01*
X118324066Y-47265300D01*
X118324065Y-47265300D01*
X118342529Y-47267118D01*
X118530000Y-47285583D01*
X118735934Y-47265300D01*
X118933954Y-47205232D01*
X119116450Y-47107685D01*
X119276410Y-46976410D01*
X119407685Y-46816450D01*
X119505232Y-46633954D01*
X119565300Y-46435934D01*
X119585583Y-46230000D01*
X120014417Y-46230000D01*
X120034699Y-46435932D01*
X120034700Y-46435934D01*
X120094768Y-46633954D01*
X120192315Y-46816450D01*
X120192317Y-46816452D01*
X120323589Y-46976410D01*
X120420209Y-47055702D01*
X120483550Y-47107685D01*
X120666046Y-47205232D01*
X120864066Y-47265300D01*
X120864065Y-47265300D01*
X120882529Y-47267118D01*
X121070000Y-47285583D01*
X121275934Y-47265300D01*
X121473954Y-47205232D01*
X121656450Y-47107685D01*
X121816410Y-46976410D01*
X121947685Y-46816450D01*
X122045232Y-46633954D01*
X122105300Y-46435934D01*
X122125583Y-46230000D01*
X122554417Y-46230000D01*
X122574699Y-46435932D01*
X122574700Y-46435934D01*
X122634768Y-46633954D01*
X122732315Y-46816450D01*
X122732317Y-46816452D01*
X122863589Y-46976410D01*
X122960209Y-47055702D01*
X123023550Y-47107685D01*
X123206046Y-47205232D01*
X123404066Y-47265300D01*
X123404065Y-47265300D01*
X123422529Y-47267118D01*
X123610000Y-47285583D01*
X123815934Y-47265300D01*
X124013954Y-47205232D01*
X124196450Y-47107685D01*
X124356410Y-46976410D01*
X124487685Y-46816450D01*
X124585232Y-46633954D01*
X124645300Y-46435934D01*
X124665583Y-46230000D01*
X125094417Y-46230000D01*
X125114699Y-46435932D01*
X125114700Y-46435934D01*
X125174768Y-46633954D01*
X125272315Y-46816450D01*
X125272317Y-46816452D01*
X125403589Y-46976410D01*
X125500209Y-47055702D01*
X125563550Y-47107685D01*
X125746046Y-47205232D01*
X125944066Y-47265300D01*
X125944065Y-47265300D01*
X125962529Y-47267118D01*
X126150000Y-47285583D01*
X126355934Y-47265300D01*
X126553954Y-47205232D01*
X126736450Y-47107685D01*
X126896410Y-46976410D01*
X127027685Y-46816450D01*
X127125232Y-46633954D01*
X127185300Y-46435934D01*
X127205583Y-46230000D01*
X127634417Y-46230000D01*
X127654699Y-46435932D01*
X127654700Y-46435934D01*
X127714768Y-46633954D01*
X127812315Y-46816450D01*
X127812317Y-46816452D01*
X127943589Y-46976410D01*
X128040209Y-47055702D01*
X128103550Y-47107685D01*
X128286046Y-47205232D01*
X128484066Y-47265300D01*
X128484065Y-47265300D01*
X128502529Y-47267118D01*
X128690000Y-47285583D01*
X128895934Y-47265300D01*
X129093954Y-47205232D01*
X129276450Y-47107685D01*
X129436410Y-46976410D01*
X129567685Y-46816450D01*
X129665232Y-46633954D01*
X129725300Y-46435934D01*
X129745583Y-46230000D01*
X130174417Y-46230000D01*
X130194699Y-46435932D01*
X130194700Y-46435934D01*
X130254768Y-46633954D01*
X130352315Y-46816450D01*
X130352317Y-46816452D01*
X130483589Y-46976410D01*
X130580209Y-47055702D01*
X130643550Y-47107685D01*
X130826046Y-47205232D01*
X131024066Y-47265300D01*
X131024065Y-47265300D01*
X131042529Y-47267118D01*
X131230000Y-47285583D01*
X131435934Y-47265300D01*
X131633954Y-47205232D01*
X131816450Y-47107685D01*
X131976410Y-46976410D01*
X132107685Y-46816450D01*
X132205232Y-46633954D01*
X132265300Y-46435934D01*
X132285583Y-46230000D01*
X132714417Y-46230000D01*
X132734699Y-46435932D01*
X132734700Y-46435934D01*
X132794768Y-46633954D01*
X132892315Y-46816450D01*
X132892317Y-46816452D01*
X133023589Y-46976410D01*
X133120209Y-47055702D01*
X133183550Y-47107685D01*
X133366046Y-47205232D01*
X133564066Y-47265300D01*
X133564065Y-47265300D01*
X133582529Y-47267118D01*
X133770000Y-47285583D01*
X133975934Y-47265300D01*
X134173954Y-47205232D01*
X134356450Y-47107685D01*
X134516410Y-46976410D01*
X134647685Y-46816450D01*
X134745232Y-46633954D01*
X134805300Y-46435934D01*
X134825583Y-46230000D01*
X135254417Y-46230000D01*
X135274699Y-46435932D01*
X135274700Y-46435934D01*
X135334768Y-46633954D01*
X135432315Y-46816450D01*
X135432317Y-46816452D01*
X135563589Y-46976410D01*
X135660209Y-47055702D01*
X135723550Y-47107685D01*
X135906046Y-47205232D01*
X136104066Y-47265300D01*
X136104065Y-47265300D01*
X136122529Y-47267118D01*
X136310000Y-47285583D01*
X136515934Y-47265300D01*
X136713954Y-47205232D01*
X136896450Y-47107685D01*
X137056410Y-46976410D01*
X137187685Y-46816450D01*
X137285232Y-46633954D01*
X137345300Y-46435934D01*
X137365583Y-46230000D01*
X137794417Y-46230000D01*
X137814699Y-46435932D01*
X137814700Y-46435934D01*
X137874768Y-46633954D01*
X137972315Y-46816450D01*
X137972317Y-46816452D01*
X138103589Y-46976410D01*
X138200209Y-47055702D01*
X138263550Y-47107685D01*
X138446046Y-47205232D01*
X138644066Y-47265300D01*
X138644065Y-47265300D01*
X138662529Y-47267118D01*
X138850000Y-47285583D01*
X139055934Y-47265300D01*
X139253954Y-47205232D01*
X139436450Y-47107685D01*
X139596410Y-46976410D01*
X139727685Y-46816450D01*
X139825232Y-46633954D01*
X139885300Y-46435934D01*
X139905583Y-46230000D01*
X140334417Y-46230000D01*
X140354699Y-46435932D01*
X140354700Y-46435934D01*
X140414768Y-46633954D01*
X140512315Y-46816450D01*
X140512317Y-46816452D01*
X140643589Y-46976410D01*
X140740209Y-47055702D01*
X140803550Y-47107685D01*
X140986046Y-47205232D01*
X141184066Y-47265300D01*
X141184065Y-47265300D01*
X141202529Y-47267118D01*
X141390000Y-47285583D01*
X141595934Y-47265300D01*
X141793954Y-47205232D01*
X141976450Y-47107685D01*
X142136410Y-46976410D01*
X142267685Y-46816450D01*
X142365232Y-46633954D01*
X142425300Y-46435934D01*
X142445583Y-46230000D01*
X142874417Y-46230000D01*
X142894699Y-46435932D01*
X142894700Y-46435934D01*
X142954768Y-46633954D01*
X143052315Y-46816450D01*
X143052317Y-46816452D01*
X143183589Y-46976410D01*
X143280209Y-47055702D01*
X143343550Y-47107685D01*
X143526046Y-47205232D01*
X143724066Y-47265300D01*
X143724065Y-47265300D01*
X143742529Y-47267118D01*
X143930000Y-47285583D01*
X144135934Y-47265300D01*
X144333954Y-47205232D01*
X144516450Y-47107685D01*
X144676410Y-46976410D01*
X144807685Y-46816450D01*
X144905232Y-46633954D01*
X144965300Y-46435934D01*
X144985583Y-46230000D01*
X145414417Y-46230000D01*
X145434699Y-46435932D01*
X145434700Y-46435934D01*
X145494768Y-46633954D01*
X145592315Y-46816450D01*
X145592317Y-46816452D01*
X145723589Y-46976410D01*
X145820209Y-47055702D01*
X145883550Y-47107685D01*
X146066046Y-47205232D01*
X146264066Y-47265300D01*
X146264065Y-47265300D01*
X146282529Y-47267118D01*
X146470000Y-47285583D01*
X146675934Y-47265300D01*
X146873954Y-47205232D01*
X147056450Y-47107685D01*
X147216410Y-46976410D01*
X147347685Y-46816450D01*
X147445232Y-46633954D01*
X147505300Y-46435934D01*
X147525583Y-46230000D01*
X147954417Y-46230000D01*
X147974699Y-46435932D01*
X147974700Y-46435934D01*
X148034768Y-46633954D01*
X148132315Y-46816450D01*
X148132317Y-46816452D01*
X148263589Y-46976410D01*
X148360209Y-47055702D01*
X148423550Y-47107685D01*
X148606046Y-47205232D01*
X148804066Y-47265300D01*
X148804065Y-47265300D01*
X148822529Y-47267118D01*
X149010000Y-47285583D01*
X149215934Y-47265300D01*
X149413954Y-47205232D01*
X149596450Y-47107685D01*
X149756410Y-46976410D01*
X149887685Y-46816450D01*
X149985232Y-46633954D01*
X150045300Y-46435934D01*
X150065583Y-46230000D01*
X150494417Y-46230000D01*
X150514699Y-46435932D01*
X150514700Y-46435934D01*
X150574768Y-46633954D01*
X150672315Y-46816450D01*
X150672317Y-46816452D01*
X150803589Y-46976410D01*
X150900209Y-47055702D01*
X150963550Y-47107685D01*
X151146046Y-47205232D01*
X151344066Y-47265300D01*
X151344065Y-47265300D01*
X151362529Y-47267118D01*
X151550000Y-47285583D01*
X151755934Y-47265300D01*
X151953954Y-47205232D01*
X152136450Y-47107685D01*
X152296410Y-46976410D01*
X152427685Y-46816450D01*
X152525232Y-46633954D01*
X152585300Y-46435934D01*
X152605583Y-46230000D01*
X153034417Y-46230000D01*
X153054699Y-46435932D01*
X153054700Y-46435934D01*
X153114768Y-46633954D01*
X153212315Y-46816450D01*
X153212317Y-46816452D01*
X153343589Y-46976410D01*
X153440209Y-47055702D01*
X153503550Y-47107685D01*
X153686046Y-47205232D01*
X153884066Y-47265300D01*
X153884065Y-47265300D01*
X153902529Y-47267118D01*
X154090000Y-47285583D01*
X154295934Y-47265300D01*
X154493954Y-47205232D01*
X154676450Y-47107685D01*
X154836410Y-46976410D01*
X154967685Y-46816450D01*
X155065232Y-46633954D01*
X155125300Y-46435934D01*
X155145583Y-46230000D01*
X155574417Y-46230000D01*
X155594699Y-46435932D01*
X155594700Y-46435934D01*
X155654768Y-46633954D01*
X155752315Y-46816450D01*
X155752317Y-46816452D01*
X155883589Y-46976410D01*
X155980209Y-47055702D01*
X156043550Y-47107685D01*
X156226046Y-47205232D01*
X156424066Y-47265300D01*
X156424065Y-47265300D01*
X156442529Y-47267118D01*
X156630000Y-47285583D01*
X156835934Y-47265300D01*
X157033954Y-47205232D01*
X157216450Y-47107685D01*
X157376410Y-46976410D01*
X157507685Y-46816450D01*
X157605232Y-46633954D01*
X157665300Y-46435934D01*
X157685583Y-46230000D01*
X157665300Y-46024066D01*
X157605232Y-45826046D01*
X157507685Y-45643550D01*
X157455702Y-45580209D01*
X157376410Y-45483589D01*
X157216452Y-45352317D01*
X157216453Y-45352317D01*
X157216450Y-45352315D01*
X157033954Y-45254768D01*
X156835934Y-45194700D01*
X156835932Y-45194699D01*
X156835934Y-45194699D01*
X156630000Y-45174417D01*
X156424067Y-45194699D01*
X156226043Y-45254769D01*
X156115898Y-45313643D01*
X156043550Y-45352315D01*
X156043548Y-45352316D01*
X156043547Y-45352317D01*
X155883589Y-45483589D01*
X155752317Y-45643547D01*
X155654769Y-45826043D01*
X155594699Y-46024067D01*
X155574417Y-46230000D01*
X155145583Y-46230000D01*
X155125300Y-46024066D01*
X155065232Y-45826046D01*
X154967685Y-45643550D01*
X154915702Y-45580209D01*
X154836410Y-45483589D01*
X154676452Y-45352317D01*
X154676453Y-45352317D01*
X154676450Y-45352315D01*
X154493954Y-45254768D01*
X154295934Y-45194700D01*
X154295932Y-45194699D01*
X154295934Y-45194699D01*
X154090000Y-45174417D01*
X153884067Y-45194699D01*
X153686043Y-45254769D01*
X153575898Y-45313643D01*
X153503550Y-45352315D01*
X153503548Y-45352316D01*
X153503547Y-45352317D01*
X153343589Y-45483589D01*
X153212317Y-45643547D01*
X153114769Y-45826043D01*
X153054699Y-46024067D01*
X153034417Y-46230000D01*
X152605583Y-46230000D01*
X152585300Y-46024066D01*
X152525232Y-45826046D01*
X152427685Y-45643550D01*
X152375702Y-45580209D01*
X152296410Y-45483589D01*
X152136452Y-45352317D01*
X152136453Y-45352317D01*
X152136450Y-45352315D01*
X151953954Y-45254768D01*
X151755934Y-45194700D01*
X151755932Y-45194699D01*
X151755934Y-45194699D01*
X151550000Y-45174417D01*
X151344067Y-45194699D01*
X151146043Y-45254769D01*
X151035898Y-45313643D01*
X150963550Y-45352315D01*
X150963548Y-45352316D01*
X150963547Y-45352317D01*
X150803589Y-45483589D01*
X150672317Y-45643547D01*
X150574769Y-45826043D01*
X150514699Y-46024067D01*
X150494417Y-46230000D01*
X150065583Y-46230000D01*
X150045300Y-46024066D01*
X149985232Y-45826046D01*
X149887685Y-45643550D01*
X149835702Y-45580209D01*
X149756410Y-45483589D01*
X149596452Y-45352317D01*
X149596453Y-45352317D01*
X149596450Y-45352315D01*
X149413954Y-45254768D01*
X149215934Y-45194700D01*
X149215932Y-45194699D01*
X149215934Y-45194699D01*
X149010000Y-45174417D01*
X148804067Y-45194699D01*
X148606043Y-45254769D01*
X148495898Y-45313643D01*
X148423550Y-45352315D01*
X148423548Y-45352316D01*
X148423547Y-45352317D01*
X148263589Y-45483589D01*
X148132317Y-45643547D01*
X148034769Y-45826043D01*
X147974699Y-46024067D01*
X147954417Y-46230000D01*
X147525583Y-46230000D01*
X147505300Y-46024066D01*
X147445232Y-45826046D01*
X147347685Y-45643550D01*
X147295702Y-45580209D01*
X147216410Y-45483589D01*
X147056452Y-45352317D01*
X147056453Y-45352317D01*
X147056450Y-45352315D01*
X146873954Y-45254768D01*
X146675934Y-45194700D01*
X146675932Y-45194699D01*
X146675934Y-45194699D01*
X146470000Y-45174417D01*
X146264067Y-45194699D01*
X146066043Y-45254769D01*
X145955898Y-45313643D01*
X145883550Y-45352315D01*
X145883548Y-45352316D01*
X145883547Y-45352317D01*
X145723589Y-45483589D01*
X145592317Y-45643547D01*
X145494769Y-45826043D01*
X145434699Y-46024067D01*
X145414417Y-46230000D01*
X144985583Y-46230000D01*
X144965300Y-46024066D01*
X144905232Y-45826046D01*
X144807685Y-45643550D01*
X144755702Y-45580209D01*
X144676410Y-45483589D01*
X144516452Y-45352317D01*
X144516453Y-45352317D01*
X144516450Y-45352315D01*
X144333954Y-45254768D01*
X144135934Y-45194700D01*
X144135932Y-45194699D01*
X144135934Y-45194699D01*
X143930000Y-45174417D01*
X143724067Y-45194699D01*
X143526043Y-45254769D01*
X143415898Y-45313643D01*
X143343550Y-45352315D01*
X143343548Y-45352316D01*
X143343547Y-45352317D01*
X143183589Y-45483589D01*
X143052317Y-45643547D01*
X142954769Y-45826043D01*
X142894699Y-46024067D01*
X142874417Y-46230000D01*
X142445583Y-46230000D01*
X142425300Y-46024066D01*
X142365232Y-45826046D01*
X142267685Y-45643550D01*
X142215702Y-45580209D01*
X142136410Y-45483589D01*
X141976452Y-45352317D01*
X141976453Y-45352317D01*
X141976450Y-45352315D01*
X141793954Y-45254768D01*
X141595934Y-45194700D01*
X141595932Y-45194699D01*
X141595934Y-45194699D01*
X141390000Y-45174417D01*
X141184067Y-45194699D01*
X140986043Y-45254769D01*
X140875898Y-45313643D01*
X140803550Y-45352315D01*
X140803548Y-45352316D01*
X140803547Y-45352317D01*
X140643589Y-45483589D01*
X140512317Y-45643547D01*
X140414769Y-45826043D01*
X140354699Y-46024067D01*
X140334417Y-46230000D01*
X139905583Y-46230000D01*
X139885300Y-46024066D01*
X139825232Y-45826046D01*
X139727685Y-45643550D01*
X139675702Y-45580209D01*
X139596410Y-45483589D01*
X139436452Y-45352317D01*
X139436453Y-45352317D01*
X139436450Y-45352315D01*
X139253954Y-45254768D01*
X139055934Y-45194700D01*
X139055932Y-45194699D01*
X139055934Y-45194699D01*
X138850000Y-45174417D01*
X138644067Y-45194699D01*
X138446043Y-45254769D01*
X138335898Y-45313643D01*
X138263550Y-45352315D01*
X138263548Y-45352316D01*
X138263547Y-45352317D01*
X138103589Y-45483589D01*
X137972317Y-45643547D01*
X137874769Y-45826043D01*
X137814699Y-46024067D01*
X137794417Y-46230000D01*
X137365583Y-46230000D01*
X137345300Y-46024066D01*
X137285232Y-45826046D01*
X137187685Y-45643550D01*
X137135702Y-45580209D01*
X137056410Y-45483589D01*
X136896452Y-45352317D01*
X136896453Y-45352317D01*
X136896450Y-45352315D01*
X136713954Y-45254768D01*
X136515934Y-45194700D01*
X136515932Y-45194699D01*
X136515934Y-45194699D01*
X136310000Y-45174417D01*
X136104067Y-45194699D01*
X135906043Y-45254769D01*
X135795898Y-45313643D01*
X135723550Y-45352315D01*
X135723548Y-45352316D01*
X135723547Y-45352317D01*
X135563589Y-45483589D01*
X135432317Y-45643547D01*
X135334769Y-45826043D01*
X135274699Y-46024067D01*
X135254417Y-46230000D01*
X134825583Y-46230000D01*
X134805300Y-46024066D01*
X134745232Y-45826046D01*
X134647685Y-45643550D01*
X134595702Y-45580209D01*
X134516410Y-45483589D01*
X134356452Y-45352317D01*
X134356453Y-45352317D01*
X134356450Y-45352315D01*
X134173954Y-45254768D01*
X133975934Y-45194700D01*
X133975932Y-45194699D01*
X133975934Y-45194699D01*
X133770000Y-45174417D01*
X133564067Y-45194699D01*
X133366043Y-45254769D01*
X133255898Y-45313643D01*
X133183550Y-45352315D01*
X133183548Y-45352316D01*
X133183547Y-45352317D01*
X133023589Y-45483589D01*
X132892317Y-45643547D01*
X132794769Y-45826043D01*
X132734699Y-46024067D01*
X132714417Y-46230000D01*
X132285583Y-46230000D01*
X132265300Y-46024066D01*
X132205232Y-45826046D01*
X132107685Y-45643550D01*
X132055702Y-45580209D01*
X131976410Y-45483589D01*
X131816452Y-45352317D01*
X131816453Y-45352317D01*
X131816450Y-45352315D01*
X131633954Y-45254768D01*
X131435934Y-45194700D01*
X131435932Y-45194699D01*
X131435934Y-45194699D01*
X131230000Y-45174417D01*
X131024067Y-45194699D01*
X130826043Y-45254769D01*
X130715898Y-45313643D01*
X130643550Y-45352315D01*
X130643548Y-45352316D01*
X130643547Y-45352317D01*
X130483589Y-45483589D01*
X130352317Y-45643547D01*
X130254769Y-45826043D01*
X130194699Y-46024067D01*
X130174417Y-46230000D01*
X129745583Y-46230000D01*
X129725300Y-46024066D01*
X129665232Y-45826046D01*
X129567685Y-45643550D01*
X129515702Y-45580209D01*
X129436410Y-45483589D01*
X129276452Y-45352317D01*
X129276453Y-45352317D01*
X129276450Y-45352315D01*
X129093954Y-45254768D01*
X128895934Y-45194700D01*
X128895932Y-45194699D01*
X128895934Y-45194699D01*
X128690000Y-45174417D01*
X128484067Y-45194699D01*
X128286043Y-45254769D01*
X128175898Y-45313643D01*
X128103550Y-45352315D01*
X128103548Y-45352316D01*
X128103547Y-45352317D01*
X127943589Y-45483589D01*
X127812317Y-45643547D01*
X127714769Y-45826043D01*
X127654699Y-46024067D01*
X127634417Y-46230000D01*
X127205583Y-46230000D01*
X127185300Y-46024066D01*
X127125232Y-45826046D01*
X127027685Y-45643550D01*
X126975702Y-45580209D01*
X126896410Y-45483589D01*
X126736452Y-45352317D01*
X126736453Y-45352317D01*
X126736450Y-45352315D01*
X126553954Y-45254768D01*
X126355934Y-45194700D01*
X126355932Y-45194699D01*
X126355934Y-45194699D01*
X126150000Y-45174417D01*
X125944067Y-45194699D01*
X125746043Y-45254769D01*
X125635898Y-45313643D01*
X125563550Y-45352315D01*
X125563548Y-45352316D01*
X125563547Y-45352317D01*
X125403589Y-45483589D01*
X125272317Y-45643547D01*
X125174769Y-45826043D01*
X125114699Y-46024067D01*
X125094417Y-46230000D01*
X124665583Y-46230000D01*
X124645300Y-46024066D01*
X124585232Y-45826046D01*
X124487685Y-45643550D01*
X124435702Y-45580209D01*
X124356410Y-45483589D01*
X124196452Y-45352317D01*
X124196453Y-45352317D01*
X124196450Y-45352315D01*
X124013954Y-45254768D01*
X123815934Y-45194700D01*
X123815932Y-45194699D01*
X123815934Y-45194699D01*
X123610000Y-45174417D01*
X123404067Y-45194699D01*
X123206043Y-45254769D01*
X123095898Y-45313643D01*
X123023550Y-45352315D01*
X123023548Y-45352316D01*
X123023547Y-45352317D01*
X122863589Y-45483589D01*
X122732317Y-45643547D01*
X122634769Y-45826043D01*
X122574699Y-46024067D01*
X122554417Y-46230000D01*
X122125583Y-46230000D01*
X122105300Y-46024066D01*
X122045232Y-45826046D01*
X121947685Y-45643550D01*
X121895702Y-45580209D01*
X121816410Y-45483589D01*
X121656452Y-45352317D01*
X121656453Y-45352317D01*
X121656450Y-45352315D01*
X121473954Y-45254768D01*
X121275934Y-45194700D01*
X121275932Y-45194699D01*
X121275934Y-45194699D01*
X121070000Y-45174417D01*
X120864067Y-45194699D01*
X120666043Y-45254769D01*
X120555898Y-45313643D01*
X120483550Y-45352315D01*
X120483548Y-45352316D01*
X120483547Y-45352317D01*
X120323589Y-45483589D01*
X120192317Y-45643547D01*
X120094769Y-45826043D01*
X120034699Y-46024067D01*
X120014417Y-46230000D01*
X119585583Y-46230000D01*
X119565300Y-46024066D01*
X119505232Y-45826046D01*
X119407685Y-45643550D01*
X119355702Y-45580209D01*
X119276410Y-45483589D01*
X119116452Y-45352317D01*
X119116453Y-45352317D01*
X119116450Y-45352315D01*
X118933954Y-45254768D01*
X118735934Y-45194700D01*
X118735932Y-45194699D01*
X118735934Y-45194699D01*
X118530000Y-45174417D01*
X118324067Y-45194699D01*
X118126043Y-45254769D01*
X118015898Y-45313643D01*
X117943550Y-45352315D01*
X117943548Y-45352316D01*
X117943547Y-45352317D01*
X117783589Y-45483589D01*
X117652317Y-45643547D01*
X117554769Y-45826043D01*
X117494699Y-46024067D01*
X117474417Y-46230000D01*
X117045583Y-46230000D01*
X117025300Y-46024066D01*
X116965232Y-45826046D01*
X116867685Y-45643550D01*
X116815702Y-45580209D01*
X116736410Y-45483589D01*
X116576452Y-45352317D01*
X116576453Y-45352317D01*
X116576450Y-45352315D01*
X116393954Y-45254768D01*
X116195934Y-45194700D01*
X116195932Y-45194699D01*
X116195934Y-45194699D01*
X115990000Y-45174417D01*
X115784067Y-45194699D01*
X115586043Y-45254769D01*
X115475898Y-45313643D01*
X115403550Y-45352315D01*
X115403548Y-45352316D01*
X115403547Y-45352317D01*
X115243589Y-45483589D01*
X115112317Y-45643547D01*
X115014769Y-45826043D01*
X114954699Y-46024067D01*
X114934417Y-46230000D01*
X114505583Y-46230000D01*
X114485300Y-46024066D01*
X114425232Y-45826046D01*
X114327685Y-45643550D01*
X114275702Y-45580209D01*
X114196410Y-45483589D01*
X114036452Y-45352317D01*
X114036453Y-45352317D01*
X114036450Y-45352315D01*
X113853954Y-45254768D01*
X113655934Y-45194700D01*
X113655932Y-45194699D01*
X113655934Y-45194699D01*
X113450000Y-45174417D01*
X113244067Y-45194699D01*
X113046043Y-45254769D01*
X112935898Y-45313643D01*
X112863550Y-45352315D01*
X112863548Y-45352316D01*
X112863547Y-45352317D01*
X112703589Y-45483589D01*
X112572317Y-45643547D01*
X112474769Y-45826043D01*
X112414699Y-46024067D01*
X112394417Y-46230000D01*
X111965583Y-46230000D01*
X111945300Y-46024066D01*
X111885232Y-45826046D01*
X111787685Y-45643550D01*
X111735702Y-45580209D01*
X111656410Y-45483589D01*
X111496452Y-45352317D01*
X111496453Y-45352317D01*
X111496450Y-45352315D01*
X111313954Y-45254768D01*
X111115934Y-45194700D01*
X111115932Y-45194699D01*
X111115934Y-45194699D01*
X110910000Y-45174417D01*
X110704067Y-45194699D01*
X110506043Y-45254769D01*
X110395898Y-45313643D01*
X110323550Y-45352315D01*
X110323548Y-45352316D01*
X110323547Y-45352317D01*
X110163589Y-45483589D01*
X110032317Y-45643547D01*
X109934769Y-45826043D01*
X109874699Y-46024067D01*
X109854417Y-46230000D01*
X109425583Y-46230000D01*
X109405300Y-46024066D01*
X109345232Y-45826046D01*
X109247685Y-45643550D01*
X109195702Y-45580209D01*
X109116410Y-45483589D01*
X108956452Y-45352317D01*
X108956453Y-45352317D01*
X108956450Y-45352315D01*
X108773954Y-45254768D01*
X108575934Y-45194700D01*
X108575932Y-45194699D01*
X108575934Y-45194699D01*
X108370000Y-45174417D01*
X108164067Y-45194699D01*
X107966043Y-45254769D01*
X107855898Y-45313643D01*
X107783550Y-45352315D01*
X107783548Y-45352316D01*
X107783547Y-45352317D01*
X107623589Y-45483589D01*
X107492317Y-45643547D01*
X107394769Y-45826043D01*
X107334699Y-46024067D01*
X107314417Y-46230000D01*
X100050500Y-46230000D01*
X100050500Y-45003480D01*
X100050695Y-44996527D01*
X100059478Y-44840130D01*
X100068656Y-44676700D01*
X100070210Y-44662907D01*
X100123283Y-44350537D01*
X100126377Y-44336985D01*
X100214089Y-44032530D01*
X100218682Y-44019406D01*
X100265947Y-43905298D01*
X100339929Y-43726686D01*
X100345951Y-43714180D01*
X100499227Y-43436850D01*
X100506605Y-43425107D01*
X100689972Y-43166676D01*
X100698619Y-43155834D01*
X100909750Y-42919579D01*
X100919581Y-42909749D01*
X101155834Y-42698619D01*
X101166676Y-42689972D01*
X101425107Y-42506605D01*
X101436850Y-42499227D01*
X101714180Y-42345951D01*
X101726686Y-42339929D01*
X102019406Y-42218682D01*
X102032526Y-42214090D01*
X102336990Y-42126375D01*
X102350537Y-42123283D01*
X102662907Y-42070210D01*
X102676700Y-42068656D01*
X102996532Y-42050694D01*
X103003488Y-42050500D01*
X166626023Y-42061609D01*
G37*
G04 #@! TD.AperFunction*
M02*
