G04 #@! TF.GenerationSoftware,KiCad,Pcbnew,8.0.4*
G04 #@! TF.CreationDate,2024-09-09T22:35:46-05:00*
G04 #@! TF.ProjectId,TPM-IO-BOARD,54504d2d-494f-42d4-924f-4152442e6b69,rev?*
G04 #@! TF.SameCoordinates,Original*
G04 #@! TF.FileFunction,Copper,L2,Inr*
G04 #@! TF.FilePolarity,Positive*
%FSLAX46Y46*%
G04 Gerber Fmt 4.6, Leading zero omitted, Abs format (unit mm)*
G04 Created by KiCad (PCBNEW 8.0.4) date 2024-09-09 22:35:46*
%MOMM*%
%LPD*%
G01*
G04 APERTURE LIST*
G04 #@! TA.AperFunction,ComponentPad*
%ADD10C,1.524000*%
G04 #@! TD*
G04 #@! TA.AperFunction,ComponentPad*
%ADD11C,1.371600*%
G04 #@! TD*
G04 #@! TA.AperFunction,ComponentPad*
%ADD12C,2.100000*%
G04 #@! TD*
G04 #@! TA.AperFunction,ComponentPad*
%ADD13C,1.701800*%
G04 #@! TD*
G04 #@! TA.AperFunction,ComponentPad*
%ADD14R,1.700000X1.700000*%
G04 #@! TD*
G04 #@! TA.AperFunction,ComponentPad*
%ADD15O,1.700000X1.700000*%
G04 #@! TD*
G04 #@! TA.AperFunction,ViaPad*
%ADD16C,0.900000*%
G04 #@! TD*
G04 APERTURE END LIST*
D10*
X114540000Y-70000000D03*
X112000000Y-70000000D03*
D11*
X168166750Y-60000000D03*
X173166750Y-60000000D03*
D12*
X188250000Y-95600000D03*
X191750000Y-95600000D03*
X178750000Y-95600000D03*
X182250000Y-95600000D03*
X190100000Y-62250000D03*
X190100000Y-58750000D03*
D13*
X104823590Y-56567399D03*
X104823590Y-60067400D03*
X104823590Y-63567400D03*
D12*
X131250000Y-95600000D03*
X134750000Y-95600000D03*
X121750000Y-95600000D03*
X125250000Y-95600000D03*
D11*
X168166750Y-48500000D03*
X173166750Y-48500000D03*
D12*
X190100000Y-90750000D03*
X190100000Y-87250000D03*
D11*
X168166750Y-71750000D03*
X173166750Y-71750000D03*
D13*
X104823590Y-69567399D03*
X104823590Y-73067400D03*
X104823590Y-76567400D03*
D12*
X190100000Y-81250000D03*
X190100000Y-77750000D03*
X150250000Y-95600000D03*
X153750000Y-95600000D03*
X169250000Y-95600000D03*
X172750000Y-95600000D03*
X140750000Y-95600000D03*
X144250000Y-95600000D03*
X190100000Y-71750000D03*
X190100000Y-68250000D03*
D13*
X190176410Y-52932601D03*
X190176410Y-49432600D03*
X190176410Y-45932600D03*
D12*
X104900000Y-82750000D03*
X104900000Y-86250000D03*
X112250000Y-95600000D03*
X115750000Y-95600000D03*
D14*
X108370000Y-48770000D03*
D15*
X108370000Y-46230000D03*
X110910000Y-48770000D03*
X110910000Y-46230000D03*
X113450000Y-48770000D03*
X113450000Y-46230000D03*
X115990000Y-48770000D03*
X115990000Y-46230000D03*
X118530000Y-48770000D03*
X118530000Y-46230000D03*
X121070000Y-48770000D03*
X121070000Y-46230000D03*
X123610000Y-48770000D03*
X123610000Y-46230000D03*
X126150000Y-48770000D03*
X126150000Y-46230000D03*
X128690000Y-48770000D03*
X128690000Y-46230000D03*
X131230000Y-48770000D03*
X131230000Y-46230000D03*
X133770000Y-48770000D03*
X133770000Y-46230000D03*
X136310000Y-48770000D03*
X136310000Y-46230000D03*
X138850000Y-48770000D03*
X138850000Y-46230000D03*
X141390000Y-48770000D03*
X141390000Y-46230000D03*
X143930000Y-48770000D03*
X143930000Y-46230000D03*
X146470000Y-48770000D03*
X146470000Y-46230000D03*
X149010000Y-48770000D03*
X149010000Y-46230000D03*
X151550000Y-48770000D03*
X151550000Y-46230000D03*
X154090000Y-48770000D03*
X154090000Y-46230000D03*
X156630000Y-48770000D03*
X156630000Y-46230000D03*
D16*
X111500000Y-85500000D03*
X179927967Y-81971511D03*
X166528489Y-85500000D03*
X111000000Y-77000000D03*
X140028489Y-85427967D03*
X179927967Y-62971511D03*
X135250000Y-59750000D03*
X179927967Y-72471511D03*
X121028489Y-85427967D03*
X128500000Y-55000000D03*
X110500000Y-84500000D03*
X174028489Y-85340179D03*
X184000000Y-50175000D03*
X181527436Y-85340179D03*
X159000000Y-85500000D03*
X149528489Y-85427967D03*
X126500000Y-61000000D03*
X130528489Y-85427967D03*
X135250000Y-62250000D03*
X126500000Y-62000000D03*
X122035146Y-84984518D03*
X119000000Y-85500000D03*
X131535146Y-84984518D03*
X141035146Y-84984518D03*
X142000000Y-83500000D03*
X160000000Y-85000000D03*
X167000000Y-84500000D03*
X172000000Y-84000000D03*
X177500000Y-84500000D03*
X179500000Y-80500000D03*
X172000000Y-78250000D03*
X178500000Y-62000000D03*
X185750000Y-53750000D03*
X140750000Y-59750000D03*
X126500000Y-64500000D03*
X179000000Y-56500000D03*
X113000000Y-79500000D03*
X126500000Y-67500000D03*
X158500000Y-95000000D03*
X146000000Y-94000000D03*
X142597157Y-89179577D03*
X169097157Y-89251610D03*
X114068668Y-89251610D03*
X184096104Y-89091789D03*
X176597157Y-89091789D03*
X183679577Y-69902843D03*
X123597157Y-89179577D03*
X174251915Y-90174577D03*
X152097157Y-89179577D03*
X183679577Y-79402843D03*
X182000000Y-90000000D03*
X133097157Y-89179577D03*
X161568668Y-89251610D03*
X167000000Y-90500000D03*
X183679577Y-60402843D03*
X141250000Y-64500000D03*
X117580222Y-65436627D03*
X114500000Y-94000000D03*
X145000000Y-93500000D03*
X171500000Y-94000000D03*
X184527436Y-93840179D03*
X188427967Y-69471511D03*
X124028489Y-93927967D03*
X135500000Y-65250000D03*
X188427967Y-59971511D03*
X152528489Y-93927967D03*
X188427967Y-78971511D03*
X177028489Y-93840179D03*
X133528489Y-93927967D03*
X143028489Y-93927967D03*
X162000000Y-94000000D03*
X183500000Y-45500000D03*
G04 #@! TA.AperFunction,Conductor*
G36*
X191966305Y-42066033D02*
G01*
X191966916Y-42066130D01*
X191985969Y-42066081D01*
X191985971Y-42066082D01*
X191998921Y-42066048D01*
X192005831Y-42066224D01*
X192324868Y-42083311D01*
X192338656Y-42084830D01*
X192650305Y-42136951D01*
X192663858Y-42140007D01*
X192967697Y-42226689D01*
X192980834Y-42231247D01*
X193273064Y-42351405D01*
X193285608Y-42357406D01*
X193562538Y-42509523D01*
X193574331Y-42516890D01*
X193832497Y-42699062D01*
X193843382Y-42707696D01*
X194079535Y-42917635D01*
X194089381Y-42927430D01*
X194299222Y-43161017D01*
X194300538Y-43162482D01*
X194309236Y-43173331D01*
X194492748Y-43430547D01*
X194500176Y-43442302D01*
X194653727Y-43718433D01*
X194659793Y-43730945D01*
X194781466Y-44022541D01*
X194786093Y-44035654D01*
X194874355Y-44339045D01*
X194877484Y-44352594D01*
X194931220Y-44663948D01*
X194932813Y-44677762D01*
X194949286Y-44958037D01*
X194949500Y-44965312D01*
X194949500Y-96996519D01*
X194949305Y-97003472D01*
X194931344Y-97323287D01*
X194929787Y-97337105D01*
X194876716Y-97649457D01*
X194873622Y-97663014D01*
X194785910Y-97967469D01*
X194781317Y-97980593D01*
X194660073Y-98273304D01*
X194654040Y-98285833D01*
X194500778Y-98563139D01*
X194493380Y-98574913D01*
X194310043Y-98833302D01*
X194301372Y-98844174D01*
X194090250Y-99080418D01*
X194080418Y-99090250D01*
X193844174Y-99301372D01*
X193833302Y-99310042D01*
X193586804Y-99484942D01*
X193520739Y-99507682D01*
X193515702Y-99507811D01*
X109595313Y-99949498D01*
X109594660Y-99949500D01*
X103003481Y-99949500D01*
X102996528Y-99949305D01*
X102676712Y-99931344D01*
X102662894Y-99929787D01*
X102350542Y-99876716D01*
X102336985Y-99873622D01*
X102032530Y-99785910D01*
X102019406Y-99781317D01*
X101726695Y-99660073D01*
X101714166Y-99654040D01*
X101436860Y-99500778D01*
X101425094Y-99493385D01*
X101166687Y-99310035D01*
X101155825Y-99301372D01*
X100919581Y-99090250D01*
X100909749Y-99080418D01*
X100698627Y-98844174D01*
X100689966Y-98833314D01*
X100506611Y-98574900D01*
X100499221Y-98563139D01*
X100345959Y-98285833D01*
X100339926Y-98273304D01*
X100218682Y-97980593D01*
X100214089Y-97967469D01*
X100126377Y-97663014D01*
X100123283Y-97649457D01*
X100094127Y-97477858D01*
X100070210Y-97337094D01*
X100068656Y-97323297D01*
X100050695Y-97003472D01*
X100050500Y-96996519D01*
X100050500Y-95599997D01*
X110994723Y-95599997D01*
X110994723Y-95600002D01*
X111013793Y-95817975D01*
X111013793Y-95817979D01*
X111070422Y-96029322D01*
X111070424Y-96029326D01*
X111070425Y-96029330D01*
X111116661Y-96128484D01*
X111162897Y-96227638D01*
X111162898Y-96227639D01*
X111288402Y-96406877D01*
X111443123Y-96561598D01*
X111622361Y-96687102D01*
X111820670Y-96779575D01*
X112032023Y-96836207D01*
X112214926Y-96852208D01*
X112249998Y-96855277D01*
X112250000Y-96855277D01*
X112250002Y-96855277D01*
X112278254Y-96852805D01*
X112467977Y-96836207D01*
X112679330Y-96779575D01*
X112877639Y-96687102D01*
X113056877Y-96561598D01*
X113211598Y-96406877D01*
X113337102Y-96227639D01*
X113429575Y-96029330D01*
X113486207Y-95817977D01*
X113505277Y-95600000D01*
X113505277Y-95599997D01*
X114494723Y-95599997D01*
X114494723Y-95600002D01*
X114513793Y-95817975D01*
X114513793Y-95817979D01*
X114570422Y-96029322D01*
X114570424Y-96029326D01*
X114570425Y-96029330D01*
X114616661Y-96128484D01*
X114662897Y-96227638D01*
X114662898Y-96227639D01*
X114788402Y-96406877D01*
X114943123Y-96561598D01*
X115122361Y-96687102D01*
X115320670Y-96779575D01*
X115532023Y-96836207D01*
X115714926Y-96852208D01*
X115749998Y-96855277D01*
X115750000Y-96855277D01*
X115750002Y-96855277D01*
X115778254Y-96852805D01*
X115967977Y-96836207D01*
X116179330Y-96779575D01*
X116377639Y-96687102D01*
X116556877Y-96561598D01*
X116711598Y-96406877D01*
X116837102Y-96227639D01*
X116929575Y-96029330D01*
X116986207Y-95817977D01*
X117005277Y-95600000D01*
X117005277Y-95599997D01*
X120494723Y-95599997D01*
X120494723Y-95600002D01*
X120513793Y-95817975D01*
X120513793Y-95817979D01*
X120570422Y-96029322D01*
X120570424Y-96029326D01*
X120570425Y-96029330D01*
X120616661Y-96128484D01*
X120662897Y-96227638D01*
X120662898Y-96227639D01*
X120788402Y-96406877D01*
X120943123Y-96561598D01*
X121122361Y-96687102D01*
X121320670Y-96779575D01*
X121532023Y-96836207D01*
X121714926Y-96852208D01*
X121749998Y-96855277D01*
X121750000Y-96855277D01*
X121750002Y-96855277D01*
X121778254Y-96852805D01*
X121967977Y-96836207D01*
X122179330Y-96779575D01*
X122377639Y-96687102D01*
X122556877Y-96561598D01*
X122711598Y-96406877D01*
X122837102Y-96227639D01*
X122929575Y-96029330D01*
X122986207Y-95817977D01*
X123005277Y-95600000D01*
X123005277Y-95599997D01*
X123994723Y-95599997D01*
X123994723Y-95600002D01*
X124013793Y-95817975D01*
X124013793Y-95817979D01*
X124070422Y-96029322D01*
X124070424Y-96029326D01*
X124070425Y-96029330D01*
X124116661Y-96128484D01*
X124162897Y-96227638D01*
X124162898Y-96227639D01*
X124288402Y-96406877D01*
X124443123Y-96561598D01*
X124622361Y-96687102D01*
X124820670Y-96779575D01*
X125032023Y-96836207D01*
X125214926Y-96852208D01*
X125249998Y-96855277D01*
X125250000Y-96855277D01*
X125250002Y-96855277D01*
X125278254Y-96852805D01*
X125467977Y-96836207D01*
X125679330Y-96779575D01*
X125877639Y-96687102D01*
X126056877Y-96561598D01*
X126211598Y-96406877D01*
X126337102Y-96227639D01*
X126429575Y-96029330D01*
X126486207Y-95817977D01*
X126505277Y-95600000D01*
X126505277Y-95599997D01*
X129994723Y-95599997D01*
X129994723Y-95600002D01*
X130013793Y-95817975D01*
X130013793Y-95817979D01*
X130070422Y-96029322D01*
X130070424Y-96029326D01*
X130070425Y-96029330D01*
X130116661Y-96128484D01*
X130162897Y-96227638D01*
X130162898Y-96227639D01*
X130288402Y-96406877D01*
X130443123Y-96561598D01*
X130622361Y-96687102D01*
X130820670Y-96779575D01*
X131032023Y-96836207D01*
X131214926Y-96852208D01*
X131249998Y-96855277D01*
X131250000Y-96855277D01*
X131250002Y-96855277D01*
X131278254Y-96852805D01*
X131467977Y-96836207D01*
X131679330Y-96779575D01*
X131877639Y-96687102D01*
X132056877Y-96561598D01*
X132211598Y-96406877D01*
X132337102Y-96227639D01*
X132429575Y-96029330D01*
X132486207Y-95817977D01*
X132505277Y-95600000D01*
X132505277Y-95599997D01*
X133494723Y-95599997D01*
X133494723Y-95600002D01*
X133513793Y-95817975D01*
X133513793Y-95817979D01*
X133570422Y-96029322D01*
X133570424Y-96029326D01*
X133570425Y-96029330D01*
X133616661Y-96128484D01*
X133662897Y-96227638D01*
X133662898Y-96227639D01*
X133788402Y-96406877D01*
X133943123Y-96561598D01*
X134122361Y-96687102D01*
X134320670Y-96779575D01*
X134532023Y-96836207D01*
X134714926Y-96852208D01*
X134749998Y-96855277D01*
X134750000Y-96855277D01*
X134750002Y-96855277D01*
X134778254Y-96852805D01*
X134967977Y-96836207D01*
X135179330Y-96779575D01*
X135377639Y-96687102D01*
X135556877Y-96561598D01*
X135711598Y-96406877D01*
X135837102Y-96227639D01*
X135929575Y-96029330D01*
X135986207Y-95817977D01*
X136005277Y-95600000D01*
X136005277Y-95599997D01*
X139494723Y-95599997D01*
X139494723Y-95600002D01*
X139513793Y-95817975D01*
X139513793Y-95817979D01*
X139570422Y-96029322D01*
X139570424Y-96029326D01*
X139570425Y-96029330D01*
X139616661Y-96128484D01*
X139662897Y-96227638D01*
X139662898Y-96227639D01*
X139788402Y-96406877D01*
X139943123Y-96561598D01*
X140122361Y-96687102D01*
X140320670Y-96779575D01*
X140532023Y-96836207D01*
X140714926Y-96852208D01*
X140749998Y-96855277D01*
X140750000Y-96855277D01*
X140750002Y-96855277D01*
X140778254Y-96852805D01*
X140967977Y-96836207D01*
X141179330Y-96779575D01*
X141377639Y-96687102D01*
X141556877Y-96561598D01*
X141711598Y-96406877D01*
X141837102Y-96227639D01*
X141929575Y-96029330D01*
X141986207Y-95817977D01*
X142005277Y-95600000D01*
X142005277Y-95599997D01*
X142994723Y-95599997D01*
X142994723Y-95600002D01*
X143013793Y-95817975D01*
X143013793Y-95817979D01*
X143070422Y-96029322D01*
X143070424Y-96029326D01*
X143070425Y-96029330D01*
X143116661Y-96128484D01*
X143162897Y-96227638D01*
X143162898Y-96227639D01*
X143288402Y-96406877D01*
X143443123Y-96561598D01*
X143622361Y-96687102D01*
X143820670Y-96779575D01*
X144032023Y-96836207D01*
X144214926Y-96852208D01*
X144249998Y-96855277D01*
X144250000Y-96855277D01*
X144250002Y-96855277D01*
X144278254Y-96852805D01*
X144467977Y-96836207D01*
X144679330Y-96779575D01*
X144877639Y-96687102D01*
X145056877Y-96561598D01*
X145211598Y-96406877D01*
X145337102Y-96227639D01*
X145429575Y-96029330D01*
X145486207Y-95817977D01*
X145505277Y-95600000D01*
X145505277Y-95599997D01*
X148994723Y-95599997D01*
X148994723Y-95600002D01*
X149013793Y-95817975D01*
X149013793Y-95817979D01*
X149070422Y-96029322D01*
X149070424Y-96029326D01*
X149070425Y-96029330D01*
X149116661Y-96128484D01*
X149162897Y-96227638D01*
X149162898Y-96227639D01*
X149288402Y-96406877D01*
X149443123Y-96561598D01*
X149622361Y-96687102D01*
X149820670Y-96779575D01*
X150032023Y-96836207D01*
X150214926Y-96852208D01*
X150249998Y-96855277D01*
X150250000Y-96855277D01*
X150250002Y-96855277D01*
X150278254Y-96852805D01*
X150467977Y-96836207D01*
X150679330Y-96779575D01*
X150877639Y-96687102D01*
X151056877Y-96561598D01*
X151211598Y-96406877D01*
X151337102Y-96227639D01*
X151429575Y-96029330D01*
X151486207Y-95817977D01*
X151505277Y-95600000D01*
X151505277Y-95599997D01*
X152494723Y-95599997D01*
X152494723Y-95600002D01*
X152513793Y-95817975D01*
X152513793Y-95817979D01*
X152570422Y-96029322D01*
X152570424Y-96029326D01*
X152570425Y-96029330D01*
X152616661Y-96128484D01*
X152662897Y-96227638D01*
X152662898Y-96227639D01*
X152788402Y-96406877D01*
X152943123Y-96561598D01*
X153122361Y-96687102D01*
X153320670Y-96779575D01*
X153532023Y-96836207D01*
X153714926Y-96852208D01*
X153749998Y-96855277D01*
X153750000Y-96855277D01*
X153750002Y-96855277D01*
X153778254Y-96852805D01*
X153967977Y-96836207D01*
X154179330Y-96779575D01*
X154377639Y-96687102D01*
X154556877Y-96561598D01*
X154711598Y-96406877D01*
X154837102Y-96227639D01*
X154929575Y-96029330D01*
X154986207Y-95817977D01*
X155005277Y-95600000D01*
X154986207Y-95382023D01*
X154929575Y-95170670D01*
X154849989Y-94999999D01*
X157844722Y-94999999D01*
X157844722Y-95000000D01*
X157863762Y-95156818D01*
X157919780Y-95304523D01*
X158009517Y-95434530D01*
X158127760Y-95539283D01*
X158127762Y-95539284D01*
X158267634Y-95612696D01*
X158421014Y-95650500D01*
X158421015Y-95650500D01*
X158578985Y-95650500D01*
X158732365Y-95612696D01*
X158756555Y-95600000D01*
X158756561Y-95599997D01*
X167994723Y-95599997D01*
X167994723Y-95600002D01*
X168013793Y-95817975D01*
X168013793Y-95817979D01*
X168070422Y-96029322D01*
X168070424Y-96029326D01*
X168070425Y-96029330D01*
X168116661Y-96128484D01*
X168162897Y-96227638D01*
X168162898Y-96227639D01*
X168288402Y-96406877D01*
X168443123Y-96561598D01*
X168622361Y-96687102D01*
X168820670Y-96779575D01*
X169032023Y-96836207D01*
X169214926Y-96852208D01*
X169249998Y-96855277D01*
X169250000Y-96855277D01*
X169250002Y-96855277D01*
X169278254Y-96852805D01*
X169467977Y-96836207D01*
X169679330Y-96779575D01*
X169877639Y-96687102D01*
X170056877Y-96561598D01*
X170211598Y-96406877D01*
X170337102Y-96227639D01*
X170429575Y-96029330D01*
X170486207Y-95817977D01*
X170505277Y-95600000D01*
X170505277Y-95599997D01*
X171494723Y-95599997D01*
X171494723Y-95600002D01*
X171513793Y-95817975D01*
X171513793Y-95817979D01*
X171570422Y-96029322D01*
X171570424Y-96029326D01*
X171570425Y-96029330D01*
X171616661Y-96128484D01*
X171662897Y-96227638D01*
X171662898Y-96227639D01*
X171788402Y-96406877D01*
X171943123Y-96561598D01*
X172122361Y-96687102D01*
X172320670Y-96779575D01*
X172532023Y-96836207D01*
X172714926Y-96852208D01*
X172749998Y-96855277D01*
X172750000Y-96855277D01*
X172750002Y-96855277D01*
X172778254Y-96852805D01*
X172967977Y-96836207D01*
X173179330Y-96779575D01*
X173377639Y-96687102D01*
X173556877Y-96561598D01*
X173711598Y-96406877D01*
X173837102Y-96227639D01*
X173929575Y-96029330D01*
X173986207Y-95817977D01*
X174005277Y-95600000D01*
X174005277Y-95599997D01*
X177494723Y-95599997D01*
X177494723Y-95600002D01*
X177513793Y-95817975D01*
X177513793Y-95817979D01*
X177570422Y-96029322D01*
X177570424Y-96029326D01*
X177570425Y-96029330D01*
X177616661Y-96128484D01*
X177662897Y-96227638D01*
X177662898Y-96227639D01*
X177788402Y-96406877D01*
X177943123Y-96561598D01*
X178122361Y-96687102D01*
X178320670Y-96779575D01*
X178532023Y-96836207D01*
X178714926Y-96852208D01*
X178749998Y-96855277D01*
X178750000Y-96855277D01*
X178750002Y-96855277D01*
X178778254Y-96852805D01*
X178967977Y-96836207D01*
X179179330Y-96779575D01*
X179377639Y-96687102D01*
X179556877Y-96561598D01*
X179711598Y-96406877D01*
X179837102Y-96227639D01*
X179929575Y-96029330D01*
X179986207Y-95817977D01*
X180005277Y-95600000D01*
X180005277Y-95599997D01*
X180994723Y-95599997D01*
X180994723Y-95600002D01*
X181013793Y-95817975D01*
X181013793Y-95817979D01*
X181070422Y-96029322D01*
X181070424Y-96029326D01*
X181070425Y-96029330D01*
X181116661Y-96128484D01*
X181162897Y-96227638D01*
X181162898Y-96227639D01*
X181288402Y-96406877D01*
X181443123Y-96561598D01*
X181622361Y-96687102D01*
X181820670Y-96779575D01*
X182032023Y-96836207D01*
X182214926Y-96852208D01*
X182249998Y-96855277D01*
X182250000Y-96855277D01*
X182250002Y-96855277D01*
X182278254Y-96852805D01*
X182467977Y-96836207D01*
X182679330Y-96779575D01*
X182877639Y-96687102D01*
X183056877Y-96561598D01*
X183211598Y-96406877D01*
X183337102Y-96227639D01*
X183429575Y-96029330D01*
X183486207Y-95817977D01*
X183505277Y-95600000D01*
X183505277Y-95599997D01*
X186994723Y-95599997D01*
X186994723Y-95600002D01*
X187013793Y-95817975D01*
X187013793Y-95817979D01*
X187070422Y-96029322D01*
X187070424Y-96029326D01*
X187070425Y-96029330D01*
X187116661Y-96128484D01*
X187162897Y-96227638D01*
X187162898Y-96227639D01*
X187288402Y-96406877D01*
X187443123Y-96561598D01*
X187622361Y-96687102D01*
X187820670Y-96779575D01*
X188032023Y-96836207D01*
X188214926Y-96852208D01*
X188249998Y-96855277D01*
X188250000Y-96855277D01*
X188250002Y-96855277D01*
X188278254Y-96852805D01*
X188467977Y-96836207D01*
X188679330Y-96779575D01*
X188877639Y-96687102D01*
X189056877Y-96561598D01*
X189211598Y-96406877D01*
X189337102Y-96227639D01*
X189429575Y-96029330D01*
X189486207Y-95817977D01*
X189505277Y-95600000D01*
X189505277Y-95599997D01*
X190494723Y-95599997D01*
X190494723Y-95600002D01*
X190513793Y-95817975D01*
X190513793Y-95817979D01*
X190570422Y-96029322D01*
X190570424Y-96029326D01*
X190570425Y-96029330D01*
X190616661Y-96128484D01*
X190662897Y-96227638D01*
X190662898Y-96227639D01*
X190788402Y-96406877D01*
X190943123Y-96561598D01*
X191122361Y-96687102D01*
X191320670Y-96779575D01*
X191532023Y-96836207D01*
X191714926Y-96852208D01*
X191749998Y-96855277D01*
X191750000Y-96855277D01*
X191750002Y-96855277D01*
X191778254Y-96852805D01*
X191967977Y-96836207D01*
X192179330Y-96779575D01*
X192377639Y-96687102D01*
X192556877Y-96561598D01*
X192711598Y-96406877D01*
X192837102Y-96227639D01*
X192929575Y-96029330D01*
X192986207Y-95817977D01*
X193005277Y-95600000D01*
X192986207Y-95382023D01*
X192929575Y-95170670D01*
X192837102Y-94972362D01*
X192837100Y-94972359D01*
X192837099Y-94972357D01*
X192711599Y-94793124D01*
X192711596Y-94793121D01*
X192556877Y-94638402D01*
X192377639Y-94512898D01*
X192377640Y-94512898D01*
X192377638Y-94512897D01*
X192265732Y-94460715D01*
X192179330Y-94420425D01*
X192179326Y-94420424D01*
X192179322Y-94420422D01*
X191967977Y-94363793D01*
X191750002Y-94344723D01*
X191749998Y-94344723D01*
X191604682Y-94357436D01*
X191532023Y-94363793D01*
X191532020Y-94363793D01*
X191320677Y-94420422D01*
X191320668Y-94420426D01*
X191122361Y-94512898D01*
X191122357Y-94512900D01*
X190943121Y-94638402D01*
X190788402Y-94793121D01*
X190662900Y-94972357D01*
X190662898Y-94972361D01*
X190570426Y-95170668D01*
X190570422Y-95170677D01*
X190513793Y-95382020D01*
X190513793Y-95382024D01*
X190494723Y-95599997D01*
X189505277Y-95599997D01*
X189486207Y-95382023D01*
X189429575Y-95170670D01*
X189337102Y-94972362D01*
X189337100Y-94972359D01*
X189337099Y-94972357D01*
X189211599Y-94793124D01*
X189211596Y-94793121D01*
X189056877Y-94638402D01*
X188877639Y-94512898D01*
X188877640Y-94512898D01*
X188877638Y-94512897D01*
X188765732Y-94460715D01*
X188679330Y-94420425D01*
X188679326Y-94420424D01*
X188679322Y-94420422D01*
X188467977Y-94363793D01*
X188250002Y-94344723D01*
X188249998Y-94344723D01*
X188104682Y-94357436D01*
X188032023Y-94363793D01*
X188032020Y-94363793D01*
X187820677Y-94420422D01*
X187820668Y-94420426D01*
X187622361Y-94512898D01*
X187622357Y-94512900D01*
X187443121Y-94638402D01*
X187288402Y-94793121D01*
X187162900Y-94972357D01*
X187162898Y-94972361D01*
X187070426Y-95170668D01*
X187070422Y-95170677D01*
X187013793Y-95382020D01*
X187013793Y-95382024D01*
X186994723Y-95599997D01*
X183505277Y-95599997D01*
X183486207Y-95382023D01*
X183429575Y-95170670D01*
X183337102Y-94972362D01*
X183337100Y-94972359D01*
X183337099Y-94972357D01*
X183211599Y-94793124D01*
X183211596Y-94793121D01*
X183056877Y-94638402D01*
X182877639Y-94512898D01*
X182877640Y-94512898D01*
X182877638Y-94512897D01*
X182765732Y-94460715D01*
X182679330Y-94420425D01*
X182679326Y-94420424D01*
X182679322Y-94420422D01*
X182467977Y-94363793D01*
X182250002Y-94344723D01*
X182249998Y-94344723D01*
X182104682Y-94357436D01*
X182032023Y-94363793D01*
X182032020Y-94363793D01*
X181820677Y-94420422D01*
X181820668Y-94420426D01*
X181622361Y-94512898D01*
X181622357Y-94512900D01*
X181443121Y-94638402D01*
X181288402Y-94793121D01*
X181162900Y-94972357D01*
X181162898Y-94972361D01*
X181070426Y-95170668D01*
X181070422Y-95170677D01*
X181013793Y-95382020D01*
X181013793Y-95382024D01*
X180994723Y-95599997D01*
X180005277Y-95599997D01*
X179986207Y-95382023D01*
X179929575Y-95170670D01*
X179837102Y-94972362D01*
X179837100Y-94972359D01*
X179837099Y-94972357D01*
X179711599Y-94793124D01*
X179711596Y-94793121D01*
X179556877Y-94638402D01*
X179377639Y-94512898D01*
X179377640Y-94512898D01*
X179377638Y-94512897D01*
X179265732Y-94460715D01*
X179179330Y-94420425D01*
X179179326Y-94420424D01*
X179179322Y-94420422D01*
X178967977Y-94363793D01*
X178750002Y-94344723D01*
X178749998Y-94344723D01*
X178604682Y-94357436D01*
X178532023Y-94363793D01*
X178532020Y-94363793D01*
X178320677Y-94420422D01*
X178320668Y-94420426D01*
X178122361Y-94512898D01*
X178122357Y-94512900D01*
X177943121Y-94638402D01*
X177788402Y-94793121D01*
X177662900Y-94972357D01*
X177662898Y-94972361D01*
X177570426Y-95170668D01*
X177570422Y-95170677D01*
X177513793Y-95382020D01*
X177513793Y-95382024D01*
X177494723Y-95599997D01*
X174005277Y-95599997D01*
X173986207Y-95382023D01*
X173929575Y-95170670D01*
X173837102Y-94972362D01*
X173837100Y-94972359D01*
X173837099Y-94972357D01*
X173711599Y-94793124D01*
X173711596Y-94793121D01*
X173556877Y-94638402D01*
X173377639Y-94512898D01*
X173377640Y-94512898D01*
X173377638Y-94512897D01*
X173265732Y-94460715D01*
X173179330Y-94420425D01*
X173179326Y-94420424D01*
X173179322Y-94420422D01*
X172967977Y-94363793D01*
X172750002Y-94344723D01*
X172749998Y-94344723D01*
X172604682Y-94357436D01*
X172532023Y-94363793D01*
X172532020Y-94363793D01*
X172320677Y-94420422D01*
X172320668Y-94420426D01*
X172122361Y-94512898D01*
X172122357Y-94512900D01*
X171943121Y-94638402D01*
X171788402Y-94793121D01*
X171662900Y-94972357D01*
X171662898Y-94972361D01*
X171570426Y-95170668D01*
X171570422Y-95170677D01*
X171513793Y-95382020D01*
X171513793Y-95382024D01*
X171494723Y-95599997D01*
X170505277Y-95599997D01*
X170486207Y-95382023D01*
X170429575Y-95170670D01*
X170337102Y-94972362D01*
X170337100Y-94972359D01*
X170337099Y-94972357D01*
X170211599Y-94793124D01*
X170211596Y-94793121D01*
X170056877Y-94638402D01*
X169877639Y-94512898D01*
X169877640Y-94512898D01*
X169877638Y-94512897D01*
X169765732Y-94460715D01*
X169679330Y-94420425D01*
X169679326Y-94420424D01*
X169679322Y-94420422D01*
X169467977Y-94363793D01*
X169250002Y-94344723D01*
X169249998Y-94344723D01*
X169104682Y-94357436D01*
X169032023Y-94363793D01*
X169032020Y-94363793D01*
X168820677Y-94420422D01*
X168820668Y-94420426D01*
X168622361Y-94512898D01*
X168622357Y-94512900D01*
X168443121Y-94638402D01*
X168288402Y-94793121D01*
X168162900Y-94972357D01*
X168162898Y-94972361D01*
X168070426Y-95170668D01*
X168070422Y-95170677D01*
X168013793Y-95382020D01*
X168013793Y-95382024D01*
X167994723Y-95599997D01*
X158756561Y-95599997D01*
X158872240Y-95539283D01*
X158990483Y-95434530D01*
X159080220Y-95304523D01*
X159136237Y-95156818D01*
X159155278Y-95000000D01*
X159136237Y-94843182D01*
X159080220Y-94695477D01*
X158990483Y-94565470D01*
X158872240Y-94460717D01*
X158872238Y-94460716D01*
X158872237Y-94460715D01*
X158732365Y-94387303D01*
X158578986Y-94349500D01*
X158578985Y-94349500D01*
X158421015Y-94349500D01*
X158421014Y-94349500D01*
X158267634Y-94387303D01*
X158127762Y-94460715D01*
X158009516Y-94565471D01*
X157919781Y-94695475D01*
X157919780Y-94695476D01*
X157863762Y-94843181D01*
X157844722Y-94999999D01*
X154849989Y-94999999D01*
X154837102Y-94972362D01*
X154837100Y-94972359D01*
X154837099Y-94972357D01*
X154711599Y-94793124D01*
X154711596Y-94793121D01*
X154556877Y-94638402D01*
X154377639Y-94512898D01*
X154377640Y-94512898D01*
X154377638Y-94512897D01*
X154265732Y-94460715D01*
X154179330Y-94420425D01*
X154179326Y-94420424D01*
X154179322Y-94420422D01*
X153967977Y-94363793D01*
X153750002Y-94344723D01*
X153749998Y-94344723D01*
X153604682Y-94357436D01*
X153532023Y-94363793D01*
X153532020Y-94363793D01*
X153320677Y-94420422D01*
X153320668Y-94420426D01*
X153122361Y-94512898D01*
X153122357Y-94512900D01*
X152943121Y-94638402D01*
X152788402Y-94793121D01*
X152662900Y-94972357D01*
X152662898Y-94972361D01*
X152570426Y-95170668D01*
X152570422Y-95170677D01*
X152513793Y-95382020D01*
X152513793Y-95382024D01*
X152494723Y-95599997D01*
X151505277Y-95599997D01*
X151486207Y-95382023D01*
X151429575Y-95170670D01*
X151337102Y-94972362D01*
X151337100Y-94972359D01*
X151337099Y-94972357D01*
X151211599Y-94793124D01*
X151211596Y-94793121D01*
X151056877Y-94638402D01*
X150877639Y-94512898D01*
X150877640Y-94512898D01*
X150877638Y-94512897D01*
X150765732Y-94460715D01*
X150679330Y-94420425D01*
X150679326Y-94420424D01*
X150679322Y-94420422D01*
X150467977Y-94363793D01*
X150250002Y-94344723D01*
X150249998Y-94344723D01*
X150104682Y-94357436D01*
X150032023Y-94363793D01*
X150032020Y-94363793D01*
X149820677Y-94420422D01*
X149820668Y-94420426D01*
X149622361Y-94512898D01*
X149622357Y-94512900D01*
X149443121Y-94638402D01*
X149288402Y-94793121D01*
X149162900Y-94972357D01*
X149162898Y-94972361D01*
X149070426Y-95170668D01*
X149070422Y-95170677D01*
X149013793Y-95382020D01*
X149013793Y-95382024D01*
X148994723Y-95599997D01*
X145505277Y-95599997D01*
X145486207Y-95382023D01*
X145429575Y-95170670D01*
X145337102Y-94972362D01*
X145337100Y-94972359D01*
X145337099Y-94972357D01*
X145211599Y-94793124D01*
X145211596Y-94793121D01*
X145056877Y-94638402D01*
X144877639Y-94512898D01*
X144877640Y-94512898D01*
X144877638Y-94512897D01*
X144765732Y-94460715D01*
X144679330Y-94420425D01*
X144679326Y-94420424D01*
X144679322Y-94420422D01*
X144467977Y-94363793D01*
X144250002Y-94344723D01*
X144249998Y-94344723D01*
X144104682Y-94357436D01*
X144032023Y-94363793D01*
X144032020Y-94363793D01*
X143820677Y-94420422D01*
X143820668Y-94420426D01*
X143622361Y-94512898D01*
X143622357Y-94512900D01*
X143443121Y-94638402D01*
X143288402Y-94793121D01*
X143162900Y-94972357D01*
X143162898Y-94972361D01*
X143070426Y-95170668D01*
X143070422Y-95170677D01*
X143013793Y-95382020D01*
X143013793Y-95382024D01*
X142994723Y-95599997D01*
X142005277Y-95599997D01*
X141986207Y-95382023D01*
X141929575Y-95170670D01*
X141837102Y-94972362D01*
X141837100Y-94972359D01*
X141837099Y-94972357D01*
X141711599Y-94793124D01*
X141711596Y-94793121D01*
X141556877Y-94638402D01*
X141377639Y-94512898D01*
X141377640Y-94512898D01*
X141377638Y-94512897D01*
X141265732Y-94460715D01*
X141179330Y-94420425D01*
X141179326Y-94420424D01*
X141179322Y-94420422D01*
X140967977Y-94363793D01*
X140750002Y-94344723D01*
X140749998Y-94344723D01*
X140604682Y-94357436D01*
X140532023Y-94363793D01*
X140532020Y-94363793D01*
X140320677Y-94420422D01*
X140320668Y-94420426D01*
X140122361Y-94512898D01*
X140122357Y-94512900D01*
X139943121Y-94638402D01*
X139788402Y-94793121D01*
X139662900Y-94972357D01*
X139662898Y-94972361D01*
X139570426Y-95170668D01*
X139570422Y-95170677D01*
X139513793Y-95382020D01*
X139513793Y-95382024D01*
X139494723Y-95599997D01*
X136005277Y-95599997D01*
X135986207Y-95382023D01*
X135929575Y-95170670D01*
X135837102Y-94972362D01*
X135837100Y-94972359D01*
X135837099Y-94972357D01*
X135711599Y-94793124D01*
X135711596Y-94793121D01*
X135556877Y-94638402D01*
X135377639Y-94512898D01*
X135377640Y-94512898D01*
X135377638Y-94512897D01*
X135265732Y-94460715D01*
X135179330Y-94420425D01*
X135179326Y-94420424D01*
X135179322Y-94420422D01*
X134967977Y-94363793D01*
X134750002Y-94344723D01*
X134749998Y-94344723D01*
X134604682Y-94357436D01*
X134532023Y-94363793D01*
X134532020Y-94363793D01*
X134320677Y-94420422D01*
X134320668Y-94420426D01*
X134122361Y-94512898D01*
X134122357Y-94512900D01*
X133943121Y-94638402D01*
X133788402Y-94793121D01*
X133662900Y-94972357D01*
X133662898Y-94972361D01*
X133570426Y-95170668D01*
X133570422Y-95170677D01*
X133513793Y-95382020D01*
X133513793Y-95382024D01*
X133494723Y-95599997D01*
X132505277Y-95599997D01*
X132486207Y-95382023D01*
X132429575Y-95170670D01*
X132337102Y-94972362D01*
X132337100Y-94972359D01*
X132337099Y-94972357D01*
X132211599Y-94793124D01*
X132211596Y-94793121D01*
X132056877Y-94638402D01*
X131877639Y-94512898D01*
X131877640Y-94512898D01*
X131877638Y-94512897D01*
X131765732Y-94460715D01*
X131679330Y-94420425D01*
X131679326Y-94420424D01*
X131679322Y-94420422D01*
X131467977Y-94363793D01*
X131250002Y-94344723D01*
X131249998Y-94344723D01*
X131104682Y-94357436D01*
X131032023Y-94363793D01*
X131032020Y-94363793D01*
X130820677Y-94420422D01*
X130820668Y-94420426D01*
X130622361Y-94512898D01*
X130622357Y-94512900D01*
X130443121Y-94638402D01*
X130288402Y-94793121D01*
X130162900Y-94972357D01*
X130162898Y-94972361D01*
X130070426Y-95170668D01*
X130070422Y-95170677D01*
X130013793Y-95382020D01*
X130013793Y-95382024D01*
X129994723Y-95599997D01*
X126505277Y-95599997D01*
X126486207Y-95382023D01*
X126429575Y-95170670D01*
X126337102Y-94972362D01*
X126337100Y-94972359D01*
X126337099Y-94972357D01*
X126211599Y-94793124D01*
X126211596Y-94793121D01*
X126056877Y-94638402D01*
X125877639Y-94512898D01*
X125877640Y-94512898D01*
X125877638Y-94512897D01*
X125765732Y-94460715D01*
X125679330Y-94420425D01*
X125679326Y-94420424D01*
X125679322Y-94420422D01*
X125467977Y-94363793D01*
X125250002Y-94344723D01*
X125249998Y-94344723D01*
X125104682Y-94357436D01*
X125032023Y-94363793D01*
X125032020Y-94363793D01*
X124820677Y-94420422D01*
X124820668Y-94420426D01*
X124622361Y-94512898D01*
X124622357Y-94512900D01*
X124443121Y-94638402D01*
X124288402Y-94793121D01*
X124162900Y-94972357D01*
X124162898Y-94972361D01*
X124070426Y-95170668D01*
X124070422Y-95170677D01*
X124013793Y-95382020D01*
X124013793Y-95382024D01*
X123994723Y-95599997D01*
X123005277Y-95599997D01*
X122986207Y-95382023D01*
X122929575Y-95170670D01*
X122837102Y-94972362D01*
X122837100Y-94972359D01*
X122837099Y-94972357D01*
X122711599Y-94793124D01*
X122711596Y-94793121D01*
X122556877Y-94638402D01*
X122377639Y-94512898D01*
X122377640Y-94512898D01*
X122377638Y-94512897D01*
X122265732Y-94460715D01*
X122179330Y-94420425D01*
X122179326Y-94420424D01*
X122179322Y-94420422D01*
X121967977Y-94363793D01*
X121750002Y-94344723D01*
X121749998Y-94344723D01*
X121604682Y-94357436D01*
X121532023Y-94363793D01*
X121532020Y-94363793D01*
X121320677Y-94420422D01*
X121320668Y-94420426D01*
X121122361Y-94512898D01*
X121122357Y-94512900D01*
X120943121Y-94638402D01*
X120788402Y-94793121D01*
X120662900Y-94972357D01*
X120662898Y-94972361D01*
X120570426Y-95170668D01*
X120570422Y-95170677D01*
X120513793Y-95382020D01*
X120513793Y-95382024D01*
X120494723Y-95599997D01*
X117005277Y-95599997D01*
X116986207Y-95382023D01*
X116929575Y-95170670D01*
X116837102Y-94972362D01*
X116837100Y-94972359D01*
X116837099Y-94972357D01*
X116711599Y-94793124D01*
X116711596Y-94793121D01*
X116556877Y-94638402D01*
X116377639Y-94512898D01*
X116377640Y-94512898D01*
X116377638Y-94512897D01*
X116265732Y-94460715D01*
X116179330Y-94420425D01*
X116179326Y-94420424D01*
X116179322Y-94420422D01*
X115967977Y-94363793D01*
X115750002Y-94344723D01*
X115749998Y-94344723D01*
X115604682Y-94357436D01*
X115532023Y-94363793D01*
X115532020Y-94363793D01*
X115320677Y-94420422D01*
X115320668Y-94420426D01*
X115122361Y-94512898D01*
X115122357Y-94512900D01*
X114943121Y-94638402D01*
X114788402Y-94793121D01*
X114662900Y-94972357D01*
X114662898Y-94972361D01*
X114570426Y-95170668D01*
X114570422Y-95170677D01*
X114513793Y-95382020D01*
X114513793Y-95382024D01*
X114494723Y-95599997D01*
X113505277Y-95599997D01*
X113486207Y-95382023D01*
X113429575Y-95170670D01*
X113337102Y-94972362D01*
X113337100Y-94972359D01*
X113337099Y-94972357D01*
X113211599Y-94793124D01*
X113211596Y-94793121D01*
X113056877Y-94638402D01*
X112877639Y-94512898D01*
X112877640Y-94512898D01*
X112877638Y-94512897D01*
X112765732Y-94460715D01*
X112679330Y-94420425D01*
X112679326Y-94420424D01*
X112679322Y-94420422D01*
X112467977Y-94363793D01*
X112250002Y-94344723D01*
X112249998Y-94344723D01*
X112104682Y-94357436D01*
X112032023Y-94363793D01*
X112032020Y-94363793D01*
X111820677Y-94420422D01*
X111820668Y-94420426D01*
X111622361Y-94512898D01*
X111622357Y-94512900D01*
X111443121Y-94638402D01*
X111288402Y-94793121D01*
X111162900Y-94972357D01*
X111162898Y-94972361D01*
X111070426Y-95170668D01*
X111070422Y-95170677D01*
X111013793Y-95382020D01*
X111013793Y-95382024D01*
X110994723Y-95599997D01*
X100050500Y-95599997D01*
X100050500Y-93999999D01*
X145344722Y-93999999D01*
X145344722Y-94000000D01*
X145363762Y-94156818D01*
X145419780Y-94304523D01*
X145509517Y-94434530D01*
X145627760Y-94539283D01*
X145627762Y-94539284D01*
X145767634Y-94612696D01*
X145921014Y-94650500D01*
X145921015Y-94650500D01*
X146078985Y-94650500D01*
X146232365Y-94612696D01*
X146372240Y-94539283D01*
X146490483Y-94434530D01*
X146580220Y-94304523D01*
X146636237Y-94156818D01*
X146655278Y-94000000D01*
X146636237Y-93843182D01*
X146580220Y-93695477D01*
X146490483Y-93565470D01*
X146372240Y-93460717D01*
X146372238Y-93460716D01*
X146372237Y-93460715D01*
X146232365Y-93387303D01*
X146078986Y-93349500D01*
X146078985Y-93349500D01*
X145921015Y-93349500D01*
X145921014Y-93349500D01*
X145767634Y-93387303D01*
X145627762Y-93460715D01*
X145509516Y-93565471D01*
X145419781Y-93695475D01*
X145419780Y-93695476D01*
X145363762Y-93843181D01*
X145344722Y-93999999D01*
X100050500Y-93999999D01*
X100050500Y-86250000D01*
X103345207Y-86250000D01*
X103364348Y-86493219D01*
X103421303Y-86730457D01*
X103514668Y-86955861D01*
X103638504Y-87157941D01*
X104260689Y-86535755D01*
X104279668Y-86581574D01*
X104356274Y-86696224D01*
X104453776Y-86793726D01*
X104568426Y-86870332D01*
X104614242Y-86889309D01*
X103992057Y-87511494D01*
X104194138Y-87635331D01*
X104419542Y-87728696D01*
X104656780Y-87785651D01*
X104656779Y-87785651D01*
X104900000Y-87804792D01*
X105143219Y-87785651D01*
X105380457Y-87728696D01*
X105605861Y-87635331D01*
X105807941Y-87511495D01*
X105807941Y-87511494D01*
X105185757Y-86889309D01*
X105231574Y-86870332D01*
X105346224Y-86793726D01*
X105443726Y-86696224D01*
X105520332Y-86581574D01*
X105539309Y-86535756D01*
X106161494Y-87157941D01*
X106161495Y-87157941D01*
X106285331Y-86955861D01*
X106378696Y-86730457D01*
X106435651Y-86493219D01*
X106454792Y-86250000D01*
X106435651Y-86006780D01*
X106378696Y-85769542D01*
X106285331Y-85544138D01*
X106161494Y-85342057D01*
X105539309Y-85964242D01*
X105520332Y-85918426D01*
X105443726Y-85803776D01*
X105346224Y-85706274D01*
X105231574Y-85629668D01*
X105185756Y-85610689D01*
X105807941Y-84988504D01*
X105605861Y-84864668D01*
X105380457Y-84771303D01*
X105143219Y-84714348D01*
X105143220Y-84714348D01*
X104900000Y-84695207D01*
X104656780Y-84714348D01*
X104419542Y-84771303D01*
X104194138Y-84864668D01*
X103992057Y-84988504D01*
X104614243Y-85610689D01*
X104568426Y-85629668D01*
X104453776Y-85706274D01*
X104356274Y-85803776D01*
X104279668Y-85918426D01*
X104260690Y-85964243D01*
X103638504Y-85342057D01*
X103514668Y-85544138D01*
X103421303Y-85769542D01*
X103364348Y-86006780D01*
X103345207Y-86250000D01*
X100050500Y-86250000D01*
X100050500Y-82749997D01*
X103644723Y-82749997D01*
X103644723Y-82750002D01*
X103663793Y-82967975D01*
X103663793Y-82967979D01*
X103720422Y-83179322D01*
X103720424Y-83179326D01*
X103720425Y-83179330D01*
X103766661Y-83278484D01*
X103812897Y-83377638D01*
X103837998Y-83413486D01*
X103938402Y-83556877D01*
X104093123Y-83711598D01*
X104272361Y-83837102D01*
X104470670Y-83929575D01*
X104682023Y-83986207D01*
X104864926Y-84002208D01*
X104899998Y-84005277D01*
X104900000Y-84005277D01*
X104900002Y-84005277D01*
X104928254Y-84002805D01*
X105117977Y-83986207D01*
X105329330Y-83929575D01*
X105527639Y-83837102D01*
X105706877Y-83711598D01*
X105861598Y-83556877D01*
X105987102Y-83377639D01*
X106079575Y-83179330D01*
X106136207Y-82967977D01*
X106155277Y-82750000D01*
X106136207Y-82532023D01*
X106079575Y-82320670D01*
X105987102Y-82122362D01*
X105987100Y-82122359D01*
X105987099Y-82122357D01*
X105861599Y-81943124D01*
X105796113Y-81877638D01*
X105706877Y-81788402D01*
X105527639Y-81662898D01*
X105527640Y-81662898D01*
X105527638Y-81662897D01*
X105428484Y-81616661D01*
X105329330Y-81570425D01*
X105329326Y-81570424D01*
X105329322Y-81570422D01*
X105117977Y-81513793D01*
X104900002Y-81494723D01*
X104899998Y-81494723D01*
X104754682Y-81507436D01*
X104682023Y-81513793D01*
X104682020Y-81513793D01*
X104470677Y-81570422D01*
X104470668Y-81570426D01*
X104272361Y-81662898D01*
X104272357Y-81662900D01*
X104093121Y-81788402D01*
X103938402Y-81943121D01*
X103812900Y-82122357D01*
X103812898Y-82122361D01*
X103720426Y-82320668D01*
X103720422Y-82320677D01*
X103663793Y-82532020D01*
X103663793Y-82532024D01*
X103644723Y-82749997D01*
X100050500Y-82749997D01*
X100050500Y-76567394D01*
X103468060Y-76567394D01*
X103468060Y-76567405D01*
X103486547Y-76790509D01*
X103541506Y-77007540D01*
X103631434Y-77212555D01*
X103631436Y-77212559D01*
X103707875Y-77329559D01*
X104261507Y-76775927D01*
X104267367Y-76797795D01*
X104345951Y-76933905D01*
X104457085Y-77045039D01*
X104593195Y-77123623D01*
X104615060Y-77129481D01*
X104059778Y-77684763D01*
X104059779Y-77684764D01*
X104082182Y-77702202D01*
X104082189Y-77702206D01*
X104279073Y-77808754D01*
X104279087Y-77808760D01*
X104490823Y-77881450D01*
X104711652Y-77918300D01*
X104935528Y-77918300D01*
X105156356Y-77881450D01*
X105368092Y-77808760D01*
X105368101Y-77808757D01*
X105564996Y-77702202D01*
X105564999Y-77702200D01*
X105587400Y-77684764D01*
X105587400Y-77684763D01*
X105032119Y-77129481D01*
X105053985Y-77123623D01*
X105190095Y-77045039D01*
X105301229Y-76933905D01*
X105379813Y-76797795D01*
X105385671Y-76775928D01*
X105939304Y-77329560D01*
X106015743Y-77212560D01*
X106105673Y-77007540D01*
X106160632Y-76790509D01*
X106179120Y-76567405D01*
X106179120Y-76567394D01*
X106160632Y-76344290D01*
X106105673Y-76127259D01*
X106015743Y-75922239D01*
X105939303Y-75805239D01*
X105385671Y-76358870D01*
X105379813Y-76337005D01*
X105301229Y-76200895D01*
X105190095Y-76089761D01*
X105053985Y-76011177D01*
X105032118Y-76005318D01*
X105587400Y-75450036D01*
X105587399Y-75450034D01*
X105564997Y-75432598D01*
X105564991Y-75432593D01*
X105368106Y-75326045D01*
X105368092Y-75326039D01*
X105156356Y-75253349D01*
X104935528Y-75216500D01*
X104711652Y-75216500D01*
X104490823Y-75253349D01*
X104279087Y-75326039D01*
X104279073Y-75326045D01*
X104082189Y-75432593D01*
X104082187Y-75432594D01*
X104059779Y-75450035D01*
X104615061Y-76005317D01*
X104593195Y-76011177D01*
X104457085Y-76089761D01*
X104345951Y-76200895D01*
X104267367Y-76337005D01*
X104261507Y-76358871D01*
X103707875Y-75805239D01*
X103631435Y-75922242D01*
X103631434Y-75922244D01*
X103541506Y-76127259D01*
X103486547Y-76344290D01*
X103468060Y-76567394D01*
X100050500Y-76567394D01*
X100050500Y-73067400D01*
X103767103Y-73067400D01*
X103787402Y-73273508D01*
X103847524Y-73471704D01*
X103945149Y-73654347D01*
X103945153Y-73654354D01*
X104076540Y-73814449D01*
X104236635Y-73945836D01*
X104236642Y-73945840D01*
X104419285Y-74043465D01*
X104419287Y-74043465D01*
X104419290Y-74043467D01*
X104617480Y-74103587D01*
X104823590Y-74123887D01*
X105029700Y-74103587D01*
X105227890Y-74043467D01*
X105410543Y-73945837D01*
X105570639Y-73814449D01*
X105702027Y-73654353D01*
X105799657Y-73471700D01*
X105859777Y-73273510D01*
X105880077Y-73067400D01*
X105859777Y-72861290D01*
X105799657Y-72663100D01*
X105799655Y-72663097D01*
X105799655Y-72663095D01*
X105702030Y-72480452D01*
X105702026Y-72480445D01*
X105570639Y-72320350D01*
X105410544Y-72188963D01*
X105410537Y-72188959D01*
X105227894Y-72091334D01*
X105029698Y-72031212D01*
X104823590Y-72010913D01*
X104617481Y-72031212D01*
X104419285Y-72091334D01*
X104236642Y-72188959D01*
X104236635Y-72188963D01*
X104076540Y-72320350D01*
X103945153Y-72480445D01*
X103945149Y-72480452D01*
X103847524Y-72663095D01*
X103787402Y-72861291D01*
X103767103Y-73067400D01*
X100050500Y-73067400D01*
X100050500Y-69567399D01*
X103767103Y-69567399D01*
X103787402Y-69773507D01*
X103847524Y-69971703D01*
X103945149Y-70154346D01*
X103945153Y-70154353D01*
X104076540Y-70314448D01*
X104236635Y-70445835D01*
X104236642Y-70445839D01*
X104419285Y-70543464D01*
X104419287Y-70543464D01*
X104419290Y-70543466D01*
X104617480Y-70603586D01*
X104823590Y-70623886D01*
X105029700Y-70603586D01*
X105227890Y-70543466D01*
X105410543Y-70445836D01*
X105570639Y-70314448D01*
X105702027Y-70154352D01*
X105799657Y-69971699D01*
X105859777Y-69773509D01*
X105880077Y-69567399D01*
X105859777Y-69361289D01*
X105799657Y-69163099D01*
X105799655Y-69163096D01*
X105799655Y-69163094D01*
X105702030Y-68980451D01*
X105702026Y-68980444D01*
X105570639Y-68820349D01*
X105410544Y-68688962D01*
X105410537Y-68688958D01*
X105227894Y-68591333D01*
X105029698Y-68531211D01*
X104823590Y-68510912D01*
X104617481Y-68531211D01*
X104419285Y-68591333D01*
X104236642Y-68688958D01*
X104236635Y-68688962D01*
X104076540Y-68820349D01*
X103945153Y-68980444D01*
X103945149Y-68980451D01*
X103847524Y-69163094D01*
X103787402Y-69361290D01*
X103767103Y-69567399D01*
X100050500Y-69567399D01*
X100050500Y-68124000D01*
X100070185Y-68056961D01*
X100122989Y-68011206D01*
X100174500Y-68000000D01*
X109376000Y-68000000D01*
X109443039Y-68019685D01*
X109488794Y-68072489D01*
X109500000Y-68124000D01*
X109500000Y-93000000D01*
X160000000Y-93000000D01*
X160000000Y-91624000D01*
X160019685Y-91556961D01*
X160072489Y-91511206D01*
X160124000Y-91500000D01*
X161376000Y-91500000D01*
X161443039Y-91519685D01*
X161488794Y-91572489D01*
X161500000Y-91624000D01*
X161500000Y-93000000D01*
X188000000Y-93000000D01*
X188000000Y-90749997D01*
X188844723Y-90749997D01*
X188844723Y-90750002D01*
X188863793Y-90967975D01*
X188863793Y-90967979D01*
X188920422Y-91179322D01*
X188920424Y-91179326D01*
X188920425Y-91179330D01*
X188966661Y-91278484D01*
X189012897Y-91377638D01*
X189012898Y-91377639D01*
X189138402Y-91556877D01*
X189293123Y-91711598D01*
X189472361Y-91837102D01*
X189670670Y-91929575D01*
X189882023Y-91986207D01*
X190064926Y-92002208D01*
X190099998Y-92005277D01*
X190100000Y-92005277D01*
X190100002Y-92005277D01*
X190128254Y-92002805D01*
X190317977Y-91986207D01*
X190529330Y-91929575D01*
X190727639Y-91837102D01*
X190906877Y-91711598D01*
X191061598Y-91556877D01*
X191187102Y-91377639D01*
X191279575Y-91179330D01*
X191336207Y-90967977D01*
X191355277Y-90750000D01*
X191336207Y-90532023D01*
X191279575Y-90320670D01*
X191187102Y-90122362D01*
X191187100Y-90122359D01*
X191187099Y-90122357D01*
X191061599Y-89943124D01*
X190988529Y-89870054D01*
X190906877Y-89788402D01*
X190727639Y-89662898D01*
X190727640Y-89662898D01*
X190727638Y-89662897D01*
X190623006Y-89614107D01*
X190529330Y-89570425D01*
X190529326Y-89570424D01*
X190529322Y-89570422D01*
X190317977Y-89513793D01*
X190100002Y-89494723D01*
X190099998Y-89494723D01*
X189954682Y-89507436D01*
X189882023Y-89513793D01*
X189882020Y-89513793D01*
X189670677Y-89570422D01*
X189670668Y-89570426D01*
X189472361Y-89662898D01*
X189472357Y-89662900D01*
X189293121Y-89788402D01*
X189138402Y-89943121D01*
X189012900Y-90122357D01*
X189012898Y-90122361D01*
X188920426Y-90320668D01*
X188920422Y-90320677D01*
X188863793Y-90532020D01*
X188863793Y-90532024D01*
X188844723Y-90749997D01*
X188000000Y-90749997D01*
X188000000Y-87249997D01*
X188844723Y-87249997D01*
X188844723Y-87250002D01*
X188863793Y-87467975D01*
X188863793Y-87467979D01*
X188920422Y-87679322D01*
X188920424Y-87679326D01*
X188920425Y-87679330D01*
X188943445Y-87728696D01*
X189012897Y-87877638D01*
X189012898Y-87877639D01*
X189138402Y-88056877D01*
X189293123Y-88211598D01*
X189472361Y-88337102D01*
X189670670Y-88429575D01*
X189882023Y-88486207D01*
X190064926Y-88502208D01*
X190099998Y-88505277D01*
X190100000Y-88505277D01*
X190100002Y-88505277D01*
X190128254Y-88502805D01*
X190317977Y-88486207D01*
X190529330Y-88429575D01*
X190727639Y-88337102D01*
X190906877Y-88211598D01*
X191061598Y-88056877D01*
X191187102Y-87877639D01*
X191279575Y-87679330D01*
X191336207Y-87467977D01*
X191355277Y-87250000D01*
X191336207Y-87032023D01*
X191279575Y-86820670D01*
X191187102Y-86622362D01*
X191187100Y-86622359D01*
X191187099Y-86622357D01*
X191061599Y-86443124D01*
X191061596Y-86443121D01*
X190906877Y-86288402D01*
X190727639Y-86162898D01*
X190727640Y-86162898D01*
X190727638Y-86162897D01*
X190619980Y-86112696D01*
X190529330Y-86070425D01*
X190529326Y-86070424D01*
X190529322Y-86070422D01*
X190317977Y-86013793D01*
X190100002Y-85994723D01*
X190099998Y-85994723D01*
X189962184Y-86006780D01*
X189882023Y-86013793D01*
X189882020Y-86013793D01*
X189670677Y-86070422D01*
X189670668Y-86070426D01*
X189472361Y-86162898D01*
X189472357Y-86162900D01*
X189293121Y-86288402D01*
X189138402Y-86443121D01*
X189012900Y-86622357D01*
X189012898Y-86622361D01*
X188920426Y-86820668D01*
X188920422Y-86820677D01*
X188863793Y-87032020D01*
X188863793Y-87032024D01*
X188844723Y-87249997D01*
X188000000Y-87249997D01*
X188000000Y-81250000D01*
X188844723Y-81250000D01*
X188860665Y-81432228D01*
X188863793Y-81467975D01*
X188863793Y-81467979D01*
X188920422Y-81679322D01*
X188920424Y-81679326D01*
X188920425Y-81679330D01*
X188966661Y-81778484D01*
X189012897Y-81877638D01*
X189012898Y-81877639D01*
X189138402Y-82056877D01*
X189293123Y-82211598D01*
X189472361Y-82337102D01*
X189670670Y-82429575D01*
X189882023Y-82486207D01*
X190064926Y-82502208D01*
X190099998Y-82505277D01*
X190100000Y-82505277D01*
X190100002Y-82505277D01*
X190128254Y-82502805D01*
X190317977Y-82486207D01*
X190529330Y-82429575D01*
X190727639Y-82337102D01*
X190906877Y-82211598D01*
X191061598Y-82056877D01*
X191187102Y-81877639D01*
X191279575Y-81679330D01*
X191336207Y-81467977D01*
X191355277Y-81250000D01*
X191336207Y-81032023D01*
X191279575Y-80820670D01*
X191187102Y-80622362D01*
X191187100Y-80622359D01*
X191187099Y-80622357D01*
X191061599Y-80443124D01*
X191061596Y-80443121D01*
X190906877Y-80288402D01*
X190727639Y-80162898D01*
X190727640Y-80162898D01*
X190727638Y-80162897D01*
X190619980Y-80112696D01*
X190529330Y-80070425D01*
X190529326Y-80070424D01*
X190529322Y-80070422D01*
X190317977Y-80013793D01*
X190100002Y-79994723D01*
X190099998Y-79994723D01*
X189954682Y-80007436D01*
X189882023Y-80013793D01*
X189882020Y-80013793D01*
X189670677Y-80070422D01*
X189670668Y-80070426D01*
X189472361Y-80162898D01*
X189472357Y-80162900D01*
X189293121Y-80288402D01*
X189138402Y-80443121D01*
X189012900Y-80622357D01*
X189012898Y-80622361D01*
X188920426Y-80820668D01*
X188920422Y-80820677D01*
X188863793Y-81032020D01*
X188863793Y-81032023D01*
X188844723Y-81250000D01*
X188000000Y-81250000D01*
X188000000Y-77749997D01*
X188844723Y-77749997D01*
X188844723Y-77750002D01*
X188863793Y-77967975D01*
X188863793Y-77967979D01*
X188920422Y-78179322D01*
X188920424Y-78179326D01*
X188920425Y-78179330D01*
X188953379Y-78250000D01*
X189012897Y-78377638D01*
X189012898Y-78377639D01*
X189138402Y-78556877D01*
X189293123Y-78711598D01*
X189472361Y-78837102D01*
X189670670Y-78929575D01*
X189882023Y-78986207D01*
X190064926Y-79002208D01*
X190099998Y-79005277D01*
X190100000Y-79005277D01*
X190100002Y-79005277D01*
X190128254Y-79002805D01*
X190317977Y-78986207D01*
X190529330Y-78929575D01*
X190727639Y-78837102D01*
X190906877Y-78711598D01*
X191061598Y-78556877D01*
X191187102Y-78377639D01*
X191279575Y-78179330D01*
X191336207Y-77967977D01*
X191355277Y-77750000D01*
X191336207Y-77532023D01*
X191279575Y-77320670D01*
X191187102Y-77122362D01*
X191187100Y-77122359D01*
X191187099Y-77122357D01*
X191061599Y-76943124D01*
X191039428Y-76920953D01*
X190906877Y-76788402D01*
X190727639Y-76662898D01*
X190727640Y-76662898D01*
X190727638Y-76662897D01*
X190628484Y-76616661D01*
X190529330Y-76570425D01*
X190529326Y-76570424D01*
X190529322Y-76570422D01*
X190317977Y-76513793D01*
X190100002Y-76494723D01*
X190099998Y-76494723D01*
X189954682Y-76507436D01*
X189882023Y-76513793D01*
X189882020Y-76513793D01*
X189670677Y-76570422D01*
X189670668Y-76570426D01*
X189472361Y-76662898D01*
X189472357Y-76662900D01*
X189293121Y-76788402D01*
X189138402Y-76943121D01*
X189012900Y-77122357D01*
X189012898Y-77122361D01*
X188920426Y-77320668D01*
X188920422Y-77320677D01*
X188863793Y-77532020D01*
X188863793Y-77532024D01*
X188844723Y-77749997D01*
X188000000Y-77749997D01*
X188000000Y-71750000D01*
X188844723Y-71750000D01*
X188860665Y-71932228D01*
X188863793Y-71967975D01*
X188863793Y-71967979D01*
X188920422Y-72179322D01*
X188920424Y-72179326D01*
X188920425Y-72179330D01*
X188924917Y-72188963D01*
X189012897Y-72377638D01*
X189012898Y-72377639D01*
X189138402Y-72556877D01*
X189293123Y-72711598D01*
X189472361Y-72837102D01*
X189670670Y-72929575D01*
X189882023Y-72986207D01*
X190064926Y-73002208D01*
X190099998Y-73005277D01*
X190100000Y-73005277D01*
X190100002Y-73005277D01*
X190128254Y-73002805D01*
X190317977Y-72986207D01*
X190529330Y-72929575D01*
X190727639Y-72837102D01*
X190906877Y-72711598D01*
X191061598Y-72556877D01*
X191187102Y-72377639D01*
X191279575Y-72179330D01*
X191336207Y-71967977D01*
X191355277Y-71750000D01*
X191336207Y-71532023D01*
X191279575Y-71320670D01*
X191187102Y-71122362D01*
X191187100Y-71122359D01*
X191187099Y-71122357D01*
X191061599Y-70943124D01*
X191012012Y-70893537D01*
X190906877Y-70788402D01*
X190727639Y-70662898D01*
X190727640Y-70662898D01*
X190727638Y-70662897D01*
X190628484Y-70616661D01*
X190529330Y-70570425D01*
X190529326Y-70570424D01*
X190529322Y-70570422D01*
X190317977Y-70513793D01*
X190100002Y-70494723D01*
X190099998Y-70494723D01*
X189954682Y-70507436D01*
X189882023Y-70513793D01*
X189882020Y-70513793D01*
X189670677Y-70570422D01*
X189670668Y-70570426D01*
X189472361Y-70662898D01*
X189472357Y-70662900D01*
X189293121Y-70788402D01*
X189138402Y-70943121D01*
X189012900Y-71122357D01*
X189012898Y-71122361D01*
X188920426Y-71320668D01*
X188920422Y-71320677D01*
X188863793Y-71532020D01*
X188863793Y-71532023D01*
X188844723Y-71750000D01*
X188000000Y-71750000D01*
X188000000Y-68249997D01*
X188844723Y-68249997D01*
X188844723Y-68250002D01*
X188863793Y-68467975D01*
X188863793Y-68467979D01*
X188920422Y-68679322D01*
X188920424Y-68679326D01*
X188920425Y-68679330D01*
X188966661Y-68778484D01*
X189012897Y-68877638D01*
X189012898Y-68877639D01*
X189138402Y-69056877D01*
X189293123Y-69211598D01*
X189472361Y-69337102D01*
X189670670Y-69429575D01*
X189882023Y-69486207D01*
X190064926Y-69502208D01*
X190099998Y-69505277D01*
X190100000Y-69505277D01*
X190100002Y-69505277D01*
X190128254Y-69502805D01*
X190317977Y-69486207D01*
X190529330Y-69429575D01*
X190727639Y-69337102D01*
X190906877Y-69211598D01*
X191061598Y-69056877D01*
X191187102Y-68877639D01*
X191279575Y-68679330D01*
X191336207Y-68467977D01*
X191355277Y-68250000D01*
X191336207Y-68032023D01*
X191279575Y-67820670D01*
X191187102Y-67622362D01*
X191187100Y-67622359D01*
X191187099Y-67622357D01*
X191061599Y-67443124D01*
X191061596Y-67443121D01*
X190906877Y-67288402D01*
X190727639Y-67162898D01*
X190727640Y-67162898D01*
X190727638Y-67162897D01*
X190628484Y-67116661D01*
X190529330Y-67070425D01*
X190529326Y-67070424D01*
X190529322Y-67070422D01*
X190317977Y-67013793D01*
X190100002Y-66994723D01*
X190099998Y-66994723D01*
X189954682Y-67007436D01*
X189882023Y-67013793D01*
X189882020Y-67013793D01*
X189670677Y-67070422D01*
X189670668Y-67070426D01*
X189472361Y-67162898D01*
X189472357Y-67162900D01*
X189293121Y-67288402D01*
X189138402Y-67443121D01*
X189012900Y-67622357D01*
X189012898Y-67622361D01*
X188920426Y-67820668D01*
X188920422Y-67820677D01*
X188863793Y-68032020D01*
X188863793Y-68032024D01*
X188844723Y-68249997D01*
X188000000Y-68249997D01*
X188000000Y-62250000D01*
X188844723Y-62250000D01*
X188860665Y-62432228D01*
X188863793Y-62467975D01*
X188863793Y-62467979D01*
X188920422Y-62679322D01*
X188920424Y-62679326D01*
X188920425Y-62679330D01*
X188922850Y-62684530D01*
X189012897Y-62877638D01*
X189012898Y-62877639D01*
X189138402Y-63056877D01*
X189293123Y-63211598D01*
X189472361Y-63337102D01*
X189670670Y-63429575D01*
X189882023Y-63486207D01*
X190064926Y-63502208D01*
X190099998Y-63505277D01*
X190100000Y-63505277D01*
X190100002Y-63505277D01*
X190128254Y-63502805D01*
X190317977Y-63486207D01*
X190529330Y-63429575D01*
X190727639Y-63337102D01*
X190906877Y-63211598D01*
X191061598Y-63056877D01*
X191187102Y-62877639D01*
X191279575Y-62679330D01*
X191336207Y-62467977D01*
X191355277Y-62250000D01*
X191336207Y-62032023D01*
X191279575Y-61820670D01*
X191187102Y-61622362D01*
X191187100Y-61622359D01*
X191187099Y-61622357D01*
X191061599Y-61443124D01*
X191005779Y-61387304D01*
X190906877Y-61288402D01*
X190727639Y-61162898D01*
X190727640Y-61162898D01*
X190727638Y-61162897D01*
X190600446Y-61103587D01*
X190529330Y-61070425D01*
X190529326Y-61070424D01*
X190529322Y-61070422D01*
X190317977Y-61013793D01*
X190100002Y-60994723D01*
X190099998Y-60994723D01*
X189954682Y-61007436D01*
X189882023Y-61013793D01*
X189882020Y-61013793D01*
X189670677Y-61070422D01*
X189670668Y-61070426D01*
X189472361Y-61162898D01*
X189472357Y-61162900D01*
X189293121Y-61288402D01*
X189138402Y-61443121D01*
X189012900Y-61622357D01*
X189012898Y-61622361D01*
X188920426Y-61820668D01*
X188920422Y-61820677D01*
X188863793Y-62032020D01*
X188863793Y-62032023D01*
X188844723Y-62250000D01*
X188000000Y-62250000D01*
X188000000Y-58749997D01*
X188844723Y-58749997D01*
X188844723Y-58750002D01*
X188863793Y-58967975D01*
X188863793Y-58967979D01*
X188920422Y-59179322D01*
X188920424Y-59179326D01*
X188920425Y-59179330D01*
X188924917Y-59188963D01*
X189012897Y-59377638D01*
X189012898Y-59377639D01*
X189138402Y-59556877D01*
X189293123Y-59711598D01*
X189472361Y-59837102D01*
X189670670Y-59929575D01*
X189882023Y-59986207D01*
X190064926Y-60002208D01*
X190099998Y-60005277D01*
X190100000Y-60005277D01*
X190100002Y-60005277D01*
X190128254Y-60002805D01*
X190317977Y-59986207D01*
X190529330Y-59929575D01*
X190727639Y-59837102D01*
X190906877Y-59711598D01*
X191061598Y-59556877D01*
X191187102Y-59377639D01*
X191279575Y-59179330D01*
X191336207Y-58967977D01*
X191355277Y-58750000D01*
X191336207Y-58532023D01*
X191279575Y-58320670D01*
X191187102Y-58122362D01*
X191187100Y-58122359D01*
X191187099Y-58122357D01*
X191061599Y-57943124D01*
X191061596Y-57943121D01*
X190906877Y-57788402D01*
X190727639Y-57662898D01*
X190727640Y-57662898D01*
X190727638Y-57662897D01*
X190600444Y-57603586D01*
X190529330Y-57570425D01*
X190529326Y-57570424D01*
X190529322Y-57570422D01*
X190317977Y-57513793D01*
X190100002Y-57494723D01*
X190099998Y-57494723D01*
X189954682Y-57507436D01*
X189882023Y-57513793D01*
X189882020Y-57513793D01*
X189670677Y-57570422D01*
X189670668Y-57570426D01*
X189472361Y-57662898D01*
X189472357Y-57662900D01*
X189293121Y-57788402D01*
X189138402Y-57943121D01*
X189012900Y-58122357D01*
X189012898Y-58122361D01*
X188920426Y-58320668D01*
X188920422Y-58320677D01*
X188863793Y-58532020D01*
X188863793Y-58532024D01*
X188844723Y-58749997D01*
X188000000Y-58749997D01*
X188000000Y-52932601D01*
X189119923Y-52932601D01*
X189140222Y-53138709D01*
X189200344Y-53336905D01*
X189297969Y-53519548D01*
X189297973Y-53519555D01*
X189429360Y-53679650D01*
X189589455Y-53811037D01*
X189589462Y-53811041D01*
X189772105Y-53908666D01*
X189772107Y-53908666D01*
X189772110Y-53908668D01*
X189970300Y-53968788D01*
X190176410Y-53989088D01*
X190382520Y-53968788D01*
X190580710Y-53908668D01*
X190763363Y-53811038D01*
X190923459Y-53679650D01*
X191054847Y-53519554D01*
X191152477Y-53336901D01*
X191212597Y-53138711D01*
X191232897Y-52932601D01*
X191212597Y-52726491D01*
X191152477Y-52528301D01*
X191152475Y-52528298D01*
X191152475Y-52528296D01*
X191054850Y-52345653D01*
X191054846Y-52345646D01*
X190923459Y-52185551D01*
X190763364Y-52054164D01*
X190763357Y-52054160D01*
X190580714Y-51956535D01*
X190382518Y-51896413D01*
X190176410Y-51876114D01*
X189970301Y-51896413D01*
X189772105Y-51956535D01*
X189589462Y-52054160D01*
X189589455Y-52054164D01*
X189429360Y-52185551D01*
X189297973Y-52345646D01*
X189297969Y-52345653D01*
X189200344Y-52528296D01*
X189140222Y-52726492D01*
X189119923Y-52932601D01*
X188000000Y-52932601D01*
X188000000Y-49432600D01*
X189119923Y-49432600D01*
X189140222Y-49638708D01*
X189200344Y-49836904D01*
X189297969Y-50019547D01*
X189297973Y-50019554D01*
X189429360Y-50179649D01*
X189589455Y-50311036D01*
X189589462Y-50311040D01*
X189772105Y-50408665D01*
X189772107Y-50408665D01*
X189772110Y-50408667D01*
X189970300Y-50468787D01*
X190176410Y-50489087D01*
X190382520Y-50468787D01*
X190580710Y-50408667D01*
X190763363Y-50311037D01*
X190923459Y-50179649D01*
X191054847Y-50019553D01*
X191152477Y-49836900D01*
X191212597Y-49638710D01*
X191232897Y-49432600D01*
X191212597Y-49226490D01*
X191152477Y-49028300D01*
X191152475Y-49028297D01*
X191152475Y-49028295D01*
X191054850Y-48845652D01*
X191054846Y-48845645D01*
X190923459Y-48685550D01*
X190763364Y-48554163D01*
X190763357Y-48554159D01*
X190580714Y-48456534D01*
X190382518Y-48396412D01*
X190176410Y-48376113D01*
X189970301Y-48396412D01*
X189772105Y-48456534D01*
X189589462Y-48554159D01*
X189589455Y-48554163D01*
X189429360Y-48685550D01*
X189297973Y-48845645D01*
X189297969Y-48845652D01*
X189200344Y-49028295D01*
X189140222Y-49226491D01*
X189119923Y-49432600D01*
X188000000Y-49432600D01*
X188000000Y-49000000D01*
X175500000Y-49000000D01*
X175500000Y-71702416D01*
X175480315Y-71769455D01*
X175468168Y-71785368D01*
X173286943Y-74208952D01*
X173227465Y-74245613D01*
X173194775Y-74250000D01*
X166874000Y-74250000D01*
X166806961Y-74230315D01*
X166761206Y-74177511D01*
X166750000Y-74126000D01*
X166750000Y-71750000D01*
X167275568Y-71750000D01*
X167295042Y-71935287D01*
X167295043Y-71935290D01*
X167352612Y-72112469D01*
X167352615Y-72112476D01*
X167445769Y-72273824D01*
X167570433Y-72412277D01*
X167664258Y-72480445D01*
X167721160Y-72521787D01*
X167891360Y-72597564D01*
X168073596Y-72636300D01*
X168259904Y-72636300D01*
X168442140Y-72597564D01*
X168612341Y-72521786D01*
X168763067Y-72412277D01*
X168887731Y-72273824D01*
X168980885Y-72112476D01*
X169038458Y-71935287D01*
X169057932Y-71750000D01*
X169057932Y-71749999D01*
X171975870Y-71749999D01*
X171975870Y-71750000D01*
X171996146Y-71968819D01*
X172056288Y-72180200D01*
X172056289Y-72180201D01*
X172154237Y-72376908D01*
X172154244Y-72376920D01*
X172168025Y-72395168D01*
X172739471Y-71823723D01*
X172764376Y-71916669D01*
X172821224Y-72015131D01*
X172901619Y-72095526D01*
X173000081Y-72152374D01*
X173093024Y-72177277D01*
X172523736Y-72746565D01*
X172523737Y-72746566D01*
X172635925Y-72816030D01*
X172635931Y-72816032D01*
X172840851Y-72895418D01*
X173056871Y-72935800D01*
X173276629Y-72935800D01*
X173492647Y-72895418D01*
X173492648Y-72895418D01*
X173697570Y-72816032D01*
X173697571Y-72816031D01*
X173809762Y-72746565D01*
X173240475Y-72177277D01*
X173333419Y-72152374D01*
X173431881Y-72095526D01*
X173512276Y-72015131D01*
X173569124Y-71916669D01*
X173594027Y-71823724D01*
X174165472Y-72395168D01*
X174165473Y-72395168D01*
X174179255Y-72376920D01*
X174179257Y-72376915D01*
X174277211Y-72180198D01*
X174337353Y-71968819D01*
X174357630Y-71750000D01*
X174357630Y-71749999D01*
X174337353Y-71531180D01*
X174277211Y-71319799D01*
X174277210Y-71319798D01*
X174179261Y-71123088D01*
X174179256Y-71123081D01*
X174165472Y-71104829D01*
X173594027Y-71676274D01*
X173569124Y-71583331D01*
X173512276Y-71484869D01*
X173431881Y-71404474D01*
X173333419Y-71347626D01*
X173240474Y-71322722D01*
X173809762Y-70753433D01*
X173809761Y-70753432D01*
X173697574Y-70683970D01*
X173697568Y-70683967D01*
X173492648Y-70604581D01*
X173276629Y-70564200D01*
X173056871Y-70564200D01*
X172840852Y-70604581D01*
X172840851Y-70604581D01*
X172635932Y-70683966D01*
X172523736Y-70753433D01*
X173093025Y-71322721D01*
X173000081Y-71347626D01*
X172901619Y-71404474D01*
X172821224Y-71484869D01*
X172764376Y-71583331D01*
X172739472Y-71676275D01*
X172168026Y-71104829D01*
X172154247Y-71123075D01*
X172154239Y-71123088D01*
X172056288Y-71319801D01*
X171996146Y-71531180D01*
X171975870Y-71749999D01*
X169057932Y-71749999D01*
X169038458Y-71564713D01*
X168980885Y-71387524D01*
X168887731Y-71226176D01*
X168763067Y-71087723D01*
X168712825Y-71051220D01*
X168612339Y-70978212D01*
X168442139Y-70902435D01*
X168259904Y-70863700D01*
X168073596Y-70863700D01*
X167891360Y-70902435D01*
X167891359Y-70902435D01*
X167721160Y-70978212D01*
X167570431Y-71087724D01*
X167445768Y-71226177D01*
X167352615Y-71387523D01*
X167352612Y-71387530D01*
X167305663Y-71532024D01*
X167295042Y-71564713D01*
X167275568Y-71750000D01*
X166750000Y-71750000D01*
X166750000Y-60000000D01*
X167275568Y-60000000D01*
X167295042Y-60185287D01*
X167295043Y-60185290D01*
X167352612Y-60362469D01*
X167352615Y-60362476D01*
X167445769Y-60523824D01*
X167570433Y-60662277D01*
X167616129Y-60695477D01*
X167721160Y-60771787D01*
X167881518Y-60843182D01*
X167891360Y-60847564D01*
X168073596Y-60886300D01*
X168259904Y-60886300D01*
X168442140Y-60847564D01*
X168451982Y-60843182D01*
X168612339Y-60771787D01*
X168612339Y-60771786D01*
X168612341Y-60771786D01*
X168763067Y-60662277D01*
X168887731Y-60523824D01*
X168980885Y-60362476D01*
X169038458Y-60185287D01*
X169057932Y-60000000D01*
X169057932Y-59999999D01*
X171975870Y-59999999D01*
X171975870Y-60000000D01*
X171996146Y-60218819D01*
X172056288Y-60430200D01*
X172056289Y-60430201D01*
X172154237Y-60626908D01*
X172154244Y-60626920D01*
X172168025Y-60645168D01*
X172739471Y-60073723D01*
X172764376Y-60166669D01*
X172821224Y-60265131D01*
X172901619Y-60345526D01*
X173000081Y-60402374D01*
X173093024Y-60427277D01*
X172523736Y-60996565D01*
X172523737Y-60996566D01*
X172635925Y-61066030D01*
X172635931Y-61066032D01*
X172840851Y-61145418D01*
X173056871Y-61185800D01*
X173276629Y-61185800D01*
X173492647Y-61145418D01*
X173492648Y-61145418D01*
X173697570Y-61066032D01*
X173697571Y-61066031D01*
X173809762Y-60996565D01*
X173240475Y-60427277D01*
X173333419Y-60402374D01*
X173431881Y-60345526D01*
X173512276Y-60265131D01*
X173569124Y-60166669D01*
X173594027Y-60073724D01*
X174165472Y-60645168D01*
X174165473Y-60645168D01*
X174179255Y-60626920D01*
X174179257Y-60626915D01*
X174277211Y-60430198D01*
X174337353Y-60218819D01*
X174357630Y-60000000D01*
X174357630Y-59999999D01*
X174337353Y-59781180D01*
X174277211Y-59569799D01*
X174277210Y-59569798D01*
X174179261Y-59373088D01*
X174179256Y-59373081D01*
X174165472Y-59354829D01*
X173594027Y-59926274D01*
X173569124Y-59833331D01*
X173512276Y-59734869D01*
X173431881Y-59654474D01*
X173333419Y-59597626D01*
X173240474Y-59572722D01*
X173809762Y-59003433D01*
X173809761Y-59003432D01*
X173697574Y-58933970D01*
X173697568Y-58933967D01*
X173492648Y-58854581D01*
X173276629Y-58814200D01*
X173056871Y-58814200D01*
X172840852Y-58854581D01*
X172840851Y-58854581D01*
X172635932Y-58933966D01*
X172523736Y-59003433D01*
X173093025Y-59572721D01*
X173000081Y-59597626D01*
X172901619Y-59654474D01*
X172821224Y-59734869D01*
X172764376Y-59833331D01*
X172739472Y-59926275D01*
X172168026Y-59354829D01*
X172154247Y-59373075D01*
X172154239Y-59373088D01*
X172056288Y-59569801D01*
X171996146Y-59781180D01*
X171975870Y-59999999D01*
X169057932Y-59999999D01*
X169038458Y-59814713D01*
X168980885Y-59637524D01*
X168887731Y-59476176D01*
X168763067Y-59337723D01*
X168712825Y-59301220D01*
X168612339Y-59228212D01*
X168442139Y-59152435D01*
X168259904Y-59113700D01*
X168073596Y-59113700D01*
X167891360Y-59152435D01*
X167891359Y-59152435D01*
X167721160Y-59228212D01*
X167570431Y-59337724D01*
X167445768Y-59476177D01*
X167352615Y-59637523D01*
X167352612Y-59637530D01*
X167303024Y-59790147D01*
X167295042Y-59814713D01*
X167275568Y-60000000D01*
X166750000Y-60000000D01*
X166750000Y-48500000D01*
X167275568Y-48500000D01*
X167295042Y-48685287D01*
X167295043Y-48685290D01*
X167352612Y-48862469D01*
X167352615Y-48862476D01*
X167445769Y-49023824D01*
X167570433Y-49162277D01*
X167658816Y-49226491D01*
X167721160Y-49271787D01*
X167891360Y-49347564D01*
X168073596Y-49386300D01*
X168259904Y-49386300D01*
X168442140Y-49347564D01*
X168612341Y-49271786D01*
X168763067Y-49162277D01*
X168887731Y-49023824D01*
X168980885Y-48862476D01*
X169038458Y-48685287D01*
X169057932Y-48500000D01*
X169057932Y-48499999D01*
X171975870Y-48499999D01*
X171975870Y-48500000D01*
X171996146Y-48718819D01*
X172056288Y-48930200D01*
X172056289Y-48930201D01*
X172154237Y-49126908D01*
X172154244Y-49126920D01*
X172168025Y-49145168D01*
X172739471Y-48573723D01*
X172764376Y-48666669D01*
X172821224Y-48765131D01*
X172901619Y-48845526D01*
X173000081Y-48902374D01*
X173093024Y-48927277D01*
X172523736Y-49496565D01*
X172523737Y-49496566D01*
X172635925Y-49566030D01*
X172635931Y-49566032D01*
X172840851Y-49645418D01*
X173056871Y-49685800D01*
X173276629Y-49685800D01*
X173492647Y-49645418D01*
X173492648Y-49645418D01*
X173697570Y-49566032D01*
X173697571Y-49566031D01*
X173809762Y-49496565D01*
X173240475Y-48927277D01*
X173333419Y-48902374D01*
X173431881Y-48845526D01*
X173512276Y-48765131D01*
X173569124Y-48666669D01*
X173594027Y-48573724D01*
X174165472Y-49145168D01*
X174165473Y-49145168D01*
X174179255Y-49126920D01*
X174179257Y-49126915D01*
X174277211Y-48930198D01*
X174337353Y-48718819D01*
X174357630Y-48500000D01*
X174357630Y-48499999D01*
X174337353Y-48281180D01*
X174277211Y-48069799D01*
X174277210Y-48069798D01*
X174179261Y-47873088D01*
X174179256Y-47873081D01*
X174165472Y-47854829D01*
X173594027Y-48426274D01*
X173569124Y-48333331D01*
X173512276Y-48234869D01*
X173431881Y-48154474D01*
X173333419Y-48097626D01*
X173240474Y-48072722D01*
X173809762Y-47503433D01*
X173809761Y-47503432D01*
X173697574Y-47433970D01*
X173697568Y-47433967D01*
X173492648Y-47354581D01*
X173276629Y-47314200D01*
X173056871Y-47314200D01*
X172840852Y-47354581D01*
X172840851Y-47354581D01*
X172635932Y-47433966D01*
X172523736Y-47503433D01*
X173093025Y-48072721D01*
X173000081Y-48097626D01*
X172901619Y-48154474D01*
X172821224Y-48234869D01*
X172764376Y-48333331D01*
X172739472Y-48426275D01*
X172168026Y-47854829D01*
X172154247Y-47873075D01*
X172154239Y-47873088D01*
X172056288Y-48069801D01*
X171996146Y-48281180D01*
X171975870Y-48499999D01*
X169057932Y-48499999D01*
X169038458Y-48314713D01*
X168980885Y-48137524D01*
X168887731Y-47976176D01*
X168763067Y-47837723D01*
X168677353Y-47775448D01*
X168612339Y-47728212D01*
X168442139Y-47652435D01*
X168259904Y-47613700D01*
X168073596Y-47613700D01*
X167891360Y-47652435D01*
X167891359Y-47652435D01*
X167721160Y-47728212D01*
X167570431Y-47837724D01*
X167445768Y-47976177D01*
X167352615Y-48137523D01*
X167352612Y-48137530D01*
X167295043Y-48314709D01*
X167295042Y-48314713D01*
X167275568Y-48500000D01*
X166750000Y-48500000D01*
X166750000Y-45932594D01*
X188820880Y-45932594D01*
X188820880Y-45932605D01*
X188839367Y-46155709D01*
X188894326Y-46372740D01*
X188984254Y-46577755D01*
X188984256Y-46577759D01*
X189060695Y-46694759D01*
X189614327Y-46141127D01*
X189620187Y-46162995D01*
X189698771Y-46299105D01*
X189809905Y-46410239D01*
X189946015Y-46488823D01*
X189967880Y-46494681D01*
X189412598Y-47049963D01*
X189412599Y-47049964D01*
X189435002Y-47067402D01*
X189435009Y-47067406D01*
X189631893Y-47173954D01*
X189631907Y-47173960D01*
X189843643Y-47246650D01*
X190064472Y-47283500D01*
X190288348Y-47283500D01*
X190509176Y-47246650D01*
X190720912Y-47173960D01*
X190720921Y-47173957D01*
X190917816Y-47067402D01*
X190917819Y-47067400D01*
X190940220Y-47049964D01*
X190940220Y-47049963D01*
X190384939Y-46494681D01*
X190406805Y-46488823D01*
X190542915Y-46410239D01*
X190654049Y-46299105D01*
X190732633Y-46162995D01*
X190738491Y-46141128D01*
X191292124Y-46694760D01*
X191368563Y-46577760D01*
X191458493Y-46372740D01*
X191513452Y-46155709D01*
X191531940Y-45932605D01*
X191531940Y-45932594D01*
X191513452Y-45709490D01*
X191458493Y-45492459D01*
X191368563Y-45287439D01*
X191292123Y-45170439D01*
X190738491Y-45724070D01*
X190732633Y-45702205D01*
X190654049Y-45566095D01*
X190542915Y-45454961D01*
X190406805Y-45376377D01*
X190384938Y-45370518D01*
X190940220Y-44815236D01*
X190940219Y-44815234D01*
X190917817Y-44797798D01*
X190917811Y-44797793D01*
X190720926Y-44691245D01*
X190720912Y-44691239D01*
X190509176Y-44618549D01*
X190288348Y-44581700D01*
X190064472Y-44581700D01*
X189843643Y-44618549D01*
X189631907Y-44691239D01*
X189631893Y-44691245D01*
X189435009Y-44797793D01*
X189435007Y-44797794D01*
X189412599Y-44815235D01*
X189967881Y-45370517D01*
X189946015Y-45376377D01*
X189809905Y-45454961D01*
X189698771Y-45566095D01*
X189620187Y-45702205D01*
X189614327Y-45724071D01*
X189060695Y-45170439D01*
X188984255Y-45287442D01*
X188984254Y-45287444D01*
X188894326Y-45492459D01*
X188839367Y-45709490D01*
X188820880Y-45932594D01*
X166750000Y-45932594D01*
X166750000Y-42185651D01*
X166769685Y-42118612D01*
X166822489Y-42072857D01*
X166874015Y-42061652D01*
X191966305Y-42066033D01*
G37*
G04 #@! TD.AperFunction*
G04 #@! TA.AperFunction,Conductor*
G36*
X107443039Y-54519685D02*
G01*
X107488794Y-54572489D01*
X107500000Y-54624000D01*
X107500000Y-59500000D01*
X110000000Y-62000000D01*
X112000000Y-62000000D01*
X119376000Y-62000000D01*
X119443039Y-62019685D01*
X119488794Y-62072489D01*
X119500000Y-62124000D01*
X119500000Y-71376000D01*
X119480315Y-71443039D01*
X119427511Y-71488794D01*
X119376000Y-71500000D01*
X109829500Y-71500000D01*
X109762461Y-71480315D01*
X109716706Y-71427511D01*
X109705500Y-71376000D01*
X109705500Y-70000000D01*
X111032843Y-70000000D01*
X111051426Y-70188681D01*
X111051427Y-70188683D01*
X111106463Y-70370115D01*
X111106464Y-70370118D01*
X111106465Y-70370119D01*
X111106466Y-70370122D01*
X111195834Y-70537318D01*
X111195838Y-70537325D01*
X111316116Y-70683883D01*
X111462674Y-70804161D01*
X111462681Y-70804165D01*
X111629877Y-70893533D01*
X111629878Y-70893533D01*
X111629885Y-70893537D01*
X111811317Y-70948573D01*
X111811316Y-70948573D01*
X111828233Y-70950239D01*
X112000000Y-70967157D01*
X112188683Y-70948573D01*
X112370115Y-70893537D01*
X112537324Y-70804162D01*
X112683883Y-70683883D01*
X112804162Y-70537324D01*
X112893537Y-70370115D01*
X112948573Y-70188683D01*
X112967157Y-70000000D01*
X113572843Y-70000000D01*
X113591426Y-70188681D01*
X113591427Y-70188683D01*
X113646463Y-70370115D01*
X113646464Y-70370118D01*
X113646465Y-70370119D01*
X113646466Y-70370122D01*
X113735834Y-70537318D01*
X113735838Y-70537325D01*
X113856116Y-70683883D01*
X114002674Y-70804161D01*
X114002681Y-70804165D01*
X114169877Y-70893533D01*
X114169878Y-70893533D01*
X114169885Y-70893537D01*
X114351317Y-70948573D01*
X114351316Y-70948573D01*
X114368233Y-70950239D01*
X114540000Y-70967157D01*
X114728683Y-70948573D01*
X114910115Y-70893537D01*
X115077324Y-70804162D01*
X115223883Y-70683883D01*
X115344162Y-70537324D01*
X115433537Y-70370115D01*
X115488573Y-70188683D01*
X115507157Y-70000000D01*
X115488573Y-69811317D01*
X115433537Y-69629885D01*
X115344162Y-69462676D01*
X115344161Y-69462674D01*
X115223883Y-69316116D01*
X115077325Y-69195838D01*
X115077318Y-69195834D01*
X114910122Y-69106466D01*
X114910119Y-69106465D01*
X114910118Y-69106464D01*
X114910115Y-69106463D01*
X114728683Y-69051427D01*
X114728681Y-69051426D01*
X114728683Y-69051426D01*
X114540000Y-69032843D01*
X114351318Y-69051426D01*
X114244194Y-69083921D01*
X114169885Y-69106463D01*
X114169882Y-69106464D01*
X114169880Y-69106465D01*
X114169877Y-69106466D01*
X114002681Y-69195834D01*
X114002674Y-69195838D01*
X113856116Y-69316116D01*
X113735838Y-69462674D01*
X113735834Y-69462681D01*
X113646466Y-69629877D01*
X113646465Y-69629880D01*
X113591426Y-69811318D01*
X113572843Y-70000000D01*
X112967157Y-70000000D01*
X112948573Y-69811317D01*
X112893537Y-69629885D01*
X112804162Y-69462676D01*
X112804161Y-69462674D01*
X112683883Y-69316116D01*
X112537325Y-69195838D01*
X112537318Y-69195834D01*
X112370122Y-69106466D01*
X112370119Y-69106465D01*
X112370118Y-69106464D01*
X112370115Y-69106463D01*
X112188683Y-69051427D01*
X112188681Y-69051426D01*
X112188683Y-69051426D01*
X112000000Y-69032843D01*
X111811318Y-69051426D01*
X111704194Y-69083921D01*
X111629885Y-69106463D01*
X111629882Y-69106464D01*
X111629880Y-69106465D01*
X111629877Y-69106466D01*
X111462681Y-69195834D01*
X111462674Y-69195838D01*
X111316116Y-69316116D01*
X111195838Y-69462674D01*
X111195834Y-69462681D01*
X111106466Y-69629877D01*
X111106465Y-69629880D01*
X111051426Y-69811318D01*
X111032843Y-70000000D01*
X109705500Y-70000000D01*
X109705500Y-68124008D01*
X109705499Y-68123992D01*
X109700803Y-68080316D01*
X109696897Y-68062364D01*
X109689602Y-68028825D01*
X109689348Y-68027789D01*
X109687110Y-68018627D01*
X109644100Y-67937915D01*
X109598345Y-67885111D01*
X109598339Y-67885104D01*
X109580757Y-67867160D01*
X109580756Y-67867159D01*
X109580754Y-67867157D01*
X109580752Y-67867156D01*
X109580750Y-67867154D01*
X109500940Y-67822511D01*
X109500935Y-67822509D01*
X109433903Y-67802826D01*
X109433899Y-67802825D01*
X109433898Y-67802825D01*
X109376000Y-67794500D01*
X100174500Y-67794500D01*
X100107461Y-67774815D01*
X100061706Y-67722011D01*
X100050500Y-67670500D01*
X100050500Y-65436626D01*
X116924944Y-65436626D01*
X116924944Y-65436627D01*
X116943984Y-65593445D01*
X117000002Y-65741150D01*
X117089739Y-65871157D01*
X117207982Y-65975910D01*
X117207984Y-65975911D01*
X117347856Y-66049323D01*
X117501236Y-66087127D01*
X117501237Y-66087127D01*
X117659207Y-66087127D01*
X117812587Y-66049323D01*
X117952462Y-65975910D01*
X118070705Y-65871157D01*
X118160442Y-65741150D01*
X118216459Y-65593445D01*
X118235500Y-65436627D01*
X118216459Y-65279809D01*
X118160442Y-65132104D01*
X118070705Y-65002097D01*
X117952462Y-64897344D01*
X117952460Y-64897343D01*
X117952459Y-64897342D01*
X117812587Y-64823930D01*
X117659208Y-64786127D01*
X117659207Y-64786127D01*
X117501237Y-64786127D01*
X117501236Y-64786127D01*
X117347856Y-64823930D01*
X117207984Y-64897342D01*
X117089738Y-65002098D01*
X117000003Y-65132102D01*
X117000002Y-65132103D01*
X116943984Y-65279808D01*
X116924944Y-65436626D01*
X100050500Y-65436626D01*
X100050500Y-63567400D01*
X103767103Y-63567400D01*
X103787402Y-63773508D01*
X103847524Y-63971704D01*
X103945149Y-64154347D01*
X103945153Y-64154354D01*
X104076540Y-64314449D01*
X104236635Y-64445836D01*
X104236642Y-64445840D01*
X104419285Y-64543465D01*
X104419287Y-64543465D01*
X104419290Y-64543467D01*
X104617480Y-64603587D01*
X104823590Y-64623887D01*
X105029700Y-64603587D01*
X105227890Y-64543467D01*
X105410543Y-64445837D01*
X105570639Y-64314449D01*
X105702027Y-64154353D01*
X105799657Y-63971700D01*
X105859777Y-63773510D01*
X105880077Y-63567400D01*
X105859777Y-63361290D01*
X105799657Y-63163100D01*
X105799655Y-63163097D01*
X105799655Y-63163095D01*
X105702030Y-62980452D01*
X105702026Y-62980445D01*
X105570639Y-62820350D01*
X105410544Y-62688963D01*
X105410537Y-62688959D01*
X105227894Y-62591334D01*
X105029698Y-62531212D01*
X104823590Y-62510913D01*
X104617481Y-62531212D01*
X104419285Y-62591334D01*
X104236642Y-62688959D01*
X104236635Y-62688963D01*
X104076540Y-62820350D01*
X103945153Y-62980445D01*
X103945149Y-62980452D01*
X103847524Y-63163095D01*
X103787402Y-63361291D01*
X103767103Y-63567400D01*
X100050500Y-63567400D01*
X100050500Y-60067400D01*
X103767103Y-60067400D01*
X103787402Y-60273508D01*
X103847524Y-60471704D01*
X103945149Y-60654347D01*
X103945153Y-60654354D01*
X104076540Y-60814449D01*
X104236635Y-60945836D01*
X104236642Y-60945840D01*
X104419285Y-61043465D01*
X104419287Y-61043465D01*
X104419290Y-61043467D01*
X104617480Y-61103587D01*
X104823590Y-61123887D01*
X105029700Y-61103587D01*
X105227890Y-61043467D01*
X105410543Y-60945837D01*
X105570639Y-60814449D01*
X105702027Y-60654353D01*
X105799657Y-60471700D01*
X105859777Y-60273510D01*
X105880077Y-60067400D01*
X105859777Y-59861290D01*
X105799657Y-59663100D01*
X105799655Y-59663097D01*
X105799655Y-59663095D01*
X105702030Y-59480452D01*
X105702026Y-59480445D01*
X105570639Y-59320350D01*
X105410544Y-59188963D01*
X105410537Y-59188959D01*
X105227894Y-59091334D01*
X105029698Y-59031212D01*
X104823590Y-59010913D01*
X104617481Y-59031212D01*
X104419285Y-59091334D01*
X104236642Y-59188959D01*
X104236635Y-59188963D01*
X104076540Y-59320350D01*
X103945153Y-59480445D01*
X103945149Y-59480452D01*
X103847524Y-59663095D01*
X103787402Y-59861291D01*
X103767103Y-60067400D01*
X100050500Y-60067400D01*
X100050500Y-56567393D01*
X103468060Y-56567393D01*
X103468060Y-56567404D01*
X103486547Y-56790508D01*
X103541506Y-57007539D01*
X103631434Y-57212554D01*
X103631436Y-57212558D01*
X103707875Y-57329558D01*
X104261507Y-56775926D01*
X104267367Y-56797794D01*
X104345951Y-56933904D01*
X104457085Y-57045038D01*
X104593195Y-57123622D01*
X104615060Y-57129480D01*
X104059778Y-57684762D01*
X104059779Y-57684763D01*
X104082182Y-57702201D01*
X104082189Y-57702205D01*
X104279073Y-57808753D01*
X104279087Y-57808759D01*
X104490823Y-57881449D01*
X104711652Y-57918299D01*
X104935528Y-57918299D01*
X105156356Y-57881449D01*
X105368092Y-57808759D01*
X105368101Y-57808756D01*
X105564996Y-57702201D01*
X105564999Y-57702199D01*
X105587400Y-57684763D01*
X105587400Y-57684762D01*
X105032119Y-57129480D01*
X105053985Y-57123622D01*
X105190095Y-57045038D01*
X105301229Y-56933904D01*
X105379813Y-56797794D01*
X105385671Y-56775927D01*
X105939304Y-57329559D01*
X106015743Y-57212559D01*
X106105673Y-57007539D01*
X106160632Y-56790508D01*
X106179120Y-56567404D01*
X106179120Y-56567393D01*
X106160632Y-56344289D01*
X106105673Y-56127258D01*
X106015743Y-55922238D01*
X105939303Y-55805238D01*
X105385671Y-56358869D01*
X105379813Y-56337004D01*
X105301229Y-56200894D01*
X105190095Y-56089760D01*
X105053985Y-56011176D01*
X105032118Y-56005317D01*
X105587400Y-55450035D01*
X105587399Y-55450033D01*
X105564997Y-55432597D01*
X105564991Y-55432592D01*
X105368106Y-55326044D01*
X105368092Y-55326038D01*
X105156356Y-55253348D01*
X104935528Y-55216499D01*
X104711652Y-55216499D01*
X104490823Y-55253348D01*
X104279087Y-55326038D01*
X104279073Y-55326044D01*
X104082189Y-55432592D01*
X104082187Y-55432593D01*
X104059779Y-55450034D01*
X104615061Y-56005316D01*
X104593195Y-56011176D01*
X104457085Y-56089760D01*
X104345951Y-56200894D01*
X104267367Y-56337004D01*
X104261507Y-56358870D01*
X103707875Y-55805238D01*
X103631435Y-55922241D01*
X103631434Y-55922243D01*
X103541506Y-56127258D01*
X103486547Y-56344289D01*
X103468060Y-56567393D01*
X100050500Y-56567393D01*
X100050500Y-54624000D01*
X100070185Y-54556961D01*
X100122989Y-54511206D01*
X100174500Y-54500000D01*
X107376000Y-54500000D01*
X107443039Y-54519685D01*
G37*
G04 #@! TD.AperFunction*
G04 #@! TA.AperFunction,Conductor*
G36*
X166420523Y-42061573D02*
G01*
X166487558Y-42081269D01*
X166533303Y-42134081D01*
X166544500Y-42185573D01*
X166544500Y-74126007D01*
X166549197Y-74169686D01*
X166560397Y-74221174D01*
X166562890Y-74231372D01*
X166562891Y-74231375D01*
X166605899Y-74312083D01*
X166605901Y-74312086D01*
X166651660Y-74364895D01*
X166669242Y-74382839D01*
X166669246Y-74382843D01*
X166669247Y-74382844D01*
X166669249Y-74382845D01*
X166749059Y-74427488D01*
X166749063Y-74427490D01*
X166816102Y-74447175D01*
X166874000Y-74455500D01*
X166874004Y-74455500D01*
X173194773Y-74455500D01*
X173194775Y-74455500D01*
X173222108Y-74453674D01*
X173254798Y-74449287D01*
X173335293Y-74420551D01*
X173394771Y-74383890D01*
X173439690Y-74346424D01*
X175620915Y-71922840D01*
X175631516Y-71910058D01*
X175643663Y-71894145D01*
X175677490Y-71827353D01*
X175697175Y-71760314D01*
X175705500Y-71702416D01*
X175705500Y-69902842D01*
X183024299Y-69902842D01*
X183024299Y-69902843D01*
X183043339Y-70059661D01*
X183099357Y-70207366D01*
X183189094Y-70337373D01*
X183307337Y-70442126D01*
X183307339Y-70442127D01*
X183447211Y-70515539D01*
X183600591Y-70553343D01*
X183600592Y-70553343D01*
X183758562Y-70553343D01*
X183911942Y-70515539D01*
X184051817Y-70442126D01*
X184170060Y-70337373D01*
X184259797Y-70207366D01*
X184315814Y-70059661D01*
X184334855Y-69902843D01*
X184315814Y-69746025D01*
X184259797Y-69598320D01*
X184170060Y-69468313D01*
X184051817Y-69363560D01*
X184051815Y-69363559D01*
X184051814Y-69363558D01*
X183911942Y-69290146D01*
X183758563Y-69252343D01*
X183758562Y-69252343D01*
X183600592Y-69252343D01*
X183600591Y-69252343D01*
X183447211Y-69290146D01*
X183307339Y-69363558D01*
X183189093Y-69468314D01*
X183099358Y-69598318D01*
X183099357Y-69598319D01*
X183043339Y-69746024D01*
X183024299Y-69902842D01*
X175705500Y-69902842D01*
X175705500Y-61999999D01*
X177844722Y-61999999D01*
X177844722Y-62000000D01*
X177863762Y-62156818D01*
X177899102Y-62250000D01*
X177919780Y-62304523D01*
X178009517Y-62434530D01*
X178127760Y-62539283D01*
X178127762Y-62539284D01*
X178267634Y-62612696D01*
X178421014Y-62650500D01*
X178421015Y-62650500D01*
X178578985Y-62650500D01*
X178732365Y-62612696D01*
X178872240Y-62539283D01*
X178990483Y-62434530D01*
X179080220Y-62304523D01*
X179136237Y-62156818D01*
X179155278Y-62000000D01*
X179139149Y-61867160D01*
X179136237Y-61843181D01*
X179100619Y-61749266D01*
X179080220Y-61695477D01*
X178990483Y-61565470D01*
X178872240Y-61460717D01*
X178872238Y-61460716D01*
X178872237Y-61460715D01*
X178732365Y-61387303D01*
X178578986Y-61349500D01*
X178578985Y-61349500D01*
X178421015Y-61349500D01*
X178421014Y-61349500D01*
X178267634Y-61387303D01*
X178127762Y-61460715D01*
X178009516Y-61565471D01*
X177919781Y-61695475D01*
X177919780Y-61695476D01*
X177863762Y-61843181D01*
X177844722Y-61999999D01*
X175705500Y-61999999D01*
X175705500Y-60402842D01*
X183024299Y-60402842D01*
X183024299Y-60402843D01*
X183043339Y-60559661D01*
X183099357Y-60707366D01*
X183189094Y-60837373D01*
X183307337Y-60942126D01*
X183307339Y-60942127D01*
X183447211Y-61015539D01*
X183600591Y-61053343D01*
X183600592Y-61053343D01*
X183758562Y-61053343D01*
X183911942Y-61015539D01*
X183979083Y-60980300D01*
X184051817Y-60942126D01*
X184170060Y-60837373D01*
X184259797Y-60707366D01*
X184315814Y-60559661D01*
X184334855Y-60402843D01*
X184321392Y-60291960D01*
X184315814Y-60246024D01*
X184291114Y-60180897D01*
X184259797Y-60098320D01*
X184170060Y-59968313D01*
X184051817Y-59863560D01*
X184051815Y-59863559D01*
X184051814Y-59863558D01*
X183911942Y-59790146D01*
X183758563Y-59752343D01*
X183758562Y-59752343D01*
X183600592Y-59752343D01*
X183600591Y-59752343D01*
X183447211Y-59790146D01*
X183307339Y-59863558D01*
X183189093Y-59968314D01*
X183099358Y-60098318D01*
X183099357Y-60098319D01*
X183043339Y-60246024D01*
X183024299Y-60402842D01*
X175705500Y-60402842D01*
X175705500Y-56499999D01*
X178344722Y-56499999D01*
X178344722Y-56500000D01*
X178363762Y-56656818D01*
X178401592Y-56756566D01*
X178419780Y-56804523D01*
X178509517Y-56934530D01*
X178627760Y-57039283D01*
X178627762Y-57039284D01*
X178767634Y-57112696D01*
X178921014Y-57150500D01*
X178921015Y-57150500D01*
X179078985Y-57150500D01*
X179232365Y-57112696D01*
X179372240Y-57039283D01*
X179490483Y-56934530D01*
X179580220Y-56804523D01*
X179636237Y-56656818D01*
X179655278Y-56500000D01*
X179636237Y-56343182D01*
X179580220Y-56195477D01*
X179490483Y-56065470D01*
X179372240Y-55960717D01*
X179372238Y-55960716D01*
X179372237Y-55960715D01*
X179232365Y-55887303D01*
X179078986Y-55849500D01*
X179078985Y-55849500D01*
X178921015Y-55849500D01*
X178921014Y-55849500D01*
X178767634Y-55887303D01*
X178627762Y-55960715D01*
X178509516Y-56065471D01*
X178419781Y-56195475D01*
X178419780Y-56195476D01*
X178363762Y-56343181D01*
X178344722Y-56499999D01*
X175705500Y-56499999D01*
X175705500Y-53749999D01*
X185094722Y-53749999D01*
X185094722Y-53750000D01*
X185113762Y-53906818D01*
X185169780Y-54054523D01*
X185259517Y-54184530D01*
X185377760Y-54289283D01*
X185377762Y-54289284D01*
X185517634Y-54362696D01*
X185671014Y-54400500D01*
X185671015Y-54400500D01*
X185828985Y-54400500D01*
X185982365Y-54362696D01*
X186122240Y-54289283D01*
X186240483Y-54184530D01*
X186330220Y-54054523D01*
X186386237Y-53906818D01*
X186405278Y-53750000D01*
X186386237Y-53593182D01*
X186330220Y-53445477D01*
X186240483Y-53315470D01*
X186122240Y-53210717D01*
X186122238Y-53210716D01*
X186122237Y-53210715D01*
X185982365Y-53137303D01*
X185828986Y-53099500D01*
X185828985Y-53099500D01*
X185671015Y-53099500D01*
X185671014Y-53099500D01*
X185517634Y-53137303D01*
X185377762Y-53210715D01*
X185259516Y-53315471D01*
X185169781Y-53445475D01*
X185169780Y-53445476D01*
X185113762Y-53593181D01*
X185094722Y-53749999D01*
X175705500Y-53749999D01*
X175705500Y-49329500D01*
X175725185Y-49262461D01*
X175777989Y-49216706D01*
X175829500Y-49205500D01*
X187670500Y-49205500D01*
X187737539Y-49225185D01*
X187783294Y-49277989D01*
X187794500Y-49329500D01*
X187794500Y-59788398D01*
X187792217Y-59807196D01*
X187792634Y-59807247D01*
X187772689Y-59971510D01*
X187772689Y-59971511D01*
X187792634Y-60135777D01*
X187792216Y-60135827D01*
X187794500Y-60154625D01*
X187794500Y-69288398D01*
X187792217Y-69307196D01*
X187792634Y-69307247D01*
X187772689Y-69471510D01*
X187772689Y-69471511D01*
X187792634Y-69635777D01*
X187792216Y-69635827D01*
X187794500Y-69654625D01*
X187794500Y-78788398D01*
X187792217Y-78807196D01*
X187792634Y-78807247D01*
X187772689Y-78971510D01*
X187772689Y-78971511D01*
X187792634Y-79135777D01*
X187792216Y-79135827D01*
X187794500Y-79154625D01*
X187794500Y-92670500D01*
X187774815Y-92737539D01*
X187722011Y-92783294D01*
X187670500Y-92794500D01*
X161829500Y-92794500D01*
X161762461Y-92774815D01*
X161716706Y-92722011D01*
X161705500Y-92670500D01*
X161705500Y-91624008D01*
X161705499Y-91623992D01*
X161700803Y-91580316D01*
X161696897Y-91562364D01*
X161689602Y-91528825D01*
X161689348Y-91527789D01*
X161687110Y-91518627D01*
X161644100Y-91437915D01*
X161598345Y-91385111D01*
X161598339Y-91385104D01*
X161580757Y-91367160D01*
X161580756Y-91367159D01*
X161580754Y-91367157D01*
X161580752Y-91367156D01*
X161580750Y-91367154D01*
X161500940Y-91322511D01*
X161500935Y-91322509D01*
X161433903Y-91302826D01*
X161433899Y-91302825D01*
X161433898Y-91302825D01*
X161376000Y-91294500D01*
X160124000Y-91294500D01*
X160123992Y-91294500D01*
X160080313Y-91299197D01*
X160028825Y-91310397D01*
X160018627Y-91312890D01*
X160018624Y-91312891D01*
X159937916Y-91355899D01*
X159937913Y-91355901D01*
X159885104Y-91401660D01*
X159867160Y-91419242D01*
X159867154Y-91419249D01*
X159822511Y-91499059D01*
X159822509Y-91499064D01*
X159802826Y-91566096D01*
X159802825Y-91566101D01*
X159802825Y-91566102D01*
X159794502Y-91623992D01*
X159794500Y-91624003D01*
X159794500Y-92670500D01*
X159774815Y-92737539D01*
X159722011Y-92783294D01*
X159670500Y-92794500D01*
X109829500Y-92794500D01*
X109762461Y-92774815D01*
X109716706Y-92722011D01*
X109705500Y-92670500D01*
X109705500Y-90499999D01*
X166344722Y-90499999D01*
X166344722Y-90500000D01*
X166363762Y-90656818D01*
X166413238Y-90787273D01*
X166419780Y-90804523D01*
X166509517Y-90934530D01*
X166627760Y-91039283D01*
X166627762Y-91039284D01*
X166767634Y-91112696D01*
X166921014Y-91150500D01*
X166921015Y-91150500D01*
X167078985Y-91150500D01*
X167232365Y-91112696D01*
X167372240Y-91039283D01*
X167490483Y-90934530D01*
X167580220Y-90804523D01*
X167636237Y-90656818D01*
X167655278Y-90500000D01*
X167652741Y-90479101D01*
X167636237Y-90343181D01*
X167614992Y-90287164D01*
X167580220Y-90195477D01*
X167565793Y-90174576D01*
X173596637Y-90174576D01*
X173596637Y-90174577D01*
X173615677Y-90331395D01*
X173654791Y-90434528D01*
X173671695Y-90479100D01*
X173761432Y-90609107D01*
X173879675Y-90713860D01*
X173879677Y-90713861D01*
X174019549Y-90787273D01*
X174172929Y-90825077D01*
X174172930Y-90825077D01*
X174330900Y-90825077D01*
X174484280Y-90787273D01*
X174624155Y-90713860D01*
X174742398Y-90609107D01*
X174832135Y-90479100D01*
X174888152Y-90331395D01*
X174907193Y-90174577D01*
X174888152Y-90017759D01*
X174881417Y-89999999D01*
X181344722Y-89999999D01*
X181344722Y-90000000D01*
X181363762Y-90156818D01*
X181378424Y-90195477D01*
X181419780Y-90304523D01*
X181509517Y-90434530D01*
X181627760Y-90539283D01*
X181627762Y-90539284D01*
X181767634Y-90612696D01*
X181921014Y-90650500D01*
X181921015Y-90650500D01*
X182078985Y-90650500D01*
X182232365Y-90612696D01*
X182239207Y-90609105D01*
X182372240Y-90539283D01*
X182490483Y-90434530D01*
X182580220Y-90304523D01*
X182636237Y-90156818D01*
X182655278Y-90000000D01*
X182636237Y-89843182D01*
X182580220Y-89695477D01*
X182490483Y-89565470D01*
X182372240Y-89460717D01*
X182372238Y-89460716D01*
X182372237Y-89460715D01*
X182232365Y-89387303D01*
X182078986Y-89349500D01*
X182078985Y-89349500D01*
X181921015Y-89349500D01*
X181921014Y-89349500D01*
X181767634Y-89387303D01*
X181627762Y-89460715D01*
X181556241Y-89524077D01*
X181520057Y-89556133D01*
X181509516Y-89565471D01*
X181419781Y-89695475D01*
X181419780Y-89695476D01*
X181363762Y-89843181D01*
X181344722Y-89999999D01*
X174881417Y-89999999D01*
X174832135Y-89870054D01*
X174742398Y-89740047D01*
X174624155Y-89635294D01*
X174624153Y-89635293D01*
X174624152Y-89635292D01*
X174484280Y-89561880D01*
X174330901Y-89524077D01*
X174330900Y-89524077D01*
X174172930Y-89524077D01*
X174172929Y-89524077D01*
X174019549Y-89561880D01*
X173879677Y-89635292D01*
X173761431Y-89740048D01*
X173671696Y-89870052D01*
X173671695Y-89870053D01*
X173615677Y-90017758D01*
X173596637Y-90174576D01*
X167565793Y-90174576D01*
X167490483Y-90065470D01*
X167372240Y-89960717D01*
X167372238Y-89960716D01*
X167372237Y-89960715D01*
X167232365Y-89887303D01*
X167078986Y-89849500D01*
X167078985Y-89849500D01*
X166921015Y-89849500D01*
X166921014Y-89849500D01*
X166767634Y-89887303D01*
X166627762Y-89960715D01*
X166509516Y-90065471D01*
X166419781Y-90195475D01*
X166419780Y-90195476D01*
X166363762Y-90343181D01*
X166344722Y-90499999D01*
X109705500Y-90499999D01*
X109705500Y-89251609D01*
X113413390Y-89251609D01*
X113413390Y-89251610D01*
X113432430Y-89408428D01*
X113476291Y-89524077D01*
X113488448Y-89556133D01*
X113578185Y-89686140D01*
X113696428Y-89790893D01*
X113696430Y-89790894D01*
X113836302Y-89864306D01*
X113989682Y-89902110D01*
X113989683Y-89902110D01*
X114147653Y-89902110D01*
X114301033Y-89864306D01*
X114341281Y-89843182D01*
X114440908Y-89790893D01*
X114559151Y-89686140D01*
X114648888Y-89556133D01*
X114704905Y-89408428D01*
X114723946Y-89251610D01*
X114715200Y-89179576D01*
X122941879Y-89179576D01*
X122941879Y-89179577D01*
X122960919Y-89336395D01*
X122988238Y-89408428D01*
X123016937Y-89484100D01*
X123106674Y-89614107D01*
X123224917Y-89718860D01*
X123224919Y-89718861D01*
X123364791Y-89792273D01*
X123518171Y-89830077D01*
X123518172Y-89830077D01*
X123676142Y-89830077D01*
X123829522Y-89792273D01*
X123924757Y-89742289D01*
X123969397Y-89718860D01*
X124087640Y-89614107D01*
X124177377Y-89484100D01*
X124233394Y-89336395D01*
X124252435Y-89179577D01*
X124252435Y-89179576D01*
X132441879Y-89179576D01*
X132441879Y-89179577D01*
X132460919Y-89336395D01*
X132488238Y-89408428D01*
X132516937Y-89484100D01*
X132606674Y-89614107D01*
X132724917Y-89718860D01*
X132724919Y-89718861D01*
X132864791Y-89792273D01*
X133018171Y-89830077D01*
X133018172Y-89830077D01*
X133176142Y-89830077D01*
X133329522Y-89792273D01*
X133424757Y-89742289D01*
X133469397Y-89718860D01*
X133587640Y-89614107D01*
X133677377Y-89484100D01*
X133733394Y-89336395D01*
X133752435Y-89179577D01*
X133752435Y-89179576D01*
X141941879Y-89179576D01*
X141941879Y-89179577D01*
X141960919Y-89336395D01*
X141988238Y-89408428D01*
X142016937Y-89484100D01*
X142106674Y-89614107D01*
X142224917Y-89718860D01*
X142224919Y-89718861D01*
X142364791Y-89792273D01*
X142518171Y-89830077D01*
X142518172Y-89830077D01*
X142676142Y-89830077D01*
X142829522Y-89792273D01*
X142924757Y-89742289D01*
X142969397Y-89718860D01*
X143087640Y-89614107D01*
X143177377Y-89484100D01*
X143233394Y-89336395D01*
X143252435Y-89179577D01*
X143252435Y-89179576D01*
X151441879Y-89179576D01*
X151441879Y-89179577D01*
X151460919Y-89336395D01*
X151488238Y-89408428D01*
X151516937Y-89484100D01*
X151606674Y-89614107D01*
X151724917Y-89718860D01*
X151724919Y-89718861D01*
X151864791Y-89792273D01*
X152018171Y-89830077D01*
X152018172Y-89830077D01*
X152176142Y-89830077D01*
X152329522Y-89792273D01*
X152424757Y-89742289D01*
X152469397Y-89718860D01*
X152587640Y-89614107D01*
X152677377Y-89484100D01*
X152733394Y-89336395D01*
X152743689Y-89251609D01*
X160913390Y-89251609D01*
X160913390Y-89251610D01*
X160932430Y-89408428D01*
X160976291Y-89524077D01*
X160988448Y-89556133D01*
X161078185Y-89686140D01*
X161196428Y-89790893D01*
X161196430Y-89790894D01*
X161336302Y-89864306D01*
X161489682Y-89902110D01*
X161489683Y-89902110D01*
X161647653Y-89902110D01*
X161801033Y-89864306D01*
X161841281Y-89843182D01*
X161940908Y-89790893D01*
X162059151Y-89686140D01*
X162148888Y-89556133D01*
X162204905Y-89408428D01*
X162223946Y-89251610D01*
X162223946Y-89251609D01*
X168441879Y-89251609D01*
X168441879Y-89251610D01*
X168460919Y-89408428D01*
X168504780Y-89524077D01*
X168516937Y-89556133D01*
X168606674Y-89686140D01*
X168724917Y-89790893D01*
X168724919Y-89790894D01*
X168864791Y-89864306D01*
X169018171Y-89902110D01*
X169018172Y-89902110D01*
X169176142Y-89902110D01*
X169329522Y-89864306D01*
X169369770Y-89843182D01*
X169469397Y-89790893D01*
X169587640Y-89686140D01*
X169677377Y-89556133D01*
X169733394Y-89408428D01*
X169752435Y-89251610D01*
X169733394Y-89094792D01*
X169732255Y-89091788D01*
X175941879Y-89091788D01*
X175941879Y-89091789D01*
X175960919Y-89248607D01*
X176013520Y-89387303D01*
X176016937Y-89396312D01*
X176106674Y-89526319D01*
X176224917Y-89631072D01*
X176224919Y-89631073D01*
X176364791Y-89704485D01*
X176518171Y-89742289D01*
X176518172Y-89742289D01*
X176676142Y-89742289D01*
X176829522Y-89704485D01*
X176864479Y-89686138D01*
X176969397Y-89631072D01*
X177087640Y-89526319D01*
X177177377Y-89396312D01*
X177233394Y-89248607D01*
X177252435Y-89091789D01*
X177252435Y-89091788D01*
X183440826Y-89091788D01*
X183440826Y-89091789D01*
X183459866Y-89248607D01*
X183512467Y-89387303D01*
X183515884Y-89396312D01*
X183605621Y-89526319D01*
X183723864Y-89631072D01*
X183723866Y-89631073D01*
X183863738Y-89704485D01*
X184017118Y-89742289D01*
X184017119Y-89742289D01*
X184175089Y-89742289D01*
X184328469Y-89704485D01*
X184363426Y-89686138D01*
X184468344Y-89631072D01*
X184586587Y-89526319D01*
X184676324Y-89396312D01*
X184732341Y-89248607D01*
X184751382Y-89091789D01*
X184732341Y-88934971D01*
X184676324Y-88787266D01*
X184586587Y-88657259D01*
X184468344Y-88552506D01*
X184468342Y-88552505D01*
X184468341Y-88552504D01*
X184328469Y-88479092D01*
X184175090Y-88441289D01*
X184175089Y-88441289D01*
X184017119Y-88441289D01*
X184017118Y-88441289D01*
X183863738Y-88479092D01*
X183723866Y-88552504D01*
X183723864Y-88552506D01*
X183626329Y-88638914D01*
X183605620Y-88657260D01*
X183515885Y-88787264D01*
X183515884Y-88787265D01*
X183459866Y-88934970D01*
X183440826Y-89091788D01*
X177252435Y-89091788D01*
X177233394Y-88934971D01*
X177177377Y-88787266D01*
X177087640Y-88657259D01*
X176969397Y-88552506D01*
X176969395Y-88552505D01*
X176969394Y-88552504D01*
X176829522Y-88479092D01*
X176676143Y-88441289D01*
X176676142Y-88441289D01*
X176518172Y-88441289D01*
X176518171Y-88441289D01*
X176364791Y-88479092D01*
X176224919Y-88552504D01*
X176224917Y-88552506D01*
X176127382Y-88638914D01*
X176106673Y-88657260D01*
X176016938Y-88787264D01*
X176016937Y-88787265D01*
X175960919Y-88934970D01*
X175941879Y-89091788D01*
X169732255Y-89091788D01*
X169677377Y-88947087D01*
X169587640Y-88817080D01*
X169469397Y-88712327D01*
X169469395Y-88712326D01*
X169469394Y-88712325D01*
X169329522Y-88638913D01*
X169176143Y-88601110D01*
X169176142Y-88601110D01*
X169018172Y-88601110D01*
X169018171Y-88601110D01*
X168864791Y-88638913D01*
X168724919Y-88712325D01*
X168606673Y-88817081D01*
X168516938Y-88947085D01*
X168516937Y-88947086D01*
X168460919Y-89094791D01*
X168441879Y-89251609D01*
X162223946Y-89251609D01*
X162204905Y-89094792D01*
X162148888Y-88947087D01*
X162059151Y-88817080D01*
X161940908Y-88712327D01*
X161940906Y-88712326D01*
X161940905Y-88712325D01*
X161801033Y-88638913D01*
X161647654Y-88601110D01*
X161647653Y-88601110D01*
X161489683Y-88601110D01*
X161489682Y-88601110D01*
X161336302Y-88638913D01*
X161196430Y-88712325D01*
X161078184Y-88817081D01*
X160988449Y-88947085D01*
X160988448Y-88947086D01*
X160932430Y-89094791D01*
X160913390Y-89251609D01*
X152743689Y-89251609D01*
X152752435Y-89179577D01*
X152733394Y-89022759D01*
X152677377Y-88875054D01*
X152587640Y-88745047D01*
X152469397Y-88640294D01*
X152469395Y-88640293D01*
X152469394Y-88640292D01*
X152329522Y-88566880D01*
X152176143Y-88529077D01*
X152176142Y-88529077D01*
X152018172Y-88529077D01*
X152018171Y-88529077D01*
X151864791Y-88566880D01*
X151724919Y-88640292D01*
X151606673Y-88745048D01*
X151516938Y-88875052D01*
X151516937Y-88875053D01*
X151460919Y-89022758D01*
X151441879Y-89179576D01*
X143252435Y-89179576D01*
X143233394Y-89022759D01*
X143177377Y-88875054D01*
X143087640Y-88745047D01*
X142969397Y-88640294D01*
X142969395Y-88640293D01*
X142969394Y-88640292D01*
X142829522Y-88566880D01*
X142676143Y-88529077D01*
X142676142Y-88529077D01*
X142518172Y-88529077D01*
X142518171Y-88529077D01*
X142364791Y-88566880D01*
X142224919Y-88640292D01*
X142106673Y-88745048D01*
X142016938Y-88875052D01*
X142016937Y-88875053D01*
X141960919Y-89022758D01*
X141941879Y-89179576D01*
X133752435Y-89179576D01*
X133733394Y-89022759D01*
X133677377Y-88875054D01*
X133587640Y-88745047D01*
X133469397Y-88640294D01*
X133469395Y-88640293D01*
X133469394Y-88640292D01*
X133329522Y-88566880D01*
X133176143Y-88529077D01*
X133176142Y-88529077D01*
X133018172Y-88529077D01*
X133018171Y-88529077D01*
X132864791Y-88566880D01*
X132724919Y-88640292D01*
X132606673Y-88745048D01*
X132516938Y-88875052D01*
X132516937Y-88875053D01*
X132460919Y-89022758D01*
X132441879Y-89179576D01*
X124252435Y-89179576D01*
X124233394Y-89022759D01*
X124177377Y-88875054D01*
X124087640Y-88745047D01*
X123969397Y-88640294D01*
X123969395Y-88640293D01*
X123969394Y-88640292D01*
X123829522Y-88566880D01*
X123676143Y-88529077D01*
X123676142Y-88529077D01*
X123518172Y-88529077D01*
X123518171Y-88529077D01*
X123364791Y-88566880D01*
X123224919Y-88640292D01*
X123106673Y-88745048D01*
X123016938Y-88875052D01*
X123016937Y-88875053D01*
X122960919Y-89022758D01*
X122941879Y-89179576D01*
X114715200Y-89179576D01*
X114704905Y-89094792D01*
X114648888Y-88947087D01*
X114559151Y-88817080D01*
X114440908Y-88712327D01*
X114440906Y-88712326D01*
X114440905Y-88712325D01*
X114301033Y-88638913D01*
X114147654Y-88601110D01*
X114147653Y-88601110D01*
X113989683Y-88601110D01*
X113989682Y-88601110D01*
X113836302Y-88638913D01*
X113696430Y-88712325D01*
X113578184Y-88817081D01*
X113488449Y-88947085D01*
X113488448Y-88947086D01*
X113432430Y-89094791D01*
X113413390Y-89251609D01*
X109705500Y-89251609D01*
X109705500Y-85499999D01*
X118344722Y-85499999D01*
X118344722Y-85500000D01*
X118363762Y-85656818D01*
X118419780Y-85804523D01*
X118509517Y-85934530D01*
X118627760Y-86039283D01*
X118627762Y-86039284D01*
X118767634Y-86112696D01*
X118921014Y-86150500D01*
X118921015Y-86150500D01*
X119078985Y-86150500D01*
X119232365Y-86112696D01*
X119372240Y-86039283D01*
X119490483Y-85934530D01*
X119580220Y-85804523D01*
X119636237Y-85656818D01*
X119655278Y-85500000D01*
X119645449Y-85419046D01*
X119636237Y-85343181D01*
X119614992Y-85287164D01*
X119580220Y-85195477D01*
X119490483Y-85065470D01*
X119399105Y-84984517D01*
X121379868Y-84984517D01*
X121379868Y-84984518D01*
X121398908Y-85141336D01*
X121454926Y-85289041D01*
X121544663Y-85419048D01*
X121662906Y-85523801D01*
X121662908Y-85523802D01*
X121802780Y-85597214D01*
X121956160Y-85635018D01*
X121956161Y-85635018D01*
X122114131Y-85635018D01*
X122267511Y-85597214D01*
X122407386Y-85523801D01*
X122525629Y-85419048D01*
X122615366Y-85289041D01*
X122671383Y-85141336D01*
X122690424Y-84984518D01*
X122690424Y-84984517D01*
X130879868Y-84984517D01*
X130879868Y-84984518D01*
X130898908Y-85141336D01*
X130954926Y-85289041D01*
X131044663Y-85419048D01*
X131162906Y-85523801D01*
X131162908Y-85523802D01*
X131302780Y-85597214D01*
X131456160Y-85635018D01*
X131456161Y-85635018D01*
X131614131Y-85635018D01*
X131767511Y-85597214D01*
X131907386Y-85523801D01*
X132025629Y-85419048D01*
X132115366Y-85289041D01*
X132171383Y-85141336D01*
X132190424Y-84984518D01*
X132190424Y-84984517D01*
X140379868Y-84984517D01*
X140379868Y-84984518D01*
X140398908Y-85141336D01*
X140454926Y-85289041D01*
X140544663Y-85419048D01*
X140662906Y-85523801D01*
X140662908Y-85523802D01*
X140802780Y-85597214D01*
X140956160Y-85635018D01*
X140956161Y-85635018D01*
X141114131Y-85635018D01*
X141267511Y-85597214D01*
X141407386Y-85523801D01*
X141525629Y-85419048D01*
X141615366Y-85289041D01*
X141671383Y-85141336D01*
X141688544Y-84999999D01*
X159344722Y-84999999D01*
X159344722Y-85000000D01*
X159363762Y-85156818D01*
X159378424Y-85195477D01*
X159419780Y-85304523D01*
X159509517Y-85434530D01*
X159627760Y-85539283D01*
X159627762Y-85539284D01*
X159767634Y-85612696D01*
X159921014Y-85650500D01*
X159921015Y-85650500D01*
X160078985Y-85650500D01*
X160232365Y-85612696D01*
X160261863Y-85597214D01*
X160372240Y-85539283D01*
X160490483Y-85434530D01*
X160580220Y-85304523D01*
X160636237Y-85156818D01*
X160655278Y-85000000D01*
X160651314Y-84967349D01*
X160636237Y-84843181D01*
X160614992Y-84787164D01*
X160580220Y-84695477D01*
X160490483Y-84565470D01*
X160416581Y-84499999D01*
X166344722Y-84499999D01*
X166344722Y-84500000D01*
X166363762Y-84656818D01*
X166378424Y-84695477D01*
X166419780Y-84804523D01*
X166509517Y-84934530D01*
X166627760Y-85039283D01*
X166627762Y-85039284D01*
X166767634Y-85112696D01*
X166921014Y-85150500D01*
X166921015Y-85150500D01*
X167078985Y-85150500D01*
X167232365Y-85112696D01*
X167248636Y-85104156D01*
X167372240Y-85039283D01*
X167490483Y-84934530D01*
X167580220Y-84804523D01*
X167636237Y-84656818D01*
X167655278Y-84500000D01*
X167639715Y-84371822D01*
X167636237Y-84343181D01*
X167614992Y-84287164D01*
X167580220Y-84195477D01*
X167490483Y-84065470D01*
X167416581Y-83999999D01*
X171344722Y-83999999D01*
X171344722Y-84000000D01*
X171363762Y-84156818D01*
X171378424Y-84195477D01*
X171419780Y-84304523D01*
X171509517Y-84434530D01*
X171627760Y-84539283D01*
X171627762Y-84539284D01*
X171767634Y-84612696D01*
X171921014Y-84650500D01*
X171921015Y-84650500D01*
X172078985Y-84650500D01*
X172232365Y-84612696D01*
X172372240Y-84539283D01*
X172416583Y-84499999D01*
X176844722Y-84499999D01*
X176844722Y-84500000D01*
X176863762Y-84656818D01*
X176878424Y-84695477D01*
X176919780Y-84804523D01*
X177009517Y-84934530D01*
X177127760Y-85039283D01*
X177127762Y-85039284D01*
X177267634Y-85112696D01*
X177421014Y-85150500D01*
X177421015Y-85150500D01*
X177578985Y-85150500D01*
X177732365Y-85112696D01*
X177748636Y-85104156D01*
X177872240Y-85039283D01*
X177990483Y-84934530D01*
X178080220Y-84804523D01*
X178136237Y-84656818D01*
X178155278Y-84500000D01*
X178139715Y-84371822D01*
X178136237Y-84343181D01*
X178114992Y-84287164D01*
X178080220Y-84195477D01*
X177990483Y-84065470D01*
X177872240Y-83960717D01*
X177872238Y-83960716D01*
X177872237Y-83960715D01*
X177732365Y-83887303D01*
X177578986Y-83849500D01*
X177578985Y-83849500D01*
X177421015Y-83849500D01*
X177421014Y-83849500D01*
X177267634Y-83887303D01*
X177127762Y-83960715D01*
X177009516Y-84065471D01*
X176919781Y-84195475D01*
X176919780Y-84195476D01*
X176863762Y-84343181D01*
X176844722Y-84499999D01*
X172416583Y-84499999D01*
X172490483Y-84434530D01*
X172580220Y-84304523D01*
X172636237Y-84156818D01*
X172655278Y-84000000D01*
X172636237Y-83843182D01*
X172580220Y-83695477D01*
X172490483Y-83565470D01*
X172372240Y-83460717D01*
X172372238Y-83460716D01*
X172372237Y-83460715D01*
X172232365Y-83387303D01*
X172078986Y-83349500D01*
X172078985Y-83349500D01*
X171921015Y-83349500D01*
X171921014Y-83349500D01*
X171767634Y-83387303D01*
X171627762Y-83460715D01*
X171509516Y-83565471D01*
X171419781Y-83695475D01*
X171419780Y-83695476D01*
X171363762Y-83843181D01*
X171344722Y-83999999D01*
X167416581Y-83999999D01*
X167372240Y-83960717D01*
X167372238Y-83960716D01*
X167372237Y-83960715D01*
X167232365Y-83887303D01*
X167078986Y-83849500D01*
X167078985Y-83849500D01*
X166921015Y-83849500D01*
X166921014Y-83849500D01*
X166767634Y-83887303D01*
X166627762Y-83960715D01*
X166509516Y-84065471D01*
X166419781Y-84195475D01*
X166419780Y-84195476D01*
X166363762Y-84343181D01*
X166344722Y-84499999D01*
X160416581Y-84499999D01*
X160372240Y-84460717D01*
X160372238Y-84460716D01*
X160372237Y-84460715D01*
X160232365Y-84387303D01*
X160078986Y-84349500D01*
X160078985Y-84349500D01*
X159921015Y-84349500D01*
X159921014Y-84349500D01*
X159767634Y-84387303D01*
X159627762Y-84460715D01*
X159509516Y-84565471D01*
X159419781Y-84695475D01*
X159419780Y-84695476D01*
X159363762Y-84843181D01*
X159344722Y-84999999D01*
X141688544Y-84999999D01*
X141690424Y-84984518D01*
X141684355Y-84934530D01*
X141671383Y-84827699D01*
X141650138Y-84771682D01*
X141615366Y-84679995D01*
X141525629Y-84549988D01*
X141407386Y-84445235D01*
X141407384Y-84445234D01*
X141407383Y-84445233D01*
X141267511Y-84371821D01*
X141114132Y-84334018D01*
X141114131Y-84334018D01*
X140956161Y-84334018D01*
X140956160Y-84334018D01*
X140802780Y-84371821D01*
X140662908Y-84445233D01*
X140601088Y-84500000D01*
X140556746Y-84539284D01*
X140544662Y-84549989D01*
X140454927Y-84679993D01*
X140454926Y-84679994D01*
X140398908Y-84827699D01*
X140379868Y-84984517D01*
X132190424Y-84984517D01*
X132184355Y-84934530D01*
X132171383Y-84827699D01*
X132150138Y-84771682D01*
X132115366Y-84679995D01*
X132025629Y-84549988D01*
X131907386Y-84445235D01*
X131907384Y-84445234D01*
X131907383Y-84445233D01*
X131767511Y-84371821D01*
X131614132Y-84334018D01*
X131614131Y-84334018D01*
X131456161Y-84334018D01*
X131456160Y-84334018D01*
X131302780Y-84371821D01*
X131162908Y-84445233D01*
X131101088Y-84500000D01*
X131056746Y-84539284D01*
X131044662Y-84549989D01*
X130954927Y-84679993D01*
X130954926Y-84679994D01*
X130898908Y-84827699D01*
X130879868Y-84984517D01*
X122690424Y-84984517D01*
X122684355Y-84934530D01*
X122671383Y-84827699D01*
X122650138Y-84771682D01*
X122615366Y-84679995D01*
X122525629Y-84549988D01*
X122407386Y-84445235D01*
X122407384Y-84445234D01*
X122407383Y-84445233D01*
X122267511Y-84371821D01*
X122114132Y-84334018D01*
X122114131Y-84334018D01*
X121956161Y-84334018D01*
X121956160Y-84334018D01*
X121802780Y-84371821D01*
X121662908Y-84445233D01*
X121601088Y-84500000D01*
X121556746Y-84539284D01*
X121544662Y-84549989D01*
X121454927Y-84679993D01*
X121454926Y-84679994D01*
X121398908Y-84827699D01*
X121379868Y-84984517D01*
X119399105Y-84984517D01*
X119372240Y-84960717D01*
X119372238Y-84960716D01*
X119372237Y-84960715D01*
X119232365Y-84887303D01*
X119078986Y-84849500D01*
X119078985Y-84849500D01*
X118921015Y-84849500D01*
X118921014Y-84849500D01*
X118767634Y-84887303D01*
X118627762Y-84960715D01*
X118509516Y-85065471D01*
X118419781Y-85195475D01*
X118419780Y-85195476D01*
X118363762Y-85343181D01*
X118344722Y-85499999D01*
X109705500Y-85499999D01*
X109705500Y-83499999D01*
X141344722Y-83499999D01*
X141344722Y-83500000D01*
X141363762Y-83656818D01*
X141378424Y-83695477D01*
X141419780Y-83804523D01*
X141509517Y-83934530D01*
X141627760Y-84039283D01*
X141627762Y-84039284D01*
X141767634Y-84112696D01*
X141921014Y-84150500D01*
X141921015Y-84150500D01*
X142078985Y-84150500D01*
X142232365Y-84112696D01*
X142372240Y-84039283D01*
X142490483Y-83934530D01*
X142580220Y-83804523D01*
X142636237Y-83656818D01*
X142655278Y-83500000D01*
X142636237Y-83343182D01*
X142580220Y-83195477D01*
X142490483Y-83065470D01*
X142372240Y-82960717D01*
X142372238Y-82960716D01*
X142372237Y-82960715D01*
X142232365Y-82887303D01*
X142078986Y-82849500D01*
X142078985Y-82849500D01*
X141921015Y-82849500D01*
X141921014Y-82849500D01*
X141767634Y-82887303D01*
X141627762Y-82960715D01*
X141509516Y-83065471D01*
X141419781Y-83195475D01*
X141419780Y-83195476D01*
X141363762Y-83343181D01*
X141344722Y-83499999D01*
X109705500Y-83499999D01*
X109705500Y-80499999D01*
X178844722Y-80499999D01*
X178844722Y-80500000D01*
X178863762Y-80656818D01*
X178919780Y-80804523D01*
X179009517Y-80934530D01*
X179127760Y-81039283D01*
X179127762Y-81039284D01*
X179267634Y-81112696D01*
X179421014Y-81150500D01*
X179421015Y-81150500D01*
X179578985Y-81150500D01*
X179732365Y-81112696D01*
X179872240Y-81039283D01*
X179990483Y-80934530D01*
X180080220Y-80804523D01*
X180136237Y-80656818D01*
X180155278Y-80500000D01*
X180136237Y-80343182D01*
X180080220Y-80195477D01*
X179990483Y-80065470D01*
X179872240Y-79960717D01*
X179872238Y-79960716D01*
X179872237Y-79960715D01*
X179732365Y-79887303D01*
X179578986Y-79849500D01*
X179578985Y-79849500D01*
X179421015Y-79849500D01*
X179421014Y-79849500D01*
X179267634Y-79887303D01*
X179127762Y-79960715D01*
X179009516Y-80065471D01*
X178919781Y-80195475D01*
X178919780Y-80195476D01*
X178863762Y-80343181D01*
X178844722Y-80499999D01*
X109705500Y-80499999D01*
X109705500Y-79499999D01*
X112344722Y-79499999D01*
X112344722Y-79500000D01*
X112363762Y-79656818D01*
X112419780Y-79804523D01*
X112509517Y-79934530D01*
X112627760Y-80039283D01*
X112627762Y-80039284D01*
X112767634Y-80112696D01*
X112921014Y-80150500D01*
X112921015Y-80150500D01*
X113078985Y-80150500D01*
X113232365Y-80112696D01*
X113372240Y-80039283D01*
X113490483Y-79934530D01*
X113580220Y-79804523D01*
X113636237Y-79656818D01*
X113655278Y-79500000D01*
X113643481Y-79402842D01*
X183024299Y-79402842D01*
X183024299Y-79402843D01*
X183043339Y-79559661D01*
X183099357Y-79707366D01*
X183189094Y-79837373D01*
X183307337Y-79942126D01*
X183307339Y-79942127D01*
X183447211Y-80015539D01*
X183600591Y-80053343D01*
X183600592Y-80053343D01*
X183758562Y-80053343D01*
X183911942Y-80015539D01*
X184051817Y-79942126D01*
X184170060Y-79837373D01*
X184259797Y-79707366D01*
X184315814Y-79559661D01*
X184334855Y-79402843D01*
X184315814Y-79246025D01*
X184259797Y-79098320D01*
X184170060Y-78968313D01*
X184051817Y-78863560D01*
X184051815Y-78863559D01*
X184051814Y-78863558D01*
X183911942Y-78790146D01*
X183758563Y-78752343D01*
X183758562Y-78752343D01*
X183600592Y-78752343D01*
X183600591Y-78752343D01*
X183447211Y-78790146D01*
X183307339Y-78863558D01*
X183307337Y-78863560D01*
X183197671Y-78960715D01*
X183189093Y-78968314D01*
X183099358Y-79098318D01*
X183099357Y-79098319D01*
X183043339Y-79246024D01*
X183024299Y-79402842D01*
X113643481Y-79402842D01*
X113636237Y-79343182D01*
X113580220Y-79195477D01*
X113490483Y-79065470D01*
X113372240Y-78960717D01*
X113372238Y-78960716D01*
X113372237Y-78960715D01*
X113232365Y-78887303D01*
X113078986Y-78849500D01*
X113078985Y-78849500D01*
X112921015Y-78849500D01*
X112921014Y-78849500D01*
X112767634Y-78887303D01*
X112627762Y-78960715D01*
X112509516Y-79065471D01*
X112419781Y-79195475D01*
X112419780Y-79195476D01*
X112363762Y-79343181D01*
X112344722Y-79499999D01*
X109705500Y-79499999D01*
X109705500Y-78249999D01*
X171344722Y-78249999D01*
X171344722Y-78250000D01*
X171363762Y-78406818D01*
X171419780Y-78554523D01*
X171509517Y-78684530D01*
X171627760Y-78789283D01*
X171627762Y-78789284D01*
X171767634Y-78862696D01*
X171921014Y-78900500D01*
X171921015Y-78900500D01*
X172078985Y-78900500D01*
X172232365Y-78862696D01*
X172372240Y-78789283D01*
X172490483Y-78684530D01*
X172580220Y-78554523D01*
X172636237Y-78406818D01*
X172655278Y-78250000D01*
X172636237Y-78093182D01*
X172580220Y-77945477D01*
X172490483Y-77815470D01*
X172372240Y-77710717D01*
X172372238Y-77710716D01*
X172372237Y-77710715D01*
X172232365Y-77637303D01*
X172078986Y-77599500D01*
X172078985Y-77599500D01*
X171921015Y-77599500D01*
X171921014Y-77599500D01*
X171767634Y-77637303D01*
X171627762Y-77710715D01*
X171509516Y-77815471D01*
X171419781Y-77945475D01*
X171419780Y-77945476D01*
X171363762Y-78093181D01*
X171344722Y-78249999D01*
X109705500Y-78249999D01*
X109705500Y-71829500D01*
X109725185Y-71762461D01*
X109777989Y-71716706D01*
X109829500Y-71705500D01*
X119375991Y-71705500D01*
X119376000Y-71705500D01*
X119419684Y-71700803D01*
X119448875Y-71694452D01*
X119471174Y-71689602D01*
X119471190Y-71689598D01*
X119471195Y-71689597D01*
X119481373Y-71687110D01*
X119562085Y-71644100D01*
X119614889Y-71598345D01*
X119632843Y-71580754D01*
X119677490Y-71500937D01*
X119697175Y-71433898D01*
X119705500Y-71376000D01*
X119705500Y-67499999D01*
X125844722Y-67499999D01*
X125844722Y-67500000D01*
X125863762Y-67656818D01*
X125919780Y-67804523D01*
X126009517Y-67934530D01*
X126127760Y-68039283D01*
X126127762Y-68039284D01*
X126267634Y-68112696D01*
X126421014Y-68150500D01*
X126421015Y-68150500D01*
X126578985Y-68150500D01*
X126732365Y-68112696D01*
X126821141Y-68066102D01*
X126872240Y-68039283D01*
X126990483Y-67934530D01*
X127080220Y-67804523D01*
X127136237Y-67656818D01*
X127155278Y-67500000D01*
X127136237Y-67343182D01*
X127080220Y-67195477D01*
X126990483Y-67065470D01*
X126872240Y-66960717D01*
X126872238Y-66960716D01*
X126872237Y-66960715D01*
X126732365Y-66887303D01*
X126578986Y-66849500D01*
X126578985Y-66849500D01*
X126421015Y-66849500D01*
X126421014Y-66849500D01*
X126267634Y-66887303D01*
X126127762Y-66960715D01*
X126009516Y-67065471D01*
X125919781Y-67195475D01*
X125919780Y-67195476D01*
X125863762Y-67343181D01*
X125844722Y-67499999D01*
X119705500Y-67499999D01*
X119705500Y-65249999D01*
X134844722Y-65249999D01*
X134844722Y-65250000D01*
X134863762Y-65406818D01*
X134919780Y-65554523D01*
X135009517Y-65684530D01*
X135127760Y-65789283D01*
X135127762Y-65789284D01*
X135267634Y-65862696D01*
X135421014Y-65900500D01*
X135421015Y-65900500D01*
X135578985Y-65900500D01*
X135732365Y-65862696D01*
X135872240Y-65789283D01*
X135990483Y-65684530D01*
X136080220Y-65554523D01*
X136136237Y-65406818D01*
X136155278Y-65250000D01*
X136138607Y-65112696D01*
X136136237Y-65093181D01*
X136114992Y-65037164D01*
X136080220Y-64945477D01*
X135990483Y-64815470D01*
X135872240Y-64710717D01*
X135872238Y-64710716D01*
X135872237Y-64710715D01*
X135732365Y-64637303D01*
X135578986Y-64599500D01*
X135578985Y-64599500D01*
X135421015Y-64599500D01*
X135421014Y-64599500D01*
X135267634Y-64637303D01*
X135127762Y-64710715D01*
X135009516Y-64815471D01*
X134919781Y-64945475D01*
X134919780Y-64945476D01*
X134863762Y-65093181D01*
X134844722Y-65249999D01*
X119705500Y-65249999D01*
X119705500Y-64499999D01*
X125844722Y-64499999D01*
X125844722Y-64500000D01*
X125863762Y-64656818D01*
X125884203Y-64710715D01*
X125919780Y-64804523D01*
X126009517Y-64934530D01*
X126127760Y-65039283D01*
X126127762Y-65039284D01*
X126267634Y-65112696D01*
X126421014Y-65150500D01*
X126421015Y-65150500D01*
X126578985Y-65150500D01*
X126732365Y-65112696D01*
X126769547Y-65093181D01*
X126872240Y-65039283D01*
X126990483Y-64934530D01*
X127080220Y-64804523D01*
X127136237Y-64656818D01*
X127155278Y-64500000D01*
X127155278Y-64499999D01*
X140594722Y-64499999D01*
X140594722Y-64500000D01*
X140613762Y-64656818D01*
X140634203Y-64710715D01*
X140669780Y-64804523D01*
X140759517Y-64934530D01*
X140877760Y-65039283D01*
X140877762Y-65039284D01*
X141017634Y-65112696D01*
X141171014Y-65150500D01*
X141171015Y-65150500D01*
X141328985Y-65150500D01*
X141482365Y-65112696D01*
X141519547Y-65093181D01*
X141622240Y-65039283D01*
X141740483Y-64934530D01*
X141830220Y-64804523D01*
X141886237Y-64656818D01*
X141905278Y-64500000D01*
X141886237Y-64343182D01*
X141830220Y-64195477D01*
X141740483Y-64065470D01*
X141622240Y-63960717D01*
X141622238Y-63960716D01*
X141622237Y-63960715D01*
X141482365Y-63887303D01*
X141328986Y-63849500D01*
X141328985Y-63849500D01*
X141171015Y-63849500D01*
X141171014Y-63849500D01*
X141017634Y-63887303D01*
X140877762Y-63960715D01*
X140759516Y-64065471D01*
X140669781Y-64195475D01*
X140669780Y-64195476D01*
X140613762Y-64343181D01*
X140594722Y-64499999D01*
X127155278Y-64499999D01*
X127136237Y-64343182D01*
X127080220Y-64195477D01*
X126990483Y-64065470D01*
X126872240Y-63960717D01*
X126872238Y-63960716D01*
X126872237Y-63960715D01*
X126732365Y-63887303D01*
X126578986Y-63849500D01*
X126578985Y-63849500D01*
X126421015Y-63849500D01*
X126421014Y-63849500D01*
X126267634Y-63887303D01*
X126127762Y-63960715D01*
X126009516Y-64065471D01*
X125919781Y-64195475D01*
X125919780Y-64195476D01*
X125863762Y-64343181D01*
X125844722Y-64499999D01*
X119705500Y-64499999D01*
X119705500Y-62124000D01*
X119700803Y-62080316D01*
X119696897Y-62062364D01*
X119689602Y-62028825D01*
X119689348Y-62027789D01*
X119687110Y-62018627D01*
X119644100Y-61937915D01*
X119598345Y-61885111D01*
X119598339Y-61885104D01*
X119580757Y-61867160D01*
X119580756Y-61867159D01*
X119580754Y-61867157D01*
X119563462Y-61857484D01*
X119514566Y-61807577D01*
X119500000Y-61749266D01*
X119500000Y-59749999D01*
X140094722Y-59749999D01*
X140094722Y-59750000D01*
X140113762Y-59906818D01*
X140149102Y-60000000D01*
X140169780Y-60054523D01*
X140259517Y-60184530D01*
X140377760Y-60289283D01*
X140377762Y-60289284D01*
X140517634Y-60362696D01*
X140671014Y-60400500D01*
X140671015Y-60400500D01*
X140828985Y-60400500D01*
X140982365Y-60362696D01*
X141122240Y-60289283D01*
X141240483Y-60184530D01*
X141330220Y-60054523D01*
X141386237Y-59906818D01*
X141405278Y-59750000D01*
X141400183Y-59708034D01*
X141386237Y-59593181D01*
X141364992Y-59537164D01*
X141330220Y-59445477D01*
X141240483Y-59315470D01*
X141122240Y-59210717D01*
X141122238Y-59210716D01*
X141122237Y-59210715D01*
X140982365Y-59137303D01*
X140828986Y-59099500D01*
X140828985Y-59099500D01*
X140671015Y-59099500D01*
X140671014Y-59099500D01*
X140517634Y-59137303D01*
X140377762Y-59210715D01*
X140259516Y-59315471D01*
X140169781Y-59445475D01*
X140169780Y-59445476D01*
X140113762Y-59593181D01*
X140094722Y-59749999D01*
X119500000Y-59749999D01*
X119500000Y-53500000D01*
X117000000Y-51000000D01*
X107500000Y-51000000D01*
X107500000Y-54170500D01*
X107480315Y-54237539D01*
X107427511Y-54283294D01*
X107376000Y-54294500D01*
X100174500Y-54294500D01*
X100107461Y-54274815D01*
X100061706Y-54222011D01*
X100050500Y-54170500D01*
X100050500Y-47900247D01*
X107319500Y-47900247D01*
X107319500Y-49639752D01*
X107331131Y-49698229D01*
X107331132Y-49698230D01*
X107375447Y-49764552D01*
X107441769Y-49808867D01*
X107441770Y-49808868D01*
X107500247Y-49820499D01*
X107500250Y-49820500D01*
X107500252Y-49820500D01*
X109239750Y-49820500D01*
X109239751Y-49820499D01*
X109254568Y-49817552D01*
X109298229Y-49808868D01*
X109298229Y-49808867D01*
X109298231Y-49808867D01*
X109364552Y-49764552D01*
X109408867Y-49698231D01*
X109408867Y-49698229D01*
X109408868Y-49698229D01*
X109420499Y-49639752D01*
X109420500Y-49639750D01*
X109420500Y-48770000D01*
X109854417Y-48770000D01*
X109874699Y-48975932D01*
X109874700Y-48975934D01*
X109934768Y-49173954D01*
X110032315Y-49356450D01*
X110056812Y-49386300D01*
X110163589Y-49516410D01*
X110260209Y-49595702D01*
X110323550Y-49647685D01*
X110506046Y-49745232D01*
X110704066Y-49805300D01*
X110704065Y-49805300D01*
X110722529Y-49807118D01*
X110910000Y-49825583D01*
X111115934Y-49805300D01*
X111313954Y-49745232D01*
X111496450Y-49647685D01*
X111656410Y-49516410D01*
X111787685Y-49356450D01*
X111885232Y-49173954D01*
X111945300Y-48975934D01*
X111965583Y-48770000D01*
X112394417Y-48770000D01*
X112414699Y-48975932D01*
X112414700Y-48975934D01*
X112474768Y-49173954D01*
X112572315Y-49356450D01*
X112596812Y-49386300D01*
X112703589Y-49516410D01*
X112800209Y-49595702D01*
X112863550Y-49647685D01*
X113046046Y-49745232D01*
X113244066Y-49805300D01*
X113244065Y-49805300D01*
X113262529Y-49807118D01*
X113450000Y-49825583D01*
X113655934Y-49805300D01*
X113853954Y-49745232D01*
X114036450Y-49647685D01*
X114196410Y-49516410D01*
X114327685Y-49356450D01*
X114425232Y-49173954D01*
X114485300Y-48975934D01*
X114505583Y-48770000D01*
X114934417Y-48770000D01*
X114954699Y-48975932D01*
X114954700Y-48975934D01*
X115014768Y-49173954D01*
X115112315Y-49356450D01*
X115136812Y-49386300D01*
X115243589Y-49516410D01*
X115340209Y-49595702D01*
X115403550Y-49647685D01*
X115586046Y-49745232D01*
X115784066Y-49805300D01*
X115784065Y-49805300D01*
X115802529Y-49807118D01*
X115990000Y-49825583D01*
X116195934Y-49805300D01*
X116393954Y-49745232D01*
X116576450Y-49647685D01*
X116736410Y-49516410D01*
X116867685Y-49356450D01*
X116965232Y-49173954D01*
X117025300Y-48975934D01*
X117045583Y-48770000D01*
X117025300Y-48564066D01*
X117011933Y-48519999D01*
X117457471Y-48519999D01*
X117457472Y-48520000D01*
X118096988Y-48520000D01*
X118064075Y-48577007D01*
X118030000Y-48704174D01*
X118030000Y-48835826D01*
X118064075Y-48962993D01*
X118096988Y-49020000D01*
X117457472Y-49020000D01*
X117499885Y-49169065D01*
X117499890Y-49169078D01*
X117590754Y-49351556D01*
X117713608Y-49514242D01*
X117864260Y-49651578D01*
X118037584Y-49758897D01*
X118227678Y-49832539D01*
X118280000Y-49842320D01*
X118280000Y-49203012D01*
X118337007Y-49235925D01*
X118464174Y-49270000D01*
X118595826Y-49270000D01*
X118722993Y-49235925D01*
X118780000Y-49203012D01*
X118780000Y-49842320D01*
X118832321Y-49832539D01*
X119022415Y-49758897D01*
X119195739Y-49651578D01*
X119346391Y-49514242D01*
X119469245Y-49351556D01*
X119560109Y-49169078D01*
X119560114Y-49169065D01*
X119602528Y-49020000D01*
X118963012Y-49020000D01*
X118995925Y-48962993D01*
X119030000Y-48835826D01*
X119030000Y-48770000D01*
X120014417Y-48770000D01*
X120034699Y-48975932D01*
X120034700Y-48975934D01*
X120094768Y-49173954D01*
X120192315Y-49356450D01*
X120216812Y-49386300D01*
X120323589Y-49516410D01*
X120420209Y-49595702D01*
X120483550Y-49647685D01*
X120666046Y-49745232D01*
X120864066Y-49805300D01*
X120864065Y-49805300D01*
X120882529Y-49807118D01*
X121070000Y-49825583D01*
X121275934Y-49805300D01*
X121473954Y-49745232D01*
X121656450Y-49647685D01*
X121816410Y-49516410D01*
X121947685Y-49356450D01*
X122045232Y-49173954D01*
X122105300Y-48975934D01*
X122125583Y-48770000D01*
X122554417Y-48770000D01*
X122574699Y-48975932D01*
X122574700Y-48975934D01*
X122634768Y-49173954D01*
X122732315Y-49356450D01*
X122756812Y-49386300D01*
X122863589Y-49516410D01*
X122960209Y-49595702D01*
X123023550Y-49647685D01*
X123206046Y-49745232D01*
X123404066Y-49805300D01*
X123404065Y-49805300D01*
X123422529Y-49807118D01*
X123610000Y-49825583D01*
X123815934Y-49805300D01*
X124013954Y-49745232D01*
X124196450Y-49647685D01*
X124356410Y-49516410D01*
X124487685Y-49356450D01*
X124585232Y-49173954D01*
X124645300Y-48975934D01*
X124665583Y-48770000D01*
X125094417Y-48770000D01*
X125114699Y-48975932D01*
X125114700Y-48975934D01*
X125174768Y-49173954D01*
X125272315Y-49356450D01*
X125296812Y-49386300D01*
X125403589Y-49516410D01*
X125500209Y-49595702D01*
X125563550Y-49647685D01*
X125746046Y-49745232D01*
X125944066Y-49805300D01*
X125944065Y-49805300D01*
X125962529Y-49807118D01*
X126150000Y-49825583D01*
X126355934Y-49805300D01*
X126553954Y-49745232D01*
X126736450Y-49647685D01*
X126896410Y-49516410D01*
X127027685Y-49356450D01*
X127125232Y-49173954D01*
X127185300Y-48975934D01*
X127205583Y-48770000D01*
X127634417Y-48770000D01*
X127654699Y-48975932D01*
X127654700Y-48975934D01*
X127714768Y-49173954D01*
X127812315Y-49356450D01*
X127836812Y-49386300D01*
X127943589Y-49516410D01*
X128040209Y-49595702D01*
X128103550Y-49647685D01*
X128286046Y-49745232D01*
X128484066Y-49805300D01*
X128484065Y-49805300D01*
X128502529Y-49807118D01*
X128690000Y-49825583D01*
X128895934Y-49805300D01*
X129093954Y-49745232D01*
X129276450Y-49647685D01*
X129436410Y-49516410D01*
X129567685Y-49356450D01*
X129665232Y-49173954D01*
X129725300Y-48975934D01*
X129745583Y-48770000D01*
X130174417Y-48770000D01*
X130194699Y-48975932D01*
X130194700Y-48975934D01*
X130254768Y-49173954D01*
X130352315Y-49356450D01*
X130376812Y-49386300D01*
X130483589Y-49516410D01*
X130580209Y-49595702D01*
X130643550Y-49647685D01*
X130826046Y-49745232D01*
X131024066Y-49805300D01*
X131024065Y-49805300D01*
X131042529Y-49807118D01*
X131230000Y-49825583D01*
X131435934Y-49805300D01*
X131633954Y-49745232D01*
X131816450Y-49647685D01*
X131976410Y-49516410D01*
X132107685Y-49356450D01*
X132205232Y-49173954D01*
X132265300Y-48975934D01*
X132285583Y-48770000D01*
X132714417Y-48770000D01*
X132734699Y-48975932D01*
X132734700Y-48975934D01*
X132794768Y-49173954D01*
X132892315Y-49356450D01*
X132916812Y-49386300D01*
X133023589Y-49516410D01*
X133120209Y-49595702D01*
X133183550Y-49647685D01*
X133366046Y-49745232D01*
X133564066Y-49805300D01*
X133564065Y-49805300D01*
X133582529Y-49807118D01*
X133770000Y-49825583D01*
X133975934Y-49805300D01*
X134173954Y-49745232D01*
X134356450Y-49647685D01*
X134516410Y-49516410D01*
X134647685Y-49356450D01*
X134745232Y-49173954D01*
X134805300Y-48975934D01*
X134825583Y-48770000D01*
X135254417Y-48770000D01*
X135274699Y-48975932D01*
X135274700Y-48975934D01*
X135334768Y-49173954D01*
X135432315Y-49356450D01*
X135456812Y-49386300D01*
X135563589Y-49516410D01*
X135660209Y-49595702D01*
X135723550Y-49647685D01*
X135906046Y-49745232D01*
X136104066Y-49805300D01*
X136104065Y-49805300D01*
X136122529Y-49807118D01*
X136310000Y-49825583D01*
X136515934Y-49805300D01*
X136713954Y-49745232D01*
X136896450Y-49647685D01*
X137056410Y-49516410D01*
X137187685Y-49356450D01*
X137285232Y-49173954D01*
X137345300Y-48975934D01*
X137365583Y-48770000D01*
X137345300Y-48564066D01*
X137331933Y-48519999D01*
X137777471Y-48519999D01*
X137777472Y-48520000D01*
X138416988Y-48520000D01*
X138384075Y-48577007D01*
X138350000Y-48704174D01*
X138350000Y-48835826D01*
X138384075Y-48962993D01*
X138416988Y-49020000D01*
X137777472Y-49020000D01*
X137819885Y-49169065D01*
X137819890Y-49169078D01*
X137910754Y-49351556D01*
X138033608Y-49514242D01*
X138184260Y-49651578D01*
X138357584Y-49758897D01*
X138547678Y-49832539D01*
X138600000Y-49842320D01*
X138600000Y-49203012D01*
X138657007Y-49235925D01*
X138784174Y-49270000D01*
X138915826Y-49270000D01*
X139042993Y-49235925D01*
X139100000Y-49203012D01*
X139100000Y-49842320D01*
X139152321Y-49832539D01*
X139342415Y-49758897D01*
X139515739Y-49651578D01*
X139666391Y-49514242D01*
X139789245Y-49351556D01*
X139880109Y-49169078D01*
X139880114Y-49169065D01*
X139922528Y-49020000D01*
X139283012Y-49020000D01*
X139315925Y-48962993D01*
X139350000Y-48835826D01*
X139350000Y-48770000D01*
X140334417Y-48770000D01*
X140354699Y-48975932D01*
X140354700Y-48975934D01*
X140414768Y-49173954D01*
X140512315Y-49356450D01*
X140536812Y-49386300D01*
X140643589Y-49516410D01*
X140740209Y-49595702D01*
X140803550Y-49647685D01*
X140986046Y-49745232D01*
X141184066Y-49805300D01*
X141184065Y-49805300D01*
X141202529Y-49807118D01*
X141390000Y-49825583D01*
X141595934Y-49805300D01*
X141793954Y-49745232D01*
X141976450Y-49647685D01*
X142136410Y-49516410D01*
X142267685Y-49356450D01*
X142365232Y-49173954D01*
X142425300Y-48975934D01*
X142445583Y-48770000D01*
X142874417Y-48770000D01*
X142894699Y-48975932D01*
X142894700Y-48975934D01*
X142954768Y-49173954D01*
X143052315Y-49356450D01*
X143076812Y-49386300D01*
X143183589Y-49516410D01*
X143280209Y-49595702D01*
X143343550Y-49647685D01*
X143526046Y-49745232D01*
X143724066Y-49805300D01*
X143724065Y-49805300D01*
X143742529Y-49807118D01*
X143930000Y-49825583D01*
X144135934Y-49805300D01*
X144333954Y-49745232D01*
X144516450Y-49647685D01*
X144676410Y-49516410D01*
X144807685Y-49356450D01*
X144905232Y-49173954D01*
X144965300Y-48975934D01*
X144985583Y-48770000D01*
X145414417Y-48770000D01*
X145434699Y-48975932D01*
X145434700Y-48975934D01*
X145494768Y-49173954D01*
X145592315Y-49356450D01*
X145616812Y-49386300D01*
X145723589Y-49516410D01*
X145820209Y-49595702D01*
X145883550Y-49647685D01*
X146066046Y-49745232D01*
X146264066Y-49805300D01*
X146264065Y-49805300D01*
X146282529Y-49807118D01*
X146470000Y-49825583D01*
X146675934Y-49805300D01*
X146873954Y-49745232D01*
X147056450Y-49647685D01*
X147216410Y-49516410D01*
X147347685Y-49356450D01*
X147445232Y-49173954D01*
X147505300Y-48975934D01*
X147525583Y-48770000D01*
X147954417Y-48770000D01*
X147974699Y-48975932D01*
X147974700Y-48975934D01*
X148034768Y-49173954D01*
X148132315Y-49356450D01*
X148156812Y-49386300D01*
X148263589Y-49516410D01*
X148360209Y-49595702D01*
X148423550Y-49647685D01*
X148606046Y-49745232D01*
X148804066Y-49805300D01*
X148804065Y-49805300D01*
X148822529Y-49807118D01*
X149010000Y-49825583D01*
X149215934Y-49805300D01*
X149413954Y-49745232D01*
X149596450Y-49647685D01*
X149756410Y-49516410D01*
X149887685Y-49356450D01*
X149985232Y-49173954D01*
X150045300Y-48975934D01*
X150065583Y-48770000D01*
X150494417Y-48770000D01*
X150514699Y-48975932D01*
X150514700Y-48975934D01*
X150574768Y-49173954D01*
X150672315Y-49356450D01*
X150696812Y-49386300D01*
X150803589Y-49516410D01*
X150900209Y-49595702D01*
X150963550Y-49647685D01*
X151146046Y-49745232D01*
X151344066Y-49805300D01*
X151344065Y-49805300D01*
X151362529Y-49807118D01*
X151550000Y-49825583D01*
X151755934Y-49805300D01*
X151953954Y-49745232D01*
X152136450Y-49647685D01*
X152296410Y-49516410D01*
X152427685Y-49356450D01*
X152525232Y-49173954D01*
X152585300Y-48975934D01*
X152605583Y-48770000D01*
X153034417Y-48770000D01*
X153054699Y-48975932D01*
X153054700Y-48975934D01*
X153114768Y-49173954D01*
X153212315Y-49356450D01*
X153236812Y-49386300D01*
X153343589Y-49516410D01*
X153440209Y-49595702D01*
X153503550Y-49647685D01*
X153686046Y-49745232D01*
X153884066Y-49805300D01*
X153884065Y-49805300D01*
X153902529Y-49807118D01*
X154090000Y-49825583D01*
X154295934Y-49805300D01*
X154493954Y-49745232D01*
X154676450Y-49647685D01*
X154836410Y-49516410D01*
X154967685Y-49356450D01*
X155065232Y-49173954D01*
X155125300Y-48975934D01*
X155145583Y-48770000D01*
X155125300Y-48564066D01*
X155111933Y-48519999D01*
X155557471Y-48519999D01*
X155557472Y-48520000D01*
X156196988Y-48520000D01*
X156164075Y-48577007D01*
X156130000Y-48704174D01*
X156130000Y-48835826D01*
X156164075Y-48962993D01*
X156196988Y-49020000D01*
X155557472Y-49020000D01*
X155599885Y-49169065D01*
X155599890Y-49169078D01*
X155690754Y-49351556D01*
X155813608Y-49514242D01*
X155964260Y-49651578D01*
X156137584Y-49758897D01*
X156327678Y-49832539D01*
X156380000Y-49842320D01*
X156380000Y-49203012D01*
X156437007Y-49235925D01*
X156564174Y-49270000D01*
X156695826Y-49270000D01*
X156822993Y-49235925D01*
X156880000Y-49203012D01*
X156880000Y-49842320D01*
X156932321Y-49832539D01*
X157122415Y-49758897D01*
X157295739Y-49651578D01*
X157446391Y-49514242D01*
X157569245Y-49351556D01*
X157660109Y-49169078D01*
X157660114Y-49169065D01*
X157702528Y-49020000D01*
X157063012Y-49020000D01*
X157095925Y-48962993D01*
X157130000Y-48835826D01*
X157130000Y-48704174D01*
X157095925Y-48577007D01*
X157063012Y-48520000D01*
X157702528Y-48520000D01*
X157702528Y-48519999D01*
X157660114Y-48370934D01*
X157660109Y-48370921D01*
X157569245Y-48188443D01*
X157446391Y-48025757D01*
X157295739Y-47888421D01*
X157122413Y-47781101D01*
X156932315Y-47707458D01*
X156932309Y-47707456D01*
X156880001Y-47697677D01*
X156880000Y-47697679D01*
X156880000Y-48336988D01*
X156822993Y-48304075D01*
X156695826Y-48270000D01*
X156564174Y-48270000D01*
X156437007Y-48304075D01*
X156380000Y-48336988D01*
X156380000Y-47697679D01*
X156379998Y-47697677D01*
X156327690Y-47707456D01*
X156327684Y-47707458D01*
X156137586Y-47781101D01*
X155964260Y-47888421D01*
X155813608Y-48025757D01*
X155690754Y-48188443D01*
X155599890Y-48370921D01*
X155599885Y-48370934D01*
X155557471Y-48519999D01*
X155111933Y-48519999D01*
X155065232Y-48366046D01*
X154967685Y-48183550D01*
X154915702Y-48120209D01*
X154836410Y-48023589D01*
X154686121Y-47900252D01*
X154676450Y-47892315D01*
X154493954Y-47794768D01*
X154295934Y-47734700D01*
X154295932Y-47734699D01*
X154295934Y-47734699D01*
X154090000Y-47714417D01*
X153884067Y-47734699D01*
X153686043Y-47794769D01*
X153598114Y-47841769D01*
X153503550Y-47892315D01*
X153503548Y-47892316D01*
X153503547Y-47892317D01*
X153343589Y-48023589D01*
X153212317Y-48183547D01*
X153212315Y-48183550D01*
X153173643Y-48255898D01*
X153114769Y-48366043D01*
X153054699Y-48564067D01*
X153034417Y-48770000D01*
X152605583Y-48770000D01*
X152585300Y-48564066D01*
X152525232Y-48366046D01*
X152427685Y-48183550D01*
X152375702Y-48120209D01*
X152296410Y-48023589D01*
X152146121Y-47900252D01*
X152136450Y-47892315D01*
X151953954Y-47794768D01*
X151755934Y-47734700D01*
X151755932Y-47734699D01*
X151755934Y-47734699D01*
X151550000Y-47714417D01*
X151344067Y-47734699D01*
X151146043Y-47794769D01*
X151058114Y-47841769D01*
X150963550Y-47892315D01*
X150963548Y-47892316D01*
X150963547Y-47892317D01*
X150803589Y-48023589D01*
X150672317Y-48183547D01*
X150672315Y-48183550D01*
X150633643Y-48255898D01*
X150574769Y-48366043D01*
X150514699Y-48564067D01*
X150494417Y-48770000D01*
X150065583Y-48770000D01*
X150045300Y-48564066D01*
X149985232Y-48366046D01*
X149887685Y-48183550D01*
X149835702Y-48120209D01*
X149756410Y-48023589D01*
X149606121Y-47900252D01*
X149596450Y-47892315D01*
X149413954Y-47794768D01*
X149215934Y-47734700D01*
X149215932Y-47734699D01*
X149215934Y-47734699D01*
X149010000Y-47714417D01*
X148804067Y-47734699D01*
X148606043Y-47794769D01*
X148518114Y-47841769D01*
X148423550Y-47892315D01*
X148423548Y-47892316D01*
X148423547Y-47892317D01*
X148263589Y-48023589D01*
X148132317Y-48183547D01*
X148132315Y-48183550D01*
X148093643Y-48255898D01*
X148034769Y-48366043D01*
X147974699Y-48564067D01*
X147954417Y-48770000D01*
X147525583Y-48770000D01*
X147505300Y-48564066D01*
X147445232Y-48366046D01*
X147347685Y-48183550D01*
X147295702Y-48120209D01*
X147216410Y-48023589D01*
X147066121Y-47900252D01*
X147056450Y-47892315D01*
X146873954Y-47794768D01*
X146675934Y-47734700D01*
X146675932Y-47734699D01*
X146675934Y-47734699D01*
X146470000Y-47714417D01*
X146264067Y-47734699D01*
X146066043Y-47794769D01*
X145978114Y-47841769D01*
X145883550Y-47892315D01*
X145883548Y-47892316D01*
X145883547Y-47892317D01*
X145723589Y-48023589D01*
X145592317Y-48183547D01*
X145592315Y-48183550D01*
X145553643Y-48255898D01*
X145494769Y-48366043D01*
X145434699Y-48564067D01*
X145414417Y-48770000D01*
X144985583Y-48770000D01*
X144965300Y-48564066D01*
X144905232Y-48366046D01*
X144807685Y-48183550D01*
X144755702Y-48120209D01*
X144676410Y-48023589D01*
X144526121Y-47900252D01*
X144516450Y-47892315D01*
X144333954Y-47794768D01*
X144135934Y-47734700D01*
X144135932Y-47734699D01*
X144135934Y-47734699D01*
X143930000Y-47714417D01*
X143724067Y-47734699D01*
X143526043Y-47794769D01*
X143438114Y-47841769D01*
X143343550Y-47892315D01*
X143343548Y-47892316D01*
X143343547Y-47892317D01*
X143183589Y-48023589D01*
X143052317Y-48183547D01*
X143052315Y-48183550D01*
X143013643Y-48255898D01*
X142954769Y-48366043D01*
X142894699Y-48564067D01*
X142874417Y-48770000D01*
X142445583Y-48770000D01*
X142425300Y-48564066D01*
X142365232Y-48366046D01*
X142267685Y-48183550D01*
X142215702Y-48120209D01*
X142136410Y-48023589D01*
X141986121Y-47900252D01*
X141976450Y-47892315D01*
X141793954Y-47794768D01*
X141595934Y-47734700D01*
X141595932Y-47734699D01*
X141595934Y-47734699D01*
X141390000Y-47714417D01*
X141184067Y-47734699D01*
X140986043Y-47794769D01*
X140898114Y-47841769D01*
X140803550Y-47892315D01*
X140803548Y-47892316D01*
X140803547Y-47892317D01*
X140643589Y-48023589D01*
X140512317Y-48183547D01*
X140512315Y-48183550D01*
X140473643Y-48255898D01*
X140414769Y-48366043D01*
X140354699Y-48564067D01*
X140334417Y-48770000D01*
X139350000Y-48770000D01*
X139350000Y-48704174D01*
X139315925Y-48577007D01*
X139283012Y-48520000D01*
X139922528Y-48520000D01*
X139922528Y-48519999D01*
X139880114Y-48370934D01*
X139880109Y-48370921D01*
X139789245Y-48188443D01*
X139666391Y-48025757D01*
X139515739Y-47888421D01*
X139342413Y-47781101D01*
X139152315Y-47707458D01*
X139152309Y-47707456D01*
X139100001Y-47697677D01*
X139100000Y-47697679D01*
X139100000Y-48336988D01*
X139042993Y-48304075D01*
X138915826Y-48270000D01*
X138784174Y-48270000D01*
X138657007Y-48304075D01*
X138600000Y-48336988D01*
X138600000Y-47697679D01*
X138599998Y-47697677D01*
X138547690Y-47707456D01*
X138547684Y-47707458D01*
X138357586Y-47781101D01*
X138184260Y-47888421D01*
X138033608Y-48025757D01*
X137910754Y-48188443D01*
X137819890Y-48370921D01*
X137819885Y-48370934D01*
X137777471Y-48519999D01*
X137331933Y-48519999D01*
X137285232Y-48366046D01*
X137187685Y-48183550D01*
X137135702Y-48120209D01*
X137056410Y-48023589D01*
X136906121Y-47900252D01*
X136896450Y-47892315D01*
X136713954Y-47794768D01*
X136515934Y-47734700D01*
X136515932Y-47734699D01*
X136515934Y-47734699D01*
X136310000Y-47714417D01*
X136104067Y-47734699D01*
X135906043Y-47794769D01*
X135818114Y-47841769D01*
X135723550Y-47892315D01*
X135723548Y-47892316D01*
X135723547Y-47892317D01*
X135563589Y-48023589D01*
X135432317Y-48183547D01*
X135432315Y-48183550D01*
X135393643Y-48255898D01*
X135334769Y-48366043D01*
X135274699Y-48564067D01*
X135254417Y-48770000D01*
X134825583Y-48770000D01*
X134805300Y-48564066D01*
X134745232Y-48366046D01*
X134647685Y-48183550D01*
X134595702Y-48120209D01*
X134516410Y-48023589D01*
X134366121Y-47900252D01*
X134356450Y-47892315D01*
X134173954Y-47794768D01*
X133975934Y-47734700D01*
X133975932Y-47734699D01*
X133975934Y-47734699D01*
X133770000Y-47714417D01*
X133564067Y-47734699D01*
X133366043Y-47794769D01*
X133278114Y-47841769D01*
X133183550Y-47892315D01*
X133183548Y-47892316D01*
X133183547Y-47892317D01*
X133023589Y-48023589D01*
X132892317Y-48183547D01*
X132892315Y-48183550D01*
X132853643Y-48255898D01*
X132794769Y-48366043D01*
X132734699Y-48564067D01*
X132714417Y-48770000D01*
X132285583Y-48770000D01*
X132265300Y-48564066D01*
X132205232Y-48366046D01*
X132107685Y-48183550D01*
X132055702Y-48120209D01*
X131976410Y-48023589D01*
X131826121Y-47900252D01*
X131816450Y-47892315D01*
X131633954Y-47794768D01*
X131435934Y-47734700D01*
X131435932Y-47734699D01*
X131435934Y-47734699D01*
X131230000Y-47714417D01*
X131024067Y-47734699D01*
X130826043Y-47794769D01*
X130738114Y-47841769D01*
X130643550Y-47892315D01*
X130643548Y-47892316D01*
X130643547Y-47892317D01*
X130483589Y-48023589D01*
X130352317Y-48183547D01*
X130352315Y-48183550D01*
X130313643Y-48255898D01*
X130254769Y-48366043D01*
X130194699Y-48564067D01*
X130174417Y-48770000D01*
X129745583Y-48770000D01*
X129725300Y-48564066D01*
X129665232Y-48366046D01*
X129567685Y-48183550D01*
X129515702Y-48120209D01*
X129436410Y-48023589D01*
X129286121Y-47900252D01*
X129276450Y-47892315D01*
X129093954Y-47794768D01*
X128895934Y-47734700D01*
X128895932Y-47734699D01*
X128895934Y-47734699D01*
X128690000Y-47714417D01*
X128484067Y-47734699D01*
X128286043Y-47794769D01*
X128198114Y-47841769D01*
X128103550Y-47892315D01*
X128103548Y-47892316D01*
X128103547Y-47892317D01*
X127943589Y-48023589D01*
X127812317Y-48183547D01*
X127812315Y-48183550D01*
X127773643Y-48255898D01*
X127714769Y-48366043D01*
X127654699Y-48564067D01*
X127634417Y-48770000D01*
X127205583Y-48770000D01*
X127185300Y-48564066D01*
X127125232Y-48366046D01*
X127027685Y-48183550D01*
X126975702Y-48120209D01*
X126896410Y-48023589D01*
X126746121Y-47900252D01*
X126736450Y-47892315D01*
X126553954Y-47794768D01*
X126355934Y-47734700D01*
X126355932Y-47734699D01*
X126355934Y-47734699D01*
X126150000Y-47714417D01*
X125944067Y-47734699D01*
X125746043Y-47794769D01*
X125658114Y-47841769D01*
X125563550Y-47892315D01*
X125563548Y-47892316D01*
X125563547Y-47892317D01*
X125403589Y-48023589D01*
X125272317Y-48183547D01*
X125272315Y-48183550D01*
X125233643Y-48255898D01*
X125174769Y-48366043D01*
X125114699Y-48564067D01*
X125094417Y-48770000D01*
X124665583Y-48770000D01*
X124645300Y-48564066D01*
X124585232Y-48366046D01*
X124487685Y-48183550D01*
X124435702Y-48120209D01*
X124356410Y-48023589D01*
X124206121Y-47900252D01*
X124196450Y-47892315D01*
X124013954Y-47794768D01*
X123815934Y-47734700D01*
X123815932Y-47734699D01*
X123815934Y-47734699D01*
X123610000Y-47714417D01*
X123404067Y-47734699D01*
X123206043Y-47794769D01*
X123118114Y-47841769D01*
X123023550Y-47892315D01*
X123023548Y-47892316D01*
X123023547Y-47892317D01*
X122863589Y-48023589D01*
X122732317Y-48183547D01*
X122732315Y-48183550D01*
X122693643Y-48255898D01*
X122634769Y-48366043D01*
X122574699Y-48564067D01*
X122554417Y-48770000D01*
X122125583Y-48770000D01*
X122105300Y-48564066D01*
X122045232Y-48366046D01*
X121947685Y-48183550D01*
X121895702Y-48120209D01*
X121816410Y-48023589D01*
X121666121Y-47900252D01*
X121656450Y-47892315D01*
X121473954Y-47794768D01*
X121275934Y-47734700D01*
X121275932Y-47734699D01*
X121275934Y-47734699D01*
X121070000Y-47714417D01*
X120864067Y-47734699D01*
X120666043Y-47794769D01*
X120578114Y-47841769D01*
X120483550Y-47892315D01*
X120483548Y-47892316D01*
X120483547Y-47892317D01*
X120323589Y-48023589D01*
X120192317Y-48183547D01*
X120192315Y-48183550D01*
X120153643Y-48255898D01*
X120094769Y-48366043D01*
X120034699Y-48564067D01*
X120014417Y-48770000D01*
X119030000Y-48770000D01*
X119030000Y-48704174D01*
X118995925Y-48577007D01*
X118963012Y-48520000D01*
X119602528Y-48520000D01*
X119602528Y-48519999D01*
X119560114Y-48370934D01*
X119560109Y-48370921D01*
X119469245Y-48188443D01*
X119346391Y-48025757D01*
X119195739Y-47888421D01*
X119022413Y-47781101D01*
X118832315Y-47707458D01*
X118832309Y-47707456D01*
X118780001Y-47697677D01*
X118780000Y-47697679D01*
X118780000Y-48336988D01*
X118722993Y-48304075D01*
X118595826Y-48270000D01*
X118464174Y-48270000D01*
X118337007Y-48304075D01*
X118280000Y-48336988D01*
X118280000Y-47697679D01*
X118279998Y-47697677D01*
X118227690Y-47707456D01*
X118227684Y-47707458D01*
X118037586Y-47781101D01*
X117864260Y-47888421D01*
X117713608Y-48025757D01*
X117590754Y-48188443D01*
X117499890Y-48370921D01*
X117499885Y-48370934D01*
X117457471Y-48519999D01*
X117011933Y-48519999D01*
X116965232Y-48366046D01*
X116867685Y-48183550D01*
X116815702Y-48120209D01*
X116736410Y-48023589D01*
X116586121Y-47900252D01*
X116576450Y-47892315D01*
X116393954Y-47794768D01*
X116195934Y-47734700D01*
X116195932Y-47734699D01*
X116195934Y-47734699D01*
X115990000Y-47714417D01*
X115784067Y-47734699D01*
X115586043Y-47794769D01*
X115498114Y-47841769D01*
X115403550Y-47892315D01*
X115403548Y-47892316D01*
X115403547Y-47892317D01*
X115243589Y-48023589D01*
X115112317Y-48183547D01*
X115112315Y-48183550D01*
X115073643Y-48255898D01*
X115014769Y-48366043D01*
X114954699Y-48564067D01*
X114934417Y-48770000D01*
X114505583Y-48770000D01*
X114485300Y-48564066D01*
X114425232Y-48366046D01*
X114327685Y-48183550D01*
X114275702Y-48120209D01*
X114196410Y-48023589D01*
X114046121Y-47900252D01*
X114036450Y-47892315D01*
X113853954Y-47794768D01*
X113655934Y-47734700D01*
X113655932Y-47734699D01*
X113655934Y-47734699D01*
X113450000Y-47714417D01*
X113244067Y-47734699D01*
X113046043Y-47794769D01*
X112958114Y-47841769D01*
X112863550Y-47892315D01*
X112863548Y-47892316D01*
X112863547Y-47892317D01*
X112703589Y-48023589D01*
X112572317Y-48183547D01*
X112572315Y-48183550D01*
X112533643Y-48255898D01*
X112474769Y-48366043D01*
X112414699Y-48564067D01*
X112394417Y-48770000D01*
X111965583Y-48770000D01*
X111945300Y-48564066D01*
X111885232Y-48366046D01*
X111787685Y-48183550D01*
X111735702Y-48120209D01*
X111656410Y-48023589D01*
X111506121Y-47900252D01*
X111496450Y-47892315D01*
X111313954Y-47794768D01*
X111115934Y-47734700D01*
X111115932Y-47734699D01*
X111115934Y-47734699D01*
X110910000Y-47714417D01*
X110704067Y-47734699D01*
X110506043Y-47794769D01*
X110418114Y-47841769D01*
X110323550Y-47892315D01*
X110323548Y-47892316D01*
X110323547Y-47892317D01*
X110163589Y-48023589D01*
X110032317Y-48183547D01*
X110032315Y-48183550D01*
X109993643Y-48255898D01*
X109934769Y-48366043D01*
X109874699Y-48564067D01*
X109854417Y-48770000D01*
X109420500Y-48770000D01*
X109420500Y-47900249D01*
X109420499Y-47900247D01*
X109408868Y-47841770D01*
X109408867Y-47841769D01*
X109364552Y-47775447D01*
X109298230Y-47731132D01*
X109298229Y-47731131D01*
X109239752Y-47719500D01*
X109239748Y-47719500D01*
X107500252Y-47719500D01*
X107500247Y-47719500D01*
X107441770Y-47731131D01*
X107441769Y-47731132D01*
X107375447Y-47775447D01*
X107331132Y-47841769D01*
X107331131Y-47841770D01*
X107319500Y-47900247D01*
X100050500Y-47900247D01*
X100050500Y-46230000D01*
X107314417Y-46230000D01*
X107334699Y-46435932D01*
X107334700Y-46435934D01*
X107394768Y-46633954D01*
X107492315Y-46816450D01*
X107492317Y-46816452D01*
X107623589Y-46976410D01*
X107709307Y-47046756D01*
X107783550Y-47107685D01*
X107966046Y-47205232D01*
X108164066Y-47265300D01*
X108164065Y-47265300D01*
X108182529Y-47267118D01*
X108370000Y-47285583D01*
X108575934Y-47265300D01*
X108773954Y-47205232D01*
X108956450Y-47107685D01*
X109116410Y-46976410D01*
X109247685Y-46816450D01*
X109345232Y-46633954D01*
X109405300Y-46435934D01*
X109425583Y-46230000D01*
X109854417Y-46230000D01*
X109874699Y-46435932D01*
X109874700Y-46435934D01*
X109934768Y-46633954D01*
X110032315Y-46816450D01*
X110032317Y-46816452D01*
X110163589Y-46976410D01*
X110249307Y-47046756D01*
X110323550Y-47107685D01*
X110506046Y-47205232D01*
X110704066Y-47265300D01*
X110704065Y-47265300D01*
X110722529Y-47267118D01*
X110910000Y-47285583D01*
X111115934Y-47265300D01*
X111313954Y-47205232D01*
X111496450Y-47107685D01*
X111656410Y-46976410D01*
X111787685Y-46816450D01*
X111885232Y-46633954D01*
X111945300Y-46435934D01*
X111965583Y-46230000D01*
X111945300Y-46024066D01*
X111931933Y-45979999D01*
X112377471Y-45979999D01*
X112377472Y-45980000D01*
X113016988Y-45980000D01*
X112984075Y-46037007D01*
X112950000Y-46164174D01*
X112950000Y-46295826D01*
X112984075Y-46422993D01*
X113016988Y-46480000D01*
X112377472Y-46480000D01*
X112419885Y-46629065D01*
X112419890Y-46629078D01*
X112510754Y-46811556D01*
X112633608Y-46974242D01*
X112784260Y-47111578D01*
X112957584Y-47218897D01*
X113147678Y-47292539D01*
X113200000Y-47302320D01*
X113200000Y-46663012D01*
X113257007Y-46695925D01*
X113384174Y-46730000D01*
X113515826Y-46730000D01*
X113642993Y-46695925D01*
X113700000Y-46663012D01*
X113700000Y-47302320D01*
X113752321Y-47292539D01*
X113942415Y-47218897D01*
X114115739Y-47111578D01*
X114266391Y-46974242D01*
X114389245Y-46811556D01*
X114480109Y-46629078D01*
X114480114Y-46629065D01*
X114522528Y-46480000D01*
X113883012Y-46480000D01*
X113915925Y-46422993D01*
X113950000Y-46295826D01*
X113950000Y-46230000D01*
X114934417Y-46230000D01*
X114954699Y-46435932D01*
X114954700Y-46435934D01*
X115014768Y-46633954D01*
X115112315Y-46816450D01*
X115112317Y-46816452D01*
X115243589Y-46976410D01*
X115329307Y-47046756D01*
X115403550Y-47107685D01*
X115586046Y-47205232D01*
X115784066Y-47265300D01*
X115784065Y-47265300D01*
X115802529Y-47267118D01*
X115990000Y-47285583D01*
X116195934Y-47265300D01*
X116393954Y-47205232D01*
X116576450Y-47107685D01*
X116736410Y-46976410D01*
X116867685Y-46816450D01*
X116965232Y-46633954D01*
X117025300Y-46435934D01*
X117045583Y-46230000D01*
X117474417Y-46230000D01*
X117494699Y-46435932D01*
X117494700Y-46435934D01*
X117554768Y-46633954D01*
X117652315Y-46816450D01*
X117652317Y-46816452D01*
X117783589Y-46976410D01*
X117869307Y-47046756D01*
X117943550Y-47107685D01*
X118126046Y-47205232D01*
X118324066Y-47265300D01*
X118324065Y-47265300D01*
X118342529Y-47267118D01*
X118530000Y-47285583D01*
X118735934Y-47265300D01*
X118933954Y-47205232D01*
X119116450Y-47107685D01*
X119276410Y-46976410D01*
X119407685Y-46816450D01*
X119505232Y-46633954D01*
X119565300Y-46435934D01*
X119585583Y-46230000D01*
X120014417Y-46230000D01*
X120034699Y-46435932D01*
X120034700Y-46435934D01*
X120094768Y-46633954D01*
X120192315Y-46816450D01*
X120192317Y-46816452D01*
X120323589Y-46976410D01*
X120409307Y-47046756D01*
X120483550Y-47107685D01*
X120666046Y-47205232D01*
X120864066Y-47265300D01*
X120864065Y-47265300D01*
X120882529Y-47267118D01*
X121070000Y-47285583D01*
X121275934Y-47265300D01*
X121473954Y-47205232D01*
X121656450Y-47107685D01*
X121816410Y-46976410D01*
X121947685Y-46816450D01*
X122045232Y-46633954D01*
X122105300Y-46435934D01*
X122125583Y-46230000D01*
X122105300Y-46024066D01*
X122091933Y-45979999D01*
X122537471Y-45979999D01*
X122537472Y-45980000D01*
X123176988Y-45980000D01*
X123144075Y-46037007D01*
X123110000Y-46164174D01*
X123110000Y-46295826D01*
X123144075Y-46422993D01*
X123176988Y-46480000D01*
X122537472Y-46480000D01*
X122579885Y-46629065D01*
X122579890Y-46629078D01*
X122670754Y-46811556D01*
X122793608Y-46974242D01*
X122944260Y-47111578D01*
X123117584Y-47218897D01*
X123307678Y-47292539D01*
X123360000Y-47302320D01*
X123360000Y-46663012D01*
X123417007Y-46695925D01*
X123544174Y-46730000D01*
X123675826Y-46730000D01*
X123802993Y-46695925D01*
X123860000Y-46663012D01*
X123860000Y-47302320D01*
X123912321Y-47292539D01*
X124102415Y-47218897D01*
X124275739Y-47111578D01*
X124426391Y-46974242D01*
X124549245Y-46811556D01*
X124640109Y-46629078D01*
X124640114Y-46629065D01*
X124682528Y-46480000D01*
X124043012Y-46480000D01*
X124075925Y-46422993D01*
X124110000Y-46295826D01*
X124110000Y-46230000D01*
X125094417Y-46230000D01*
X125114699Y-46435932D01*
X125114700Y-46435934D01*
X125174768Y-46633954D01*
X125272315Y-46816450D01*
X125272317Y-46816452D01*
X125403589Y-46976410D01*
X125489307Y-47046756D01*
X125563550Y-47107685D01*
X125746046Y-47205232D01*
X125944066Y-47265300D01*
X125944065Y-47265300D01*
X125962529Y-47267118D01*
X126150000Y-47285583D01*
X126355934Y-47265300D01*
X126553954Y-47205232D01*
X126736450Y-47107685D01*
X126896410Y-46976410D01*
X127027685Y-46816450D01*
X127125232Y-46633954D01*
X127185300Y-46435934D01*
X127205583Y-46230000D01*
X127634417Y-46230000D01*
X127654699Y-46435932D01*
X127654700Y-46435934D01*
X127714768Y-46633954D01*
X127812315Y-46816450D01*
X127812317Y-46816452D01*
X127943589Y-46976410D01*
X128029307Y-47046756D01*
X128103550Y-47107685D01*
X128286046Y-47205232D01*
X128484066Y-47265300D01*
X128484065Y-47265300D01*
X128502529Y-47267118D01*
X128690000Y-47285583D01*
X128895934Y-47265300D01*
X129093954Y-47205232D01*
X129276450Y-47107685D01*
X129436410Y-46976410D01*
X129567685Y-46816450D01*
X129665232Y-46633954D01*
X129725300Y-46435934D01*
X129745583Y-46230000D01*
X129725300Y-46024066D01*
X129711933Y-45979999D01*
X130157471Y-45979999D01*
X130157472Y-45980000D01*
X130796988Y-45980000D01*
X130764075Y-46037007D01*
X130730000Y-46164174D01*
X130730000Y-46295826D01*
X130764075Y-46422993D01*
X130796988Y-46480000D01*
X130157472Y-46480000D01*
X130199885Y-46629065D01*
X130199890Y-46629078D01*
X130290754Y-46811556D01*
X130413608Y-46974242D01*
X130564260Y-47111578D01*
X130737584Y-47218897D01*
X130927678Y-47292539D01*
X130980000Y-47302320D01*
X130980000Y-46663012D01*
X131037007Y-46695925D01*
X131164174Y-46730000D01*
X131295826Y-46730000D01*
X131422993Y-46695925D01*
X131480000Y-46663012D01*
X131480000Y-47302320D01*
X131532321Y-47292539D01*
X131722415Y-47218897D01*
X131895739Y-47111578D01*
X132046391Y-46974242D01*
X132169245Y-46811556D01*
X132260109Y-46629078D01*
X132260114Y-46629065D01*
X132302528Y-46480000D01*
X131663012Y-46480000D01*
X131695925Y-46422993D01*
X131730000Y-46295826D01*
X131730000Y-46230000D01*
X132714417Y-46230000D01*
X132734699Y-46435932D01*
X132734700Y-46435934D01*
X132794768Y-46633954D01*
X132892315Y-46816450D01*
X132892317Y-46816452D01*
X133023589Y-46976410D01*
X133109307Y-47046756D01*
X133183550Y-47107685D01*
X133366046Y-47205232D01*
X133564066Y-47265300D01*
X133564065Y-47265300D01*
X133582529Y-47267118D01*
X133770000Y-47285583D01*
X133975934Y-47265300D01*
X134173954Y-47205232D01*
X134356450Y-47107685D01*
X134516410Y-46976410D01*
X134647685Y-46816450D01*
X134745232Y-46633954D01*
X134805300Y-46435934D01*
X134825583Y-46230000D01*
X135254417Y-46230000D01*
X135274699Y-46435932D01*
X135274700Y-46435934D01*
X135334768Y-46633954D01*
X135432315Y-46816450D01*
X135432317Y-46816452D01*
X135563589Y-46976410D01*
X135649307Y-47046756D01*
X135723550Y-47107685D01*
X135906046Y-47205232D01*
X136104066Y-47265300D01*
X136104065Y-47265300D01*
X136122529Y-47267118D01*
X136310000Y-47285583D01*
X136515934Y-47265300D01*
X136713954Y-47205232D01*
X136896450Y-47107685D01*
X137056410Y-46976410D01*
X137187685Y-46816450D01*
X137285232Y-46633954D01*
X137345300Y-46435934D01*
X137365583Y-46230000D01*
X137794417Y-46230000D01*
X137814699Y-46435932D01*
X137814700Y-46435934D01*
X137874768Y-46633954D01*
X137972315Y-46816450D01*
X137972317Y-46816452D01*
X138103589Y-46976410D01*
X138189307Y-47046756D01*
X138263550Y-47107685D01*
X138446046Y-47205232D01*
X138644066Y-47265300D01*
X138644065Y-47265300D01*
X138662529Y-47267118D01*
X138850000Y-47285583D01*
X139055934Y-47265300D01*
X139253954Y-47205232D01*
X139436450Y-47107685D01*
X139596410Y-46976410D01*
X139727685Y-46816450D01*
X139825232Y-46633954D01*
X139885300Y-46435934D01*
X139905583Y-46230000D01*
X140334417Y-46230000D01*
X140354699Y-46435932D01*
X140354700Y-46435934D01*
X140414768Y-46633954D01*
X140512315Y-46816450D01*
X140512317Y-46816452D01*
X140643589Y-46976410D01*
X140729307Y-47046756D01*
X140803550Y-47107685D01*
X140986046Y-47205232D01*
X141184066Y-47265300D01*
X141184065Y-47265300D01*
X141202529Y-47267118D01*
X141390000Y-47285583D01*
X141595934Y-47265300D01*
X141793954Y-47205232D01*
X141976450Y-47107685D01*
X142136410Y-46976410D01*
X142267685Y-46816450D01*
X142365232Y-46633954D01*
X142425300Y-46435934D01*
X142445583Y-46230000D01*
X142425300Y-46024066D01*
X142411933Y-45979999D01*
X142857471Y-45979999D01*
X142857472Y-45980000D01*
X143496988Y-45980000D01*
X143464075Y-46037007D01*
X143430000Y-46164174D01*
X143430000Y-46295826D01*
X143464075Y-46422993D01*
X143496988Y-46480000D01*
X142857472Y-46480000D01*
X142899885Y-46629065D01*
X142899890Y-46629078D01*
X142990754Y-46811556D01*
X143113608Y-46974242D01*
X143264260Y-47111578D01*
X143437584Y-47218897D01*
X143627678Y-47292539D01*
X143680000Y-47302320D01*
X143680000Y-46663012D01*
X143737007Y-46695925D01*
X143864174Y-46730000D01*
X143995826Y-46730000D01*
X144122993Y-46695925D01*
X144180000Y-46663012D01*
X144180000Y-47302320D01*
X144232321Y-47292539D01*
X144422415Y-47218897D01*
X144595739Y-47111578D01*
X144746391Y-46974242D01*
X144869245Y-46811556D01*
X144960109Y-46629078D01*
X144960114Y-46629065D01*
X145002528Y-46480000D01*
X144363012Y-46480000D01*
X144395925Y-46422993D01*
X144430000Y-46295826D01*
X144430000Y-46230000D01*
X145414417Y-46230000D01*
X145434699Y-46435932D01*
X145434700Y-46435934D01*
X145494768Y-46633954D01*
X145592315Y-46816450D01*
X145592317Y-46816452D01*
X145723589Y-46976410D01*
X145809307Y-47046756D01*
X145883550Y-47107685D01*
X146066046Y-47205232D01*
X146264066Y-47265300D01*
X146264065Y-47265300D01*
X146282529Y-47267118D01*
X146470000Y-47285583D01*
X146675934Y-47265300D01*
X146873954Y-47205232D01*
X147056450Y-47107685D01*
X147216410Y-46976410D01*
X147347685Y-46816450D01*
X147445232Y-46633954D01*
X147505300Y-46435934D01*
X147525583Y-46230000D01*
X147505300Y-46024066D01*
X147491933Y-45979999D01*
X147937471Y-45979999D01*
X147937472Y-45980000D01*
X148576988Y-45980000D01*
X148544075Y-46037007D01*
X148510000Y-46164174D01*
X148510000Y-46295826D01*
X148544075Y-46422993D01*
X148576988Y-46480000D01*
X147937472Y-46480000D01*
X147979885Y-46629065D01*
X147979890Y-46629078D01*
X148070754Y-46811556D01*
X148193608Y-46974242D01*
X148344260Y-47111578D01*
X148517584Y-47218897D01*
X148707678Y-47292539D01*
X148760000Y-47302320D01*
X148760000Y-46663012D01*
X148817007Y-46695925D01*
X148944174Y-46730000D01*
X149075826Y-46730000D01*
X149202993Y-46695925D01*
X149260000Y-46663012D01*
X149260000Y-47302320D01*
X149312321Y-47292539D01*
X149502415Y-47218897D01*
X149675739Y-47111578D01*
X149826391Y-46974242D01*
X149949245Y-46811556D01*
X150040109Y-46629078D01*
X150040114Y-46629065D01*
X150082528Y-46480000D01*
X149443012Y-46480000D01*
X149475925Y-46422993D01*
X149510000Y-46295826D01*
X149510000Y-46230000D01*
X150494417Y-46230000D01*
X150514699Y-46435932D01*
X150514700Y-46435934D01*
X150574768Y-46633954D01*
X150672315Y-46816450D01*
X150672317Y-46816452D01*
X150803589Y-46976410D01*
X150889307Y-47046756D01*
X150963550Y-47107685D01*
X151146046Y-47205232D01*
X151344066Y-47265300D01*
X151344065Y-47265300D01*
X151362529Y-47267118D01*
X151550000Y-47285583D01*
X151755934Y-47265300D01*
X151953954Y-47205232D01*
X152136450Y-47107685D01*
X152296410Y-46976410D01*
X152427685Y-46816450D01*
X152525232Y-46633954D01*
X152585300Y-46435934D01*
X152605583Y-46230000D01*
X153034417Y-46230000D01*
X153054699Y-46435932D01*
X153054700Y-46435934D01*
X153114768Y-46633954D01*
X153212315Y-46816450D01*
X153212317Y-46816452D01*
X153343589Y-46976410D01*
X153429307Y-47046756D01*
X153503550Y-47107685D01*
X153686046Y-47205232D01*
X153884066Y-47265300D01*
X153884065Y-47265300D01*
X153902529Y-47267118D01*
X154090000Y-47285583D01*
X154295934Y-47265300D01*
X154493954Y-47205232D01*
X154676450Y-47107685D01*
X154836410Y-46976410D01*
X154967685Y-46816450D01*
X155065232Y-46633954D01*
X155125300Y-46435934D01*
X155145583Y-46230000D01*
X155574417Y-46230000D01*
X155594699Y-46435932D01*
X155594700Y-46435934D01*
X155654768Y-46633954D01*
X155752315Y-46816450D01*
X155752317Y-46816452D01*
X155883589Y-46976410D01*
X155969307Y-47046756D01*
X156043550Y-47107685D01*
X156226046Y-47205232D01*
X156424066Y-47265300D01*
X156424065Y-47265300D01*
X156442529Y-47267118D01*
X156630000Y-47285583D01*
X156835934Y-47265300D01*
X157033954Y-47205232D01*
X157216450Y-47107685D01*
X157376410Y-46976410D01*
X157507685Y-46816450D01*
X157605232Y-46633954D01*
X157665300Y-46435934D01*
X157685583Y-46230000D01*
X157665300Y-46024066D01*
X157605232Y-45826046D01*
X157507685Y-45643550D01*
X157438632Y-45559408D01*
X157376410Y-45483589D01*
X157216452Y-45352317D01*
X157216453Y-45352317D01*
X157216450Y-45352315D01*
X157033954Y-45254768D01*
X156835934Y-45194700D01*
X156835932Y-45194699D01*
X156835934Y-45194699D01*
X156630000Y-45174417D01*
X156424067Y-45194699D01*
X156226043Y-45254769D01*
X156115898Y-45313643D01*
X156043550Y-45352315D01*
X156043548Y-45352316D01*
X156043547Y-45352317D01*
X155883589Y-45483589D01*
X155752317Y-45643547D01*
X155654769Y-45826043D01*
X155594699Y-46024067D01*
X155574417Y-46230000D01*
X155145583Y-46230000D01*
X155125300Y-46024066D01*
X155065232Y-45826046D01*
X154967685Y-45643550D01*
X154898632Y-45559408D01*
X154836410Y-45483589D01*
X154676452Y-45352317D01*
X154676453Y-45352317D01*
X154676450Y-45352315D01*
X154493954Y-45254768D01*
X154295934Y-45194700D01*
X154295932Y-45194699D01*
X154295934Y-45194699D01*
X154090000Y-45174417D01*
X153884067Y-45194699D01*
X153686043Y-45254769D01*
X153575898Y-45313643D01*
X153503550Y-45352315D01*
X153503548Y-45352316D01*
X153503547Y-45352317D01*
X153343589Y-45483589D01*
X153212317Y-45643547D01*
X153114769Y-45826043D01*
X153054699Y-46024067D01*
X153034417Y-46230000D01*
X152605583Y-46230000D01*
X152585300Y-46024066D01*
X152525232Y-45826046D01*
X152427685Y-45643550D01*
X152358632Y-45559408D01*
X152296410Y-45483589D01*
X152136452Y-45352317D01*
X152136453Y-45352317D01*
X152136450Y-45352315D01*
X151953954Y-45254768D01*
X151755934Y-45194700D01*
X151755932Y-45194699D01*
X151755934Y-45194699D01*
X151550000Y-45174417D01*
X151344067Y-45194699D01*
X151146043Y-45254769D01*
X151035898Y-45313643D01*
X150963550Y-45352315D01*
X150963548Y-45352316D01*
X150963547Y-45352317D01*
X150803589Y-45483589D01*
X150672317Y-45643547D01*
X150574769Y-45826043D01*
X150514699Y-46024067D01*
X150494417Y-46230000D01*
X149510000Y-46230000D01*
X149510000Y-46164174D01*
X149475925Y-46037007D01*
X149443012Y-45980000D01*
X150082528Y-45980000D01*
X150082528Y-45979999D01*
X150040114Y-45830934D01*
X150040109Y-45830921D01*
X149949245Y-45648443D01*
X149826391Y-45485757D01*
X149675739Y-45348421D01*
X149502413Y-45241101D01*
X149312315Y-45167458D01*
X149312309Y-45167456D01*
X149260001Y-45157677D01*
X149260000Y-45157679D01*
X149260000Y-45796988D01*
X149202993Y-45764075D01*
X149075826Y-45730000D01*
X148944174Y-45730000D01*
X148817007Y-45764075D01*
X148760000Y-45796988D01*
X148760000Y-45157679D01*
X148759998Y-45157677D01*
X148707690Y-45167456D01*
X148707684Y-45167458D01*
X148517586Y-45241101D01*
X148344260Y-45348421D01*
X148193608Y-45485757D01*
X148070754Y-45648443D01*
X147979890Y-45830921D01*
X147979885Y-45830934D01*
X147937471Y-45979999D01*
X147491933Y-45979999D01*
X147445232Y-45826046D01*
X147347685Y-45643550D01*
X147278632Y-45559408D01*
X147216410Y-45483589D01*
X147056452Y-45352317D01*
X147056453Y-45352317D01*
X147056450Y-45352315D01*
X146873954Y-45254768D01*
X146675934Y-45194700D01*
X146675932Y-45194699D01*
X146675934Y-45194699D01*
X146470000Y-45174417D01*
X146264067Y-45194699D01*
X146066043Y-45254769D01*
X145955898Y-45313643D01*
X145883550Y-45352315D01*
X145883548Y-45352316D01*
X145883547Y-45352317D01*
X145723589Y-45483589D01*
X145592317Y-45643547D01*
X145494769Y-45826043D01*
X145434699Y-46024067D01*
X145414417Y-46230000D01*
X144430000Y-46230000D01*
X144430000Y-46164174D01*
X144395925Y-46037007D01*
X144363012Y-45980000D01*
X145002528Y-45980000D01*
X145002528Y-45979999D01*
X144960114Y-45830934D01*
X144960109Y-45830921D01*
X144869245Y-45648443D01*
X144746391Y-45485757D01*
X144595739Y-45348421D01*
X144422413Y-45241101D01*
X144232315Y-45167458D01*
X144232309Y-45167456D01*
X144180001Y-45157677D01*
X144180000Y-45157679D01*
X144180000Y-45796988D01*
X144122993Y-45764075D01*
X143995826Y-45730000D01*
X143864174Y-45730000D01*
X143737007Y-45764075D01*
X143680000Y-45796988D01*
X143680000Y-45157679D01*
X143679998Y-45157677D01*
X143627690Y-45167456D01*
X143627684Y-45167458D01*
X143437586Y-45241101D01*
X143264260Y-45348421D01*
X143113608Y-45485757D01*
X142990754Y-45648443D01*
X142899890Y-45830921D01*
X142899885Y-45830934D01*
X142857471Y-45979999D01*
X142411933Y-45979999D01*
X142365232Y-45826046D01*
X142267685Y-45643550D01*
X142198632Y-45559408D01*
X142136410Y-45483589D01*
X141976452Y-45352317D01*
X141976453Y-45352317D01*
X141976450Y-45352315D01*
X141793954Y-45254768D01*
X141595934Y-45194700D01*
X141595932Y-45194699D01*
X141595934Y-45194699D01*
X141390000Y-45174417D01*
X141184067Y-45194699D01*
X140986043Y-45254769D01*
X140875898Y-45313643D01*
X140803550Y-45352315D01*
X140803548Y-45352316D01*
X140803547Y-45352317D01*
X140643589Y-45483589D01*
X140512317Y-45643547D01*
X140414769Y-45826043D01*
X140354699Y-46024067D01*
X140334417Y-46230000D01*
X139905583Y-46230000D01*
X139885300Y-46024066D01*
X139825232Y-45826046D01*
X139727685Y-45643550D01*
X139658632Y-45559408D01*
X139596410Y-45483589D01*
X139436452Y-45352317D01*
X139436453Y-45352317D01*
X139436450Y-45352315D01*
X139253954Y-45254768D01*
X139055934Y-45194700D01*
X139055932Y-45194699D01*
X139055934Y-45194699D01*
X138850000Y-45174417D01*
X138644067Y-45194699D01*
X138446043Y-45254769D01*
X138335898Y-45313643D01*
X138263550Y-45352315D01*
X138263548Y-45352316D01*
X138263547Y-45352317D01*
X138103589Y-45483589D01*
X137972317Y-45643547D01*
X137874769Y-45826043D01*
X137814699Y-46024067D01*
X137794417Y-46230000D01*
X137365583Y-46230000D01*
X137345300Y-46024066D01*
X137285232Y-45826046D01*
X137187685Y-45643550D01*
X137118632Y-45559408D01*
X137056410Y-45483589D01*
X136896452Y-45352317D01*
X136896453Y-45352317D01*
X136896450Y-45352315D01*
X136713954Y-45254768D01*
X136515934Y-45194700D01*
X136515932Y-45194699D01*
X136515934Y-45194699D01*
X136310000Y-45174417D01*
X136104067Y-45194699D01*
X135906043Y-45254769D01*
X135795898Y-45313643D01*
X135723550Y-45352315D01*
X135723548Y-45352316D01*
X135723547Y-45352317D01*
X135563589Y-45483589D01*
X135432317Y-45643547D01*
X135334769Y-45826043D01*
X135274699Y-46024067D01*
X135254417Y-46230000D01*
X134825583Y-46230000D01*
X134805300Y-46024066D01*
X134745232Y-45826046D01*
X134647685Y-45643550D01*
X134578632Y-45559408D01*
X134516410Y-45483589D01*
X134356452Y-45352317D01*
X134356453Y-45352317D01*
X134356450Y-45352315D01*
X134173954Y-45254768D01*
X133975934Y-45194700D01*
X133975932Y-45194699D01*
X133975934Y-45194699D01*
X133770000Y-45174417D01*
X133564067Y-45194699D01*
X133366043Y-45254769D01*
X133255898Y-45313643D01*
X133183550Y-45352315D01*
X133183548Y-45352316D01*
X133183547Y-45352317D01*
X133023589Y-45483589D01*
X132892317Y-45643547D01*
X132794769Y-45826043D01*
X132734699Y-46024067D01*
X132714417Y-46230000D01*
X131730000Y-46230000D01*
X131730000Y-46164174D01*
X131695925Y-46037007D01*
X131663012Y-45980000D01*
X132302528Y-45980000D01*
X132302528Y-45979999D01*
X132260114Y-45830934D01*
X132260109Y-45830921D01*
X132169245Y-45648443D01*
X132046391Y-45485757D01*
X131895739Y-45348421D01*
X131722413Y-45241101D01*
X131532315Y-45167458D01*
X131532309Y-45167456D01*
X131480001Y-45157677D01*
X131480000Y-45157679D01*
X131480000Y-45796988D01*
X131422993Y-45764075D01*
X131295826Y-45730000D01*
X131164174Y-45730000D01*
X131037007Y-45764075D01*
X130980000Y-45796988D01*
X130980000Y-45157679D01*
X130979998Y-45157677D01*
X130927690Y-45167456D01*
X130927684Y-45167458D01*
X130737586Y-45241101D01*
X130564260Y-45348421D01*
X130413608Y-45485757D01*
X130290754Y-45648443D01*
X130199890Y-45830921D01*
X130199885Y-45830934D01*
X130157471Y-45979999D01*
X129711933Y-45979999D01*
X129665232Y-45826046D01*
X129567685Y-45643550D01*
X129498632Y-45559408D01*
X129436410Y-45483589D01*
X129276452Y-45352317D01*
X129276453Y-45352317D01*
X129276450Y-45352315D01*
X129093954Y-45254768D01*
X128895934Y-45194700D01*
X128895932Y-45194699D01*
X128895934Y-45194699D01*
X128690000Y-45174417D01*
X128484067Y-45194699D01*
X128286043Y-45254769D01*
X128175898Y-45313643D01*
X128103550Y-45352315D01*
X128103548Y-45352316D01*
X128103547Y-45352317D01*
X127943589Y-45483589D01*
X127812317Y-45643547D01*
X127714769Y-45826043D01*
X127654699Y-46024067D01*
X127634417Y-46230000D01*
X127205583Y-46230000D01*
X127185300Y-46024066D01*
X127125232Y-45826046D01*
X127027685Y-45643550D01*
X126958632Y-45559408D01*
X126896410Y-45483589D01*
X126736452Y-45352317D01*
X126736453Y-45352317D01*
X126736450Y-45352315D01*
X126553954Y-45254768D01*
X126355934Y-45194700D01*
X126355932Y-45194699D01*
X126355934Y-45194699D01*
X126150000Y-45174417D01*
X125944067Y-45194699D01*
X125746043Y-45254769D01*
X125635898Y-45313643D01*
X125563550Y-45352315D01*
X125563548Y-45352316D01*
X125563547Y-45352317D01*
X125403589Y-45483589D01*
X125272317Y-45643547D01*
X125174769Y-45826043D01*
X125114699Y-46024067D01*
X125094417Y-46230000D01*
X124110000Y-46230000D01*
X124110000Y-46164174D01*
X124075925Y-46037007D01*
X124043012Y-45980000D01*
X124682528Y-45980000D01*
X124682528Y-45979999D01*
X124640114Y-45830934D01*
X124640109Y-45830921D01*
X124549245Y-45648443D01*
X124426391Y-45485757D01*
X124275739Y-45348421D01*
X124102413Y-45241101D01*
X123912315Y-45167458D01*
X123912309Y-45167456D01*
X123860001Y-45157677D01*
X123860000Y-45157679D01*
X123860000Y-45796988D01*
X123802993Y-45764075D01*
X123675826Y-45730000D01*
X123544174Y-45730000D01*
X123417007Y-45764075D01*
X123360000Y-45796988D01*
X123360000Y-45157679D01*
X123359998Y-45157677D01*
X123307690Y-45167456D01*
X123307684Y-45167458D01*
X123117586Y-45241101D01*
X122944260Y-45348421D01*
X122793608Y-45485757D01*
X122670754Y-45648443D01*
X122579890Y-45830921D01*
X122579885Y-45830934D01*
X122537471Y-45979999D01*
X122091933Y-45979999D01*
X122045232Y-45826046D01*
X121947685Y-45643550D01*
X121878632Y-45559408D01*
X121816410Y-45483589D01*
X121656452Y-45352317D01*
X121656453Y-45352317D01*
X121656450Y-45352315D01*
X121473954Y-45254768D01*
X121275934Y-45194700D01*
X121275932Y-45194699D01*
X121275934Y-45194699D01*
X121070000Y-45174417D01*
X120864067Y-45194699D01*
X120666043Y-45254769D01*
X120555898Y-45313643D01*
X120483550Y-45352315D01*
X120483548Y-45352316D01*
X120483547Y-45352317D01*
X120323589Y-45483589D01*
X120192317Y-45643547D01*
X120094769Y-45826043D01*
X120034699Y-46024067D01*
X120014417Y-46230000D01*
X119585583Y-46230000D01*
X119565300Y-46024066D01*
X119505232Y-45826046D01*
X119407685Y-45643550D01*
X119338632Y-45559408D01*
X119276410Y-45483589D01*
X119116452Y-45352317D01*
X119116453Y-45352317D01*
X119116450Y-45352315D01*
X118933954Y-45254768D01*
X118735934Y-45194700D01*
X118735932Y-45194699D01*
X118735934Y-45194699D01*
X118530000Y-45174417D01*
X118324067Y-45194699D01*
X118126043Y-45254769D01*
X118015898Y-45313643D01*
X117943550Y-45352315D01*
X117943548Y-45352316D01*
X117943547Y-45352317D01*
X117783589Y-45483589D01*
X117652317Y-45643547D01*
X117554769Y-45826043D01*
X117494699Y-46024067D01*
X117474417Y-46230000D01*
X117045583Y-46230000D01*
X117025300Y-46024066D01*
X116965232Y-45826046D01*
X116867685Y-45643550D01*
X116798632Y-45559408D01*
X116736410Y-45483589D01*
X116576452Y-45352317D01*
X116576453Y-45352317D01*
X116576450Y-45352315D01*
X116393954Y-45254768D01*
X116195934Y-45194700D01*
X116195932Y-45194699D01*
X116195934Y-45194699D01*
X115990000Y-45174417D01*
X115784067Y-45194699D01*
X115586043Y-45254769D01*
X115475898Y-45313643D01*
X115403550Y-45352315D01*
X115403548Y-45352316D01*
X115403547Y-45352317D01*
X115243589Y-45483589D01*
X115112317Y-45643547D01*
X115014769Y-45826043D01*
X114954699Y-46024067D01*
X114934417Y-46230000D01*
X113950000Y-46230000D01*
X113950000Y-46164174D01*
X113915925Y-46037007D01*
X113883012Y-45980000D01*
X114522528Y-45980000D01*
X114522528Y-45979999D01*
X114480114Y-45830934D01*
X114480109Y-45830921D01*
X114389245Y-45648443D01*
X114266391Y-45485757D01*
X114115739Y-45348421D01*
X113942413Y-45241101D01*
X113752315Y-45167458D01*
X113752309Y-45167456D01*
X113700001Y-45157677D01*
X113700000Y-45157679D01*
X113700000Y-45796988D01*
X113642993Y-45764075D01*
X113515826Y-45730000D01*
X113384174Y-45730000D01*
X113257007Y-45764075D01*
X113200000Y-45796988D01*
X113200000Y-45157679D01*
X113199998Y-45157677D01*
X113147690Y-45167456D01*
X113147684Y-45167458D01*
X112957586Y-45241101D01*
X112784260Y-45348421D01*
X112633608Y-45485757D01*
X112510754Y-45648443D01*
X112419890Y-45830921D01*
X112419885Y-45830934D01*
X112377471Y-45979999D01*
X111931933Y-45979999D01*
X111885232Y-45826046D01*
X111787685Y-45643550D01*
X111718632Y-45559408D01*
X111656410Y-45483589D01*
X111496452Y-45352317D01*
X111496453Y-45352317D01*
X111496450Y-45352315D01*
X111313954Y-45254768D01*
X111115934Y-45194700D01*
X111115932Y-45194699D01*
X111115934Y-45194699D01*
X110910000Y-45174417D01*
X110704067Y-45194699D01*
X110506043Y-45254769D01*
X110395898Y-45313643D01*
X110323550Y-45352315D01*
X110323548Y-45352316D01*
X110323547Y-45352317D01*
X110163589Y-45483589D01*
X110032317Y-45643547D01*
X109934769Y-45826043D01*
X109874699Y-46024067D01*
X109854417Y-46230000D01*
X109425583Y-46230000D01*
X109405300Y-46024066D01*
X109345232Y-45826046D01*
X109247685Y-45643550D01*
X109178632Y-45559408D01*
X109116410Y-45483589D01*
X108956452Y-45352317D01*
X108956453Y-45352317D01*
X108956450Y-45352315D01*
X108773954Y-45254768D01*
X108575934Y-45194700D01*
X108575932Y-45194699D01*
X108575934Y-45194699D01*
X108370000Y-45174417D01*
X108164067Y-45194699D01*
X107966043Y-45254769D01*
X107855898Y-45313643D01*
X107783550Y-45352315D01*
X107783548Y-45352316D01*
X107783547Y-45352317D01*
X107623589Y-45483589D01*
X107492317Y-45643547D01*
X107394769Y-45826043D01*
X107334699Y-46024067D01*
X107314417Y-46230000D01*
X100050500Y-46230000D01*
X100050500Y-45003480D01*
X100050695Y-44996527D01*
X100053534Y-44945980D01*
X100068656Y-44676700D01*
X100070210Y-44662907D01*
X100123283Y-44350537D01*
X100126377Y-44336985D01*
X100139106Y-44292804D01*
X100214090Y-44032526D01*
X100218682Y-44019406D01*
X100265947Y-43905298D01*
X100339929Y-43726686D01*
X100345951Y-43714180D01*
X100499227Y-43436850D01*
X100506605Y-43425107D01*
X100689972Y-43166676D01*
X100698619Y-43155834D01*
X100909750Y-42919579D01*
X100919581Y-42909749D01*
X101155834Y-42698619D01*
X101166676Y-42689972D01*
X101425107Y-42506605D01*
X101436850Y-42499227D01*
X101714180Y-42345951D01*
X101726686Y-42339929D01*
X102019406Y-42218682D01*
X102032526Y-42214090D01*
X102336990Y-42126375D01*
X102350537Y-42123283D01*
X102662907Y-42070210D01*
X102676700Y-42068656D01*
X102996532Y-42050694D01*
X103003488Y-42050500D01*
X166420523Y-42061573D01*
G37*
G04 #@! TD.AperFunction*
M02*
