G04 #@! TF.GenerationSoftware,KiCad,Pcbnew,8.0.4*
G04 #@! TF.CreationDate,2024-09-09T22:35:46-05:00*
G04 #@! TF.ProjectId,TPM-IO-BOARD,54504d2d-494f-42d4-924f-4152442e6b69,rev?*
G04 #@! TF.SameCoordinates,Original*
G04 #@! TF.FileFunction,Copper,L1,Top*
G04 #@! TF.FilePolarity,Positive*
%FSLAX46Y46*%
G04 Gerber Fmt 4.6, Leading zero omitted, Abs format (unit mm)*
G04 Created by KiCad (PCBNEW 8.0.4) date 2024-09-09 22:35:46*
%MOMM*%
%LPD*%
G01*
G04 APERTURE LIST*
G04 Aperture macros list*
%AMRoundRect*
0 Rectangle with rounded corners*
0 $1 Rounding radius*
0 $2 $3 $4 $5 $6 $7 $8 $9 X,Y pos of 4 corners*
0 Add a 4 corners polygon primitive as box body*
4,1,4,$2,$3,$4,$5,$6,$7,$8,$9,$2,$3,0*
0 Add four circle primitives for the rounded corners*
1,1,$1+$1,$2,$3*
1,1,$1+$1,$4,$5*
1,1,$1+$1,$6,$7*
1,1,$1+$1,$8,$9*
0 Add four rect primitives between the rounded corners*
20,1,$1+$1,$2,$3,$4,$5,0*
20,1,$1+$1,$4,$5,$6,$7,0*
20,1,$1+$1,$6,$7,$8,$9,0*
20,1,$1+$1,$8,$9,$2,$3,0*%
G04 Aperture macros list end*
G04 #@! TA.AperFunction,EtchedComponent*
%ADD10C,0.000000*%
G04 #@! TD*
G04 #@! TA.AperFunction,ComponentPad*
%ADD11C,1.524000*%
G04 #@! TD*
G04 #@! TA.AperFunction,ComponentPad*
%ADD12C,1.371600*%
G04 #@! TD*
G04 #@! TA.AperFunction,SMDPad,CuDef*
%ADD13R,0.596900X0.609600*%
G04 #@! TD*
G04 #@! TA.AperFunction,SMDPad,CuDef*
%ADD14RoundRect,0.158750X-0.158750X-0.158750X0.158750X-0.158750X0.158750X0.158750X-0.158750X0.158750X0*%
G04 #@! TD*
G04 #@! TA.AperFunction,SMDPad,CuDef*
%ADD15R,1.130000X0.920000*%
G04 #@! TD*
G04 #@! TA.AperFunction,ComponentPad*
%ADD16C,2.100000*%
G04 #@! TD*
G04 #@! TA.AperFunction,SMDPad,CuDef*
%ADD17R,0.609600X0.596900*%
G04 #@! TD*
G04 #@! TA.AperFunction,SMDPad,CuDef*
%ADD18RoundRect,0.175000X-0.175000X0.275000X-0.175000X-0.275000X0.175000X-0.275000X0.175000X0.275000X0*%
G04 #@! TD*
G04 #@! TA.AperFunction,SMDPad,CuDef*
%ADD19RoundRect,0.158750X0.158750X-0.158750X0.158750X0.158750X-0.158750X0.158750X-0.158750X-0.158750X0*%
G04 #@! TD*
G04 #@! TA.AperFunction,SMDPad,CuDef*
%ADD20R,0.540000X0.600000*%
G04 #@! TD*
G04 #@! TA.AperFunction,SMDPad,CuDef*
%ADD21R,0.920000X1.130000*%
G04 #@! TD*
G04 #@! TA.AperFunction,SMDPad,CuDef*
%ADD22R,0.500000X0.475000*%
G04 #@! TD*
G04 #@! TA.AperFunction,SMDPad,CuDef*
%ADD23C,0.500000*%
G04 #@! TD*
G04 #@! TA.AperFunction,SMDPad,CuDef*
%ADD24R,1.050000X0.600000*%
G04 #@! TD*
G04 #@! TA.AperFunction,SMDPad,CuDef*
%ADD25R,0.600000X0.540000*%
G04 #@! TD*
G04 #@! TA.AperFunction,SMDPad,CuDef*
%ADD26R,2.283478X0.622132*%
G04 #@! TD*
G04 #@! TA.AperFunction,SMDPad,CuDef*
%ADD27R,0.711200X0.609600*%
G04 #@! TD*
G04 #@! TA.AperFunction,SMDPad,CuDef*
%ADD28R,0.711200X0.711200*%
G04 #@! TD*
G04 #@! TA.AperFunction,ComponentPad*
%ADD29C,1.701800*%
G04 #@! TD*
G04 #@! TA.AperFunction,SMDPad,CuDef*
%ADD30RoundRect,0.158750X-0.158750X0.158750X-0.158750X-0.158750X0.158750X-0.158750X0.158750X0.158750X0*%
G04 #@! TD*
G04 #@! TA.AperFunction,SMDPad,CuDef*
%ADD31R,0.600000X1.050000*%
G04 #@! TD*
G04 #@! TA.AperFunction,SMDPad,CuDef*
%ADD32R,0.549999X0.503199*%
G04 #@! TD*
G04 #@! TA.AperFunction,SMDPad,CuDef*
%ADD33R,0.660400X0.508000*%
G04 #@! TD*
G04 #@! TA.AperFunction,ComponentPad*
%ADD34R,1.700000X1.700000*%
G04 #@! TD*
G04 #@! TA.AperFunction,ComponentPad*
%ADD35O,1.700000X1.700000*%
G04 #@! TD*
G04 #@! TA.AperFunction,ViaPad*
%ADD36C,0.900000*%
G04 #@! TD*
G04 #@! TA.AperFunction,Conductor*
%ADD37C,0.200000*%
G04 #@! TD*
G04 APERTURE END LIST*
D10*
G04 #@! TA.AperFunction,EtchedComponent*
G36*
X110000000Y-86750000D02*
G01*
X109000000Y-86750000D01*
X109000000Y-86250000D01*
X110000000Y-86250000D01*
X110000000Y-86750000D01*
G37*
G04 #@! TD.AperFunction*
D11*
X114540000Y-70000000D03*
X112000000Y-70000000D03*
D12*
X168166750Y-60000000D03*
X173166750Y-60000000D03*
D13*
X181552450Y-79019583D03*
X180447550Y-79019583D03*
D14*
X121028489Y-86255336D03*
X121028489Y-87144336D03*
D15*
X183427967Y-62500000D03*
X183427967Y-59000000D03*
D16*
X188250000Y-95600000D03*
X191750000Y-95600000D03*
D17*
X142980417Y-87230417D03*
X142980417Y-86125517D03*
D18*
X186135000Y-45825000D03*
X184865000Y-45825000D03*
X184865000Y-50175000D03*
X186135000Y-50175000D03*
D19*
X181005336Y-72471511D03*
X181894336Y-72471511D03*
D14*
X132528489Y-86255336D03*
X132528489Y-87144336D03*
D20*
X181017836Y-71471511D03*
X181881836Y-71471511D03*
D21*
X121500000Y-88927967D03*
X125000000Y-88927967D03*
D22*
X112500000Y-68012000D03*
X112500000Y-66988000D03*
D23*
X110000000Y-86500000D03*
X109000000Y-86500000D03*
D24*
X160772564Y-90550000D03*
X160772564Y-92450000D03*
X162972564Y-91500000D03*
D17*
X114451928Y-87302450D03*
X114451928Y-86197550D03*
D16*
X178750000Y-95600000D03*
X182250000Y-95600000D03*
D25*
X182527436Y-86180048D03*
X182527436Y-87044048D03*
D19*
X111055500Y-79500000D03*
X111944500Y-79500000D03*
D14*
X181527436Y-86167548D03*
X181527436Y-87056548D03*
X123028489Y-86255336D03*
X123028489Y-87144336D03*
D26*
X124225149Y-67215000D03*
X124225149Y-65945000D03*
X124225149Y-64675000D03*
X124225149Y-63405000D03*
X124225149Y-62135000D03*
X124225149Y-60865000D03*
X124225149Y-59595000D03*
X124225149Y-58325000D03*
X124225149Y-57055000D03*
X124225149Y-55785000D03*
X114774851Y-55785000D03*
X114774851Y-57055000D03*
X114774851Y-58325000D03*
X114774851Y-59595000D03*
X114774851Y-60865000D03*
X114774851Y-62135000D03*
X114774851Y-63405000D03*
X114774851Y-64675000D03*
X114774851Y-65945000D03*
X114774851Y-67215000D03*
D27*
X136203900Y-59750000D03*
X137296100Y-59750000D03*
D24*
X132301053Y-91296556D03*
X132301053Y-93196556D03*
X134501053Y-92246556D03*
D19*
X181005336Y-60971511D03*
X181894336Y-60971511D03*
D14*
X140028489Y-86255336D03*
X140028489Y-87144336D03*
D16*
X190100000Y-62250000D03*
X190100000Y-58750000D03*
D28*
X129000000Y-57096900D03*
X129000000Y-55903100D03*
D29*
X104823590Y-56567399D03*
X104823590Y-60067400D03*
X104823590Y-63567400D03*
D17*
X176980417Y-87142629D03*
X176980417Y-86037729D03*
D24*
X168301053Y-91368589D03*
X168301053Y-93268589D03*
X170501053Y-92318589D03*
D14*
X149528489Y-86255336D03*
X149528489Y-87144336D03*
D25*
X160000000Y-86339869D03*
X160000000Y-87203869D03*
D16*
X131250000Y-95600000D03*
X134750000Y-95600000D03*
D30*
X111944500Y-72500000D03*
X111055500Y-72500000D03*
D25*
X122028489Y-86267836D03*
X122028489Y-87131836D03*
D31*
X185796556Y-70698947D03*
X187696556Y-70698947D03*
X186746556Y-68498947D03*
D13*
X181552450Y-60000000D03*
X180447550Y-60000000D03*
D21*
X150000000Y-88927967D03*
X153500000Y-88927967D03*
D16*
X121750000Y-95600000D03*
X125250000Y-95600000D03*
D12*
X168166750Y-48500000D03*
X173166750Y-48500000D03*
D21*
X140500000Y-88927967D03*
X144000000Y-88927967D03*
D19*
X181005336Y-79971511D03*
X181894336Y-79971511D03*
D16*
X190100000Y-90750000D03*
X190100000Y-87250000D03*
D31*
X185796556Y-61198947D03*
X187696556Y-61198947D03*
X186746556Y-58998947D03*
D14*
X151528489Y-86255336D03*
X151528489Y-87144336D03*
X161000000Y-86327369D03*
X161000000Y-87216369D03*
D24*
X151301053Y-91296556D03*
X151301053Y-93196556D03*
X153501053Y-92246556D03*
D12*
X168166750Y-71750000D03*
X173166750Y-71750000D03*
D29*
X104823590Y-69567399D03*
X104823590Y-73067400D03*
X104823590Y-76567400D03*
D14*
X176028489Y-86167548D03*
X176028489Y-87056548D03*
D32*
X126500000Y-56976599D03*
X126500000Y-56023401D03*
X112500000Y-56976599D03*
X112500000Y-56023401D03*
D14*
X111500000Y-86327369D03*
X111500000Y-87216369D03*
D16*
X190100000Y-81250000D03*
X190100000Y-77750000D03*
D20*
X181017836Y-61971511D03*
X181881836Y-61971511D03*
D27*
X136203900Y-64500000D03*
X137296100Y-64500000D03*
D16*
X150250000Y-95600000D03*
X153750000Y-95600000D03*
D24*
X183300000Y-91208768D03*
X183300000Y-93108768D03*
X185500000Y-92158768D03*
D21*
X111971511Y-89000000D03*
X115471511Y-89000000D03*
D24*
X122801053Y-91296556D03*
X122801053Y-93196556D03*
X125001053Y-92246556D03*
D25*
X150528489Y-86267836D03*
X150528489Y-87131836D03*
D24*
X141801053Y-91296556D03*
X141801053Y-93196556D03*
X144001053Y-92246556D03*
D19*
X181005336Y-81971511D03*
X181894336Y-81971511D03*
D14*
X130528489Y-86255336D03*
X130528489Y-87144336D03*
D25*
X131528489Y-86267836D03*
X131528489Y-87131836D03*
D21*
X167000000Y-89000000D03*
X170500000Y-89000000D03*
D14*
X142028489Y-86255336D03*
X142028489Y-87144336D03*
D17*
X184479364Y-87142629D03*
X184479364Y-86037729D03*
D14*
X113500000Y-86327369D03*
X113500000Y-87216369D03*
D17*
X169480417Y-87302450D03*
X169480417Y-86197550D03*
D21*
X181998947Y-88840179D03*
X185498947Y-88840179D03*
D16*
X169250000Y-95600000D03*
X172750000Y-95600000D03*
D27*
X136203900Y-62250000D03*
X137296100Y-62250000D03*
D25*
X141028489Y-86267836D03*
X141028489Y-87131836D03*
X175028489Y-86180048D03*
X175028489Y-87044048D03*
D16*
X140750000Y-95600000D03*
X144250000Y-95600000D03*
D17*
X161951928Y-87302450D03*
X161951928Y-86197550D03*
D21*
X131000000Y-88927967D03*
X134500000Y-88927967D03*
D25*
X167528489Y-86339869D03*
X167528489Y-87203869D03*
D16*
X190100000Y-71750000D03*
X190100000Y-68250000D03*
D24*
X113272564Y-91368589D03*
X113272564Y-93268589D03*
X115472564Y-92318589D03*
D19*
X181005336Y-62971511D03*
X181894336Y-62971511D03*
D14*
X174028489Y-86167548D03*
X174028489Y-87056548D03*
X166528489Y-86327369D03*
X166528489Y-87216369D03*
D17*
X133480417Y-87230417D03*
X133480417Y-86125517D03*
D29*
X190176410Y-52932601D03*
X190176410Y-49432600D03*
X190176410Y-45932600D03*
D15*
X183427967Y-81500000D03*
X183427967Y-78000000D03*
D14*
X183527436Y-86167548D03*
X183527436Y-87056548D03*
D16*
X104900000Y-82750000D03*
X104900000Y-86250000D03*
D14*
X168528489Y-86327369D03*
X168528489Y-87216369D03*
D19*
X181005336Y-70471511D03*
X181894336Y-70471511D03*
D13*
X181552450Y-69519583D03*
X180447550Y-69519583D03*
D24*
X175801053Y-91208768D03*
X175801053Y-93108768D03*
X178001053Y-92158768D03*
D21*
X174500000Y-88840179D03*
X178000000Y-88840179D03*
D17*
X123980417Y-87230417D03*
X123980417Y-86125517D03*
D15*
X183427967Y-72000000D03*
X183427967Y-68500000D03*
D19*
X138805500Y-64500000D03*
X139694500Y-64500000D03*
D28*
X110500000Y-57096900D03*
X110500000Y-55903100D03*
D19*
X185055500Y-44000000D03*
X185944500Y-44000000D03*
D16*
X112250000Y-95600000D03*
X115750000Y-95600000D03*
D25*
X112500000Y-86339869D03*
X112500000Y-87203869D03*
D14*
X159000000Y-86327369D03*
X159000000Y-87216369D03*
D17*
X152480417Y-87230417D03*
X152480417Y-86125517D03*
D31*
X185796556Y-80198947D03*
X187696556Y-80198947D03*
X186746556Y-77998947D03*
D21*
X159471511Y-89000000D03*
X162971511Y-89000000D03*
D20*
X181017836Y-80971511D03*
X181881836Y-80971511D03*
D33*
X139808800Y-62250000D03*
X138691200Y-62250000D03*
D18*
X112135000Y-73825000D03*
X110865000Y-73825000D03*
X110865000Y-78175000D03*
X112135000Y-78175000D03*
D20*
X138750000Y-59750000D03*
X139614000Y-59750000D03*
D30*
X185944500Y-52000000D03*
X185055500Y-52000000D03*
D34*
X108370000Y-48770000D03*
D35*
X108370000Y-46230000D03*
X110910000Y-48770000D03*
X110910000Y-46230000D03*
X113450000Y-48770000D03*
X113450000Y-46230000D03*
X115990000Y-48770000D03*
X115990000Y-46230000D03*
X118530000Y-48770000D03*
X118530000Y-46230000D03*
X121070000Y-48770000D03*
X121070000Y-46230000D03*
X123610000Y-48770000D03*
X123610000Y-46230000D03*
X126150000Y-48770000D03*
X126150000Y-46230000D03*
X128690000Y-48770000D03*
X128690000Y-46230000D03*
X131230000Y-48770000D03*
X131230000Y-46230000D03*
X133770000Y-48770000D03*
X133770000Y-46230000D03*
X136310000Y-48770000D03*
X136310000Y-46230000D03*
X138850000Y-48770000D03*
X138850000Y-46230000D03*
X141390000Y-48770000D03*
X141390000Y-46230000D03*
X143930000Y-48770000D03*
X143930000Y-46230000D03*
X146470000Y-48770000D03*
X146470000Y-46230000D03*
X149010000Y-48770000D03*
X149010000Y-46230000D03*
X151550000Y-48770000D03*
X151550000Y-46230000D03*
X154090000Y-48770000D03*
X154090000Y-46230000D03*
X156630000Y-48770000D03*
X156630000Y-46230000D03*
D36*
X111500000Y-85500000D03*
X179927967Y-81971511D03*
X166528489Y-85500000D03*
X111000000Y-77000000D03*
X140028489Y-85427967D03*
X179927967Y-62971511D03*
X135250000Y-59750000D03*
X179927967Y-72471511D03*
X121028489Y-85427967D03*
X128500000Y-55000000D03*
X110500000Y-84500000D03*
X174028489Y-85340179D03*
X184000000Y-50175000D03*
X181527436Y-85340179D03*
X159000000Y-85500000D03*
X149528489Y-85427967D03*
X126500000Y-61000000D03*
X130528489Y-85427967D03*
X135250000Y-62250000D03*
X126500000Y-62000000D03*
X122035146Y-84984518D03*
X119000000Y-85500000D03*
X131535146Y-84984518D03*
X141035146Y-84984518D03*
X142000000Y-83500000D03*
X160000000Y-85000000D03*
X167000000Y-84500000D03*
X172000000Y-84000000D03*
X177500000Y-84500000D03*
X179500000Y-80500000D03*
X172000000Y-78250000D03*
X178500000Y-62000000D03*
X185750000Y-53750000D03*
X140750000Y-59750000D03*
X126500000Y-64500000D03*
X179000000Y-56500000D03*
X113000000Y-79500000D03*
X126500000Y-67500000D03*
X158500000Y-95000000D03*
X146000000Y-94000000D03*
X142597157Y-89179577D03*
X169097157Y-89251610D03*
X114068668Y-89251610D03*
X184096104Y-89091789D03*
X176597157Y-89091789D03*
X183679577Y-69902843D03*
X123597157Y-89179577D03*
X174251915Y-90174577D03*
X152097157Y-89179577D03*
X183679577Y-79402843D03*
X182000000Y-90000000D03*
X133097157Y-89179577D03*
X161568668Y-89251610D03*
X167000000Y-90500000D03*
X183679577Y-60402843D03*
X141250000Y-64500000D03*
X117580222Y-65436627D03*
X114500000Y-94000000D03*
X145000000Y-93500000D03*
X171500000Y-94000000D03*
X184527436Y-93840179D03*
X188427967Y-69471511D03*
X124028489Y-93927967D03*
X135500000Y-65250000D03*
X188427967Y-59971511D03*
X152528489Y-93927967D03*
X188427967Y-78971511D03*
X177028489Y-93840179D03*
X133528489Y-93927967D03*
X143028489Y-93927967D03*
X162000000Y-94000000D03*
X183500000Y-45500000D03*
D37*
X184000000Y-50175000D02*
X184865000Y-50175000D01*
X126365000Y-62135000D02*
X126500000Y-62000000D01*
X110865000Y-78175000D02*
X110865000Y-77135000D01*
X126500000Y-56023401D02*
X128879699Y-56023401D01*
X129000000Y-55500000D02*
X128500000Y-55000000D01*
X181527436Y-86167548D02*
X181527436Y-85340179D01*
X149528489Y-86255336D02*
X149528489Y-85427967D01*
X121028489Y-86255336D02*
X121028489Y-85427967D01*
X126261599Y-55785000D02*
X126500000Y-56023401D01*
X181005336Y-62971511D02*
X179927967Y-62971511D01*
X166528489Y-86327369D02*
X166528489Y-85500000D01*
X135953900Y-59750000D02*
X135250000Y-59750000D01*
X124225149Y-55785000D02*
X126261599Y-55785000D01*
X159000000Y-86327369D02*
X159000000Y-85500000D01*
X130528489Y-86255336D02*
X130528489Y-85427967D01*
X135250000Y-59750000D02*
X135000000Y-59750000D01*
X128879699Y-56023401D02*
X129000000Y-55903100D01*
X110865000Y-77135000D02*
X111000000Y-77000000D01*
X126365000Y-60865000D02*
X126500000Y-61000000D01*
X111500000Y-86327369D02*
X111500000Y-85500000D01*
X110000000Y-85000000D02*
X110500000Y-84500000D01*
X110000000Y-86500000D02*
X110000000Y-85000000D01*
X181005336Y-81971511D02*
X179927967Y-81971511D01*
X129000000Y-55903100D02*
X129000000Y-55500000D01*
X174028489Y-86167548D02*
X174028489Y-85340179D01*
X124225149Y-60865000D02*
X126365000Y-60865000D01*
X136203900Y-62250000D02*
X135250000Y-62250000D01*
X124225149Y-62135000D02*
X126365000Y-62135000D01*
X140028489Y-85427967D02*
X140028489Y-86255336D01*
X181005336Y-72471511D02*
X179927967Y-72471511D01*
X120000000Y-52000000D02*
X117140000Y-49140000D01*
X123394476Y-65945000D02*
X120000000Y-62550524D01*
X120000000Y-62550524D02*
X120000000Y-52000000D01*
X124225149Y-65945000D02*
X123394476Y-65945000D01*
X117140000Y-47380000D02*
X115990000Y-46230000D01*
X117140000Y-49140000D02*
X117140000Y-47380000D01*
X123394476Y-63405000D02*
X120400000Y-60410524D01*
X120400000Y-60410524D02*
X120400000Y-49900000D01*
X119680000Y-49180000D02*
X119680000Y-47380000D01*
X124225149Y-63405000D02*
X123394476Y-63405000D01*
X120400000Y-49900000D02*
X119680000Y-49180000D01*
X119680000Y-47380000D02*
X118530000Y-46230000D01*
X122028489Y-84991175D02*
X122035146Y-84984518D01*
X122028489Y-86267836D02*
X122028489Y-84991175D01*
X119000000Y-85500000D02*
X113339869Y-85500000D01*
X113339869Y-85500000D02*
X112500000Y-86339869D01*
X131528489Y-86267836D02*
X131528489Y-84991175D01*
X131528489Y-84991175D02*
X131535146Y-84984518D01*
X141035146Y-84984518D02*
X141035146Y-86261179D01*
X141028489Y-84991175D02*
X141035146Y-84984518D01*
X141035146Y-86261179D02*
X141028489Y-86267836D01*
X142000000Y-83500000D02*
X142489820Y-83989820D01*
X150528489Y-86267836D02*
X150528489Y-85367306D01*
X142489820Y-83989820D02*
X149151003Y-83989820D01*
X149151003Y-83989820D02*
X150528489Y-85367306D01*
X160000000Y-86339869D02*
X160000000Y-85000000D01*
X167528489Y-85028489D02*
X167000000Y-84500000D01*
X167528489Y-86339869D02*
X167528489Y-85028489D01*
X173748971Y-84000000D02*
X172000000Y-84000000D01*
X175028489Y-85279518D02*
X175028489Y-86180048D01*
X175028489Y-85279518D02*
X173748971Y-84000000D01*
X181747918Y-84500000D02*
X177500000Y-84500000D01*
X182527436Y-86180048D02*
X182527436Y-85279518D01*
X182527436Y-85279518D02*
X181747918Y-84500000D01*
X181017836Y-80971511D02*
X179971511Y-80971511D01*
X179971511Y-80971511D02*
X179500000Y-80500000D01*
X172000000Y-78250000D02*
X178778489Y-71471511D01*
X178778489Y-71471511D02*
X181017836Y-71471511D01*
X178528489Y-61971511D02*
X178500000Y-62000000D01*
X181017836Y-61971511D02*
X178528489Y-61971511D01*
X186135000Y-51809500D02*
X185944500Y-52000000D01*
X185944500Y-52000000D02*
X185944500Y-53555500D01*
X185944500Y-53555500D02*
X185750000Y-53750000D01*
X186135000Y-50175000D02*
X186135000Y-51809500D01*
X159500000Y-49100000D02*
X156630000Y-46230000D01*
X111055500Y-79500000D02*
X111055500Y-79254500D01*
X112135000Y-78175000D02*
X157325000Y-78175000D01*
X159500000Y-76000000D02*
X159500000Y-49100000D01*
X157325000Y-78175000D02*
X159500000Y-76000000D01*
X111055500Y-79254500D02*
X112135000Y-78175000D01*
X142250000Y-61250000D02*
X141250000Y-62250000D01*
X141250000Y-62250000D02*
X139808800Y-62250000D01*
X122460000Y-51750000D02*
X122460000Y-45960000D01*
X124225149Y-57055000D02*
X126421599Y-57055000D01*
X142250000Y-55250000D02*
X142250000Y-61250000D01*
X138750000Y-51750000D02*
X142250000Y-55250000D01*
X123394476Y-57055000D02*
X122460000Y-56120524D01*
X122460000Y-51750000D02*
X138750000Y-51750000D01*
X122460000Y-56120524D02*
X122460000Y-51750000D01*
X110910000Y-46230000D02*
X112060000Y-45080000D01*
X122460000Y-45960000D02*
X121580000Y-45080000D01*
X126500000Y-56976599D02*
X128879699Y-56976599D01*
X126421599Y-57055000D02*
X126500000Y-56976599D01*
X121580000Y-45080000D02*
X112060000Y-45080000D01*
X128879699Y-56976599D02*
X129000000Y-57096900D01*
X108370000Y-46230000D02*
X110910000Y-46230000D01*
X124225149Y-57055000D02*
X123394476Y-57055000D01*
X185055500Y-52000000D02*
X183500000Y-52000000D01*
X125666888Y-65286066D02*
X125055822Y-64675000D01*
X139614000Y-59750000D02*
X140750000Y-59750000D01*
X124225149Y-67215000D02*
X126215000Y-67215000D01*
X124225149Y-67215000D02*
X125285000Y-67215000D01*
X125285000Y-67215000D02*
X125666888Y-66833112D01*
X183500000Y-52000000D02*
X179000000Y-56500000D01*
X111944500Y-79500000D02*
X113000000Y-79500000D01*
X125666888Y-66833112D02*
X125666888Y-65286066D01*
X126325000Y-64675000D02*
X126500000Y-64500000D01*
X126215000Y-67215000D02*
X126500000Y-67500000D01*
X124225149Y-64675000D02*
X126325000Y-64675000D01*
X125055822Y-64675000D02*
X124225149Y-64675000D01*
X159471511Y-89000000D02*
X159471511Y-94028489D01*
X139694500Y-64500000D02*
X141250000Y-64500000D01*
X142028489Y-87711835D02*
X142624115Y-88307461D01*
X161000000Y-87466369D02*
X161000000Y-87783868D01*
X184096104Y-89091789D02*
X184123062Y-89091789D01*
X152097157Y-89179577D02*
X152124115Y-89179577D01*
X184177967Y-71721511D02*
X190027967Y-71721511D01*
X184123062Y-88219673D02*
X184096104Y-89091789D01*
X181998947Y-89998947D02*
X182000000Y-90000000D01*
X176624115Y-88219673D02*
X176597157Y-89091789D01*
X142597157Y-89179577D02*
X142624115Y-89179577D01*
X113500000Y-87466369D02*
X113500000Y-87783868D01*
X133097157Y-89179577D02*
X133124115Y-89179577D01*
X111971511Y-89000000D02*
X111971511Y-89471511D01*
X183679577Y-60402843D02*
X183679577Y-60375885D01*
X181894336Y-70471511D02*
X181899478Y-70471511D01*
X176028489Y-87306548D02*
X176028489Y-87311690D01*
X182807461Y-60375885D02*
X183679577Y-60402843D01*
X121500000Y-88927967D02*
X121500000Y-89399478D01*
X178303737Y-95414931D02*
X178278489Y-95440179D01*
X114068668Y-89251610D02*
X114095626Y-89251610D01*
X183427967Y-81500000D02*
X183899478Y-81500000D01*
X183899478Y-62500000D02*
X184177967Y-62221511D01*
X183527436Y-87306548D02*
X183527436Y-87624047D01*
X142624115Y-88307461D02*
X142597157Y-89179577D01*
X174500000Y-88840179D02*
X174500000Y-89926492D01*
X174500000Y-88840179D02*
X174500000Y-89311690D01*
X123028489Y-87394336D02*
X123028489Y-87711835D01*
X152124115Y-88307461D02*
X152097157Y-89179577D01*
X151528489Y-87394336D02*
X151528489Y-87711835D01*
X161000000Y-87783868D02*
X161595626Y-88379494D01*
X182807461Y-69875885D02*
X183679577Y-69902843D01*
X159471511Y-94028489D02*
X158500000Y-95000000D01*
X151528489Y-87394336D02*
X151528489Y-87399478D01*
X133124115Y-88307461D02*
X133097157Y-89179577D01*
X176028489Y-87306548D02*
X176028489Y-87624047D01*
X140500000Y-88927967D02*
X140500000Y-89399478D01*
X183427967Y-62500000D02*
X183899478Y-62500000D01*
X123028489Y-87394336D02*
X123028489Y-87399478D01*
X168528489Y-87466369D02*
X168528489Y-87783868D01*
X150000000Y-89399478D02*
X150278489Y-89677967D01*
X142028489Y-87394336D02*
X142028489Y-87399478D01*
X112250000Y-89750000D02*
X112250000Y-95600000D01*
X113500000Y-87783868D02*
X114095626Y-88379494D01*
X167000000Y-89000000D02*
X167000000Y-90500000D01*
X182211835Y-79971511D02*
X182807461Y-79375885D01*
X183899478Y-72000000D02*
X184177967Y-71721511D01*
X178001053Y-95162743D02*
X178278489Y-95440179D01*
X123028489Y-87711835D02*
X123624115Y-88307461D01*
X113500000Y-87466369D02*
X113500000Y-87471511D01*
X131278489Y-89677967D02*
X131278489Y-95527967D01*
X181894336Y-60971511D02*
X182211835Y-60971511D01*
X181998947Y-88840179D02*
X181998947Y-89998947D01*
X161568668Y-89251610D02*
X161595626Y-89251610D01*
X131000000Y-88927967D02*
X131000000Y-89399478D01*
X132528489Y-87711835D02*
X133124115Y-88307461D01*
X140778489Y-89677967D02*
X140778489Y-95527967D01*
X183527436Y-87624047D02*
X184123062Y-88219673D01*
X111971511Y-89471511D02*
X112250000Y-89750000D01*
X121500000Y-89399478D02*
X121778489Y-89677967D01*
X184177967Y-62221511D02*
X190027967Y-62221511D01*
X123624115Y-88307461D02*
X123597157Y-89179577D01*
X131000000Y-89399478D02*
X131278489Y-89677967D01*
X169097157Y-89251610D02*
X169124115Y-89251610D01*
X183679577Y-69902843D02*
X183679577Y-69875885D01*
X182211835Y-60971511D02*
X182807461Y-60375885D01*
X176028489Y-87624047D02*
X176624115Y-88219673D01*
X183679577Y-79402843D02*
X183679577Y-79375885D01*
X114095626Y-88379494D02*
X114068668Y-89251610D01*
X169124115Y-88379494D02*
X169097157Y-89251610D01*
X168528489Y-87466369D02*
X168528489Y-87471511D01*
X182211835Y-70471511D02*
X182807461Y-69875885D01*
X123597157Y-89179577D02*
X123624115Y-89179577D01*
X132528489Y-87394336D02*
X132528489Y-87711835D01*
X174500000Y-89926492D02*
X174251915Y-90174577D01*
X176597157Y-89091789D02*
X176624115Y-89091789D01*
X150278489Y-89677967D02*
X150278489Y-95527967D01*
X121778489Y-89677967D02*
X121778489Y-95527967D01*
X132528489Y-87394336D02*
X132528489Y-87399478D01*
X142028489Y-87394336D02*
X142028489Y-87711835D01*
X181894336Y-79971511D02*
X181899478Y-79971511D01*
X161595626Y-88379494D02*
X161568668Y-89251610D01*
X181894336Y-70471511D02*
X182211835Y-70471511D01*
X183427967Y-72000000D02*
X183899478Y-72000000D01*
X161000000Y-87466369D02*
X161000000Y-87471511D01*
X181894336Y-60971511D02*
X181899478Y-60971511D01*
X151528489Y-87711835D02*
X152124115Y-88307461D01*
X181894336Y-79971511D02*
X182211835Y-79971511D01*
X182807461Y-79375885D02*
X183679577Y-79402843D01*
X140500000Y-89399478D02*
X140778489Y-89677967D01*
X150000000Y-88927967D02*
X150000000Y-89399478D01*
X183899478Y-81500000D02*
X184177967Y-81221511D01*
X184177967Y-81221511D02*
X190027967Y-81221511D01*
X183527436Y-87306548D02*
X183527436Y-87311690D01*
X168528489Y-87783868D02*
X169124115Y-88379494D01*
X115472564Y-92318589D02*
X115472564Y-89001053D01*
X115471511Y-89000000D02*
X115471511Y-88572033D01*
X115472564Y-92318589D02*
X115472564Y-95322564D01*
X115471511Y-88572033D02*
X114451928Y-87552450D01*
X115472564Y-89001053D02*
X115471511Y-89000000D01*
X115472564Y-95322564D02*
X115750000Y-95600000D01*
X115775248Y-95574752D02*
X115750000Y-95600000D01*
X125001053Y-95351053D02*
X125250000Y-95600000D01*
X125000000Y-88927967D02*
X125000000Y-88500000D01*
X125001053Y-92246556D02*
X125001053Y-95351053D01*
X125001053Y-88929020D02*
X125001053Y-92246556D01*
X125000000Y-88927967D02*
X125001053Y-88929020D01*
X125000000Y-88500000D02*
X123980417Y-87480417D01*
X125303737Y-95502719D02*
X125278489Y-95527967D01*
X125001053Y-95250531D02*
X125278489Y-95527967D01*
X134500000Y-88500000D02*
X133480417Y-87480417D01*
X134501053Y-88929020D02*
X134500000Y-88927967D01*
X134501053Y-95250531D02*
X134778489Y-95527967D01*
X134803737Y-95502719D02*
X134778489Y-95527967D01*
X134501053Y-92246556D02*
X134501053Y-95250531D01*
X134501053Y-92246556D02*
X134501053Y-88929020D01*
X134500000Y-88927967D02*
X134500000Y-88500000D01*
X144001053Y-95250531D02*
X144278489Y-95527967D01*
X144303737Y-95502719D02*
X144278489Y-95527967D01*
X144000000Y-88927967D02*
X144000000Y-88500000D01*
X144001053Y-92246556D02*
X144001053Y-95250531D01*
X144000000Y-88500000D02*
X142980417Y-87480417D01*
X144001053Y-92246556D02*
X144001053Y-88929020D01*
X144001053Y-88929020D02*
X144000000Y-88927967D01*
X153501053Y-88929020D02*
X153500000Y-88927967D01*
X153500000Y-88500000D02*
X152480417Y-87480417D01*
X153803737Y-95502719D02*
X153778489Y-95527967D01*
X153500000Y-88927967D02*
X153500000Y-88500000D01*
X153501053Y-92246556D02*
X153501053Y-95250531D01*
X153501053Y-95250531D02*
X153778489Y-95527967D01*
X153501053Y-92246556D02*
X153501053Y-88929020D01*
X162972564Y-92318589D02*
X162972564Y-89001053D01*
X171350000Y-97000000D02*
X172750000Y-95600000D01*
X165884467Y-97000000D02*
X171350000Y-97000000D01*
X162971511Y-89000000D02*
X162971511Y-88572033D01*
X162972564Y-92318589D02*
X162972564Y-94088097D01*
X162972564Y-89001053D02*
X162971511Y-89000000D01*
X162971511Y-88572033D02*
X161951928Y-87552450D01*
X162972564Y-94088097D02*
X165884467Y-97000000D01*
X110620301Y-56976599D02*
X110500000Y-57096900D01*
X114774851Y-58325000D02*
X114774851Y-57055000D01*
X111635000Y-62135000D02*
X110500000Y-61000000D01*
X112500000Y-56976599D02*
X110620301Y-56976599D01*
X112578401Y-57055000D02*
X112500000Y-56976599D01*
X111635000Y-62135000D02*
X114774851Y-62135000D01*
X114774851Y-57055000D02*
X112578401Y-57055000D01*
X110500000Y-61000000D02*
X110500000Y-57096900D01*
X113705777Y-56023401D02*
X112500000Y-56023401D01*
X111903100Y-55903100D02*
X110500000Y-55903100D01*
X113944178Y-55785000D02*
X113705777Y-56023401D01*
X116285000Y-55785000D02*
X117000000Y-56500000D01*
X114774851Y-55785000D02*
X116285000Y-55785000D01*
X112023401Y-56023401D02*
X111903100Y-55903100D01*
X116635000Y-60865000D02*
X117000000Y-60500000D01*
X114774851Y-60865000D02*
X116635000Y-60865000D01*
X112500000Y-56023401D02*
X112023401Y-56023401D01*
X117000000Y-60500000D02*
X117000000Y-56500000D01*
X114774851Y-55785000D02*
X113944178Y-55785000D01*
X112000000Y-70000000D02*
X112500000Y-69500000D01*
X112500000Y-69500000D02*
X112500000Y-68012000D01*
X106910599Y-61592399D02*
X108225000Y-62906800D01*
X113062242Y-65945000D02*
X114774851Y-65945000D01*
X115605524Y-64675000D02*
X114774851Y-64675000D01*
X108225000Y-64406800D02*
X110173200Y-66355000D01*
X116015524Y-64265000D02*
X115605524Y-64675000D01*
X104823590Y-60067400D02*
X106348589Y-61592399D01*
X117446800Y-64265000D02*
X116015524Y-64265000D01*
X117326800Y-66355000D02*
X117880222Y-65801578D01*
X112652242Y-66355000D02*
X113062242Y-65945000D01*
X106348589Y-61592399D02*
X106910599Y-61592399D01*
X117880222Y-64698422D02*
X117446800Y-64265000D01*
X108225000Y-62906800D02*
X108225000Y-64406800D01*
X115605524Y-65945000D02*
X116015524Y-66355000D01*
X114774851Y-65945000D02*
X115605524Y-65945000D01*
X117880222Y-65801578D02*
X117880222Y-64698422D01*
X110173200Y-66355000D02*
X111500000Y-66355000D01*
X116015524Y-66355000D02*
X117326800Y-66355000D01*
X111500000Y-66355000D02*
X112652242Y-66355000D01*
X116015524Y-63815000D02*
X115605524Y-63405000D01*
X112652242Y-66805000D02*
X113062242Y-67215000D01*
X104823590Y-63567400D02*
X106348589Y-62042401D01*
X107775000Y-64593200D02*
X109986800Y-66805000D01*
X115605524Y-63405000D02*
X114774851Y-63405000D01*
X113062242Y-67215000D02*
X114774851Y-67215000D01*
X115605524Y-67215000D02*
X116015524Y-66805000D01*
X107775000Y-63093200D02*
X107775000Y-64593200D01*
X118330222Y-65987978D02*
X118330222Y-64512022D01*
X117513200Y-66805000D02*
X118330222Y-65987978D01*
X106348589Y-62042401D02*
X106724201Y-62042401D01*
X117633200Y-63815000D02*
X116015524Y-63815000D01*
X109986800Y-66805000D02*
X112652242Y-66805000D01*
X118330222Y-64512022D02*
X117633200Y-63815000D01*
X114774851Y-67215000D02*
X115605524Y-67215000D01*
X106724201Y-62042401D02*
X107775000Y-63093200D01*
X116015524Y-66805000D02*
X117513200Y-66805000D01*
X190176410Y-48231910D02*
X190176410Y-49432600D01*
X185944500Y-44000000D02*
X190176410Y-48231910D01*
X111055500Y-72500000D02*
X105390990Y-72500000D01*
X105390990Y-72500000D02*
X104823590Y-73067400D01*
X114322109Y-86327369D02*
X114451928Y-86197550D01*
X113500000Y-86327369D02*
X114322109Y-86327369D01*
X188200531Y-80198947D02*
X188427967Y-79971511D01*
X183527436Y-93840179D02*
X184527436Y-93840179D01*
X109000000Y-86500000D02*
X105256190Y-86500000D01*
X135500000Y-65203900D02*
X136203900Y-64500000D01*
X132301053Y-93196556D02*
X132301053Y-93700531D01*
X141801053Y-93700531D02*
X142028489Y-93927967D01*
X175801053Y-93108768D02*
X175801053Y-93612743D01*
X187696556Y-61198947D02*
X188200531Y-61198947D01*
X132528489Y-93927967D02*
X133528489Y-93927967D01*
X107565990Y-73825000D02*
X104823590Y-76567400D01*
X122801053Y-93196556D02*
X122801053Y-93700531D01*
X183300000Y-93612743D02*
X183527436Y-93840179D01*
X188427967Y-60971511D02*
X188427967Y-59971511D01*
X160772564Y-92450000D02*
X160772564Y-93772564D01*
X135500000Y-65250000D02*
X135500000Y-65203900D01*
X187696556Y-80198947D02*
X188200531Y-80198947D01*
X171500000Y-94000000D02*
X168528489Y-94000000D01*
X151301053Y-93196556D02*
X151301053Y-93700531D01*
X175801053Y-93612743D02*
X176028489Y-93840179D01*
X142028489Y-93927967D02*
X143028489Y-93927967D01*
X105256190Y-86500000D02*
X104823590Y-86067400D01*
X122801053Y-93700531D02*
X123028489Y-93927967D01*
X187696556Y-70698947D02*
X188200531Y-70698947D01*
X176028489Y-93840179D02*
X177028489Y-93840179D01*
X188200531Y-61198947D02*
X188427967Y-60971511D01*
X113272564Y-93268589D02*
X113272564Y-93772564D01*
X113500000Y-94000000D02*
X114500000Y-94000000D01*
X188200531Y-70698947D02*
X188427967Y-70471511D01*
X188427967Y-79971511D02*
X188427967Y-78971511D01*
X183825000Y-45825000D02*
X183500000Y-45500000D01*
X141801053Y-93196556D02*
X141801053Y-93700531D01*
X168528489Y-94000000D02*
X168301053Y-93772564D01*
X160772564Y-93772564D02*
X161000000Y-94000000D01*
X184865000Y-45825000D02*
X183825000Y-45825000D01*
X151528489Y-93927967D02*
X152528489Y-93927967D01*
X151301053Y-93700531D02*
X151528489Y-93927967D01*
X132301053Y-93700531D02*
X132528489Y-93927967D01*
X183300000Y-93108768D02*
X183300000Y-93612743D01*
X168301053Y-93772564D02*
X168301053Y-93268589D01*
X113272564Y-93772564D02*
X113500000Y-94000000D01*
X188427967Y-70471511D02*
X188427967Y-69471511D01*
X123028489Y-93927967D02*
X124028489Y-93927967D01*
X161000000Y-94000000D02*
X162000000Y-94000000D01*
X110865000Y-73825000D02*
X107565990Y-73825000D01*
X170501053Y-92318589D02*
X173559400Y-92318589D01*
X178190811Y-96950000D02*
X181140179Y-96950000D01*
X170501053Y-92318589D02*
X170501053Y-89001053D01*
X170500000Y-89000000D02*
X170500000Y-88572033D01*
X173559400Y-92318589D02*
X178190811Y-96950000D01*
X181140179Y-96950000D02*
X182250000Y-95840179D01*
X170500000Y-88572033D02*
X169480417Y-87552450D01*
X170501053Y-89001053D02*
X170500000Y-89000000D01*
X180082464Y-94240179D02*
X183361750Y-94240179D01*
X178001053Y-88841232D02*
X178000000Y-88840179D01*
X178000000Y-88412212D02*
X176980417Y-87392629D01*
X183361750Y-94240179D02*
X186071571Y-96950000D01*
X190400000Y-96950000D02*
X191750000Y-95600000D01*
X186071571Y-96950000D02*
X190400000Y-96950000D01*
X178001053Y-92158768D02*
X180082464Y-94240179D01*
X178000000Y-88840179D02*
X178000000Y-88412212D01*
X178001053Y-92158768D02*
X178001053Y-88841232D01*
X188509821Y-88840179D02*
X190100000Y-87250000D01*
X185498947Y-88412212D02*
X184479364Y-87392629D01*
X185500000Y-88841232D02*
X185498947Y-88840179D01*
X185498947Y-88840179D02*
X188509821Y-88840179D01*
X185498947Y-88840179D02*
X185498947Y-88412212D01*
X185500000Y-92158768D02*
X185500000Y-88841232D01*
X186746556Y-77998947D02*
X189750531Y-77998947D01*
X183427967Y-78000000D02*
X183000000Y-78000000D01*
X183429020Y-77998947D02*
X183427967Y-78000000D01*
X181552450Y-79019583D02*
X182408384Y-79019583D01*
X189750531Y-77998947D02*
X190027967Y-77721511D01*
X190002719Y-77696263D02*
X190027967Y-77721511D01*
X186746556Y-77998947D02*
X183429020Y-77998947D01*
X182408384Y-79019583D02*
X183427967Y-78000000D01*
X186746556Y-68498947D02*
X183429020Y-68498947D01*
X183427967Y-68500000D02*
X183000000Y-68500000D01*
X181552450Y-69519583D02*
X182408384Y-69519583D01*
X189750531Y-68498947D02*
X190027967Y-68221511D01*
X182408384Y-69519583D02*
X183427967Y-68500000D01*
X186746556Y-68498947D02*
X189750531Y-68498947D01*
X190002719Y-68196263D02*
X190027967Y-68221511D01*
X183429020Y-68498947D02*
X183427967Y-68500000D01*
X190002719Y-58696263D02*
X190027967Y-58721511D01*
X183427967Y-59000000D02*
X183000000Y-59000000D01*
X181552450Y-60000000D02*
X182427967Y-60000000D01*
X182427967Y-60000000D02*
X183427967Y-59000000D01*
X186746556Y-58998947D02*
X189750531Y-58998947D01*
X189750531Y-58998947D02*
X190027967Y-58721511D01*
X183429020Y-58998947D02*
X183427967Y-59000000D01*
X186746556Y-58998947D02*
X183429020Y-58998947D01*
X111500000Y-87216369D02*
X112262500Y-87216369D01*
X113272564Y-88676053D02*
X113272564Y-91368589D01*
X112262500Y-87216369D02*
X112500000Y-87453869D01*
X112500000Y-87453869D02*
X112500000Y-87903489D01*
X112500000Y-87903489D02*
X113272564Y-88676053D01*
X123850598Y-86255336D02*
X123980417Y-86125517D01*
X123028489Y-86255336D02*
X123850598Y-86255336D01*
X133350598Y-86255336D02*
X133480417Y-86125517D01*
X132528489Y-86255336D02*
X133350598Y-86255336D01*
X142028489Y-86255336D02*
X142850598Y-86255336D01*
X142850598Y-86255336D02*
X142980417Y-86125517D01*
X152350598Y-86255336D02*
X152480417Y-86125517D01*
X151528489Y-86255336D02*
X152350598Y-86255336D01*
X161822109Y-86327369D02*
X161951928Y-86197550D01*
X161000000Y-86327369D02*
X161822109Y-86327369D01*
X169350598Y-86327369D02*
X169480417Y-86197550D01*
X168528489Y-86327369D02*
X169350598Y-86327369D01*
X176028489Y-86167548D02*
X176850598Y-86167548D01*
X176850598Y-86167548D02*
X176980417Y-86037729D01*
X183527436Y-86167548D02*
X184349545Y-86167548D01*
X184349545Y-86167548D02*
X184479364Y-86037729D01*
X180447550Y-79413725D02*
X181005336Y-79971511D01*
X180447550Y-79019583D02*
X180447550Y-79413725D01*
X181005336Y-70471511D02*
X180447550Y-69913725D01*
X180447550Y-69913725D02*
X180447550Y-69519583D01*
X180447550Y-60000000D02*
X180447550Y-60413725D01*
X180447550Y-60413725D02*
X181005336Y-60971511D01*
X122028489Y-87131836D02*
X122028489Y-87601836D01*
X122028489Y-87601836D02*
X122801053Y-88374400D01*
X122015989Y-87144336D02*
X122028489Y-87131836D01*
X121028489Y-87144336D02*
X122015989Y-87144336D01*
X122801053Y-88374400D02*
X122801053Y-91296556D01*
X130528489Y-87144336D02*
X131515989Y-87144336D01*
X132301053Y-91296556D02*
X132301053Y-88604020D01*
X131528489Y-87831456D02*
X131528489Y-87381836D01*
X131515989Y-87144336D02*
X131528489Y-87131836D01*
X131515989Y-87394336D02*
X131528489Y-87381836D01*
X132301053Y-88604020D02*
X131528489Y-87831456D01*
X141801053Y-88604020D02*
X141028489Y-87831456D01*
X141801053Y-91296556D02*
X141801053Y-88604020D01*
X141028489Y-87831456D02*
X141028489Y-87381836D01*
X141015989Y-87144336D02*
X141028489Y-87131836D01*
X140028489Y-87144336D02*
X141015989Y-87144336D01*
X141015989Y-87394336D02*
X141028489Y-87381836D01*
X151301053Y-91296556D02*
X151301053Y-88604020D01*
X150528489Y-87831456D02*
X150528489Y-87381836D01*
X151301053Y-88604020D02*
X150528489Y-87831456D01*
X150515989Y-87144336D02*
X150528489Y-87131836D01*
X149528489Y-87144336D02*
X150515989Y-87144336D01*
X150515989Y-87394336D02*
X150528489Y-87381836D01*
X159000000Y-87216369D02*
X159987500Y-87216369D01*
X160772564Y-88676053D02*
X160000000Y-87903489D01*
X159987500Y-87216369D02*
X160000000Y-87203869D01*
X160000000Y-87903489D02*
X160000000Y-87453869D01*
X160772564Y-88676053D02*
X160772564Y-90550000D01*
X159987500Y-87466369D02*
X160000000Y-87453869D01*
X166528489Y-87216369D02*
X167515989Y-87216369D01*
X168301053Y-88676053D02*
X167528489Y-87903489D01*
X167528489Y-87903489D02*
X167528489Y-87453869D01*
X167515989Y-87216369D02*
X167528489Y-87203869D01*
X167515989Y-87466369D02*
X167528489Y-87453869D01*
X168301053Y-91368589D02*
X168301053Y-88676053D01*
X175015989Y-87306548D02*
X175028489Y-87294048D01*
X175801053Y-88516232D02*
X175028489Y-87743668D01*
X175015989Y-87056548D02*
X175028489Y-87044048D01*
X175801053Y-91208768D02*
X175801053Y-88516232D01*
X175028489Y-87743668D02*
X175028489Y-87294048D01*
X174028489Y-87056548D02*
X175015989Y-87056548D01*
X182514936Y-87056548D02*
X182527436Y-87044048D01*
X182527436Y-87743668D02*
X182527436Y-87294048D01*
X183300000Y-91208768D02*
X183300000Y-88516232D01*
X182514936Y-87306548D02*
X182527436Y-87294048D01*
X181527436Y-87056548D02*
X182514936Y-87056548D01*
X183300000Y-88516232D02*
X182527436Y-87743668D01*
X185796556Y-80198947D02*
X183104020Y-80198947D01*
X183104020Y-80198947D02*
X182331456Y-80971511D01*
X182331456Y-80971511D02*
X181881836Y-80971511D01*
X181894336Y-81971511D02*
X181894336Y-80984011D01*
X181894336Y-80984011D02*
X181881836Y-80971511D01*
X181894336Y-71484011D02*
X181881836Y-71471511D01*
X181894336Y-72471511D02*
X181894336Y-71484011D01*
X185796556Y-70698947D02*
X183104020Y-70698947D01*
X183104020Y-70698947D02*
X182331456Y-71471511D01*
X182331456Y-71471511D02*
X181881836Y-71471511D01*
X181894336Y-62971511D02*
X181894336Y-61984011D01*
X182331456Y-61971511D02*
X181881836Y-61971511D01*
X185796556Y-61198947D02*
X183104020Y-61198947D01*
X181894336Y-61984011D02*
X181881836Y-61971511D01*
X183104020Y-61198947D02*
X182331456Y-61971511D01*
X111944500Y-73634500D02*
X112135000Y-73825000D01*
X111944500Y-72500000D02*
X111944500Y-73634500D01*
X185055500Y-44745500D02*
X186135000Y-45825000D01*
X185055500Y-44000000D02*
X185055500Y-44745500D01*
X137296100Y-59750000D02*
X138750000Y-59750000D01*
X137296100Y-62250000D02*
X138691200Y-62250000D01*
X138805500Y-64500000D02*
X137296100Y-64500000D01*
G04 #@! TA.AperFunction,Conductor*
G36*
X110943039Y-54769685D02*
G01*
X110988794Y-54822489D01*
X111000000Y-54874000D01*
X111000000Y-54923500D01*
X110980315Y-54990539D01*
X110927511Y-55036294D01*
X110876000Y-55047500D01*
X110750000Y-55047500D01*
X110750000Y-56029100D01*
X110730315Y-56096139D01*
X110677511Y-56141894D01*
X110626000Y-56153100D01*
X109644400Y-56153100D01*
X109644400Y-56306541D01*
X109650444Y-56362743D01*
X109638040Y-56431503D01*
X109590430Y-56482641D01*
X109527155Y-56500000D01*
X107500000Y-56500000D01*
X107500000Y-56626000D01*
X107480315Y-56693039D01*
X107427511Y-56738794D01*
X107376000Y-56750000D01*
X107250000Y-56750000D01*
X107250000Y-58126000D01*
X107230315Y-58193039D01*
X107177511Y-58238794D01*
X107126000Y-58250000D01*
X103124000Y-58250000D01*
X103056961Y-58230315D01*
X103011206Y-58177511D01*
X103000000Y-58126000D01*
X103000000Y-56567393D01*
X103468060Y-56567393D01*
X103468060Y-56567404D01*
X103486547Y-56790508D01*
X103541506Y-57007539D01*
X103631434Y-57212554D01*
X103631436Y-57212558D01*
X103707875Y-57329558D01*
X104261507Y-56775926D01*
X104267367Y-56797794D01*
X104345951Y-56933904D01*
X104457085Y-57045038D01*
X104593195Y-57123622D01*
X104615060Y-57129480D01*
X104059778Y-57684762D01*
X104059779Y-57684763D01*
X104082182Y-57702201D01*
X104082189Y-57702205D01*
X104279073Y-57808753D01*
X104279087Y-57808759D01*
X104490823Y-57881449D01*
X104711652Y-57918299D01*
X104935528Y-57918299D01*
X105156356Y-57881449D01*
X105368092Y-57808759D01*
X105368101Y-57808756D01*
X105564996Y-57702201D01*
X105564999Y-57702199D01*
X105587400Y-57684763D01*
X105587400Y-57684762D01*
X105032119Y-57129480D01*
X105053985Y-57123622D01*
X105190095Y-57045038D01*
X105301229Y-56933904D01*
X105379813Y-56797794D01*
X105385671Y-56775927D01*
X105939304Y-57329559D01*
X106015743Y-57212559D01*
X106105673Y-57007539D01*
X106160632Y-56790508D01*
X106179120Y-56567404D01*
X106179120Y-56567393D01*
X106160632Y-56344289D01*
X106105673Y-56127258D01*
X106015743Y-55922238D01*
X105939303Y-55805238D01*
X105385671Y-56358869D01*
X105379813Y-56337004D01*
X105301229Y-56200894D01*
X105190095Y-56089760D01*
X105053985Y-56011176D01*
X105032118Y-56005317D01*
X105537780Y-55499655D01*
X109644400Y-55499655D01*
X109644400Y-55653100D01*
X110250000Y-55653100D01*
X110250000Y-55047500D01*
X110096555Y-55047500D01*
X110037027Y-55053901D01*
X110037020Y-55053903D01*
X109902313Y-55104145D01*
X109902306Y-55104149D01*
X109787212Y-55190309D01*
X109787209Y-55190312D01*
X109701049Y-55305406D01*
X109701045Y-55305413D01*
X109650803Y-55440120D01*
X109650801Y-55440127D01*
X109644400Y-55499655D01*
X105537780Y-55499655D01*
X105587400Y-55450035D01*
X105587399Y-55450033D01*
X105564997Y-55432597D01*
X105564991Y-55432592D01*
X105368106Y-55326044D01*
X105368092Y-55326038D01*
X105156356Y-55253348D01*
X104935528Y-55216499D01*
X104711652Y-55216499D01*
X104490823Y-55253348D01*
X104279087Y-55326038D01*
X104279073Y-55326044D01*
X104082189Y-55432592D01*
X104082187Y-55432593D01*
X104059779Y-55450034D01*
X104615061Y-56005316D01*
X104593195Y-56011176D01*
X104457085Y-56089760D01*
X104345951Y-56200894D01*
X104267367Y-56337004D01*
X104261507Y-56358870D01*
X103707875Y-55805238D01*
X103631435Y-55922241D01*
X103631434Y-55922243D01*
X103541506Y-56127258D01*
X103486547Y-56344289D01*
X103468060Y-56567393D01*
X103000000Y-56567393D01*
X103000000Y-54874000D01*
X103019685Y-54806961D01*
X103072489Y-54761206D01*
X103124000Y-54750000D01*
X107500000Y-54750000D01*
X110876000Y-54750000D01*
X110943039Y-54769685D01*
G37*
G04 #@! TD.AperFunction*
M02*
