G04 #@! TF.GenerationSoftware,KiCad,Pcbnew,8.0.4*
G04 #@! TF.CreationDate,2024-09-09T22:35:46-05:00*
G04 #@! TF.ProjectId,TPM-IO-BOARD,54504d2d-494f-42d4-924f-4152442e6b69,rev?*
G04 #@! TF.SameCoordinates,Original*
G04 #@! TF.FileFunction,Copper,L4,Bot*
G04 #@! TF.FilePolarity,Positive*
%FSLAX46Y46*%
G04 Gerber Fmt 4.6, Leading zero omitted, Abs format (unit mm)*
G04 Created by KiCad (PCBNEW 8.0.4) date 2024-09-09 22:35:46*
%MOMM*%
%LPD*%
G01*
G04 APERTURE LIST*
G04 #@! TA.AperFunction,ComponentPad*
%ADD10C,1.524000*%
G04 #@! TD*
G04 #@! TA.AperFunction,ComponentPad*
%ADD11C,1.371600*%
G04 #@! TD*
G04 #@! TA.AperFunction,ComponentPad*
%ADD12C,2.100000*%
G04 #@! TD*
G04 #@! TA.AperFunction,ComponentPad*
%ADD13C,1.701800*%
G04 #@! TD*
G04 #@! TA.AperFunction,ComponentPad*
%ADD14R,1.700000X1.700000*%
G04 #@! TD*
G04 #@! TA.AperFunction,ComponentPad*
%ADD15O,1.700000X1.700000*%
G04 #@! TD*
G04 #@! TA.AperFunction,ViaPad*
%ADD16C,0.900000*%
G04 #@! TD*
G04 #@! TA.AperFunction,Conductor*
%ADD17C,0.200000*%
G04 #@! TD*
G04 APERTURE END LIST*
D10*
X114540000Y-70000000D03*
X112000000Y-70000000D03*
D11*
X168166750Y-60000000D03*
X173166750Y-60000000D03*
D12*
X188250000Y-95600000D03*
X191750000Y-95600000D03*
X178750000Y-95600000D03*
X182250000Y-95600000D03*
X190100000Y-62250000D03*
X190100000Y-58750000D03*
D13*
X104823590Y-56567399D03*
X104823590Y-60067400D03*
X104823590Y-63567400D03*
D12*
X131250000Y-95600000D03*
X134750000Y-95600000D03*
X121750000Y-95600000D03*
X125250000Y-95600000D03*
D11*
X168166750Y-48500000D03*
X173166750Y-48500000D03*
D12*
X190100000Y-90750000D03*
X190100000Y-87250000D03*
D11*
X168166750Y-71750000D03*
X173166750Y-71750000D03*
D13*
X104823590Y-69567399D03*
X104823590Y-73067400D03*
X104823590Y-76567400D03*
D12*
X190100000Y-81250000D03*
X190100000Y-77750000D03*
X150250000Y-95600000D03*
X153750000Y-95600000D03*
X169250000Y-95600000D03*
X172750000Y-95600000D03*
X140750000Y-95600000D03*
X144250000Y-95600000D03*
X190100000Y-71750000D03*
X190100000Y-68250000D03*
D13*
X190176410Y-52932601D03*
X190176410Y-49432600D03*
X190176410Y-45932600D03*
D12*
X104900000Y-82750000D03*
X104900000Y-86250000D03*
X112250000Y-95600000D03*
X115750000Y-95600000D03*
D14*
X108370000Y-48770000D03*
D15*
X108370000Y-46230000D03*
X110910000Y-48770000D03*
X110910000Y-46230000D03*
X113450000Y-48770000D03*
X113450000Y-46230000D03*
X115990000Y-48770000D03*
X115990000Y-46230000D03*
X118530000Y-48770000D03*
X118530000Y-46230000D03*
X121070000Y-48770000D03*
X121070000Y-46230000D03*
X123610000Y-48770000D03*
X123610000Y-46230000D03*
X126150000Y-48770000D03*
X126150000Y-46230000D03*
X128690000Y-48770000D03*
X128690000Y-46230000D03*
X131230000Y-48770000D03*
X131230000Y-46230000D03*
X133770000Y-48770000D03*
X133770000Y-46230000D03*
X136310000Y-48770000D03*
X136310000Y-46230000D03*
X138850000Y-48770000D03*
X138850000Y-46230000D03*
X141390000Y-48770000D03*
X141390000Y-46230000D03*
X143930000Y-48770000D03*
X143930000Y-46230000D03*
X146470000Y-48770000D03*
X146470000Y-46230000D03*
X149010000Y-48770000D03*
X149010000Y-46230000D03*
X151550000Y-48770000D03*
X151550000Y-46230000D03*
X154090000Y-48770000D03*
X154090000Y-46230000D03*
X156630000Y-48770000D03*
X156630000Y-46230000D03*
D16*
X111500000Y-85500000D03*
X179927967Y-81971511D03*
X166528489Y-85500000D03*
X111000000Y-77000000D03*
X140028489Y-85427967D03*
X179927967Y-62971511D03*
X135250000Y-59750000D03*
X179927967Y-72471511D03*
X121028489Y-85427967D03*
X128500000Y-55000000D03*
X110500000Y-84500000D03*
X174028489Y-85340179D03*
X184000000Y-50175000D03*
X181527436Y-85340179D03*
X159000000Y-85500000D03*
X149528489Y-85427967D03*
X126500000Y-61000000D03*
X130528489Y-85427967D03*
X135250000Y-62250000D03*
X126500000Y-62000000D03*
X122035146Y-84984518D03*
X119000000Y-85500000D03*
X131535146Y-84984518D03*
X141035146Y-84984518D03*
X142000000Y-83500000D03*
X160000000Y-85000000D03*
X167000000Y-84500000D03*
X172000000Y-84000000D03*
X177500000Y-84500000D03*
X179500000Y-80500000D03*
X172000000Y-78250000D03*
X178500000Y-62000000D03*
X185750000Y-53750000D03*
X140750000Y-59750000D03*
X126500000Y-64500000D03*
X179000000Y-56500000D03*
X113000000Y-79500000D03*
X126500000Y-67500000D03*
X158500000Y-95000000D03*
X146000000Y-94000000D03*
X142597157Y-89179577D03*
X169097157Y-89251610D03*
X114068668Y-89251610D03*
X184096104Y-89091789D03*
X176597157Y-89091789D03*
X183679577Y-69902843D03*
X123597157Y-89179577D03*
X174251915Y-90174577D03*
X152097157Y-89179577D03*
X183679577Y-79402843D03*
X182000000Y-90000000D03*
X133097157Y-89179577D03*
X161568668Y-89251610D03*
X167000000Y-90500000D03*
X183679577Y-60402843D03*
X141250000Y-64500000D03*
X117580222Y-65436627D03*
X114500000Y-94000000D03*
X145000000Y-93500000D03*
X171500000Y-94000000D03*
X184527436Y-93840179D03*
X188427967Y-69471511D03*
X124028489Y-93927967D03*
X135500000Y-65250000D03*
X188427967Y-59971511D03*
X152528489Y-93927967D03*
X188427967Y-78971511D03*
X177028489Y-93840179D03*
X133528489Y-93927967D03*
X143028489Y-93927967D03*
X162000000Y-94000000D03*
X183500000Y-45500000D03*
D17*
X122035146Y-84984518D02*
X122035146Y-49735146D01*
X122035146Y-49735146D02*
X121070000Y-48770000D01*
X119680000Y-47620000D02*
X119680000Y-84820000D01*
X119680000Y-84820000D02*
X119000000Y-85500000D01*
X121070000Y-46230000D02*
X119680000Y-47620000D01*
X131535146Y-84984518D02*
X131535146Y-56695146D01*
X131535146Y-56695146D02*
X123610000Y-48770000D01*
X141035146Y-84984518D02*
X133000000Y-76949372D01*
X127300000Y-50300000D02*
X127300000Y-47380000D01*
X133000000Y-56000000D02*
X127300000Y-50300000D01*
X133000000Y-76949372D02*
X133000000Y-56000000D01*
X127300000Y-47380000D02*
X126150000Y-46230000D01*
X134500000Y-76000000D02*
X134500000Y-53666346D01*
X130000000Y-49166346D02*
X130000000Y-47540000D01*
X130000000Y-47540000D02*
X128690000Y-46230000D01*
X142000000Y-83500000D02*
X134500000Y-76000000D01*
X134500000Y-53666346D02*
X130000000Y-49166346D01*
X159310661Y-84750000D02*
X150750000Y-84750000D01*
X150750000Y-84750000D02*
X143930000Y-77930000D01*
X160000000Y-85000000D02*
X159560661Y-85000000D01*
X143930000Y-77930000D02*
X143930000Y-48770000D01*
X159560661Y-85000000D02*
X159310661Y-84750000D01*
X151500000Y-84250000D02*
X146470000Y-79220000D01*
X160310661Y-84250000D02*
X151500000Y-84250000D01*
X160560661Y-84500000D02*
X160310661Y-84250000D01*
X146470000Y-79220000D02*
X146470000Y-48770000D01*
X167000000Y-84500000D02*
X160560661Y-84500000D01*
X172000000Y-84000000D02*
X167560661Y-84000000D01*
X167310661Y-83750000D02*
X152250000Y-83750000D01*
X152250000Y-83750000D02*
X147620000Y-79120000D01*
X167560661Y-84000000D02*
X167310661Y-83750000D01*
X147620000Y-79120000D02*
X147620000Y-47380000D01*
X147620000Y-47380000D02*
X146470000Y-46230000D01*
X153000000Y-83250000D02*
X149010000Y-79260000D01*
X149010000Y-79260000D02*
X149010000Y-48770000D01*
X172560661Y-84500000D02*
X172750000Y-84310661D01*
X177500000Y-84500000D02*
X172560661Y-84500000D01*
X172750000Y-83689339D02*
X172310661Y-83250000D01*
X172310661Y-83250000D02*
X153000000Y-83250000D01*
X172750000Y-84310661D02*
X172750000Y-83689339D01*
X154500000Y-80500000D02*
X151550000Y-77550000D01*
X151550000Y-77550000D02*
X151550000Y-48770000D01*
X179500000Y-80500000D02*
X154500000Y-80500000D01*
X152700000Y-75950000D02*
X152700000Y-47380000D01*
X172000000Y-78250000D02*
X155000000Y-78250000D01*
X152700000Y-47380000D02*
X151550000Y-46230000D01*
X155000000Y-78250000D02*
X152700000Y-75950000D01*
X154090000Y-73590000D02*
X154090000Y-48770000D01*
X178500000Y-62000000D02*
X178500000Y-70625000D01*
X178500000Y-70625000D02*
X172375000Y-76750000D01*
X172375000Y-76750000D02*
X157250000Y-76750000D01*
X157250000Y-76750000D02*
X154090000Y-73590000D01*
X155480000Y-47620000D02*
X155480000Y-73230000D01*
X177250000Y-59750000D02*
X183250000Y-53750000D01*
X158500000Y-76250000D02*
X172000000Y-76250000D01*
X172000000Y-76250000D02*
X177250000Y-71000000D01*
X183250000Y-53750000D02*
X185750000Y-53750000D01*
X154090000Y-46230000D02*
X155480000Y-47620000D01*
X177250000Y-71000000D02*
X177250000Y-59750000D01*
X155480000Y-73230000D02*
X158500000Y-76250000D01*
X146000000Y-82500000D02*
X146000000Y-94000000D01*
X142500000Y-79000000D02*
X146000000Y-82500000D01*
X141250000Y-64500000D02*
X142500000Y-65750000D01*
X146000000Y-94000000D02*
X145750000Y-93750000D01*
X142500000Y-65750000D02*
X142500000Y-79000000D01*
X114540000Y-70000000D02*
X114540000Y-68476849D01*
X114540000Y-68476849D02*
X117580222Y-65436627D01*
X135500000Y-65250000D02*
X135500000Y-74500000D01*
X145000000Y-84000000D02*
X145000000Y-93500000D01*
X143750000Y-82750000D02*
X145000000Y-84000000D01*
X135500000Y-74500000D02*
X143750000Y-82750000D01*
M02*
