M48
; DRILL file {KiCad 8.0.4} date 2024-09-09T22:35:54-0500
; FORMAT={-:-/ absolute / inch / decimal}
; #@! TF.CreationDate,2024-09-09T22:35:54-05:00
; #@! TF.GenerationSoftware,Kicad,Pcbnew,8.0.4
; #@! TF.FileFunction,Plated,1,4,PTH
FMAT,2
INCH
; #@! TA.AperFunction,Plated,PTH,ViaDrill
T1C0.0236
; #@! TA.AperFunction,Plated,PTH,ComponentDrill
T2C0.0340
; #@! TA.AperFunction,Plated,PTH,ComponentDrill
T3C0.0394
; #@! TA.AperFunction,Plated,PTH,ComponentDrill
T4C0.0400
; #@! TA.AperFunction,Plated,PTH,ComponentDrill
T5C0.0470
; #@! TA.AperFunction,Plated,PTH,ComponentDrill
T6C0.0551
%
G90
G05
T1
X4.3504Y-3.3268
X4.3701Y-3.0315
X4.3898Y-3.3661
X4.4488Y-3.1299
X4.4909Y-3.5138
X4.5079Y-3.7008
X4.6291Y-2.5762
X4.685Y-3.3661
X4.7649Y-3.3633
X4.8045Y-3.3458
X4.866Y-3.511
X4.883Y-3.698
X4.9803Y-2.4016
X4.9803Y-2.4409
X4.9803Y-2.5394
X4.9803Y-2.6575
X5.0591Y-2.1654
X5.1389Y-3.3633
X5.1785Y-3.3458
X5.24Y-3.511
X5.257Y-3.698
X5.3248Y-2.3524
X5.3248Y-2.4508
X5.3346Y-2.5689
X5.5129Y-3.3633
X5.5413Y-2.3524
X5.5526Y-3.3458
X5.561Y-2.5394
X5.5906Y-3.2874
X5.6141Y-3.511
X5.631Y-3.698
X5.7087Y-3.6811
X5.748Y-3.7008
X5.8869Y-3.3633
X5.9881Y-3.511
X6.0051Y-3.698
X6.2402Y-3.7402
X6.2598Y-3.3661
X6.2992Y-3.3465
X6.361Y-3.5138
X6.378Y-3.7008
X6.5562Y-3.3661
X6.5748Y-3.3268
X6.5748Y-3.563
X6.6574Y-3.5138
X6.752Y-3.7008
X6.7717Y-3.0807
X6.7717Y-3.3071
X6.8515Y-3.3598
X6.8603Y-3.5502
X6.9526Y-3.5076
X6.9696Y-3.6945
X6.9882Y-3.3268
X7.0276Y-2.4409
X7.0472Y-2.2244
X7.0669Y-3.1693
X7.0838Y-2.4792
X7.0838Y-2.8532
X7.0838Y-3.2272
X7.1467Y-3.3598
X7.1654Y-3.5433
X7.2244Y-1.7913
X7.2315Y-2.3781
X7.2315Y-2.7521
X7.2315Y-3.1261
X7.2441Y-1.9754
X7.2479Y-3.5076
X7.2649Y-3.6945
X7.313Y-2.1161
X7.4184Y-2.3611
X7.4184Y-2.7351
X7.4184Y-3.1091
T2
X6.6207Y-1.9094
X6.6207Y-2.3622
X6.6207Y-2.8248
X6.8176Y-1.9094
X6.8176Y-2.3622
X6.8176Y-2.8248
T3
X4.2665Y-1.8201
X4.2665Y-1.9201
X4.3665Y-1.8201
X4.3665Y-1.9201
X4.4665Y-1.8201
X4.4665Y-1.9201
X4.5665Y-1.8201
X4.5665Y-1.9201
X4.6665Y-1.8201
X4.6665Y-1.9201
X4.7665Y-1.8201
X4.7665Y-1.9201
X4.8665Y-1.8201
X4.8665Y-1.9201
X4.9665Y-1.8201
X4.9665Y-1.9201
X5.0665Y-1.8201
X5.0665Y-1.9201
X5.1665Y-1.8201
X5.1665Y-1.9201
X5.2665Y-1.8201
X5.2665Y-1.9201
X5.3665Y-1.8201
X5.3665Y-1.9201
X5.4665Y-1.8201
X5.4665Y-1.9201
X5.5665Y-1.8201
X5.5665Y-1.9201
X5.6665Y-1.8201
X5.6665Y-1.9201
X5.7665Y-1.8201
X5.7665Y-1.9201
X5.8665Y-1.8201
X5.8665Y-1.9201
X5.9665Y-1.8201
X5.9665Y-1.9201
X6.0665Y-1.8201
X6.0665Y-1.9201
X6.1665Y-1.8201
X6.1665Y-1.9201
T4
X4.4094Y-2.7559
X4.5094Y-2.7559
T5
X4.1269Y-2.2271
X4.1269Y-2.3649
X4.1269Y-2.5027
X4.1269Y-2.7389
X4.1269Y-2.8767
X4.1269Y-3.0145
X7.4873Y-1.8084
X7.4873Y-1.9462
X7.4873Y-2.084
T6
X4.1299Y-3.2579
X4.1299Y-3.3957
X4.4193Y-3.7638
X4.5571Y-3.7638
X4.7933Y-3.7638
X4.9311Y-3.7638
X5.1673Y-3.7638
X5.3051Y-3.7638
X5.5413Y-3.7638
X5.6791Y-3.7638
X5.9154Y-3.7638
X6.0531Y-3.7638
X6.6634Y-3.7638
X6.8012Y-3.7638
X7.0374Y-3.7638
X7.1752Y-3.7638
X7.4114Y-3.7638
X7.4843Y-2.313
X7.4843Y-2.4508
X7.4843Y-2.687
X7.4843Y-2.8248
X7.4843Y-3.061
X7.4843Y-3.1988
X7.4843Y-3.435
X7.4843Y-3.5728
X7.5492Y-3.7638
M30
